pitch,vel,dur,db(lab),db(audi),duration(lab),duration(audi),db(lab) - db(audi),dur(lab) - dur(audi)
21,1,0.1,57.680687,57.6475,0.18,0.14,0.033187,0.04
22,1,0.1,63.76532,57.209625,0.32,0.13,6.555695,0.19
23,1,0.1,63.0112,54.889183,0.22,0.11,8.122017,0.11
24,1,0.1,61.09427,58.237354,0.19,0.12,2.856916,0.07
25,1,0.1,60.258423,54.54801,0.25,0.11,5.710413,0.14
26,1,0.1,58.95478,56.19795,0.11,0.11,2.75683,0
27,1,0.1,60.486862,58.70566,0.29,0.11,1.781202,0.18
28,1,0.1,61.7928,58.807564,0.34,0.13,2.985236,0.21
29,1,0.1,61.53897,45.47396,0.24,0.11,16.06501,0.13
30,1,0.1,58.710735,56.73605,0.29,0.12,1.974685,0.17
31,1,0.1,61.759335,61.174515,0.29,0.16,0.58482,0.13
32,1,0.1,59.74369,58.667862,0.22,0.11,1.075828,0.11
33,1,0.1,61.948105,55.308136,0.22,0.11,6.639969,0.11
34,1,0.1,63.011642,56.300106,0.34,0.12,6.711536,0.22
35,1,0.1,60.433575,58.480766,0.26,0.11,1.952809,0.15
36,1,0.1,59.03321,49.512512,0.18,0.11,9.520698,0.07
37,1,0.1,56.46448,58.50732,0.14,0.13,-2.04284,0.01
38,1,0.1,53.154552,54.7001,0.13,0.11,-1.545548,0.02
39,1,0.1,58.378876,55.712254,0.2,0.11,2.666622,0.09
40,1,0.1,62.835136,55.88788,0.3,0.11,6.947256,0.19
41,1,0.1,61.588272,51.15674,0.17,0.11,10.431532,0.06
42,1,0.1,56.652985,56.510452,0.22,0.15,0.142533,0.07
43,1,0.1,61.857204,51.78884,0.28,0.11,10.068364,0.17
44,1,0.1,58.6808,58.706146,0.24,0.14,-0.025346,0.1
45,1,0.1,59.811653,53.88579,0.18,0.12,5.925863,0.06
46,1,0.1,56.640507,52.738884,0.25,0.11,3.901623,0.14
47,1,0.1,58.67915,55.17615,0.25,0.11,3.503,0.14
48,1,0.1,57.42623,58.015728,0.19,0.12,-0.589498,0.07
49,1,0.1,58.390762,54.259148,0.21,0.11,4.131614,0.1
50,1,0.1,57.479248,59.308975,0.19,0.12,-1.829727,0.07
51,1,0.1,65.213806,57.50264,0.32,0.12,7.711166,0.2
52,1,0.1,68.076294,60.748363,0.28,0.14,7.327931,0.14
53,1,0.1,68.72826,53.14044,0.25,0.11,15.58782,0.14
54,1,0.1,64.075134,57.513325,0.26,0.12,6.561809,0.14
55,1,0.1,68.359116,55.981037,0.36,0.11,12.378079,0.25
56,1,0.1,63.976223,57.77729,0.2,0.12,6.198933,0.08
57,1,0.1,61.949516,59.01895,0.21,0.13,2.930566,0.08
58,1,0.1,56.404884,55.812027,0.2,0.14,0.592857,0.06
59,1,0.1,57.249588,55.79689,0.3,0.13,1.452698,0.17
60,1,0.1,55.667816,57.712624,0.25,0.12,-2.044808,0.13
61,1,0.1,59.4143,55.20311,0.23,0.13,4.21119,0.1
62,1,0.1,59.600147,54.1571,0.25,0.11,5.443047,0.14
63,1,0.1,61.99114,46.28609,0.24,0.11,15.70505,0.13
64,1,0.1,64.21608,50.184574,0.27,0.11,14.031506,0.16
65,1,0.1,59.634857,51.436356,0.23,0.13,8.198501,0.1
66,1,0.1,54.672916,48.819206,0.26,0.11,5.85371,0.15
67,1,0.1,60.180363,50.807945,0.23,0.11,9.372418,0.12
68,1,0.1,59.529324,45.184227,0.26,0.11,14.345097,0.15
69,1,0.1,57.64379,53.176426,0.22,0.16,4.467364,0.06
70,1,0.1,57.141914,47.332893,0.12,0.11,9.809021,0.01
71,1,0.1,56.346153,54.20099,0.22,0.13,2.145163,0.09
72,1,0.1,61.213264,49.97361,0.25,0.11,11.239654,0.14
73,1,0.1,61.308563,55.374092,0.25,0.11,5.934471,0.14
74,1,0.1,65.00334,52.864464,0.26,0.16,12.138876,0.1
75,1,0.1,55.838203,57.0492,0.22,0.26,-1.210997,-0.04
76,1,0.1,49.821007,51.684216,0.11,0.11,-1.863209,0
77,1,0.1,53.916264,52.32399,0.23,0.14,1.592274,0.09
78,1,0.1,49.847187,50.26866,0.12,0.2,-0.421473,-0.08
79,1,0.1,51.491104,50.60713,0.26,0.14,0.883974,0.12
80,1,0.1,52.479225,50.473164,0.21,0.11,2.006061,0.1
81,1,0.1,53.329067,44.381577,0.25,0.11,8.94749,0.14
82,1,0.1,52.269287,42.62233,0.11,0.11,9.646957,0
83,1,0.1,52.03925,49.02236,0.11,0.11,3.01689,0
84,1,0.1,49.814156,44.28177,0.11,0.11,5.532386,0
85,1,0.1,51.046783,43.91661,0.11,0.11,7.130173,0
86,1,0.1,51.048805,44.073288,0.11,0.11,6.975517,0
87,1,0.1,48.950165,46.332462,0.11,0.11,2.617703,0
88,1,0.1,50.67587,45.131092,0.11,0.11,5.544778,0
89,1,0.1,49.62996,42.425285,0.11,0.11,7.204675,0
90,1,0.1,48.98378,47.645077,0.11,0.11,1.338703,0
91,1,0.1,45.195484,47.243187,0.11,0.11,-2.047703,0
92,1,0.1,43.836136,47.672127,0.11,0.11,-3.835991,0
93,1,0.1,45.509914,46.257126,0.11,0.11,-0.747212,0
94,1,0.1,47.387596,48.182083,0.11,0.11,-0.794487,0
95,1,0.1,47.01892,47.516216,0.11,0.11,-0.497296,0
96,1,0.1,46.374603,51.773727,0.11,0.11,-5.399124,0
97,1,0.1,49.53513,54.007923,0.11,0.11,-4.472793,0
98,1,0.1,48.931656,54.74868,0.11,0.11,-5.817024,0
99,1,0.1,47.534523,53.561028,0.11,0.11,-6.026505,0
100,1,0.1,48.03542,54.05275,0.11,0.11,-6.01733,0
101,1,0.1,49.86847,49.95591,0.11,0.11,-0.08744,0
102,1,0.1,51.811394,50.58763,0.11,0.11,1.223764,0
103,1,0.1,47.22654,48.94359,0.11,0.11,-1.71705,0
104,1,0.1,47.928062,51.29742,0.11,0.11,-3.369358,0
105,1,0.1,48.554974,49.31443,0.11,0.11,-0.759456,0
106,1,0.1,48.038788,49.37315,0.11,0.11,-1.334362,0
107,1,0.1,49.255104,50.635456,0.11,0.11,-1.380352,0
108,1,0.1,44.665062,52.15996,0.11,0.11,-7.494898,0
21,1,0.3,58.68474,57.866905,0.39,0.13,0.817835,0.26
22,1,0.3,60.244,56.082222,0.39,0.12,4.161778,0.27
23,1,0.3,57.96686,58.73312,0.38,0.11,-0.76626,0.27
24,1,0.3,60.642597,58.394234,0.4,0.2,2.248363,0.2
25,1,0.3,60.2316,54.940903,0.48,0.11,5.290697,0.37
26,1,0.3,55.32125,54.414474,0.19,0.13,0.906776,0.06
27,1,0.3,58.06861,57.72741,0.41,0.12,0.3412,0.29
28,1,0.3,60.297153,59.084984,0.39,0.12,1.212169,0.27
29,1,0.3,59.667866,44.86855,0.39,0.11,14.799316,0.28
30,1,0.3,57.61075,56.744984,0.28,0.12,0.865766,0.16
31,1,0.3,61.22078,60.510612,0.47,0.32,0.710168,0.15
32,1,0.3,60.612934,58.511017,0.37,0.11,2.101917,0.26
33,1,0.3,59.764572,53.34492,0.37,0.11,6.419652,0.26
34,1,0.3,62.68229,56.613865,0.39,0.17,6.068425,0.22
35,1,0.3,58.383293,58.60057,0.41,0.33,-0.217277,0.08
36,1,0.3,58.62659,38.97067,0.35,0.11,19.65592,0.24
37,1,0.3,57.52774,58.11058,0.13,0.34,-0.58284,-0.21
38,1,0.3,53.96302,54.5551,0.13,0.14,-0.59208,-0.01
39,1,0.3,57.033493,55.254078,0.38,0.21,1.779415,0.17
40,1,0.3,62.414238,54.297943,0.41,0.13,8.116295,0.28
41,1,0.3,58.61715,49.146904,0.38,0.11,9.470246,0.27
42,1,0.3,56.125782,55.85967,0.4,0.32,0.266112,0.08
43,1,0.3,60.000717,51.954678,0.4,0.12,8.046039,0.28
44,1,0.3,58.477592,56.87008,0.37,0.35,1.607512,0.02
45,1,0.3,58.970337,52.734146,0.37,0.11,6.236191,0.26
46,1,0.3,56.97379,50.9273,0.31,0.11,6.04649,0.2
47,1,0.3,58.054302,55.66993,0.42,0.31,2.384372,0.11
48,1,0.3,57.52733,58.7315,0.35,0.34,-1.20417,0.01
49,1,0.3,58.22718,51.197655,0.39,0.12,7.029525,0.27
50,1,0.3,57.850216,59.74487,0.32,0.34,-1.894654,-0.02
51,1,0.3,65.35866,58.64427,0.45,0.33,6.71439,0.12
52,1,0.3,67.67425,59.959286,0.4,0.32,7.714964,0.08
53,1,0.3,68.69303,54.026596,0.41,0.31,14.666434,0.1
54,1,0.3,64.12873,58.341827,0.41,0.34,5.786903,0.07
55,1,0.3,68.15655,57.094906,0.41,0.33,11.061644,0.08
56,1,0.3,62.624046,58.217087,0.38,0.33,4.406959,0.05
57,1,0.3,61.188065,58.641342,0.39,0.32,2.546723,0.07
58,1,0.3,55.819435,56.863102,0.4,0.33,-1.043667,0.07
59,1,0.3,55.79084,55.347267,0.4,0.32,0.443573,0.08
60,1,0.3,53.977043,58.065403,0.2,0.23,-4.08836,-0.03
61,1,0.3,59.92889,54.1772,0.35,0.29,5.75169,0.06
62,1,0.3,60.414032,54.63292,0.46,0.3,5.781112,0.16
63,1,0.3,62.3556,46.537186,0.44,0.11,15.818414,0.33
64,1,0.3,62.947273,49.877132,0.42,0.11,13.070141,0.31
65,1,0.3,60.042633,48.84738,0.39,0.11,11.195253,0.28
66,1,0.3,54.51023,50.100765,0.21,0.11,4.409465,0.1
67,1,0.3,60.454693,49.45214,0.43,0.11,11.002553,0.32
68,1,0.3,59.702827,44.242786,0.41,0.11,15.460041,0.3
69,1,0.3,56.67247,52.020958,0.28,0.11,4.651512,0.17
70,1,0.3,55.110035,45.83106,0.11,0.11,9.278975,0
71,1,0.3,57.743027,55.218212,0.4,0.32,2.524815,0.08
72,1,0.3,60.93474,50.58806,0.44,0.11,10.34668,0.33
73,1,0.3,61.929432,55.14039,0.38,0.11,6.789042,0.27
74,1,0.3,65.747505,51.45142,0.45,0.2,14.296085,0.25
75,1,0.3,54.870583,56.511677,0.4,0.26,-1.641094,0.14
76,1,0.3,50.637558,52.93666,0.12,0.11,-2.299102,0.01
77,1,0.3,53.735447,52.55293,0.23,0.14,1.182517,0.09
78,1,0.3,49.724125,51.347507,0.12,0.21,-1.623382,-0.09
79,1,0.3,52.052822,51.220825,0.26,0.14,0.831997,0.12
80,1,0.3,51.49863,48.82193,0.2,0.11,2.6767,0.09
81,1,0.3,54.287365,48.20105,0.28,0.11,6.086315,0.17
82,1,0.3,52.191914,43.568516,0.11,0.11,8.623398,0
83,1,0.3,52.414886,49.53875,0.11,0.11,2.876136,0
84,1,0.3,50.69349,49.561184,0.11,0.11,1.132306,0
85,1,0.3,48.595192,48.93119,0.11,0.11,-0.335998,0
86,1,0.3,49.771942,44.265804,0.11,0.11,5.506138,0
87,1,0.3,45.180077,45.574753,0.11,0.11,-0.394676,0
88,1,0.3,44.70902,44.98053,0.11,0.11,-0.27151,0
89,1,0.3,45.714672,46.260853,0.11,0.11,-0.546181,0
90,1,0.3,49.119328,47.342392,0.11,0.11,1.776936,0
91,1,0.3,46.606262,46.181396,0.11,0.11,0.424866,0
92,1,0.3,46.96589,47.405384,0.11,0.11,-0.439494,0
93,1,0.3,49.82354,45.476826,0.11,0.11,4.346714,0
94,1,0.3,44.67405,48.307655,0.11,0.11,-3.633605,0
95,1,0.3,47.22945,48.720074,0.11,0.11,-1.490624,0
96,1,0.3,49.72462,51.553352,0.11,0.11,-1.828732,0
97,1,0.3,48.759808,54.143215,0.11,0.11,-5.383407,0
98,1,0.3,48.135956,54.80448,0.11,0.11,-6.668524,0
99,1,0.3,48.68897,53.890675,0.11,0.11,-5.201705,0
100,1,0.3,50.12722,54.005516,0.11,0.11,-3.878296,0
101,1,0.3,46.495506,50.156155,0.11,0.11,-3.660649,0
102,1,0.3,49.527206,50.632122,0.11,0.11,-1.104916,0
103,1,0.3,44.7837,47.981323,0.11,0.11,-3.197623,0
104,1,0.3,50.03395,50.22911,0.11,0.11,-0.19516,0
105,1,0.3,51.350266,50.05014,0.11,0.11,1.300126,0
106,1,0.3,48.40363,51.134033,0.11,0.11,-2.730403,0
107,1,0.3,46.104317,50.742954,0.11,0.11,-4.638637,0
108,1,0.3,46.09455,50.634083,0.11,0.11,-4.539533,0
21,1,0.7,59.62681,57.345448,0.72,0.13,2.281362,0.59
22,1,0.7,59.49891,56.98685,0.8,0.12,2.51206,0.68
23,1,0.7,57.713203,54.477108,0.76,0.11,3.236095,0.65
24,1,0.7,59.996468,57.715244,0.46,0.2,2.281224,0.26
25,1,0.7,59.296997,55.0866,0.81,0.11,4.210397,0.7
26,1,0.7,55.628387,54.02117,0.11,0.13,1.607217,-0.02
27,1,0.7,58.079506,58.10966,0.61,0.12,-0.030154,0.49
28,1,0.7,60.845543,58.89321,0.75,0.12,1.952333,0.63
29,1,0.7,59.694756,44.702305,0.81,0.11,14.992451,0.7
30,1,0.7,58.36518,56.384247,0.3,0.12,1.980933,0.18
31,1,0.7,61.13683,60.93627,0.81,0.7,0.20056,0.11
32,1,0.7,59.203163,58.245842,0.77,0.11,0.957321,0.66
33,1,0.7,60.31656,55.03142,0.77,0.11,5.28514,0.66
34,1,0.7,62.19102,56.515877,0.78,0.12,5.675143,0.66
35,1,0.7,57.29294,58.71523,0.63,0.54,-1.42229,0.09
36,1,0.7,58.849697,41.404152,0.44,0.11,17.445545,0.33
37,1,0.7,57.37365,58.668663,0.12,0.73,-1.295013,-0.61
38,1,0.7,54.11309,53.488472,0.13,0.14,0.624618,-0.01
39,1,0.7,56.30335,54.86044,0.53,0.21,1.44291,0.32
40,1,0.7,62.062355,51.33538,0.72,0.11,10.726975,0.61
41,1,0.7,59.64164,50.37501,0.8,0.11,9.26663,0.69
42,1,0.7,55.932182,57.041653,0.76,0.62,-1.109471,0.14
43,1,0.7,59.93087,48.583405,0.56,0.11,11.347465,0.45
44,1,0.7,57.417263,56.966034,0.52,0.49,0.451229,0.03
45,1,0.7,60.36021,51.723152,0.77,0.11,8.637058,0.66
46,1,0.7,56.54371,52.933846,0.32,0.11,3.609864,0.21
47,1,0.7,59.242687,56.63023,0.74,0.48,2.612457,0.26
48,1,0.7,57.492527,57.92257,0.35,0.7,-0.430043,-0.35
49,1,0.7,58.75383,51.133995,0.48,0.12,7.619835,0.36
50,1,0.7,56.475636,58.940628,0.35,0.54,-2.464992,-0.19
51,1,0.7,65.31174,58.038322,0.76,0.63,7.273418,0.13
52,1,0.7,67.54512,59.40034,0.79,0.62,8.14478,0.17
53,1,0.7,68.51636,53.383644,0.79,0.33,15.132716,0.46
54,1,0.7,64.32788,57.45118,0.79,0.72,6.8767,0.07
55,1,0.7,68.33148,56.0828,0.72,0.71,12.24868,0.01
56,1,0.7,63.472515,57.33361,0.47,0.72,6.138905,-0.25
57,1,0.7,62.430206,57.929123,0.47,0.61,4.501083,-0.14
58,1,0.7,56.51762,56.072517,0.59,0.61,0.445103,-0.02
59,1,0.7,56.80062,54.61538,0.66,0.41,2.18524,0.25
60,1,0.7,54.83696,57.73627,0.3,0.23,-2.89931,0.07
61,1,0.7,60.262085,53.761616,0.36,0.25,6.500469,0.11
62,1,0.7,60.746296,52.981365,0.64,0.32,7.764931,0.32
63,1,0.7,61.895977,48.154648,0.54,0.11,13.741329,0.43
64,1,0.7,64.06708,49.078236,0.53,0.11,14.988844,0.42
65,1,0.7,59.430557,47.49857,0.45,0.11,11.931987,0.34
66,1,0.7,54.346157,51.02459,0.21,0.11,3.321567,0.1
67,1,0.7,59.925297,50.1036,0.68,0.11,9.821697,0.57
68,1,0.7,59.75814,41.707558,0.63,0.11,18.050582,0.52
69,1,0.7,56.149017,53.118164,0.29,0.11,3.030853,0.18
70,1,0.7,54.176872,46.24381,0.11,0.11,7.933062,0
71,1,0.7,57.07657,54.737907,0.4,0.32,2.338663,0.08
72,1,0.7,60.85553,51.68379,0.58,0.11,9.17174,0.47
73,1,0.7,61.679268,55.859734,0.38,0.11,5.819534,0.27
74,1,0.7,65.65849,51.54525,0.6,0.18,14.11324,0.42
75,1,0.7,56.3473,56.357956,0.49,0.26,-0.010656,0.23
76,1,0.7,52.47168,52.918247,0.12,0.11,-0.446567,0.01
77,1,0.7,53.68312,52.525486,0.22,0.13,1.157634,0.09
78,1,0.7,51.567802,52.38434,0.12,0.23,-0.816538,-0.11
79,1,0.7,51.106483,50.34276,0.26,0.14,0.763723,0.12
80,1,0.7,53.341797,47.96228,0.21,0.11,5.379517,0.1
81,1,0.7,54.15676,47.32894,0.28,0.11,6.82782,0.17
82,1,0.7,51.85888,44.17627,0.11,0.11,7.68261,0
83,1,0.7,52.39333,49.684143,0.11,0.11,2.709187,0
84,1,0.7,52.89344,41.952362,0.11,0.11,10.941078,0
85,1,0.7,51.680595,45.712418,0.11,0.11,5.968177,0
86,1,0.7,47.730583,43.761826,0.11,0.11,3.968757,0
87,1,0.7,47.01938,46.907787,0.11,0.11,0.111593,0
88,1,0.7,49.224987,45.998108,0.11,0.11,3.226879,0
89,1,0.7,49.324688,40.08151,0.11,0.11,9.243178,0
90,1,0.7,45.370544,46.099464,0.11,0.11,-0.72892,0
91,1,0.7,46.5374,51.933556,0.11,0.11,-5.396156,0
92,1,0.7,40.041447,47.09179,0.11,0.11,-7.050343,0
93,1,0.7,51.42988,45.03924,0.11,0.11,6.39064,0
94,1,0.7,47.42006,46.071186,0.11,0.11,1.348874,0
95,1,0.7,46.551952,51.96987,0.11,0.11,-5.417918,0
96,1,0.7,47.851562,52.281906,0.11,0.11,-4.430344,0
97,1,0.7,51.085136,54.152287,0.11,0.11,-3.067151,0
98,1,0.7,49.772575,54.67288,0.11,0.11,-4.900305,0
99,1,0.7,50.879086,53.906075,0.11,0.11,-3.026989,0
100,1,0.7,46.63845,53.851463,0.11,0.11,-7.213013,0
101,1,0.7,50.477135,50.128548,0.11,0.11,0.348587,0
102,1,0.7,50.424156,50.25189,0.11,0.11,0.172266,0
103,1,0.7,53.333176,50.2149,0.11,0.11,3.118276,0
104,1,0.7,48.59304,50.34762,0.11,0.11,-1.75458,0
105,1,0.7,51.06803,50.18123,0.11,0.11,0.8868,0
106,1,0.7,48.277576,50.894104,0.11,0.11,-2.616528,0
107,1,0.7,48.27118,49.992935,0.11,0.11,-1.721755,0
108,1,0.7,45.869087,51.198357,0.11,0.11,-5.32927,0
21,1,1,57.38634,57.469322,0.78,0.28,-0.082982,0.5
22,1,1,48.17145,55.975513,0.11,0.12,-7.804063,-0.01
23,1,1,59.385216,54.41554,0.74,0.12,4.969676,0.62
24,1,1,61.186626,58.230682,1.1,0.17,2.955944,0.93
25,1,1,60.522926,55.506138,1.12,0.11,5.016788,1.01
26,1,1,55.93694,54.795967,0.42,0.13,1.140973,0.29
27,1,1,58.42428,58.340748,0.51,0.12,0.083532,0.39
28,1,1,60.29771,59.2187,0.99,0.12,1.07901,0.87
29,1,1,60.318916,47.320713,1.08,0.11,12.998203,0.97
30,1,1,57.205547,56.646408,0.32,0.12,0.559139,0.2
31,1,1,50.80076,60.197895,0.11,0.66,-9.397135,-0.55
32,1,1,49.89285,57.97785,0.11,0.11,-8.085,0
33,1,1,60.289364,54.294758,0.96,0.11,5.994606,0.85
34,1,1,62.139732,56.94988,1.07,0.12,5.189852,0.95
35,1,1,58.23699,58.88087,0.66,0.54,-0.64388,0.12
36,1,1,58.6017,39.734768,0.44,0.11,18.866932,0.33
37,1,1,56.1443,58.714695,0.15,0.78,-2.570395,-0.63
38,1,1,53.717175,55.3731,0.13,0.22,-1.655925,-0.09
39,1,1,56.757874,55.323315,0.63,0.21,1.434559,0.42
40,1,1,62.160446,51.21809,0.77,0.11,10.942356,0.66
41,1,1,58.976994,50.065937,1.08,0.11,8.911057,0.97
42,1,1,55.334034,56.025204,0.77,0.6,-0.69117,0.17
43,1,1,60.767128,48.914833,0.7,0.11,11.852295,0.59
44,1,1,58.76788,57.379086,0.5,0.47,1.388794,0.03
45,1,1,60.58035,52.502823,0.9,0.11,8.077527,0.79
46,1,1,57.751358,53.720245,0.33,0.11,4.031113,0.22
47,1,1,58.640778,54.955414,0.7,0.41,3.685364,0.29
48,1,1,56.95036,58.803032,0.35,0.79,-1.852672,-0.44
49,1,1,58.99223,52.3432,0.53,0.21,6.64903,0.32
50,1,1,57.319492,59.54283,0.32,0.52,-2.223338,-0.2
51,1,1,65.314896,57.91406,0.73,0.63,7.400836,0.1
52,1,1,68.07916,59.51766,0.97,0.62,8.5615,0.35
53,1,1,68.75439,54.118324,1.08,0.32,14.636066,0.76
54,1,1,64.4888,57.377872,1.07,0.87,7.110928,0.2
55,1,1,68.34243,55.744743,0.81,0.84,12.597687,-0.03
56,1,1,63.497795,57.136356,0.49,1.01,6.361439,-0.52
57,1,1,61.930096,57.672497,0.45,0.62,4.257599,-0.17
58,1,1,56.281002,57.05792,0.6,0.63,-0.776918,-0.03
59,1,1,57.439514,55.192177,0.64,0.4,2.247337,0.24
60,1,1,54.997986,57.599392,0.29,0.23,-2.601406,0.06
61,1,1,59.422142,52.541794,0.37,0.26,6.880348,0.11
62,1,1,59.76909,54.55928,0.61,0.32,5.20981,0.29
63,1,1,62.29774,48.815773,0.55,0.11,13.481967,0.44
64,1,1,63.789562,50.64122,0.52,0.11,13.148342,0.41
65,1,1,59.713257,48.286724,0.41,0.11,11.426533,0.3
66,1,1,56.18018,48.54891,0.2,0.11,7.63127,0.09
67,1,1,60.407234,49.582367,0.72,0.11,10.824867,0.61
68,1,1,60.42412,41.90262,1.11,0.11,18.5215,1
69,1,1,57.674095,51.97777,0.28,0.11,5.696325,0.17
70,1,1,54.562622,44.54399,0.11,0.11,10.018632,0
71,1,1,56.975025,53.567524,0.41,0.32,3.407501,0.09
72,1,1,61.002617,51.758873,0.58,0.11,9.243744,0.47
73,1,1,62.229855,54.455097,0.37,0.11,7.774758,0.26
74,1,1,64.04959,51.9052,0.6,0.2,12.14439,0.4
75,1,1,58.24426,56.817005,0.48,0.26,1.427255,0.22
76,1,1,50.43273,53.19307,0.12,0.11,-2.76034,0.01
77,1,1,54.113598,52.69987,0.23,0.13,1.413728,0.1
78,1,1,50.514435,51.58692,0.12,0.23,-1.072485,-0.11
79,1,1,52.495045,51.29719,0.26,0.14,1.197855,0.12
80,1,1,52.71746,48.44716,0.21,0.11,4.2703,0.1
81,1,1,53.529938,45.867172,0.27,0.11,7.662766,0.16
82,1,1,51.026535,45.830555,0.11,0.11,5.19598,0
83,1,1,50.761383,49.54722,0.11,0.11,1.214163,0
84,1,1,51.206093,42.70045,0.11,0.11,8.505643,0
85,1,1,50.01227,44.9385,0.11,0.11,5.07377,0
86,1,1,46.794895,44.154247,0.11,0.11,2.640648,0
87,1,1,46.38674,46.653893,0.11,0.11,-0.267153,0
88,1,1,47.089333,47.765522,0.11,0.11,-0.676189,0
89,1,1,46.2573,42.61203,0.11,0.11,3.64527,0
90,1,1,47.552177,46.82658,0.11,0.11,0.725597,0
91,1,1,45.583244,49.619553,0.11,0.11,-4.036309,0
92,1,1,47.96608,47.993954,0.11,0.11,-0.027874,0
93,1,1,49.297832,45.15262,0.11,0.11,4.145212,0
94,1,1,46.72938,48.811745,0.11,0.11,-2.082365,0
95,1,1,47.905296,47.776737,0.11,0.11,0.128559,0
96,1,1,45.039444,52.3363,0.11,0.11,-7.296856,0
97,1,1,49.181656,54.258194,0.11,0.11,-5.076538,0
98,1,1,46.868782,54.719116,0.11,0.11,-7.850334,0
99,1,1,47.86694,54.53817,0.11,0.11,-6.67123,0
100,1,1,47.37539,53.973755,0.11,0.11,-6.598365,0
101,1,1,48.72048,49.880047,0.11,0.11,-1.159567,0
102,1,1,51.267895,49.817608,0.11,0.11,1.450287,0
103,1,1,46.632137,48.63945,0.11,0.11,-2.007313,0
104,1,1,49.126236,51.535515,0.11,0.11,-2.409279,0
105,1,1,48.352577,49.518402,0.11,0.11,-1.165825,0
106,1,1,49.56167,49.753326,0.11,0.11,-0.191656,0
107,1,1,47.503166,47.08773,0.11,0.11,0.415436,0
108,1,1,47.84915,51.47738,0.11,0.11,-3.62823,0
21,9,0.1,60.189724,57.057518,0.3,0.14,3.132206,0.16
22,9,0.1,49.399242,56.646317,0.11,0.11,-7.247075,0
23,9,0.1,58.402493,57.246346,0.19,0.13,1.156147,0.06
24,9,0.1,61.92558,58.341045,0.19,0.14,3.584535,0.05
25,9,0.1,59.72042,55.6579,0.25,0.11,4.06252,0.14
26,9,0.1,54.83477,54.531757,0.16,0.12,0.303013,0.04
27,9,0.1,58.239803,57.80821,0.17,0.13,0.431593,0.04
28,9,0.1,60.278816,59.44567,0.22,0.14,0.833146,0.08
29,9,0.1,58.52978,46.063843,0.19,0.11,12.465937,0.08
30,9,0.1,58.72517,56.758793,0.25,0.12,1.966377,0.13
31,9,0.1,51.77277,60.40779,0.12,0.15,-8.63502,-0.03
32,9,0.1,49.236336,57.875782,0.11,0.11,-8.639446,0
33,9,0.1,60.814762,54.18892,0.16,0.11,6.625842,0.05
34,9,0.1,62.878654,58.62286,0.28,0.12,4.255794,0.16
35,9,0.1,58.491604,58.02536,0.21,0.11,0.466244,0.1
36,9,0.1,59.041336,50.56744,0.19,0.11,8.473896,0.08
37,9,0.1,57.3245,58.763855,0.13,0.13,-1.439355,0
38,9,0.1,54.520782,54.818264,0.13,0.11,-0.297482,0.02
39,9,0.1,57.725906,55.477802,0.21,0.12,2.248104,0.09
40,9,0.1,62.41948,55.22536,0.22,0.11,7.19412,0.11
41,9,0.1,61.057648,50.43956,0.18,0.11,10.618088,0.07
42,9,0.1,57.41585,55.939877,0.23,0.12,1.475973,0.11
43,9,0.1,60.520725,47.80517,0.24,0.11,12.715555,0.13
44,9,0.1,57.251083,57.443497,0.2,0.14,-0.192414,0.06
45,9,0.1,61.157425,52.549553,0.22,0.11,8.607872,0.11
46,9,0.1,56.481342,51.815876,0.2,0.11,4.665466,0.09
47,9,0.1,58.648376,55.94883,0.21,0.11,2.699546,0.1
48,9,0.1,58.37544,57.93672,0.19,0.12,0.43872,0.07
49,9,0.1,59.78407,52.505768,0.24,0.11,7.278302,0.13
50,9,0.1,57.77623,59.534573,0.19,0.13,-1.758343,0.06
51,9,0.1,64.87612,58.49466,0.25,0.12,6.38146,0.13
52,9,0.1,68.34962,60.20945,0.21,0.14,8.14017,0.07
53,9,0.1,68.95444,53.39226,0.23,0.11,15.56218,0.12
54,9,0.1,64.12883,57.55034,0.21,0.12,6.57849,0.09
55,9,0.1,68.95733,55.840744,0.37,0.11,13.116586,0.26
56,9,0.1,63.52088,57.950443,0.2,0.11,5.570437,0.09
57,9,0.1,62.072166,57.934643,0.21,0.12,4.137523,0.09
58,9,0.1,56.131424,56.471508,0.22,0.13,-0.340084,0.09
59,9,0.1,55.457714,54.61213,0.29,0.13,0.845584,0.16
60,9,0.1,55.816174,57.033535,0.25,0.12,-1.217361,0.13
61,9,0.1,59.271385,53.55515,0.24,0.12,5.716235,0.12
62,9,0.1,60.10538,52.515526,0.26,0.11,7.589854,0.15
63,9,0.1,62.14321,46.036156,0.24,0.11,16.107054,0.13
64,9,0.1,63.408028,51.53128,0.24,0.11,11.876748,0.13
65,9,0.1,60.290157,51.508728,0.23,0.13,8.781429,0.1
66,9,0.1,56.35385,50.074596,0.17,0.11,6.279254,0.06
67,9,0.1,60.320465,49.249184,0.25,0.11,11.071281,0.14
68,9,0.1,60.09865,41.828438,0.25,0.11,18.270212,0.14
69,9,0.1,56.717243,52.493126,0.22,0.16,4.224117,0.06
70,9,0.1,56.77737,47.15073,0.12,0.11,9.62664,0.01
71,9,0.1,57.50133,53.674263,0.22,0.13,3.827067,0.09
72,9,0.1,60.58733,50.668533,0.25,0.11,9.918797,0.14
73,9,0.1,62.609184,55.15625,0.25,0.11,7.452934,0.14
74,9,0.1,63.237823,51.657166,0.26,0.13,11.580657,0.13
75,9,0.1,56.264603,56.0647,0.22,0.19,0.199903,0.03
76,9,0.1,50.571716,53.590763,0.12,0.11,-3.019047,0.01
77,9,0.1,53.599056,51.735256,0.23,0.14,1.8638,0.09
78,9,0.1,49.154564,52.55918,0.12,0.17,-3.404616,-0.05
79,9,0.1,52.596466,52.331413,0.26,0.14,0.265053,0.12
80,9,0.1,51.996895,48.567104,0.22,0.11,3.429791,0.11
81,9,0.1,55.034065,46.196075,0.25,0.11,8.83799,0.14
82,9,0.1,50.81916,44.311317,0.11,0.11,6.507843,0
83,9,0.1,49.994953,50.8502,0.11,0.11,-0.855247,0
84,9,0.1,54.07547,42.346806,0.11,0.11,11.728664,0
85,9,0.1,50.541542,43.315304,0.11,0.11,7.226238,0
86,9,0.1,48.70642,44.92409,0.11,0.11,3.78233,0
87,9,0.1,47.891525,46.596622,0.11,0.11,1.294903,0
88,9,0.1,51.17137,45.746414,0.11,0.11,5.424956,0
89,9,0.1,45.38765,43.40477,0.11,0.11,1.98288,0
90,9,0.1,48.41563,47.648243,0.11,0.11,0.767387,0
91,9,0.1,48.976734,47.865273,0.11,0.11,1.111461,0
92,9,0.1,59.165825,48.438786,0.11,0.11,10.727039,0
93,9,0.1,50.390343,47.595398,0.11,0.11,2.794945,0
94,9,0.1,47.793835,48.84245,0.11,0.11,-1.048615,0
95,9,0.1,48.600506,47.409164,0.11,0.11,1.191342,0
96,9,0.1,43.330692,51.878166,0.11,0.11,-8.547474,0
97,9,0.1,50.169453,54.11922,0.11,0.11,-3.949767,0
98,9,0.1,50.91861,54.502098,0.11,0.11,-3.583488,0
99,9,0.1,49.582916,54.02049,0.11,0.11,-4.437574,0
100,9,0.1,48.23465,54.102608,0.11,0.11,-5.867958,0
101,9,0.1,48.466953,50.255394,0.11,0.11,-1.788441,0
102,9,0.1,47.673557,50.743576,0.11,0.11,-3.070019,0
103,9,0.1,47.68439,49.638237,0.11,0.11,-1.953847,0
104,9,0.1,50.41005,51.748604,0.11,0.11,-1.338554,0
105,9,0.1,48.596863,49.194527,0.11,0.11,-0.597664,0
106,9,0.1,47.967377,50.804344,0.11,0.11,-2.836967,0
107,9,0.1,47.97357,50.424454,0.11,0.11,-2.450884,0
108,9,0.1,44.105953,50.923843,0.11,0.11,-6.81789,0
21,9,0.3,58.408295,56.767544,0.39,0.28,1.640751,0.11
22,9,0.3,60.104774,57.082745,0.39,0.12,3.022029,0.27
23,9,0.3,57.33686,54.90632,0.35,0.12,2.43054,0.23
24,9,0.3,60.883446,58.11934,0.37,0.17,2.764106,0.2
25,9,0.3,59.908314,55.557823,0.47,0.11,4.350491,0.36
26,9,0.3,55.15397,53.71973,0.38,0.13,1.43424,0.25
27,9,0.3,57.446915,58.68332,0.39,0.12,-1.236405,0.27
28,9,0.3,60.718666,59.1523,0.41,0.19,1.566366,0.22
29,9,0.3,59.52037,42.380646,0.37,0.11,17.139724,0.26
30,9,0.3,57.854183,55.841618,0.28,0.12,2.012565,0.16
31,9,0.3,61.18734,60.672916,0.47,0.32,0.514424,0.15
32,9,0.3,60.33506,58.03663,0.41,0.11,2.29843,0.3
33,9,0.3,61.28485,53.777817,0.39,0.11,7.507033,0.28
34,9,0.3,62.017334,56.588757,0.39,0.27,5.428577,0.12
35,9,0.3,59.07681,58.290627,0.41,0.33,0.786183,0.08
36,9,0.3,58.239204,43.09443,0.35,0.11,15.144774,0.24
37,9,0.3,57.60211,58.536766,0.23,0.34,-0.934656,-0.11
38,9,0.3,53.608894,56.081654,0.12,0.23,-2.47276,-0.11
39,9,0.3,58.044518,54.85351,0.38,0.21,3.191008,0.17
40,9,0.3,62.535892,51.638336,0.4,0.11,10.897556,0.29
41,9,0.3,59.9677,50.01602,0.38,0.11,9.95168,0.27
42,9,0.3,55.738,55.95034,0.41,0.32,-0.21234,0.09
43,9,0.3,60.453247,49.683247,0.43,0.11,10.77,0.32
44,9,0.3,57.88569,56.687325,0.38,0.36,1.198365,0.02
45,9,0.3,61.120216,52.13522,0.37,0.11,8.984996,0.26
46,9,0.3,57.85646,51.39518,0.35,0.11,6.46128,0.24
47,9,0.3,58.456947,55.128582,0.42,0.31,3.328365,0.11
48,9,0.3,57.731884,57.3168,0.38,0.33,0.415084,0.05
49,9,0.3,58.653717,52.11419,0.38,0.12,6.539527,0.26
50,9,0.3,57.2143,58.68408,0.36,0.32,-1.46978,0.04
51,9,0.3,65.89188,57.58624,0.44,0.33,8.30564,0.11
52,9,0.3,68.08089,59.485767,0.4,0.31,8.595123,0.09
53,9,0.3,68.02588,53.70099,0.41,0.3,14.32489,0.11
54,9,0.3,64.25714,57.40413,0.41,0.34,6.85301,0.07
55,9,0.3,68.120674,56.510036,0.4,0.33,11.610638,0.07
56,9,0.3,63.265926,57.50421,0.38,0.33,5.761716,0.05
57,9,0.3,62.304142,58.304523,0.39,0.32,3.999619,0.07
58,9,0.3,56.753544,55.94968,0.4,0.33,0.803864,0.07
59,9,0.3,53.07478,53.907574,0.4,0.32,-0.832794,0.08
60,9,0.3,54.991947,56.84719,0.3,0.22,-1.855243,0.08
61,9,0.3,59.595215,53.444027,0.36,0.24,6.151188,0.12
62,9,0.3,60.476448,53.500465,0.46,0.29,6.975983,0.17
63,9,0.3,62.48645,47.1166,0.44,0.11,15.36985,0.33
64,9,0.3,63.551086,50.47648,0.42,0.11,13.074606,0.31
65,9,0.3,59.547253,48.596664,0.39,0.12,10.950589,0.27
66,9,0.3,55.79494,50.313507,0.21,0.11,5.481433,0.1
67,9,0.3,61.56284,48.992287,0.43,0.11,12.570553,0.32
68,9,0.3,59.572037,43.19161,0.41,0.11,16.380427,0.3
69,9,0.3,57.763145,51.942078,0.29,0.11,5.821067,0.18
70,9,0.3,54.059044,48.254436,0.12,0.11,5.804608,0.01
71,9,0.3,57.883682,53.695824,0.4,0.31,4.187858,0.09
72,9,0.3,60.56434,51.489365,0.44,0.11,9.074975,0.33
73,9,0.3,62.68561,55.579372,0.38,0.11,7.106238,0.27
74,9,0.3,64.56876,52.345573,0.45,0.19,12.223187,0.26
75,9,0.3,58.21586,57.216694,0.4,0.26,0.999166,0.14
76,9,0.3,51.534744,52.93387,0.12,0.11,-1.399126,0.01
77,9,0.3,53.88382,52.874622,0.22,0.14,1.009198,0.08
78,9,0.3,48.581596,52.029236,0.19,0.21,-3.44764,-0.02
79,9,0.3,52.719555,51.378098,0.27,0.14,1.341457,0.13
80,9,0.3,52.56049,48.043205,0.21,0.11,4.517285,0.1
81,9,0.3,53.42086,46.94127,0.27,0.11,6.47959,0.16
82,9,0.3,50.677315,43.704895,0.11,0.11,6.97242,0
83,9,0.3,49.657486,49.98166,0.11,0.11,-0.324174,0
84,9,0.3,52.04094,49.593643,0.11,0.11,2.447297,0
85,9,0.3,48.77536,46.385006,0.11,0.11,2.390354,0
86,9,0.3,48.57786,44.75308,0.11,0.11,3.82478,0
87,9,0.3,47.889164,45.083275,0.11,0.11,2.805889,0
88,9,0.3,46.469006,46.96412,0.11,0.11,-0.495114,0
89,9,0.3,48.905834,45.56828,0.11,0.11,3.337554,0
90,9,0.3,46.6873,46.168774,0.11,0.11,0.518526,0
91,9,0.3,45.346474,48.23779,0.11,0.11,-2.891316,0
92,9,0.3,48.431744,48.94194,0.11,0.11,-0.510196,0
93,9,0.3,49.2821,47.11969,0.11,0.11,2.16241,0
94,9,0.3,42.359512,47.728374,0.11,0.11,-5.368862,0
95,9,0.3,46.335434,47.8512,0.11,0.11,-1.515766,0
96,9,0.3,49.308537,51.769424,0.11,0.11,-2.460887,0
97,9,0.3,48.851536,54.018585,0.11,0.11,-5.167049,0
98,9,0.3,43.60936,54.41547,0.11,0.11,-10.80611,0
99,9,0.3,50.250076,54.441315,0.11,0.11,-4.191239,0
100,9,0.3,48.25011,54.876236,0.11,0.11,-6.626126,0
101,9,0.3,46.694897,49.995018,0.11,0.11,-3.300121,0
102,9,0.3,49.62652,54.77229,0.11,0.11,-5.14577,0
103,9,0.3,49.095055,51.319256,0.11,0.11,-2.224201,0
104,9,0.3,49.527412,51.16183,0.11,0.11,-1.634418,0
105,9,0.3,49.18442,50.105423,0.11,0.11,-0.921003,0
106,9,0.3,48.727737,50.770355,0.11,0.11,-2.042618,0
107,9,0.3,48.65985,50.829216,0.11,0.11,-2.169366,0
108,9,0.3,47.753838,50.995705,0.11,0.11,-3.241867,0
21,9,0.7,58.79971,57.638077,0.72,0.28,1.161633,0.44
22,9,0.7,60.45547,56.201305,0.72,0.12,4.254165,0.6
23,9,0.7,57.88756,54.42509,0.35,0.12,3.46247,0.23
24,9,0.7,61.341854,58.576004,0.46,0.17,2.76585,0.29
25,9,0.7,60.206345,55.366573,0.84,0.11,4.839772,0.73
26,9,0.7,55.376945,54.221714,0.42,0.13,1.155231,0.29
27,9,0.7,58.487312,58.514565,0.51,0.12,-0.027253,0.39
28,9,0.7,60.531395,58.775803,0.75,0.12,1.755592,0.63
29,9,0.7,59.35801,41.45639,0.8,0.11,17.90162,0.69
30,9,0.7,59.130924,55.08802,0.28,0.12,4.042904,0.16
31,9,0.7,60.0558,60.698486,0.78,0.62,-0.642686,0.16
32,9,0.7,59.88785,58.017353,0.77,0.11,1.870497,0.66
33,9,0.7,60.389473,53.84836,0.77,0.11,6.541113,0.66
34,9,0.7,63.082806,57.398033,0.78,0.12,5.684773,0.66
35,9,0.7,58.220646,57.984722,0.66,0.38,0.235924,0.28
36,9,0.7,58.153137,40.34458,0.47,0.11,17.808557,0.36
37,9,0.7,57.048965,59.38018,0.13,0.73,-2.331215,-0.6
38,9,0.7,55.568787,55.177307,0.13,0.18,0.39148,-0.05
39,9,0.7,56.885086,55.362614,0.63,0.25,1.522472,0.38
40,9,0.7,61.738613,51.369064,0.76,0.11,10.369549,0.65
41,9,0.7,59.609726,50.93916,0.8,0.11,8.670566,0.69
42,9,0.7,56.189293,56.123753,0.79,0.49,0.06554,0.3
43,9,0.7,60.293434,47.97397,0.67,0.11,12.319464,0.56
44,9,0.7,59.023323,57.879204,0.5,0.49,1.144119,0.01
45,9,0.7,60.10141,51.48953,0.76,0.11,8.61188,0.65
46,9,0.7,57.148197,52.084023,0.36,0.11,5.064174,0.25
47,9,0.7,58.670597,53.80215,0.68,0.36,4.868447,0.32
48,9,0.7,58.515774,57.114677,0.44,0.65,1.401097,-0.21
49,9,0.7,57.88083,50.793232,0.46,0.12,7.087598,0.34
50,9,0.7,57.272114,59.310623,0.35,0.52,-2.038509,-0.17
51,9,0.7,65.186264,58.186005,0.71,0.62,7.000259,0.09
52,9,0.7,68.141975,60.1777,0.79,0.59,7.964275,0.2
53,9,0.7,67.92293,52.30509,0.79,0.26,15.61784,0.53
54,9,0.7,64.23323,56.779644,0.79,0.72,7.453586,0.07
55,9,0.7,67.94503,56.29607,0.72,0.7,11.64896,0.02
56,9,0.7,62.84467,56.744392,0.48,0.72,6.100278,-0.24
57,9,0.7,61.862064,58.353466,0.46,0.61,3.508598,-0.15
58,9,0.7,56.59388,55.60613,0.59,0.53,0.98775,0.06
59,9,0.7,56.11415,54.762257,0.13,0.42,1.351893,-0.29
60,9,0.7,54.288864,56.93876,0.3,0.22,-2.649896,0.08
61,9,0.7,59.63819,53.84846,0.36,0.29,5.78973,0.07
62,9,0.7,59.5234,53.525394,0.62,0.32,5.998006,0.3
63,9,0.7,62.43174,47.132248,0.55,0.11,15.299492,0.44
64,9,0.7,63.47956,51.49536,0.53,0.11,11.9842,0.42
65,9,0.7,59.805107,48.620262,0.41,0.11,11.184845,0.3
66,9,0.7,53.972305,48.71907,0.16,0.11,5.253235,0.05
67,9,0.7,60.25602,50.29905,0.69,0.11,9.95697,0.58
68,9,0.7,59.229332,42.52196,0.6,0.11,16.707372,0.49
69,9,0.7,57.471645,52.282047,0.28,0.11,5.189598,0.17
70,9,0.7,54.873627,46.938824,0.12,0.11,7.934803,0.01
71,9,0.7,55.84995,53.36916,0.4,0.31,2.48079,0.09
72,9,0.7,60.48977,51.58171,0.57,0.11,8.90806,0.46
73,9,0.7,62.11386,53.889305,0.38,0.11,8.224555,0.27
74,9,0.7,64.90924,52.00035,0.6,0.2,12.90889,0.4
75,9,0.7,55.632057,56.85993,0.51,0.26,-1.227873,0.25
76,9,0.7,50.213264,53.025093,0.12,0.11,-2.811829,0.01
77,9,0.7,54.55094,53.790413,0.22,0.14,0.760527,0.08
78,9,0.7,51.77977,51.80125,0.15,0.21,-0.02148,-0.06
79,9,0.7,52.504032,51.905212,0.26,0.14,0.59882,0.12
80,9,0.7,52.705612,47.98687,0.21,0.11,4.718742,0.1
81,9,0.7,53.4927,47.24118,0.27,0.11,6.25152,0.16
82,9,0.7,49.39589,43.62429,0.11,0.11,5.7716,0
83,9,0.7,50.43392,49.979347,0.11,0.11,0.454573,0
84,9,0.7,52.747765,43.220715,0.11,0.11,9.52705,0
85,9,0.7,48.314507,44.93123,0.11,0.11,3.383277,0
86,9,0.7,47.40072,44.68849,0.11,0.11,2.71223,0
87,9,0.7,46.80574,46.09926,0.11,0.11,0.70648,0
88,9,0.7,45.80902,45.640694,0.11,0.11,0.168326,0
89,9,0.7,44.675503,39.508877,0.11,0.11,5.166626,0
90,9,0.7,49.759872,47.869778,0.11,0.11,1.890094,0
91,9,0.7,47.2198,48.52359,0.11,0.11,-1.30379,0
92,9,0.7,48.230293,47.476635,0.11,0.11,0.753658,0
93,9,0.7,48.95109,44.78989,0.11,0.11,4.1612,0
94,9,0.7,47.104748,49.545303,0.11,0.11,-2.440555,0
95,9,0.7,48.048748,49.17028,0.11,0.11,-1.121532,0
96,9,0.7,48.768074,51.902092,0.11,0.11,-3.134018,0
97,9,0.7,51.351868,53.95166,0.11,0.11,-2.599792,0
98,9,0.7,48.699787,54.845734,0.11,0.11,-6.145947,0
99,9,0.7,51.043854,54.595963,0.11,0.11,-3.552109,0
100,9,0.7,49.43053,53.05872,0.11,0.11,-3.62819,0
101,9,0.7,50.34476,50.18444,0.11,0.11,0.16032,0
102,9,0.7,50.07868,48.961277,0.11,0.11,1.117403,0
103,9,0.7,47.002872,50.41471,0.11,0.11,-3.411838,0
104,9,0.7,50.1482,52.312386,0.11,0.11,-2.164186,0
105,9,0.7,50.834545,48.322277,0.11,0.11,2.512268,0
106,9,0.7,47.631325,50.65341,0.11,0.11,-3.022085,0
107,9,0.7,47.3952,50.29525,0.11,0.11,-2.90005,0
108,9,0.7,45.751003,51.265152,0.11,0.11,-5.514149,0
21,9,1,59.25127,57.456993,0.88,0.28,1.794277,0.6
22,9,1,49.71959,55.69124,0.11,0.12,-5.97165,-0.01
23,9,1,57.841484,54.38074,0.32,0.11,3.460744,0.21
24,9,1,60.757805,58.072758,1.07,0.17,2.685047,0.9
25,9,1,60.12731,55.135136,1.17,0.11,4.992174,1.06
26,9,1,56.106274,54.088898,0.42,0.13,2.017376,0.29
27,9,1,57.486523,58.018845,0.56,0.12,-0.532322,0.44
28,9,1,60.302094,58.75358,0.8,0.12,1.548514,0.68
29,9,1,59.323025,43.51967,1.1,0.11,15.803355,0.99
30,9,1,58.561115,56.09223,0.28,0.15,2.468885,0.13
31,9,1,54.687336,60.639626,0.25,0.66,-5.95229,-0.41
32,9,1,48.142094,58.439083,0.11,0.11,-10.296989,0
33,9,1,60.230595,54.078796,0.98,0.11,6.151799,0.87
34,9,1,61.24114,56.944897,1.07,0.12,4.296243,0.95
35,9,1,58.31911,58.292,0.63,0.38,0.02711,0.25
36,9,1,57.66827,41.194084,0.41,0.11,16.474186,0.3
37,9,1,55.381794,58.09592,0.12,0.74,-2.714126,-0.62
38,9,1,52.939194,56.16719,0.13,0.18,-3.227996,-0.05
39,9,1,57.895,54.757618,0.63,0.21,3.137382,0.42
40,9,1,62.415005,50.925385,0.78,0.11,11.48962,0.67
41,9,1,59.580437,50.52053,1.1,0.11,9.059907,0.99
42,9,1,57.33225,56.7858,0.78,0.59,0.54645,0.19
43,9,1,60.22302,49.060307,0.57,0.11,11.162713,0.46
44,9,1,57.906853,57.63354,0.52,0.47,0.273313,0.05
45,9,1,60.188995,51.98321,0.75,0.11,8.205785,0.64
46,9,1,55.41415,52.472713,0.34,0.29,2.941437,0.05
47,9,1,58.090874,55.3918,0.72,0.41,2.699074,0.31
48,9,1,57.444824,57.310028,0.37,0.74,0.134796,-0.37
49,9,1,59.25924,49.70639,0.51,0.12,9.55285,0.39
50,9,1,56.439236,59.52723,0.36,0.49,-3.087994,-0.13
51,9,1,65.8628,57.488956,0.72,0.55,8.373844,0.17
52,9,1,67.863716,59.58578,0.93,0.59,8.277936,0.34
53,9,1,68.15386,52.599895,1.08,0.24,15.553965,0.84
54,9,1,64.217445,55.725525,1.01,0.8,8.49192,0.21
55,9,1,68.51329,55.483723,0.82,0.76,13.029567,0.06
56,9,1,63.34689,58.063274,0.49,1,5.283616,-0.51
57,9,1,62.561153,58.116196,0.46,0.6,4.444957,-0.14
58,9,1,56.095936,55.74605,0.59,0.53,0.349886,0.06
59,9,1,56.99545,53.88716,0.13,0.41,3.10829,-0.28
60,9,1,54.9871,57.047085,0.29,0.23,-2.059985,0.06
61,9,1,59.361095,53.522976,0.38,0.27,5.838119,0.11
62,9,1,59.985153,53.277264,0.69,0.32,6.707889,0.37
63,9,1,62.56604,48.046043,0.55,0.11,14.519997,0.44
64,9,1,63.20973,51.130463,0.54,0.11,12.079267,0.43
65,9,1,59.912666,49.656837,0.41,0.11,10.255829,0.3
66,9,1,55.48146,50.209366,0.18,0.11,5.272094,0.07
67,9,1,61.455475,50.199036,0.69,0.11,11.256439,0.58
68,9,1,59.382034,44.130417,0.62,0.11,15.251617,0.51
69,9,1,57.35352,53.705704,0.3,0.11,3.647816,0.19
70,9,1,53.117466,48.4112,0.12,0.11,4.706266,0.01
71,9,1,57.42267,53.337044,0.41,0.3,4.085626,0.11
72,9,1,60.730278,50.12182,0.58,0.11,10.608458,0.47
73,9,1,61.916153,54.29236,0.38,0.11,7.623793,0.27
74,9,1,65.19658,52.08536,0.61,0.18,13.11122,0.43
75,9,1,56.900112,56.19579,0.49,0.26,0.704322,0.23
76,9,1,51.106243,51.863213,0.12,0.11,-0.75697,0.01
77,9,1,53.98486,53.609104,0.22,0.14,0.375756,0.08
78,9,1,53.47576,51.97995,0.27,0.21,1.49581,0.06
79,9,1,52.050728,50.829266,0.26,0.14,1.221462,0.12
80,9,1,52.455803,49.76155,0.21,0.11,2.694253,0.1
81,9,1,52.99949,47.09225,0.27,0.11,5.90724,0.16
82,9,1,48.528503,43.540413,0.11,0.11,4.98809,0
83,9,1,51.51533,51.18976,0.11,0.11,0.32557,0
84,9,1,53.550507,43.63656,0.11,0.11,9.913947,0
85,9,1,49.31364,45.264378,0.11,0.11,4.049262,0
86,9,1,49.291214,47.01413,0.11,0.11,2.277084,0
87,9,1,46.469715,46.05482,0.11,0.11,0.414895,0
88,9,1,47.40468,44.521313,0.11,0.11,2.883367,0
89,9,1,46.53353,44.434486,0.11,0.11,2.099044,0
90,9,1,46.73287,46.48149,0.11,0.11,0.25138,0
91,9,1,45.422234,46.871635,0.11,0.11,-1.449401,0
92,9,1,47.140594,48.75082,0.11,0.11,-1.610226,0
93,9,1,51.29238,45.35472,0.11,0.11,5.93766,0
94,9,1,48.1925,49.40866,0.11,0.11,-1.21616,0
95,9,1,45.099873,47.33465,0.11,0.11,-2.234777,0
96,9,1,49.670113,52.209465,0.11,0.11,-2.539352,0
97,9,1,49.85151,54.107372,0.11,0.11,-4.255862,0
98,9,1,49.718647,53.293972,0.11,0.11,-3.575325,0
99,9,1,50.634285,54.421043,0.11,0.11,-3.786758,0
100,9,1,49.089127,54.40338,0.11,0.11,-5.314253,0
101,9,1,49.468513,43.800743,0.11,0.11,5.66777,0
102,9,1,51.25891,50.885765,0.11,0.11,0.373145,0
103,9,1,47.92112,50.159935,0.11,0.11,-2.238815,0
104,9,1,49.355553,52.16702,0.11,0.11,-2.811467,0
105,9,1,49.139545,49.63221,0.11,0.11,-0.492665,0
106,9,1,45.938675,50.423706,0.11,0.11,-4.485031,0
107,9,1,49.69198,48.29483,0.11,0.11,1.39715,0
108,9,1,47.61438,50.856773,0.11,0.11,-3.242393,0
21,17,0.1,60.59278,57.270077,0.25,0.14,3.322703,0.11
22,17,0.1,52.0877,56.854263,0.11,0.14,-4.766563,-0.03
23,17,0.1,58.167763,54.86865,0.19,0.11,3.299113,0.08
24,17,0.1,60.321835,57.864086,0.22,0.12,2.457749,0.1
25,17,0.1,61.93113,54.462948,0.3,0.11,7.468182,0.19
26,17,0.1,55.197044,54.914303,0.12,0.11,0.282741,0.01
27,17,0.1,57.480278,57.206146,0.17,0.12,0.274132,0.05
28,17,0.1,60.045853,59.483402,0.22,0.14,0.562451,0.08
29,17,0.1,53.577606,44.141624,0.19,0.11,9.435982,0.08
30,17,0.1,58.386803,56.419018,0.23,0.12,1.967785,0.11
31,17,0.1,52.338547,60.797134,0.11,0.14,-8.458587,-0.03
32,17,0.1,50.191475,58.239563,0.13,0.11,-8.048088,0.02
33,17,0.1,60.79721,55.23364,0.16,0.11,5.56357,0.05
34,17,0.1,61.59811,57.64262,0.24,0.11,3.95549,0.13
35,17,0.1,58.696495,58.340874,0.21,0.11,0.355621,0.1
36,17,0.1,59.15182,50.065594,0.19,0.11,9.086226,0.08
37,17,0.1,55.709827,58.332397,0.12,0.13,-2.62257,-0.01
38,17,0.1,55.18896,55.095226,0.18,0.11,0.093734,0.07
39,17,0.1,56.92588,55.79871,0.2,0.12,1.12717,0.08
40,17,0.1,62.73935,49.349174,0.29,0.11,13.390176,0.18
41,17,0.1,58.868885,50.079338,0.17,0.11,8.789547,0.06
42,17,0.1,57.252625,56.33692,0.2,0.12,0.915705,0.08
43,17,0.1,60.780083,50.42556,0.21,0.11,10.354523,0.1
44,17,0.1,58.961964,58.199955,0.21,0.14,0.762009,0.07
45,17,0.1,60.515457,52.075184,0.18,0.11,8.440273,0.07
46,17,0.1,57.50634,53.11259,0.17,0.11,4.39375,0.06
47,17,0.1,58.28967,55.1607,0.25,0.11,3.12897,0.14
48,17,0.1,57.893284,57.003616,0.19,0.12,0.889668,0.07
49,17,0.1,57.735806,50.676975,0.2,0.11,7.058831,0.09
50,17,0.1,56.86382,58.506317,0.19,0.12,-1.642497,0.07
51,17,0.1,65.41424,57.960213,0.31,0.12,7.454027,0.19
52,17,0.1,68.07223,60.29955,0.26,0.14,7.77268,0.12
53,17,0.1,68.93482,56.464035,0.24,0.11,12.470785,0.13
54,17,0.1,63.967636,58.83764,0.2,0.12,5.129996,0.08
55,17,0.1,68.451904,56.49388,0.37,0.11,11.958024,0.26
56,17,0.1,63.68579,57.868153,0.21,0.12,5.817637,0.09
57,17,0.1,62.13121,57.95068,0.2,0.11,4.18053,0.09
58,17,0.1,56.652664,56.49286,0.21,0.14,0.159804,0.07
59,17,0.1,55.931366,54.703636,0.13,0.13,1.22773,0
60,17,0.1,56.919582,57.41332,0.23,0.13,-0.493738,0.1
61,17,0.1,59.704693,53.61901,0.24,0.12,6.085683,0.12
62,17,0.1,59.039955,54.606346,0.26,0.11,4.433609,0.15
63,17,0.1,62.538643,47.016632,0.24,0.11,15.522011,0.13
64,17,0.1,63.24469,50.417023,0.24,0.11,12.827667,0.13
65,17,0.1,60.072456,49.42157,0.23,0.13,10.650886,0.1
66,17,0.1,56.59424,49.50889,0.24,0.11,7.08535,0.13
67,17,0.1,59.7958,49.55635,0.23,0.11,10.23945,0.12
68,17,0.1,60.59923,41.06836,0.25,0.11,19.53087,0.14
69,17,0.1,56.779354,53.597656,0.22,0.11,3.181698,0.11
70,17,0.1,56.750546,47.763775,0.12,0.11,8.986771,0.01
71,17,0.1,57.310524,54.19706,0.21,0.13,3.113464,0.08
72,17,0.1,61.619534,49.542015,0.23,0.11,12.077519,0.12
73,17,0.1,61.870693,55.677708,0.26,0.11,6.192985,0.15
74,17,0.1,65.409836,52.419373,0.27,0.14,12.990463,0.13
75,17,0.1,56.07468,57.042534,0.22,0.18,-0.967854,0.04
76,17,0.1,49.77913,52.674088,0.12,0.11,-2.894958,0.01
77,17,0.1,54.223396,53.363285,0.22,0.16,0.860111,0.06
78,17,0.1,52.96186,51.821125,0.21,0.16,1.140735,0.05
79,17,0.1,53.022655,52.81082,0.26,0.13,0.211835,0.13
80,17,0.1,52.65305,47.257275,0.21,0.11,5.395775,0.1
81,17,0.1,53.011642,47.296833,0.25,0.11,5.714809,0.14
82,17,0.1,48.712566,40.93567,0.11,0.11,7.776896,0
83,17,0.1,50.694584,49.72842,0.11,0.11,0.966164,0
84,17,0.1,53.255333,49.345566,0.11,0.11,3.909767,0
85,17,0.1,51.06106,45.508278,0.11,0.11,5.552782,0
86,17,0.1,48.467236,43.39496,0.11,0.11,5.072276,0
87,17,0.1,47.718143,46.18474,0.11,0.11,1.533403,0
88,17,0.1,50.38066,47.01471,0.11,0.11,3.36595,0
89,17,0.1,47.15926,45.040154,0.11,0.11,2.119106,0
90,17,0.1,48.80827,48.14617,0.11,0.11,0.6621,0
91,17,0.1,44.545654,47.782753,0.11,0.11,-3.237099,0
92,17,0.1,47.31637,48.74949,0.11,0.11,-1.43312,0
93,17,0.1,47.04041,44.364357,0.11,0.11,2.676053,0
94,17,0.1,46.375217,48.601498,0.11,0.11,-2.226281,0
95,17,0.1,44.25715,48.48565,0.11,0.11,-4.2285,0
96,17,0.1,47.790913,51.79181,0.11,0.11,-4.000897,0
97,17,0.1,48.703568,54.367565,0.11,0.11,-5.663997,0
98,17,0.1,47.610706,54.252274,0.11,0.11,-6.641568,0
99,17,0.1,50.700462,54.581245,0.11,0.11,-3.880783,0
100,17,0.1,49.155228,54.804237,0.11,0.11,-5.649009,0
101,17,0.1,48.396606,50.33234,0.11,0.11,-1.935734,0
102,17,0.1,49.16149,50.711357,0.11,0.11,-1.549867,0
103,17,0.1,49.59712,49.384502,0.11,0.11,0.212618,0
104,17,0.1,48.584587,51.55539,0.11,0.11,-2.970803,0
105,17,0.1,49.84538,48.71398,0.11,0.11,1.1314,0
106,17,0.1,50.14342,50.373642,0.11,0.11,-0.230222,0
107,17,0.1,44.653008,50.180267,0.11,0.11,-5.527259,0
108,17,0.1,44.526196,51.629974,0.11,0.11,-7.103778,0
21,17,0.3,58.72406,57.798157,0.41,0.28,0.925903,0.13
22,17,0.3,59.82708,55.971947,0.39,0.13,3.855133,0.26
23,17,0.3,58.105495,55.43543,0.35,0.12,2.670065,0.23
24,17,0.3,60.4469,57.78313,0.43,0.2,2.66377,0.23
25,17,0.3,60.72476,54.749565,0.44,0.11,5.975195,0.33
26,17,0.3,55.93914,54.615967,0.37,0.13,1.323173,0.24
27,17,0.3,57.722157,58.014656,0.42,0.12,-0.292499,0.3
28,17,0.3,59.961395,58.84272,0.37,0.12,1.118675,0.25
29,17,0.3,58.945732,43.690952,0.37,0.11,15.25478,0.26
30,17,0.3,58.157963,56.538193,0.26,0.12,1.61977,0.14
31,17,0.3,60.784218,59.52801,0.44,0.32,1.256208,0.12
32,17,0.3,60.665253,57.919018,0.43,0.11,2.746235,0.32
33,17,0.3,60.98905,55.35499,0.38,0.13,5.63406,0.25
34,17,0.3,62.87579,57.51809,0.39,0.17,5.3577,0.22
35,17,0.3,58.05322,58.039486,0.41,0.33,0.013734,0.08
36,17,0.3,57.961185,42.888397,0.35,0.11,15.072788,0.24
37,17,0.3,54.907455,58.47303,0.12,0.34,-3.565575,-0.22
38,17,0.3,54.658592,55.10489,0.13,0.18,-0.446298,-0.05
39,17,0.3,58.077076,55.38969,0.38,0.22,2.687386,0.16
40,17,0.3,62.673203,43.053017,0.49,0.11,19.620186,0.38
41,17,0.3,59.3605,49.587234,0.38,0.11,9.773266,0.27
42,17,0.3,55.82447,55.36767,0.4,0.32,0.4568,0.08
43,17,0.3,60.2331,47.506897,0.4,0.11,12.726203,0.29
44,17,0.3,57.79599,57.57059,0.37,0.35,0.2254,0.02
45,17,0.3,59.285534,51.01677,0.38,0.11,8.268764,0.27
46,17,0.3,57.198723,53.133484,0.33,0.11,4.065239,0.22
47,17,0.3,57.648716,52.977768,0.42,0.25,4.670948,0.17
48,17,0.3,58.475117,56.635937,0.35,0.33,1.83918,0.02
49,17,0.3,58.79128,50.474464,0.39,0.11,8.316816,0.28
50,17,0.3,56.799477,58.72627,0.36,0.33,-1.926793,0.03
51,17,0.3,65.60449,57.630325,0.43,0.32,7.974165,0.11
52,17,0.3,67.61459,59.260704,0.4,0.31,8.353886,0.09
53,17,0.3,68.474174,51.040386,0.41,0.2,17.433788,0.21
54,17,0.3,64.193085,55.52623,0.41,0.35,8.666855,0.06
55,17,0.3,68.05878,56.01157,0.4,0.33,12.04721,0.07
56,17,0.3,63.1907,58.200054,0.38,0.33,4.990646,0.05
57,17,0.3,61.924286,58.643055,0.39,0.32,3.281231,0.07
58,17,0.3,56.150032,54.78444,0.39,0.33,1.365592,0.06
59,17,0.3,56.384792,54.485596,0.13,0.32,1.899196,-0.19
60,17,0.3,56.062508,56.339622,0.28,0.22,-0.277114,0.06
61,17,0.3,59.114006,51.458176,0.37,0.24,7.65583,0.13
62,17,0.3,60.13227,54.377945,0.46,0.28,5.754325,0.18
63,17,0.3,62.13846,45.832504,0.44,0.11,16.305956,0.33
64,17,0.3,64.66282,50.19614,0.42,0.11,14.46668,0.31
65,17,0.3,59.21001,47.45851,0.39,0.11,11.7515,0.28
66,17,0.3,54.81877,48.43135,0.21,0.11,6.38742,0.1
67,17,0.3,61.606236,51.15771,0.43,0.11,10.448526,0.32
68,17,0.3,59.66844,43.073864,0.41,0.11,16.594576,0.3
69,17,0.3,57.583736,52.350037,0.29,0.11,5.233699,0.18
70,17,0.3,53.9847,46.129726,0.11,0.11,7.854974,0
71,17,0.3,56.81779,54.239376,0.4,0.3,2.578414,0.1
72,17,0.3,61.288464,50.225273,0.44,0.11,11.063191,0.33
73,17,0.3,61.889015,54.781815,0.38,0.11,7.1072,0.27
74,17,0.3,65.01627,51.65786,0.45,0.19,13.35841,0.26
75,17,0.3,56.0065,56.22618,0.4,0.27,-0.21968,0.13
76,17,0.3,49.87063,52.215263,0.12,0.11,-2.344633,0.01
77,17,0.3,54.113033,53.023838,0.22,0.14,1.089195,0.08
78,17,0.3,51.06486,52.041504,0.21,0.22,-0.976644,-0.01
79,17,0.3,52.696156,50.859802,0.26,0.14,1.836354,0.12
80,17,0.3,52.578865,49.684834,0.18,0.11,2.894031,0.07
81,17,0.3,53.94593,46.125404,0.28,0.11,7.820526,0.17
82,17,0.3,50.192566,42.52152,0.11,0.11,7.671046,0
83,17,0.3,51.880596,50.98905,0.11,0.11,0.891546,0
84,17,0.3,52.303047,49.662888,0.11,0.11,2.640159,0
85,17,0.3,47.64948,44.98404,0.11,0.11,2.66544,0
86,17,0.3,49.366463,44.27703,0.11,0.11,5.089433,0
87,17,0.3,45.828293,45.65361,0.11,0.11,0.174683,0
88,17,0.3,46.97306,47.765182,0.11,0.11,-0.792122,0
89,17,0.3,50.10698,44.12641,0.11,0.11,5.98057,0
90,17,0.3,47.37967,47.45337,0.11,0.11,-0.0737,0
91,17,0.3,46.76823,46.854477,0.11,0.11,-0.086247,0
92,17,0.3,57.231064,47.24405,0.11,0.11,9.987014,0
93,17,0.3,48.82212,46.0871,0.11,0.11,2.73502,0
94,17,0.3,48.043137,48.82243,0.11,0.11,-0.779293,0
95,17,0.3,47.197704,47.801666,0.11,0.11,-0.603962,0
96,17,0.3,49.92072,52.12151,0.11,0.11,-2.20079,0
97,17,0.3,50.299572,54.523117,0.11,0.11,-4.223545,0
98,17,0.3,49.584457,54.828365,0.11,0.11,-5.243908,0
99,17,0.3,48.653515,54.47921,0.11,0.11,-5.825695,0
100,17,0.3,50.284145,54.318214,0.11,0.11,-4.034069,0
101,17,0.3,48.073753,50.56458,0.11,0.11,-2.490827,0
102,17,0.3,49.071358,49.48075,0.11,0.11,-0.409392,0
103,17,0.3,48.139866,48.689972,0.11,0.11,-0.550106,0
104,17,0.3,48.03624,51.507435,0.11,0.11,-3.471195,0
105,17,0.3,48.050606,50.060757,0.11,0.11,-2.010151,0
106,17,0.3,48.681297,50.376945,0.11,0.11,-1.695648,0
107,17,0.3,47.96547,49.08955,0.11,0.11,-1.12408,0
108,17,0.3,43.439884,51.07377,0.11,0.11,-7.633886,0
21,17,0.7,59.639442,56.982697,0.75,0.2,2.656745,0.55
22,17,0.7,60.186775,57.249397,0.8,0.13,2.937378,0.67
23,17,0.7,58.308105,53.198246,0.57,0.12,5.109859,0.45
24,17,0.7,60.99761,58.202538,0.46,0.2,2.795072,0.26
25,17,0.7,60.223198,55.07698,0.84,0.11,5.146218,0.73
26,17,0.7,54.608986,54.04993,0.11,0.13,0.559056,-0.02
27,17,0.7,57.653988,57.77938,0.56,0.12,-0.125392,0.44
28,17,0.7,60.70005,59.313732,0.68,0.12,1.386318,0.56
29,17,0.7,59.740532,46.499126,0.81,0.11,13.241406,0.7
30,17,0.7,58.381607,55.26339,0.28,0.12,3.118217,0.16
31,17,0.7,60.445,60.015705,0.81,0.64,0.429295,0.17
32,17,0.7,59.617043,57.971146,0.77,0.11,1.645897,0.66
33,17,0.7,60.097214,52.845963,0.76,0.11,7.251251,0.65
34,17,0.7,63.109085,56.133793,0.78,0.12,6.975292,0.66
35,17,0.7,56.98551,58.308933,0.6,0.54,-1.323423,0.06
36,17,0.7,57.736855,39.731903,0.41,0.11,18.004952,0.3
37,17,0.7,56.691406,58.45576,0.13,0.71,-1.764354,-0.58
38,17,0.7,53.554707,55.03914,0.12,0.18,-1.484433,-0.06
39,17,0.7,57.347813,55.244873,0.53,0.21,2.10294,0.32
40,17,0.7,62.327377,41.843575,0.76,0.11,20.483802,0.65
41,17,0.7,60.150925,49.25959,0.8,0.11,10.891335,0.69
42,17,0.7,55.546093,55.460384,0.74,0.5,0.085709,0.24
43,17,0.7,60.272636,47.9822,0.68,0.11,12.290436,0.57
44,17,0.7,57.127636,56.902924,0.44,0.45,0.224712,-0.01
45,17,0.7,60.032303,51.022724,0.77,0.11,9.009579,0.66
46,17,0.7,56.29551,53.312004,0.28,0.11,2.983506,0.17
47,17,0.7,58.14328,53.721638,0.68,0.29,4.421642,0.39
48,17,0.7,56.8696,58.32252,0.32,0.7,-1.45292,-0.38
49,17,0.7,58.228596,51.40272,0.47,0.12,6.825876,0.35
50,17,0.7,56.63423,58.58342,0.3,0.47,-1.94919,-0.17
51,17,0.7,65.51352,57.372055,0.72,0.57,8.141465,0.15
52,17,0.7,67.705574,59.36835,0.79,0.58,8.337224,0.21
53,17,0.7,68.49643,52.7435,0.79,0.3,15.75293,0.49
54,17,0.7,64.272354,56.54271,0.79,0.72,7.729644,0.07
55,17,0.7,67.9129,55.31021,0.72,0.7,12.60269,0.02
56,17,0.7,63.513336,56.982468,0.52,0.71,6.530868,-0.19
57,17,0.7,62.256706,58.552486,0.45,0.58,3.70422,-0.13
58,17,0.7,56.384644,56.06115,0.61,0.56,0.323494,0.05
59,17,0.7,55.635727,54.33838,0.13,0.38,1.297347,-0.25
60,17,0.7,56.27043,57.91971,0.32,0.22,-1.64928,0.1
61,17,0.7,59.715538,53.699974,0.37,0.25,6.015564,0.12
62,17,0.7,59.8379,53.677032,0.65,0.3,6.160868,0.35
63,17,0.7,62.614433,43.987144,0.55,0.11,18.627289,0.44
64,17,0.7,63.54825,51.055527,0.53,0.11,12.492723,0.42
65,17,0.7,59.052948,49.30869,0.42,0.11,9.744258,0.31
66,17,0.7,53.81839,49.571358,0.21,0.11,4.247032,0.1
67,17,0.7,60.41685,49.30792,0.69,0.11,11.10893,0.58
68,17,0.7,60.141953,40.644142,0.61,0.11,19.497811,0.5
69,17,0.7,57.753845,52.913918,0.3,0.11,4.839927,0.19
70,17,0.7,54.80723,46.43302,0.12,0.11,8.37421,0.01
71,17,0.7,56.781597,53.280205,0.41,0.34,3.501392,0.07
72,17,0.7,60.33043,49.44537,0.57,0.11,10.88506,0.46
73,17,0.7,62.164024,54.235115,0.38,0.11,7.928909,0.27
74,17,0.7,64.856705,52.537636,0.6,0.16,12.319069,0.44
75,17,0.7,56.46578,55.868217,0.48,0.26,0.597563,0.22
76,17,0.7,52.357674,53.088493,0.12,0.11,-0.730819,0.01
77,17,0.7,54.58975,52.263897,0.21,0.14,2.325853,0.07
78,17,0.7,51.01035,51.658672,0.22,0.22,-0.648322,0
79,17,0.7,52.45819,51.902264,0.27,0.13,0.555926,0.14
80,17,0.7,51.27083,48.31574,0.18,0.11,2.95509,0.07
81,17,0.7,53.298065,45.978806,0.28,0.11,7.319259,0.17
82,17,0.7,50.829857,40.586334,0.11,0.11,10.243523,0
83,17,0.7,50.044838,50.151703,0.11,0.11,-0.106865,0
84,17,0.7,50.695923,43.8302,0.11,0.11,6.865723,0
85,17,0.7,49.85774,44.121136,0.11,0.11,5.736604,0
86,17,0.7,51.408566,45.01306,0.11,0.11,6.395506,0
87,17,0.7,48.190197,46.31497,0.11,0.11,1.875227,0
88,17,0.7,45.299545,45.86844,0.11,0.11,-0.568895,0
89,17,0.7,49.216423,39.805084,0.11,0.11,9.411339,0
90,17,0.7,48.02777,47.55806,0.11,0.11,0.46971,0
91,17,0.7,45.674217,47.60305,0.11,0.11,-1.928833,0
92,17,0.7,50.809696,49.04225,0.11,0.11,1.767446,0
93,17,0.7,51.141758,47.235516,0.11,0.11,3.906242,0
94,17,0.7,46.822227,48.548206,0.11,0.11,-1.725979,0
95,17,0.7,45.731804,46.66932,0.11,0.11,-0.937516,0
96,17,0.7,46.0561,52.215862,0.11,0.11,-6.159762,0
97,17,0.7,49.74418,54.561607,0.11,0.11,-4.817427,0
98,17,0.7,48.144615,54.704796,0.11,0.11,-6.560181,0
99,17,0.7,50.46237,54.852264,0.11,0.11,-4.389894,0
100,17,0.7,49.303993,54.29843,0.11,0.11,-4.994437,0
101,17,0.7,49.326843,50.16659,0.11,0.11,-0.839747,0
102,17,0.7,51.638985,51.02801,0.11,0.11,0.610975,0
103,17,0.7,49.760082,50.023502,0.11,0.11,-0.26342,0
104,17,0.7,47.737885,51.350723,0.11,0.11,-3.612838,0
105,17,0.7,50.759247,48.981342,0.11,0.11,1.777905,0
106,17,0.7,48.484043,50.876755,0.11,0.11,-2.392712,0
107,17,0.7,50.26693,50.38933,0.11,0.11,-0.1224,0
108,17,0.7,46.754578,52.031116,0.11,0.11,-5.276538,0
21,17,1,60.13732,57.674488,1.09,0.28,2.462832,0.81
22,17,1,50.23909,57.629536,0.11,0.13,-7.390446,-0.02
23,17,1,58.071026,53.283638,0.35,0.11,4.787388,0.24
24,17,1,61.704292,58.803963,0.95,0.2,2.900329,0.75
25,17,1,60.284027,54.687183,1.1,0.11,5.596844,0.99
26,17,1,55.499474,53.93077,0.5,0.13,1.568704,0.37
27,17,1,57.653103,58.0537,0.51,0.12,-0.400597,0.39
28,17,1,60.843166,58.862022,0.87,0.12,1.981144,0.75
29,17,1,59.338013,45.454693,1.06,0.11,13.88332,0.95
30,17,1,58.500404,56.08572,0.26,0.12,2.414684,0.14
31,17,1,52.891926,60.62249,0.12,0.72,-7.730564,-0.6
32,17,1,47.626057,57.592163,0.11,0.11,-9.966106,0
33,17,1,60.75469,52.06728,1,0.11,8.68741,0.89
34,17,1,63.05819,56.89407,1.08,0.12,6.16412,0.96
35,17,1,58.356483,58.85663,0.68,0.46,-0.500147,0.22
36,17,1,58.289684,42.401165,0.44,0.11,15.888519,0.33
37,17,1,56.6394,58.095078,0.12,0.71,-1.455678,-0.59
38,17,1,53.261585,54.95835,0.12,0.15,-1.696765,-0.03
39,17,1,57.83496,55.44964,0.77,0.24,2.38532,0.53
40,17,1,62.525375,49.769276,0.76,0.11,12.756099,0.65
41,17,1,60.247055,48.856415,1.09,0.11,11.39064,0.98
42,17,1,55.269154,55.850895,0.72,0.51,-0.581741,0.21
43,17,1,60.0987,51.39834,0.66,0.11,8.70036,0.55
44,17,1,57.049675,56.553123,0.51,0.44,0.496552,0.07
45,17,1,59.969406,58.953625,0.77,0.11,1.015781,0.66
46,17,1,55.409153,52.442413,0.28,0.11,2.96674,0.17
47,17,1,58.63863,53.959644,0.7,0.38,4.678986,0.32
48,17,1,57.1167,57.345284,0.35,0.74,-0.228584,-0.39
49,17,1,58.54703,50.98914,0.48,0.12,7.55789,0.36
50,17,1,57.99303,59.03741,0.35,0.54,-1.04438,-0.19
51,17,1,65.45109,58.585308,0.74,0.57,6.865782,0.17
52,17,1,68.2847,59.175518,0.95,0.55,9.109182,0.4
53,17,1,68.0482,59.555786,1.08,0.24,8.492414,0.84
54,17,1,64.079895,55.451996,1.04,0.76,8.627899,0.28
55,17,1,68.27394,61.115025,0.81,0.76,7.158915,0.05
56,17,1,63.959812,57.36415,0.5,1,6.595662,-0.5
57,17,1,61.677917,62.80241,0.47,0.62,-1.124493,-0.15
58,17,1,57.480595,54.980537,0.6,0.53,2.500058,0.07
59,17,1,55.174942,57.02915,0.13,0.39,-1.854208,-0.26
60,17,1,56.096447,57.07594,0.31,0.22,-0.979493,0.09
61,17,1,59.809338,52.755165,0.37,0.25,7.054173,0.12
62,17,1,60.95767,56.427074,0.71,0.3,4.530596,0.41
63,17,1,62.976295,46.85504,0.55,0.11,16.121255,0.44
64,17,1,63.109917,50.666393,0.52,0.11,12.443524,0.41
65,17,1,59.999344,51.3469,0.42,0.11,8.652444,0.31
66,17,1,54.892025,51.05709,0.21,0.11,3.834935,0.1
67,17,1,60.117584,48.87993,0.69,0.11,11.237654,0.58
68,17,1,58.700237,40.1396,0.62,0.11,18.560637,0.51
69,17,1,56.951283,52.06656,0.29,0.11,4.884723,0.18
70,17,1,53.59108,45.80624,0.12,0.11,7.78484,0.01
71,17,1,58.12954,54.443962,0.41,0.32,3.685578,0.09
72,17,1,61.180653,49.44271,0.57,0.11,11.737943,0.46
73,17,1,62.70244,60.466248,0.38,0.11,2.236192,0.27
74,17,1,64.568954,52.806767,0.6,0.16,11.762187,0.44
75,17,1,55.712185,55.836945,0.49,0.26,-0.12476,0.23
76,17,1,49.87342,55.54515,0.12,0.11,-5.67173,0.01
77,17,1,55.27731,57.14145,0.22,0.14,-1.86414,0.08
78,17,1,49.95138,51.71919,0.12,0.23,-1.76781,-0.11
79,17,1,50.933914,51.024727,0.27,0.14,-0.090813,0.13
80,17,1,52.09637,55.700737,0.21,0.11,-3.604367,0.1
81,17,1,54.11586,52.35209,0.28,0.11,1.76377,0.17
82,17,1,50.69023,42.330593,0.11,0.11,8.359637,0
83,17,1,50.2806,51.84248,0.11,0.11,-1.56188,0
84,17,1,51.16778,47.927467,0.11,0.11,3.240313,0
85,17,1,49.2958,51.2032,0.11,0.11,-1.9074,0
86,17,1,51.165825,44.509613,0.11,0.11,6.656212,0
87,17,1,47.123455,45.715843,0.11,0.11,1.407612,0
88,17,1,44.632904,47.289978,0.11,0.11,-2.657074,0
89,17,1,46.205322,43.358948,0.11,0.11,2.846374,0
90,17,1,49.99431,50.505074,0.11,0.11,-0.510764,0
91,17,1,47.43204,54.277428,0.11,0.11,-6.845388,0
92,17,1,49.81431,49.868572,0.11,0.11,-0.054262,0
93,17,1,52.116337,50.017857,0.11,0.11,2.09848,0
94,17,1,49.63294,51.96087,0.11,0.11,-2.32793,0
95,17,1,47.397655,50.45413,0.11,0.11,-3.056475,0
96,17,1,48.350033,55.389282,0.11,0.11,-7.039249,0
97,17,1,50.94965,56.97062,0.11,0.11,-6.02097,0
98,17,1,49.620094,56.710785,0.11,0.11,-7.090691,0
99,17,1,50.966278,56.382294,0.11,0.11,-5.416016,0
100,17,1,46.83491,51.18009,0.11,0.11,-4.34518,0
101,17,1,50.621212,54.338478,0.11,0.11,-3.717266,0
102,17,1,49.690006,51.846355,0.11,0.11,-2.156349,0
103,17,1,47.48021,51.069016,0.11,0.11,-3.588806,0
104,17,1,48.98063,52.808502,0.11,0.11,-3.827872,0
105,17,1,50.098114,53.823036,0.11,0.11,-3.724922,0
106,17,1,49.822716,52.738422,0.11,0.11,-2.915706,0
107,17,1,48.496914,54.167793,0.11,0.11,-5.670879,0
108,17,1,48.153446,53.019066,0.11,0.11,-4.86562,0
21,25,0.1,61.015472,59.84688,0.29,0.14,1.168592,0.15
22,25,0.1,58.680313,60.304287,0.18,0.15,-1.623974,0.03
23,25,0.1,61.75646,61.241417,0.22,0.15,0.515043,0.07
24,25,0.1,63.481453,62.861057,0.28,0.15,0.620396,0.13
25,25,0.1,61.680424,61.0165,0.3,0.14,0.663924,0.16
26,25,0.1,60.061283,60.741898,0.24,0.17,-0.680615,0.07
27,25,0.1,61.47459,61.889275,0.32,0.12,-0.414685,0.2
28,25,0.1,64.17999,61.276314,0.26,0.14,2.903676,0.12
29,25,0.1,62.119415,57.854214,0.19,0.11,4.265201,0.08
30,25,0.1,59.638935,61.642998,0.22,0.17,-2.004063,0.05
31,25,0.1,58.267654,64.10181,0.21,0.16,-5.834156,0.05
32,25,0.1,60.092583,64.68884,0.22,0.15,-4.596257,0.07
33,25,0.1,63.89503,61.148308,0.29,0.14,2.746722,0.15
34,25,0.1,65.52158,62.124886,0.31,0.15,3.396694,0.16
35,25,0.1,62.59809,61.864384,0.23,0.11,0.733706,0.12
36,25,0.1,55.21869,60.174973,0.21,0.11,-4.956283,0.1
37,25,0.1,60.7292,62.02395,0.23,0.16,-1.29475,0.07
38,25,0.1,59.850586,60.34103,0.19,0.13,-0.490444,0.06
39,25,0.1,61.615837,60.77133,0.24,0.14,0.844507,0.1
40,25,0.1,65.89679,58.521164,0.28,0.13,7.375626,0.15
41,25,0.1,63.564667,59.522415,0.25,0.13,4.042252,0.12
42,25,0.1,59.44291,60.430088,0.2,0.15,-0.987178,0.05
43,25,0.1,64.06766,60.10869,0.21,0.14,3.95897,0.07
44,25,0.1,61.784737,63.85659,0.24,0.15,-2.071853,0.09
45,25,0.1,64.04907,59.356594,0.24,0.13,4.692476,0.11
46,25,0.1,61.707718,56.332874,0.26,0.11,5.374844,0.15
47,25,0.1,61.317013,60.069645,0.23,0.15,1.247368,0.08
48,25,0.1,61.210243,61.80424,0.22,0.16,-0.593997,0.06
49,25,0.1,63.694218,60.19244,0.24,0.11,3.501778,0.13
50,25,0.1,62.274467,62.452477,0.25,0.14,-0.17801,0.11
51,25,0.1,68.217926,62.111946,0.33,0.14,6.10598,0.19
52,25,0.1,71.19126,64.14986,0.27,0.15,7.0414,0.12
53,25,0.1,71.614426,60.53894,0.24,0.11,11.075486,0.13
54,25,0.1,67.18686,60.612553,0.27,0.16,6.574307,0.11
55,25,0.1,71.101204,61.431877,0.38,0.12,9.669327,0.26
56,25,0.1,66.14873,60.04317,0.26,0.13,6.10556,0.13
57,25,0.1,65.50984,63.181797,0.2,0.14,2.328043,0.06
58,25,0.1,60.87022,60.981285,0.23,0.15,-0.111065,0.08
59,25,0.1,58.764305,60.297424,0.31,0.14,-1.533119,0.17
60,25,0.1,58.94629,60.1614,0.26,0.13,-1.21511,0.13
61,25,0.1,63.916958,58.99045,0.27,0.14,4.926508,0.13
62,25,0.1,63.27381,57.901825,0.26,0.13,5.371985,0.13
63,25,0.1,65.609924,50.663517,0.24,0.11,14.946407,0.13
64,25,0.1,66.32219,55.394253,0.28,0.11,10.927937,0.17
65,25,0.1,62.407394,55.67945,0.23,0.15,6.727944,0.08
66,25,0.1,58.209793,58.603775,0.24,0.16,-0.393982,0.08
67,25,0.1,63.297707,53.688705,0.24,0.19,9.609002,0.05
68,25,0.1,63.931847,48.387657,0.27,0.11,15.54419,0.16
69,25,0.1,60.20004,56.961117,0.23,0.2,3.238923,0.03
70,25,0.1,58.50336,53.78852,0.12,0.16,4.71484,-0.04
71,25,0.1,59.158768,57.687992,0.22,0.14,1.470776,0.08
72,25,0.1,63.219578,57.32547,0.25,0.12,5.894108,0.13
73,25,0.1,65.34533,58.314857,0.26,0.15,7.030473,0.11
74,25,0.1,66.80349,57.322502,0.27,0.15,9.480988,0.12
75,25,0.1,58.78276,60.0493,0.23,0.23,-1.26654,0
76,25,0.1,54.1872,57.117188,0.24,0.11,-2.929988,0.13
77,25,0.1,56.969456,57.036915,0.26,0.2,-0.067459,0.06
78,25,0.1,52.458614,56.61251,0.23,0.18,-4.153896,0.05
79,25,0.1,55.076687,56.362667,0.27,0.14,-1.28598,0.13
80,25,0.1,54.385525,52.635353,0.23,0.15,1.750172,0.08
81,25,0.1,56.050827,51.391815,0.25,0.11,4.659012,0.14
82,25,0.1,54.157036,52.792095,0.11,0.14,1.364941,-0.03
83,25,0.1,52.130478,56.32218,0.11,0.13,-4.191702,-0.02
84,25,0.1,52.586823,47.72702,0.11,0.11,4.859803,0
85,25,0.1,51.93037,48.70639,0.11,0.11,3.22398,0
86,25,0.1,53.287598,50.235348,0.11,0.13,3.05225,-0.02
87,25,0.1,49.21036,49.22024,0.11,0.11,-0.00988,0
88,25,0.1,48.980682,50.4757,0.11,0.11,-1.495018,0
89,25,0.1,49.40623,47.353592,0.11,0.11,2.052638,0
90,25,0.1,47.997135,52.791046,0.11,0.11,-4.793911,0
91,25,0.1,46.759827,53.053467,0.11,0.11,-6.29364,0
92,25,0.1,51.55735,51.91246,0.11,0.11,-0.35511,0
93,25,0.1,52.329163,49.394188,0.11,0.11,2.934975,0
94,25,0.1,49.215687,52.87968,0.11,0.11,-3.663993,0
95,25,0.1,49.277138,49.966263,0.11,0.11,-0.689125,0
96,25,0.1,48.8842,54.482414,0.11,0.11,-5.598214,0
97,25,0.1,49.910744,56.826546,0.11,0.11,-6.915802,0
98,25,0.1,50.205994,57.00437,0.11,0.11,-6.798376,0
99,25,0.1,50.49631,56.623318,0.11,0.11,-6.127008,0
100,25,0.1,51.210335,56.115284,0.11,0.11,-4.904949,0
101,25,0.1,49.256798,54.000553,0.11,0.11,-4.743755,0
102,25,0.1,51.47553,53.749344,0.11,0.11,-2.273814,0
103,25,0.1,49.53246,51.68283,0.11,0.11,-2.15037,0
104,25,0.1,51.568604,52.68934,0.11,0.11,-1.120736,0
105,25,0.1,51.037395,53.381935,0.11,0.11,-2.34454,0
106,25,0.1,49.66933,53.05259,0.11,0.11,-3.38326,0
107,25,0.1,49.741924,53.918938,0.11,0.11,-4.177014,0
108,25,0.1,47.97028,53.287704,0.11,0.11,-5.317424,0
21,25,0.3,61.89805,60.530655,0.52,0.35,1.367395,0.17
22,25,0.3,62.981087,60.925373,0.51,0.13,2.055714,0.38
23,25,0.3,60.143307,60.745407,0.45,0.25,-0.6021,0.2
24,25,0.3,64.52879,62.612778,0.43,0.38,1.916012,0.05
25,25,0.3,62.648323,60.0679,0.47,0.22,2.580423,0.25
26,25,0.3,58.96168,60.649174,0.43,0.38,-1.687494,0.05
27,25,0.3,61.0785,61.370956,0.42,0.37,-0.292456,0.05
28,25,0.3,63.780964,61.35949,0.46,0.35,2.421474,0.11
29,25,0.3,62.918617,57.980953,0.41,0.11,4.937664,0.3
30,25,0.3,61.08919,61.704052,0.43,0.38,-0.614862,0.05
31,25,0.3,62.69866,64.26134,0.54,0.37,-1.56268,0.17
32,25,0.3,63.415146,65.030014,0.43,0.37,-1.614868,0.06
33,25,0.3,64.18737,60.85885,0.43,0.36,3.32852,0.07
34,25,0.3,64.76277,61.74511,0.54,0.37,3.01766,0.17
35,25,0.3,61.505615,62.132046,0.42,0.35,-0.626431,0.07
36,25,0.3,63.29002,59.546562,0.39,0.32,3.743458,0.07
37,25,0.3,61.19147,62.674393,0.26,0.38,-1.482923,-0.12
38,25,0.3,59.59844,60.410824,0.4,0.33,-0.812384,0.07
39,25,0.3,62.499462,60.55459,0.44,0.35,1.944872,0.09
40,25,0.3,66.594406,58.098927,0.44,0.34,8.495479,0.1
41,25,0.3,63.04025,59.616882,0.39,0.35,3.423368,0.04
42,25,0.3,60.617218,60.60501,0.42,0.38,0.012208,0.04
43,25,0.3,63.762836,59.880943,0.5,0.34,3.881893,0.16
44,25,0.3,62.48761,63.107628,0.42,0.38,-0.620018,0.04
45,25,0.3,63.787354,59.02354,0.39,0.34,4.763814,0.05
46,25,0.3,62.141632,55.95119,0.38,0.32,6.190442,0.06
47,25,0.3,60.878807,60.42042,0.44,0.33,0.458387,0.11
48,25,0.3,60.994953,62.679382,0.4,0.36,-1.684429,0.04
49,25,0.3,62.69262,60.735245,0.4,0.31,1.957375,0.09
50,25,0.3,62.124367,62.8073,0.39,0.35,-0.682933,0.04
51,25,0.3,68.51143,62.261635,0.48,0.34,6.249795,0.14
52,25,0.3,70.849724,64.05399,0.41,0.33,6.795734,0.08
53,25,0.3,71.09278,59.648254,0.43,0.33,11.444526,0.1
54,25,0.3,66.83159,60.755623,0.41,0.35,6.075967,0.06
55,25,0.3,70.779396,61.453297,0.5,0.34,9.326099,0.16
56,25,0.3,66.29311,61.38257,0.39,0.33,4.91054,0.06
57,25,0.3,66.00437,62.33889,0.4,0.32,3.66548,0.08
58,25,0.3,62.279686,61.063812,0.42,0.35,1.215874,0.07
59,25,0.3,58.567116,59.944817,0.5,0.35,-1.377701,0.15
60,25,0.3,59.280296,60.636032,0.41,0.33,-1.355736,0.08
61,25,0.3,63.800575,58.665928,0.44,0.34,5.134647,0.1
62,25,0.3,62.9244,57.76976,0.46,0.32,5.15464,0.14
63,25,0.3,65.46731,52.95468,0.44,0.11,12.51263,0.33
64,25,0.3,65.949425,53.974483,0.42,0.19,11.974942,0.23
65,25,0.3,62.244118,53.029152,0.4,0.18,9.214966,0.22
66,25,0.3,59.016285,58.338715,0.3,0.32,0.67757,-0.02
67,25,0.3,63.459717,52.04367,0.44,0.28,11.416047,0.16
68,25,0.3,63.301003,47.122208,0.45,0.11,16.178795,0.34
69,25,0.3,58.68672,56.6607,0.34,0.11,2.02602,0.23
70,25,0.3,56.39244,54.610775,0.12,0.11,1.781665,0.01
71,25,0.3,59.853016,57.876953,0.42,0.33,1.976063,0.09
72,25,0.3,62.900753,56.82118,0.44,0.23,6.079573,0.21
73,25,0.3,64.96925,58.065044,0.41,0.13,6.904206,0.28
74,25,0.3,67.37047,57.797916,0.45,0.35,9.572554,0.1
75,25,0.3,58.532852,59.95394,0.41,0.34,-1.421088,0.07
76,25,0.3,54.822178,56.295486,0.31,0.11,-1.473308,0.2
77,25,0.3,57.248096,56.814884,0.25,0.22,0.433212,0.03
78,25,0.3,53.02645,56.70413,0.31,0.34,-3.67768,-0.03
79,25,0.3,52.738556,54.320145,0.28,0.17,-1.581589,0.11
80,25,0.3,53.498947,53.01466,0.25,0.25,0.484287,0
81,25,0.3,55.107395,52.263443,0.29,0.11,2.843952,0.18
82,25,0.3,53.837833,53.36985,0.11,0.14,0.467983,-0.03
83,25,0.3,51.007328,56.52457,0.11,0.15,-5.517242,-0.04
84,25,0.3,49.865578,47.746124,0.11,0.11,2.119454,0
85,25,0.3,53.480263,50.88274,0.11,0.11,2.597523,0
86,25,0.3,51.634064,49.84487,0.11,0.12,1.789194,-0.01
87,25,0.3,48.97695,49.713005,0.11,0.11,-0.736055,0
88,25,0.3,47.611435,51.46129,0.11,0.11,-3.849855,0
89,25,0.3,50.77122,46.99439,0.11,0.11,3.77683,0
90,25,0.3,49.211483,52.077293,0.11,0.11,-2.86581,0
91,25,0.3,50.15564,53.340233,0.11,0.11,-3.184593,0
92,25,0.3,50.79827,51.58426,0.11,0.11,-0.78599,0
93,25,0.3,50.95602,49.807835,0.11,0.11,1.148185,0
94,25,0.3,51.182533,51.299423,0.11,0.11,-0.11689,0
95,25,0.3,47.696804,51.078205,0.11,0.11,-3.381401,0
96,25,0.3,49.14282,54.70889,0.11,0.11,-5.56607,0
97,25,0.3,51.327686,57.0073,0.11,0.11,-5.679614,0
98,25,0.3,52.024937,57.0317,0.11,0.11,-5.006763,0
99,25,0.3,49.901226,56.297188,0.11,0.11,-6.395962,0
100,25,0.3,51.82774,55.6129,0.11,0.11,-3.78516,0
101,25,0.3,47.91849,54.427956,0.11,0.11,-6.509466,0
102,25,0.3,51.539917,53.243626,0.11,0.11,-1.703709,0
103,25,0.3,51.435402,51.572437,0.11,0.11,-0.137035,0
104,25,0.3,50.859837,53.73303,0.11,0.11,-2.873193,0
105,25,0.3,49.39707,53.92151,0.11,0.11,-4.52444,0
106,25,0.3,49.975117,50.558437,0.11,0.11,-0.58332,0
107,25,0.3,49.39699,54.0888,0.11,0.11,-4.69181,0
108,25,0.3,47.41868,54.020893,0.11,0.11,-6.602213,0
21,25,0.7,61.917805,59.711258,0.81,0.39,2.206547,0.42
22,25,0.7,62.578987,60.47142,0.89,0.13,2.107567,0.76
23,25,0.7,60.664474,61.517807,0.72,0.24,-0.853333,0.48
24,25,0.7,64.27423,63.01363,0.88,0.45,1.2606,0.43
25,25,0.7,62.07234,60.30101,0.84,0.22,1.77133,0.62
26,25,0.7,58.46757,60.554996,0.76,0.7,-2.087426,0.06
27,25,0.7,61.130753,61.580082,0.61,0.38,-0.449329,0.23
28,25,0.7,63.712914,61.88852,0.8,0.73,1.824394,0.07
29,25,0.7,63.18679,57.669537,0.83,0.16,5.517253,0.67
30,25,0.7,61.56549,62.00889,0.86,0.73,-0.4434,0.13
31,25,0.7,62.995773,64.171684,0.84,0.72,-1.175911,0.12
32,25,0.7,62.59276,64.45909,0.79,0.72,-1.86633,0.07
33,25,0.7,64.40194,61.020096,0.77,0.71,3.381844,0.06
34,25,0.7,63.44107,61.51202,0.8,0.71,1.92905,0.09
35,25,0.7,62.19541,61.52315,0.79,0.72,0.67226,0.07
36,25,0.7,63.298454,59.74344,0.48,0.73,3.555014,-0.25
37,25,0.7,60.886715,62.757965,0.29,0.76,-1.87125,-0.47
38,25,0.7,60.0729,60.07489,0.76,0.61,-0.00199,0.15
39,25,0.7,62.28932,60.739002,0.81,0.38,1.550318,0.43
40,25,0.7,66.668274,58.21952,0.78,0.72,8.448754,0.06
41,25,0.7,62.06922,59.96333,0.8,0.66,2.10589,0.14
42,25,0.7,59.998722,60.504086,0.81,0.73,-0.505364,0.08
43,25,0.7,63.29899,59.200375,0.8,0.72,4.098615,0.08
44,25,0.7,62.785225,63.728943,0.78,0.74,-0.943718,0.04
45,25,0.7,64.255035,59.06852,0.8,0.6,5.186515,0.2
46,25,0.7,61.275692,55.35376,0.51,0.57,5.921932,-0.06
47,25,0.7,61.521736,59.915054,0.78,0.69,1.606682,0.09
48,25,0.7,60.474373,62.744892,0.62,0.71,-2.270519,-0.09
49,25,0.7,63.370674,60.47101,0.71,0.72,2.899664,-0.01
50,25,0.7,63.22458,62.99997,0.57,0.7,0.22461,-0.13
51,25,0.7,68.297935,62.6941,0.76,0.72,5.603835,0.04
52,25,0.7,71.3509,63.540455,0.8,0.7,7.810445,0.1
53,25,0.7,71.50342,59.73638,0.8,0.52,11.76704,0.28
54,25,0.7,67.258736,59.985588,0.79,0.73,7.273148,0.06
55,25,0.7,70.9084,60.85547,0.77,0.72,10.05293,0.05
56,25,0.7,66.587395,60.23161,0.73,0.72,6.355785,0.01
57,25,0.7,66.31218,63.192593,0.59,0.72,3.119587,-0.13
58,25,0.7,61.208637,60.895374,0.81,0.73,0.313263,0.08
59,25,0.7,58.875713,60.04907,0.78,0.64,-1.173357,0.14
60,25,0.7,58.857857,60.679398,0.4,0.39,-1.821541,0.01
61,25,0.7,63.910633,58.10617,0.46,0.42,5.804463,0.04
62,25,0.7,63.176155,57.01738,0.82,0.46,6.158775,0.36
63,25,0.7,65.19475,52.492218,0.61,0.11,12.702532,0.5
64,25,0.7,65.887146,53.717842,0.56,0.19,12.169304,0.37
65,25,0.7,62.123257,53.363346,0.54,0.18,8.759911,0.36
66,25,0.7,57.807198,58.26536,0.3,0.33,-0.458162,-0.03
67,25,0.7,63.478203,53.47972,0.78,0.29,9.998483,0.49
68,25,0.7,63.993603,47.213837,0.81,0.11,16.779766,0.7
69,25,0.7,59.547623,55.375614,0.33,0.11,4.172009,0.22
70,25,0.7,55.882416,53.700897,0.12,0.11,2.181519,0.01
71,25,0.7,59.8773,56.95871,0.48,0.41,2.91859,0.07
72,25,0.7,63.83018,57.816032,0.64,0.23,6.014148,0.41
73,25,0.7,65.36416,58.37857,0.41,0.13,6.98559,0.28
74,25,0.7,65.034874,56.157806,0.61,0.39,8.877068,0.22
75,25,0.7,58.500546,59.810745,0.58,0.34,-1.310199,0.24
76,25,0.7,53.832607,56.969757,0.33,0.11,-3.13715,0.22
77,25,0.7,57.087036,57.093925,0.25,0.22,-0.006889,0.03
78,25,0.7,53.15523,57.087887,0.3,0.34,-3.932657,-0.04
79,25,0.7,54.329884,54.971165,0.28,0.17,-0.641281,0.11
80,25,0.7,52.82749,52.648754,0.25,0.25,0.178736,0
81,25,0.7,55.721287,52.225258,0.29,0.11,3.496029,0.18
82,25,0.7,54.43994,52.971935,0.11,0.14,1.468005,-0.03
83,25,0.7,51.895447,55.816067,0.11,0.15,-3.92062,-0.04
84,25,0.7,52.30403,48.243313,0.11,0.11,4.060717,0
85,25,0.7,51.491936,49.51484,0.11,0.11,1.977096,0
86,25,0.7,50.790146,50.907166,0.11,0.12,-0.11702,-0.01
87,25,0.7,47.593693,49.520023,0.11,0.11,-1.92633,0
88,25,0.7,45.742054,51.727314,0.11,0.11,-5.98526,0
89,25,0.7,51.530663,47.27002,0.11,0.11,4.260643,0
90,25,0.7,47.809925,52.04811,0.11,0.11,-4.238185,0
91,25,0.7,46.509823,52.345318,0.11,0.11,-5.835495,0
92,25,0.7,50.74163,53.390182,0.11,0.11,-2.648552,0
93,25,0.7,52.44488,50.488056,0.11,0.11,1.956824,0
94,25,0.7,47.30117,51.376938,0.11,0.11,-4.075768,0
95,25,0.7,47.590298,51.069363,0.11,0.11,-3.479065,0
96,25,0.7,50.022152,54.957664,0.11,0.11,-4.935512,0
97,25,0.7,51.960243,56.95779,0.11,0.11,-4.997547,0
98,25,0.7,51.529762,56.791355,0.11,0.11,-5.261593,0
99,25,0.7,51.301655,56.552586,0.11,0.11,-5.250931,0
100,25,0.7,50.080746,55.174576,0.11,0.11,-5.09383,0
101,25,0.7,49.748672,54.286255,0.11,0.11,-4.537583,0
102,25,0.7,50.719288,52.52284,0.11,0.11,-1.803552,0
103,25,0.7,50.223625,52.788536,0.11,0.11,-2.564911,0
104,25,0.7,51.241787,52.371273,0.11,0.11,-1.129486,0
105,25,0.7,50.97491,54.215496,0.11,0.11,-3.240586,0
106,25,0.7,50.391556,52.790627,0.11,0.11,-2.399071,0
107,25,0.7,51.39547,53.993546,0.11,0.11,-2.598076,0
108,25,0.7,47.16797,52.78445,0.11,0.11,-5.61648,0
21,25,1,60.44385,60.631767,0.96,0.39,-0.187917,0.57
22,25,1,57.89842,61.423893,0.73,0.13,-3.525473,0.6
23,25,1,61.210125,61.08595,1,0.18,0.124175,0.82
24,25,1,64.077805,62.560635,1.16,0.48,1.51717,0.68
25,25,1,62.181755,60.525608,1.13,0.22,1.656147,0.91
26,25,1,56.462284,60.38899,0.7,0.7,-3.926706,0
27,25,1,60.80059,61.497295,0.61,0.33,-0.696705,0.28
28,25,1,63.56755,61.906723,1.03,1.01,1.660827,0.02
29,25,1,62.655758,57.560577,1.11,0.16,5.095181,0.95
30,25,1,60.582245,61.83997,1.01,1.03,-1.257725,-0.02
31,25,1,58.372536,64.225334,0.85,1.01,-5.852798,-0.16
32,25,1,58.776043,64.64261,1.06,0.97,-5.866567,0.09
33,25,1,63.977844,61.38345,1.06,0.95,2.594394,0.11
34,25,1,65.46231,61.95521,1.07,0.84,3.5071,0.23
35,25,1,62.4327,62.090286,0.85,1.01,0.342414,-0.16
36,25,1,64.06352,59.77649,0.51,0.76,4.28703,-0.25
37,25,1,61.106293,63.279102,0.32,1.04,-2.172809,-0.72
38,25,1,60.113747,59.650085,0.68,0.61,0.463662,0.07
39,25,1,62.16339,64.34343,1.09,0.38,-2.18004,0.71
40,25,1,66.39046,58.620193,0.9,0.85,7.770267,0.05
41,25,1,62.83526,61.743843,1.11,0.66,1.091417,0.45
42,25,1,60.71181,60.559902,1.09,0.9,0.151908,0.19
43,25,1,63.501545,59.680393,0.82,0.71,3.821152,0.11
44,25,1,63.145725,63.32642,0.78,0.78,-0.180695,0
45,25,1,64.0992,62.0438,0.99,0.65,2.0554,0.34
46,25,1,61.26211,55.88932,0.52,0.65,5.37279,-0.13
47,25,1,61.25523,60.192673,0.86,0.97,1.062557,-0.11
48,25,1,60.408844,62.674812,0.58,1.01,-2.265968,-0.43
49,25,1,62.60653,62.861195,0.76,0.95,-0.254665,-0.19
50,25,1,61.66059,62.55091,0.58,0.72,-0.89032,-0.14
51,25,1,68.50729,61.97874,0.91,0.99,6.52855,-0.08
52,25,1,71.08133,63.97059,1.08,0.94,7.11074,0.14
53,25,1,71.79639,60.457516,1.08,0.52,11.338874,0.56
54,25,1,66.61722,60.460762,1.09,1.02,6.156458,0.07
55,25,1,70.87545,63.41721,0.89,1.02,7.45824,-0.13
56,25,1,66.78213,61.39821,0.71,1.02,5.38392,-0.31
57,25,1,66.08079,65.627045,0.59,0.98,0.453745,-0.39
58,25,1,60.278126,61.390743,0.88,0.86,-1.112617,0.02
59,25,1,58.30894,60.917892,0.79,0.63,-2.608952,0.16
60,25,1,59.54522,60.991238,0.42,0.38,-1.446018,0.04
61,25,1,64.299164,58.201004,0.46,0.42,6.09816,0.04
62,25,1,63.59143,58.301353,0.91,0.48,5.290077,0.43
63,25,1,65.05255,51.866554,0.59,0.11,13.185996,0.48
64,25,1,65.892624,55.02405,0.59,0.19,10.868574,0.4
65,25,1,62.188385,56.24652,0.52,0.18,5.941865,0.34
66,25,1,58.41764,58.966003,0.3,0.34,-0.548363,-0.04
67,25,1,63.444748,52.438755,0.8,0.29,11.005993,0.51
68,25,1,64.48772,51.506744,1.12,0.11,12.980976,1.01
69,25,1,59.517918,56.692677,0.34,0.11,2.825241,0.23
70,25,1,56.430916,51.873283,0.12,0.11,4.557633,0.01
71,25,1,59.525757,58.583508,0.47,0.41,0.942249,0.06
72,25,1,63.00261,57.674023,0.65,0.23,5.328587,0.42
73,25,1,64.82715,59.07365,0.41,0.13,5.7535,0.28
74,25,1,66.27418,58.871086,0.62,0.39,7.403094,0.23
75,25,1,57.78795,59.495617,0.6,0.34,-1.707667,0.26
76,25,1,53.714394,59.015015,0.33,0.11,-5.300621,0.22
77,25,1,56.67719,59.244392,0.25,0.22,-2.567202,0.03
78,25,1,53.195236,56.745483,0.29,0.33,-3.550247,-0.04
79,25,1,53.59045,55.690254,0.28,0.16,-2.099804,0.12
80,25,1,54.201477,55.60298,0.25,0.25,-1.401503,0
81,25,1,56.525116,52.16381,0.29,0.11,4.361306,0.18
82,25,1,53.9236,51.851257,0.11,0.13,2.072343,-0.02
83,25,1,52.735962,55.970703,0.11,0.15,-3.234741,-0.04
84,25,1,50.075344,49.74831,0.11,0.11,0.327034,0
85,25,1,54.116955,58.455067,0.11,0.11,-4.338112,0
86,25,1,51.844505,51.343235,0.11,0.12,0.50127,-0.01
87,25,1,50.259007,49.73078,0.11,0.11,0.528227,0
88,25,1,45.484066,51.470585,0.11,0.11,-5.986519,0
89,25,1,51.26147,46.83222,0.11,0.11,4.42925,0
90,25,1,46.296616,51.69303,0.11,0.11,-5.396414,0
91,25,1,46.629757,55.90777,0.11,0.11,-9.278013,0
92,25,1,48.540333,52.92582,0.11,0.11,-4.385487,0
93,25,1,52.69452,52.229744,0.11,0.11,0.464776,0
94,25,1,49.396317,51.974182,0.11,0.11,-2.577865,0
95,25,1,49.72251,50.600243,0.11,0.11,-0.877733,0
96,25,1,50.083508,56.846935,0.11,0.11,-6.763427,0
97,25,1,52.103477,58.934578,0.11,0.11,-6.831101,0
98,25,1,51.527714,58.220688,0.11,0.11,-6.692974,0
99,25,1,50.74589,58.24379,0.11,0.11,-7.4979,0
100,25,1,47.620316,57.427296,0.11,0.11,-9.80698,0
101,25,1,49.507988,56.515003,0.11,0.11,-7.007015,0
102,25,1,50.821598,54.816742,0.11,0.11,-3.995144,0
103,25,1,48.83936,56.512096,0.11,0.11,-7.672736,0
104,25,1,50.35585,54.372482,0.11,0.11,-4.016632,0
105,25,1,52.69619,56.418686,0.11,0.11,-3.722496,0
106,25,1,49.587925,53.9991,0.11,0.11,-4.411175,0
107,25,1,47.40393,56.978405,0.11,0.11,-9.574475,0
108,25,1,47.241848,55.172607,0.11,0.11,-7.930759,0
21,33,0.1,63.175873,61.46244,0.35,0.2,1.713433,0.15
22,33,0.1,62.805527,63.927074,0.36,0.18,-1.121547,0.18
23,33,0.1,63.154182,64.401695,0.26,0.19,-1.247513,0.07
24,33,0.1,66.16168,65.62567,0.22,0.18,0.53601,0.04
25,33,0.1,64.60869,63.089737,0.42,0.18,1.518953,0.24
26,33,0.1,61.633854,63.73607,0.26,0.19,-2.102216,0.07
27,33,0.1,64.020584,64.47884,0.35,0.17,-0.458256,0.18
28,33,0.1,65.54745,65.181,0.28,0.18,0.36645,0.1
29,33,0.1,65.176346,61.660465,0.25,0.15,3.515881,0.1
30,33,0.1,62.535255,65.52477,0.3,0.2,-2.989515,0.1
31,33,0.1,62.683746,66.71298,0.31,0.2,-4.029234,0.11
32,33,0.1,64.09943,68.06007,0.27,0.16,-3.96064,0.11
33,33,0.1,67.339066,65.65766,0.32,0.19,1.681406,0.13
34,33,0.1,66.60066,65.73087,0.34,0.18,0.86979,0.16
35,33,0.1,63.167095,64.48214,0.24,0.17,-1.315045,0.07
36,33,0.1,66.46639,64.137985,0.36,0.16,2.328405,0.2
37,33,0.1,63.509987,64.72943,0.24,0.18,-1.219443,0.06
38,33,0.1,63.112785,63.494823,0.24,0.15,-0.382038,0.09
39,33,0.1,63.94368,63.344254,0.25,0.18,0.599426,0.07
40,33,0.1,68.8864,62.75839,0.3,0.21,6.12801,0.09
41,33,0.1,65.441376,64.30919,0.31,0.14,1.132186,0.17
42,33,0.1,62.381042,63.718437,0.28,0.2,-1.337395,0.08
43,33,0.1,66.69001,63.916656,0.39,0.18,2.773354,0.21
44,33,0.1,64.8159,67.29623,0.25,0.18,-2.48033,0.07
45,33,0.1,67.55639,63.368225,0.3,0.17,4.188165,0.13
46,33,0.1,65.10691,60.29761,0.26,0.18,4.8093,0.08
47,33,0.1,63.36491,63.16701,0.27,0.19,0.1979,0.08
48,33,0.1,62.72784,65.32408,0.22,0.18,-2.59624,0.04
49,33,0.1,65.68802,65.045876,0.31,0.14,0.642144,0.17
50,33,0.1,65.11983,65.549194,0.24,0.14,-0.429364,0.1
51,33,0.1,71.002815,65.82706,0.33,0.2,5.175755,0.13
52,33,0.1,73.70436,67.13647,0.29,0.19,6.56789,0.1
53,33,0.1,74.16423,65.09322,0.28,0.15,9.07101,0.13
54,33,0.1,68.77354,63.2757,0.27,0.19,5.49784,0.08
55,33,0.1,73.41266,65.20394,0.4,0.15,8.20872,0.25
56,33,0.1,68.738815,64.38086,0.26,0.13,4.357955,0.13
57,33,0.1,68.21315,66.15861,0.27,0.19,2.05454,0.08
58,33,0.1,64.925766,64.636086,0.26,0.19,0.28968,0.07
59,33,0.1,61.20842,63.26324,0.31,0.17,-2.05482,0.14
60,33,0.1,63.328102,63.246216,0.26,0.13,0.081886,0.13
61,33,0.1,66.64203,62.28494,0.28,0.16,4.35709,0.12
62,33,0.1,67.11396,60.379494,0.28,0.15,6.734466,0.13
63,33,0.1,68.16105,55.288883,0.24,0.12,12.872167,0.12
64,33,0.1,68.3266,57.15337,0.29,0.13,11.17323,0.16
65,33,0.1,64.74777,58.970993,0.23,0.16,5.776777,0.07
66,33,0.1,60.9682,62.196518,0.25,0.19,-1.228318,0.06
67,33,0.1,64.95465,55.174957,0.25,0.19,9.779693,0.06
68,33,0.1,66.57268,53.793625,0.29,0.11,12.779055,0.18
69,33,0.1,62.93982,58.377335,0.23,0.2,4.562485,0.03
70,33,0.1,61.709057,57.160534,0.3,0.17,4.548523,0.13
71,33,0.1,62.424618,61.4073,0.23,0.15,1.017318,0.08
72,33,0.1,65.75818,61.76107,0.26,0.21,3.99711,0.05
73,33,0.1,68.593765,61.023327,0.27,0.19,7.570438,0.08
74,33,0.1,70.032814,61.36932,0.29,0.16,8.663494,0.13
75,33,0.1,62.917778,63.729626,0.24,0.24,-0.811848,0
76,33,0.1,56.38185,59.96879,0.26,0.12,-3.58694,0.14
77,33,0.1,60.073547,62.708076,0.27,0.22,-2.634529,0.05
78,33,0.1,56.758324,61.081352,0.24,0.18,-4.323028,0.06
79,33,0.1,57.039963,60.03024,0.27,0.15,-2.990277,0.12
80,33,0.1,58.08214,53.996674,0.25,0.16,4.085466,0.09
81,33,0.1,59.44715,57.783985,0.26,0.13,1.663165,0.13
82,33,0.1,57.198135,58.57858,0.11,0.16,-1.380445,-0.05
83,33,0.1,54.999134,60.753914,0.11,0.14,-5.75478,-0.03
84,33,0.1,55.494724,52.36804,0.11,0.21,3.126684,-0.1
85,33,0.1,56.246033,53.38234,0.11,0.11,2.863693,0
86,33,0.1,54.893105,55.184517,0.11,0.16,-0.291412,-0.05
87,33,0.1,54.665504,52.70518,0.11,0.11,1.960324,0
88,33,0.1,51.16748,55.447746,0.11,0.11,-4.280266,0
89,33,0.1,49.752712,51.70511,0.11,0.11,-1.952398,0
90,33,0.1,51.325836,56.371826,0.11,0.11,-5.04599,0
91,33,0.1,51.222805,56.183872,0.11,0.11,-4.961067,0
92,33,0.1,54.105843,56.77758,0.11,0.13,-2.671737,-0.02
93,33,0.1,52.232082,54.410076,0.11,0.11,-2.177994,0
94,33,0.1,52.706154,54.09749,0.11,0.11,-1.391336,0
95,33,0.1,51.27163,53.024254,0.11,0.11,-1.752624,0
96,33,0.1,54.152287,57.17502,0.11,0.11,-3.022733,0
97,33,0.1,55.3151,58.977104,0.11,0.11,-3.662004,0
98,33,0.1,55.407642,58.248333,0.11,0.11,-2.840691,0
99,33,0.1,53.70333,58.232697,0.11,0.11,-4.529367,0
100,33,0.1,55.32732,57.07219,0.11,0.11,-1.74487,0
101,33,0.1,54.42361,56.363155,0.11,0.11,-1.939545,0
102,33,0.1,54.523605,54.615295,0.11,0.11,-0.09169,0
103,33,0.1,52.216015,54.26459,0.11,0.11,-2.048575,0
104,33,0.1,54.470764,55.940697,0.11,0.11,-1.469933,0
105,33,0.1,52.91259,56.13811,0.11,0.11,-3.22552,0
106,33,0.1,53.138504,54.385517,0.11,0.11,-1.247013,0
107,33,0.1,51.045116,55.862026,0.11,0.11,-4.81691,0
108,33,0.1,51.771507,55.511494,0.11,0.11,-3.739987,0
21,33,0.3,63.96749,63.209045,0.53,0.38,0.758445,0.15
22,33,0.3,65.33745,64.529015,0.6,0.39,0.808435,0.21
23,33,0.3,63.238274,64.53363,0.42,0.38,-1.295356,0.04
24,33,0.3,66.69288,66.3336,0.5,0.38,0.35928,0.12
25,33,0.3,64.10955,63.304585,0.53,0.4,0.804965,0.13
26,33,0.3,62.292297,63.262344,0.5,0.4,-0.970047,0.1
27,33,0.3,64.51197,64.06879,0.52,0.4,0.44318,0.12
28,33,0.3,66.78894,65.24843,0.45,0.43,1.54051,0.02
29,33,0.3,64.36253,62.16329,0.75,0.27,2.19924,0.48
30,33,0.3,63.570965,65.3268,0.47,0.41,-1.755835,0.06
31,33,0.3,65.99658,66.449875,0.56,0.4,-0.453295,0.16
32,33,0.3,65.60105,67.354744,0.5,0.37,-1.753694,0.13
33,33,0.3,67.74991,65.52113,0.51,0.37,2.22878,0.14
34,33,0.3,67.31341,65.072845,0.52,0.37,2.240565,0.15
35,33,0.3,64.88788,65.11769,0.45,0.38,-0.22981,0.07
36,33,0.3,60.974667,64.096436,0.55,0.36,-3.121769,0.19
37,33,0.3,63.848698,65.842545,0.41,0.41,-1.993847,0
38,33,0.3,63.48427,63.894947,0.46,0.37,-0.410677,0.09
39,33,0.3,65.07963,63.179077,0.44,0.35,1.900553,0.09
40,33,0.3,69.121,62.01754,0.54,0.39,7.10346,0.15
41,33,0.3,65.30443,63.722466,0.44,0.37,1.581964,0.07
42,33,0.3,62.708664,63.5754,0.45,0.41,-0.866736,0.04
43,33,0.3,67.034096,63.966877,0.57,0.36,3.067219,0.21
44,33,0.3,64.86332,67.42523,0.47,0.39,-2.56191,0.08
45,33,0.3,67.277954,62.71208,0.4,0.36,4.565874,0.04
46,33,0.3,65.464355,58.835213,0.39,0.36,6.629142,0.03
47,33,0.3,63.366608,63.171562,0.45,0.38,0.195046,0.07
48,33,0.3,62.608612,65.37111,0.41,0.39,-2.762498,0.02
49,33,0.3,66.086754,64.97377,0.41,0.32,1.112984,0.09
50,33,0.3,65.25126,65.60501,0.44,0.34,-0.35375,0.1
51,33,0.3,71.30717,65.98541,0.51,0.36,5.32176,0.15
52,33,0.3,73.683136,67.18794,0.48,0.34,6.495196,0.14
53,33,0.3,73.81031,64.385056,0.45,0.33,9.425254,0.12
54,33,0.3,69.1011,63.693893,0.46,0.35,5.407207,0.11
55,33,0.3,73.15125,65.151115,0.54,0.35,8.000135,0.19
56,33,0.3,68.80133,64.011284,0.4,0.34,4.790046,0.06
57,33,0.3,68.20302,65.19064,0.41,0.32,3.01238,0.09
58,33,0.3,64.36513,64.70466,0.43,0.36,-0.33953,0.07
59,33,0.3,62.687107,63.079712,0.5,0.37,-0.392605,0.13
60,33,0.3,62.63889,62.86781,0.42,0.35,-0.22892,0.07
61,33,0.3,67.40454,61.556118,0.45,0.35,5.848422,0.1
62,33,0.3,66.718765,60.345135,0.48,0.32,6.37363,0.16
63,33,0.3,67.35437,56.75293,0.45,0.21,10.60144,0.24
64,33,0.3,68.361404,58.563404,0.43,0.26,9.798,0.17
65,33,0.3,64.3627,57.082832,0.41,0.3,7.279868,0.11
66,33,0.3,61.778595,63.047386,0.36,0.35,-1.268791,0.01
67,33,0.3,65.55966,55.37508,0.44,0.36,10.18458,0.08
68,33,0.3,66.48008,53.833836,0.46,0.13,12.646244,0.33
69,33,0.3,62.172646,58.420326,0.4,0.29,3.75232,0.11
70,33,0.3,61.385258,57.32459,0.48,0.25,4.060668,0.23
71,33,0.3,62.048237,62.293377,0.42,0.34,-0.24514,0.08
72,33,0.3,65.45152,61.85559,0.45,0.31,3.59593,0.14
73,33,0.3,68.742516,64.255165,0.41,0.15,4.487351,0.26
74,33,0.3,69.577225,60.936604,0.46,0.36,8.640621,0.1
75,33,0.3,62.52112,63.51171,0.42,0.35,-0.99059,0.07
76,33,0.3,56.92337,60.112675,0.42,0.19,-3.189305,0.23
77,33,0.3,58.96991,63.446037,0.28,0.24,-4.476127,0.04
78,33,0.3,57.942825,61.104965,0.4,0.35,-3.16214,0.05
79,33,0.3,56.544964,59.01645,0.31,0.19,-2.471486,0.12
80,33,0.3,58.960587,55.36357,0.31,0.28,3.597017,0.03
81,33,0.3,59.12204,58.020325,0.32,0.17,1.101715,0.15
82,33,0.3,58.251366,59.31604,0.11,0.21,-1.064674,-0.1
83,33,0.3,54.2117,60.49712,0.11,0.17,-6.28542,-0.06
84,33,0.3,52.423573,51.996136,0.11,0.23,0.427437,-0.12
85,33,0.3,55.61636,54.811275,0.11,0.11,0.805085,0
86,33,0.3,54.151695,54.51865,0.11,0.17,-0.366955,-0.06
87,33,0.3,54.03502,52.823654,0.11,0.11,1.211366,0
88,33,0.3,48.822254,54.119926,0.11,0.11,-5.297672,0
89,33,0.3,52.090904,50.531967,0.11,0.11,1.558937,0
90,33,0.3,51.52803,56.05745,0.11,0.11,-4.52942,0
91,33,0.3,51.18865,54.701954,0.11,0.11,-3.513304,0
92,33,0.3,54.049946,56.090015,0.11,0.13,-2.040069,-0.02
93,33,0.3,55.137115,54.826714,0.11,0.11,0.310401,0
94,33,0.3,51.438717,55.443375,0.11,0.11,-4.004658,0
95,33,0.3,52.807697,53.368458,0.11,0.11,-0.560761,0
96,33,0.3,52.441666,57.46763,0.11,0.11,-5.025964,0
97,33,0.3,56.2628,58.969868,0.11,0.11,-2.707068,0
98,33,0.3,54.68119,58.659264,0.11,0.11,-3.978074,0
99,33,0.3,53.056404,58.339966,0.11,0.11,-5.283562,0
100,33,0.3,52.9159,57.583748,0.11,0.11,-4.667848,0
101,33,0.3,53.43838,56.663742,0.11,0.11,-3.225362,0
102,33,0.3,54.373978,56.543343,0.11,0.11,-2.169365,0
103,33,0.3,54.605785,55.144077,0.11,0.11,-0.538292,0
104,33,0.3,54.451347,55.178623,0.11,0.11,-0.727276,0
105,33,0.3,53.76221,55.06872,0.11,0.11,-1.30651,0
106,33,0.3,53.758686,54.599842,0.11,0.11,-0.841156,0
107,33,0.3,52.475792,55.916348,0.11,0.11,-3.440556,0
108,33,0.3,52.334736,55.60974,0.11,0.11,-3.275004,0
21,33,0.7,64.520645,62.867058,0.79,0.77,1.653587,0.02
22,33,0.7,64.82554,63.79712,0.95,0.53,1.02842,0.42
23,33,0.7,62.485744,64.45112,0.84,0.73,-1.965376,0.11
24,33,0.7,66.57831,66.181496,0.85,0.75,0.396814,0.1
25,33,0.7,64.78862,62.499176,0.84,0.74,2.289444,0.1
26,33,0.7,62.03666,62.994434,0.82,0.75,-0.957774,0.07
27,33,0.7,63.41073,63.366455,0.73,0.74,0.044275,-0.01
28,33,0.7,65.97261,65.10787,0.94,0.78,0.86474,0.16
29,33,0.7,65.5298,62.067978,0.85,0.71,3.461822,0.14
30,33,0.7,63.737473,65.15009,0.88,0.77,-1.412617,0.11
31,33,0.7,65.55893,67.052505,0.85,0.75,-1.493575,0.1
32,33,0.7,66.46646,67.35189,0.83,0.75,-0.88543,0.08
33,33,0.7,67.17089,64.95517,0.89,0.73,2.21572,0.16
34,33,0.7,67.04031,65.02863,0.78,0.75,2.01168,0.03
35,33,0.7,64.78257,64.99949,0.84,0.75,-0.21692,0.09
36,33,0.7,65.1952,63.829025,0.8,0.74,1.366175,0.06
37,33,0.7,64.35855,65.78607,0.7,0.77,-1.42752,-0.07
38,33,0.7,63.56852,63.527596,0.83,0.72,0.040924,0.11
39,33,0.7,64.62208,63.274582,0.82,0.75,1.347498,0.07
40,33,0.7,68.88619,61.28451,0.81,0.75,7.60168,0.06
41,33,0.7,65.73247,64.14212,0.8,0.73,1.59035,0.07
42,33,0.7,63.003326,63.02565,0.81,0.74,-0.022324,0.07
43,33,0.7,66.6334,63.91687,0.85,0.72,2.71653,0.13
44,33,0.7,65.54759,66.66012,0.78,0.77,-1.11253,0.01
45,33,0.7,67.3984,62.535606,0.79,0.75,4.862794,0.04
46,33,0.7,64.90119,58.707672,0.78,0.7,6.193518,0.08
47,33,0.7,63.484688,63.551716,0.78,0.72,-0.067028,0.06
48,33,0.7,62.467155,65.114685,0.67,0.72,-2.64753,-0.05
49,33,0.7,66.17607,64.7436,0.79,0.72,1.43247,0.07
50,33,0.7,65.43107,65.34983,0.67,0.71,0.08124,-0.04
51,33,0.7,70.91471,66.10681,0.78,0.73,4.8079,0.05
52,33,0.7,74.153824,67.267746,0.81,0.71,6.886078,0.1
53,33,0.7,74.11658,64.86236,0.8,0.68,9.25422,0.12
54,33,0.7,69.17373,63.40504,0.8,0.73,5.76869,0.07
55,33,0.7,73.46805,64.52373,0.78,0.72,8.94432,0.06
56,33,0.7,69.29663,64.71704,0.76,0.72,4.57959,0.04
57,33,0.7,68.46591,65.902214,0.67,0.73,2.563696,-0.06
58,33,0.7,64.534164,64.83108,0.82,0.74,-0.296916,0.08
59,33,0.7,61.104095,62.015156,0.8,0.72,-0.911061,0.08
60,33,0.7,62.456676,63.530346,0.51,0.51,-1.07367,0
61,33,0.7,66.54326,61.27158,0.52,0.54,5.27168,-0.02
62,33,0.7,66.71627,60.21017,0.83,0.55,6.5061,0.28
63,33,0.7,67.33524,56.195087,0.7,0.2,11.140153,0.5
64,33,0.7,68.92135,57.623203,0.64,0.24,11.298147,0.4
65,33,0.7,65.12286,56.635006,0.59,0.29,8.487854,0.3
66,33,0.7,59.937836,62.542274,0.36,0.43,-2.604438,-0.07
67,33,0.7,65.8536,56.392548,0.83,0.42,9.461052,0.41
68,33,0.7,66.00516,53.83379,0.82,0.13,12.17137,0.69
69,33,0.7,61.87271,58.993843,0.38,0.29,2.878867,0.09
70,33,0.7,60.14655,55.606174,0.67,0.25,4.540376,0.42
71,33,0.7,63.137245,62.024864,0.53,0.46,1.112381,0.07
72,33,0.7,65.90969,61.879982,0.7,0.37,4.029708,0.33
73,33,0.7,68.013504,60.0805,0.44,0.15,7.933004,0.29
74,33,0.7,69.43112,64.102455,0.65,0.57,5.328665,0.08
75,33,0.7,62.652752,63.923744,0.73,0.42,-1.270992,0.31
76,33,0.7,57.311565,59.347385,0.43,0.19,-2.03582,0.24
77,33,0.7,60.829422,58.851265,0.28,0.24,1.978157,0.04
78,33,0.7,56.838226,61.583893,0.41,0.4,-4.745667,0.01
79,33,0.7,55.816326,59.37751,0.31,0.19,-3.561184,0.12
80,33,0.7,59.00621,56.312046,0.31,0.28,2.694164,0.03
81,33,0.7,60.087875,57.725754,0.31,0.17,2.362121,0.14
82,33,0.7,57.705067,59.652767,0.11,0.21,-1.9477,-0.1
83,33,0.7,54.776237,60.34566,0.11,0.17,-5.569423,-0.06
84,33,0.7,52.82889,51.8254,0.11,0.22,1.00349,-0.11
85,33,0.7,55.292168,52.98825,0.11,0.11,2.303918,0
86,33,0.7,54.150322,54.7324,0.11,0.17,-0.582078,-0.06
87,33,0.7,54.0704,52.05069,0.11,0.11,2.01971,0
88,33,0.7,50.81097,54.274536,0.11,0.11,-3.463566,0
89,33,0.7,51.580574,49.731293,0.11,0.11,1.849281,0
90,33,0.7,51.09452,56.062317,0.11,0.11,-4.967797,0
91,33,0.7,52.369812,55.631084,0.11,0.11,-3.261272,0
92,33,0.7,54.134533,56.892136,0.11,0.12,-2.757603,-0.01
93,33,0.7,54.16375,54.63001,0.11,0.11,-0.46626,0
94,33,0.7,52.955517,53.801517,0.11,0.11,-0.846,0
95,33,0.7,50.7044,53.533028,0.11,0.11,-2.828628,0
96,33,0.7,54.057266,57.425823,0.11,0.11,-3.368557,0
97,33,0.7,53.830116,58.78869,0.11,0.11,-4.958574,0
98,33,0.7,53.642525,58.32648,0.11,0.11,-4.683955,0
99,33,0.7,53.117313,57.99524,0.11,0.11,-4.877927,0
100,33,0.7,53.71716,57.38317,0.11,0.11,-3.66601,0
101,33,0.7,53.521183,56.39009,0.11,0.11,-2.868907,0
102,33,0.7,53.80758,55.05463,0.11,0.11,-1.24705,0
103,33,0.7,53.114685,53.131844,0.11,0.11,-0.017159,0
104,33,0.7,55.81948,55.787895,0.11,0.11,0.031585,0
105,33,0.7,53.998764,55.63552,0.11,0.11,-1.636756,0
106,33,0.7,53.382843,53.042557,0.11,0.11,0.340286,0
107,33,0.7,52.934235,55.77964,0.11,0.11,-2.845405,0
108,33,0.7,51.329132,53.954445,0.11,0.11,-2.625313,0
21,33,1,64.14699,63.43914,1.12,1.06,0.70785,0.06
22,33,1,65.35728,63.6751,1.13,0.53,1.68218,0.6
23,33,1,63.40054,64.322075,1.09,0.7,-0.921535,0.39
24,33,1,67.21762,65.972595,1.18,1.04,1.245025,0.14
25,33,1,64.78854,63.06055,1.21,0.94,1.72799,0.27
26,33,1,62.30597,63.50374,1.09,1.03,-1.19777,0.06
27,33,1,63.406246,63.820923,1.08,0.97,-0.414677,0.11
28,33,1,67.11439,65.27131,1.07,1.06,1.84308,0.01
29,33,1,64.8597,62.46675,1.12,1.01,2.39295,0.11
30,33,1,63.11081,65.2678,1.05,1.03,-2.15699,0.02
31,33,1,65.69617,70.176605,1.13,1.03,-4.480435,0.1
32,33,1,66.5869,67.77621,1.14,1.04,-1.18931,0.1
33,33,1,67.75101,64.95476,1.14,1,2.79625,0.14
34,33,1,66.70641,65.43405,1.11,1.02,1.27236,0.09
35,33,1,64.53951,64.70391,1.09,1.04,-0.1644,0.05
36,33,1,65.34681,64.29424,1.13,1.04,1.05257,0.09
37,33,1,63.91394,67.392166,0.7,1.05,-3.478226,-0.35
38,33,1,63.51704,62.868076,1.12,1.02,0.648964,0.1
39,33,1,64.80214,65.52942,1.1,1.05,-0.72728,0.05
40,33,1,69.078064,62.893055,0.99,1.03,6.185009,-0.04
41,33,1,65.99805,65.61302,1.11,0.99,0.38503,0.12
42,33,1,62.122814,62.88993,1.11,1.03,-0.767116,0.08
43,33,1,66.88261,66.30994,0.97,1.01,0.57267,-0.04
44,33,1,65.06145,66.80036,1.07,1.05,-1.73891,0.02
45,33,1,67.540955,64.23103,1.05,1.05,3.309925,0
46,33,1,65.33545,58.89498,1.07,0.95,6.44047,0.12
47,33,1,62.41918,64.44291,0.94,0.99,-2.02373,-0.05
48,33,1,62.434288,66.4282,0.7,1.01,-3.993912,-0.31
49,33,1,65.65933,66.58503,0.98,1.02,-0.9257,-0.04
50,33,1,65.90648,65.15575,0.67,0.9,0.75073,-0.23
51,33,1,70.86783,66.29352,1.04,1,4.57431,0.04
52,33,1,73.75223,66.60036,1.08,1,7.15187,0.08
53,33,1,73.906555,64.8358,1.09,0.7,9.070755,0.39
54,33,1,68.79019,63.9887,1.09,1.02,4.80149,0.07
55,33,1,72.99551,65.41084,0.98,1.01,7.58467,-0.03
56,33,1,68.97127,65.49052,0.89,1.02,3.48075,-0.13
57,33,1,68.52341,68.74544,0.69,1,-0.22203,-0.31
58,33,1,63.634594,65.334145,1.03,1.02,-1.699551,0.01
59,33,1,61.043118,63.75441,0.92,0.82,-2.711292,0.1
60,33,1,62.988113,63.228207,0.5,0.51,-0.240094,-0.01
61,33,1,67.43564,61.963856,0.53,0.53,5.471784,0
62,33,1,66.23068,60.980194,1.11,0.56,5.250486,0.55
63,33,1,68.08884,60.97606,0.69,0.21,7.11278,0.48
64,33,1,68.24671,57.745197,0.64,0.23,10.501513,0.41
65,33,1,64.45082,56.630707,0.59,0.31,7.820113,0.28
66,33,1,61.540356,62.395958,0.35,0.43,-0.855602,-0.08
67,33,1,66.490295,55.68486,1.12,0.42,10.805435,0.7
68,33,1,66.18912,53.524323,1.16,0.13,12.664797,1.03
69,33,1,62.84815,60.00435,0.39,0.29,2.8438,0.1
70,33,1,58.258198,57.902195,0.65,0.25,0.356003,0.4
71,33,1,63.050217,62.37468,0.55,0.47,0.675537,0.08
72,33,1,65.98834,61.007042,0.7,0.36,4.981298,0.34
73,33,1,68.53525,63.50272,0.44,0.15,5.03253,0.29
74,33,1,68.12823,64.14806,0.63,0.56,3.98017,0.07
75,33,1,62.95132,63.535587,0.75,0.42,-0.584267,0.33
76,33,1,56.402756,62.012543,0.42,0.19,-5.609787,0.23
77,33,1,59.508263,61.510223,0.28,0.24,-2.00196,0.04
78,33,1,56.835293,61.791626,0.41,0.4,-4.956333,0.01
79,33,1,56.43779,59.482594,0.31,0.19,-3.044804,0.12
80,33,1,60.3487,58.192234,0.3,0.28,2.156466,0.02
81,33,1,59.11585,59.940937,0.32,0.17,-0.825087,0.15
82,33,1,57.07802,59.869576,0.14,0.21,-2.791556,-0.07
83,33,1,55.058544,60.934036,0.11,0.17,-5.875492,-0.06
84,33,1,55.232162,52.756035,0.11,0.22,2.476127,-0.11
85,33,1,55.79435,57.505604,0.11,0.11,-1.711254,0
86,33,1,53.537506,54.390408,0.11,0.17,-0.852902,-0.06
87,33,1,53.931263,52.401165,0.11,0.11,1.530098,0
88,33,1,49.612846,54.355747,0.11,0.11,-4.742901,0
89,33,1,52.47262,57.58872,0.11,0.11,-5.1161,0
90,33,1,52.98409,55.91249,0.11,0.11,-2.9284,0
91,33,1,51.350227,57.73917,0.11,0.15,-6.388943,-0.04
92,33,1,52.931236,56.44544,0.11,0.12,-3.514204,-0.01
93,33,1,53.68396,56.812466,0.11,0.11,-3.128506,0
94,33,1,52.804874,57.218754,0.11,0.11,-4.41388,0
95,33,1,52.81401,55.85065,0.11,0.11,-3.03664,0
96,33,1,51.17296,59.359795,0.11,0.11,-8.186835,0
97,33,1,55.19144,61.396957,0.11,0.11,-6.205517,0
98,33,1,53.988564,59.86673,0.11,0.11,-5.878166,0
99,33,1,53.452347,59.704758,0.11,0.11,-6.252411,0
100,33,1,53.23699,59.442245,0.11,0.11,-6.205255,0
101,33,1,52.90647,58.2797,0.11,0.11,-5.37323,0
102,33,1,54.767017,56.438854,0.11,0.11,-1.671837,0
103,33,1,53.04945,56.927113,0.11,0.11,-3.877663,0
104,33,1,54.5207,56.008995,0.11,0.11,-1.488295,0
105,33,1,53.7145,57.46324,0.11,0.11,-3.74874,0
106,33,1,52.19834,55.71704,0.11,0.11,-3.5187,0
107,33,1,51.87105,58.304935,0.11,0.11,-6.433885,0
108,33,1,51.885952,57.09406,0.11,0.11,-5.208108,0
21,41,0.1,66.74968,64.45526,0.4,0.24,2.29442,0.16
22,41,0.1,67.993774,66.42878,0.47,0.22,1.564994,0.25
23,41,0.1,65.20552,67.22018,0.29,0.24,-2.01466,0.05
24,41,0.1,67.57184,68.33868,0.31,0.23,-0.76684,0.08
25,41,0.1,67.17482,65.50072,0.45,0.24,1.6741,0.21
26,41,0.1,64.752014,64.64423,0.44,0.21,0.107784,0.23
27,41,0.1,65.927986,66.28656,0.35,0.22,-0.358574,0.13
28,41,0.1,68.48207,67.30144,0.47,0.22,1.18063,0.25
29,41,0.1,67.218796,65.0773,0.36,0.2,2.141496,0.16
30,41,0.1,66.16262,68.36703,0.37,0.2,-2.20441,0.17
31,41,0.1,68.699356,69.68707,0.35,0.23,-0.987714,0.12
32,41,0.1,68.321014,70.55887,0.37,0.22,-2.237856,0.15
33,41,0.1,70.01537,68.422516,0.46,0.22,1.592854,0.24
34,41,0.1,69.42602,68.22123,0.35,0.23,1.20479,0.12
35,41,0.1,67.60107,67.36629,0.31,0.2,0.23478,0.11
36,41,0.1,67.373634,67.41471,0.38,0.2,-0.041076,0.18
37,41,0.1,67.16114,67.33016,0.25,0.21,-0.16902,0.04
38,41,0.1,67.18581,64.63946,0.3,0.15,2.54635,0.15
39,41,0.1,67.56534,66.57228,0.29,0.23,0.99306,0.06
40,41,0.1,71.39911,63.02648,0.36,0.23,8.37263,0.13
41,41,0.1,68.75027,66.96973,0.33,0.21,1.78054,0.12
42,41,0.1,65.544945,65.88195,0.38,0.21,-0.337005,0.17
43,41,0.1,70.06749,66.851746,0.41,0.18,3.215744,0.23
44,41,0.1,67.92366,69.85985,0.36,0.22,-1.93619,0.14
45,41,0.1,70.33017,66.17648,0.3,0.24,4.15369,0.06
46,41,0.1,68.043015,62.658627,0.3,0.21,5.384388,0.09
47,41,0.1,66.08703,66.017815,0.33,0.19,0.069215,0.14
48,41,0.1,65.07727,67.18046,0.23,0.18,-2.10319,0.05
49,41,0.1,68.767494,67.943245,0.34,0.15,0.824249,0.19
50,41,0.1,67.80275,68.26929,0.28,0.22,-0.46654,0.06
51,41,0.1,72.968185,68.89104,0.33,0.21,4.077145,0.12
52,41,0.1,75.96852,70.17523,0.32,0.23,5.79329,0.09
53,41,0.1,76.05015,67.33164,0.28,0.2,8.71851,0.08
54,41,0.1,71.97159,65.31206,0.27,0.2,6.65953,0.07
55,41,0.1,74.83574,67.31467,0.23,0.15,7.52107,0.08
56,41,0.1,71.03566,67.300476,0.27,0.21,3.735184,0.06
57,41,0.1,70.44224,68.93323,0.3,0.21,1.50901,0.09
58,41,0.1,66.69157,67.59523,0.31,0.2,-0.90366,0.11
59,41,0.1,64.304344,65.95858,0.32,0.18,-1.654236,0.14
60,41,0.1,65.388214,65.67991,0.26,0.18,-0.291696,0.08
61,41,0.1,69.90471,64.934586,0.32,0.17,4.970124,0.15
62,41,0.1,69.06657,62.008167,0.3,0.16,7.058403,0.14
63,41,0.1,70.74859,60.752216,0.37,0.12,9.996374,0.25
64,41,0.1,70.58337,59.541805,0.29,0.14,11.041565,0.15
65,41,0.1,67.46587,62.426163,0.23,0.17,5.039707,0.06
66,41,0.1,63.31986,66.5121,0.27,0.24,-3.19224,0.03
67,41,0.1,68.35204,58.808426,0.28,0.2,9.543614,0.08
68,41,0.1,68.04419,57.778305,0.29,0.12,10.265885,0.17
69,41,0.1,64.834206,61.321198,0.23,0.22,3.513008,0.01
70,41,0.1,62.847137,59.111965,0.3,0.18,3.735172,0.12
71,41,0.1,65.60986,65.26476,0.24,0.16,0.3451,0.08
72,41,0.1,67.81007,65.45329,0.26,0.22,2.35678,0.04
73,41,0.1,72.01883,63.885212,0.28,0.2,8.133618,0.08
74,41,0.1,70.6884,64.6524,0.29,0.18,6.036,0.11
75,41,0.1,66.01195,66.86871,0.32,0.25,-0.85676,0.07
76,41,0.1,60.203564,63.02408,0.3,0.15,-2.820516,0.15
77,41,0.1,64.1122,61.355125,0.28,0.23,2.757075,0.05
78,41,0.1,60.81955,65.36412,0.25,0.18,-4.54457,0.07
79,41,0.1,59.552353,62.859375,0.28,0.15,-3.307022,0.13
80,41,0.1,63.539593,57.451256,0.25,0.21,6.088337,0.04
81,41,0.1,62.61075,61.705772,0.26,0.13,0.904978,0.13
82,41,0.1,61.159008,64.585464,0.15,0.17,-3.426456,-0.02
83,41,0.1,57.80277,63.87679,0.11,0.14,-6.07402,-0.03
84,41,0.1,57.532757,53.694336,0.11,0.23,3.838421,-0.12
85,41,0.1,58.2798,57.493313,0.11,0.11,0.786487,0
86,41,0.1,57.468765,58.551147,0.11,0.18,-1.082382,-0.07
87,41,0.1,56.752716,55.878834,0.11,0.11,0.873882,0
88,41,0.1,52.363552,57.80448,0.11,0.11,-5.440928,0
89,41,0.1,57.00228,55.645084,0.11,0.11,1.357196,0
90,41,0.1,54.750053,59.609486,0.11,0.11,-4.859433,0
91,41,0.1,53.75052,58.17957,0.11,0.11,-4.42905,0
92,41,0.1,57.26272,60.809208,0.11,0.15,-3.546488,-0.04
93,41,0.1,56.524426,57.107716,0.11,0.11,-0.58329,0
94,41,0.1,55.478497,58.53617,0.11,0.11,-3.057673,0
95,41,0.1,55.317787,56.599762,0.11,0.11,-1.281975,0
96,41,0.1,56.32863,59.632774,0.11,0.11,-3.304144,0
97,41,0.1,57.31756,61.265556,0.11,0.11,-3.947996,0
98,41,0.1,56.714447,60.11189,0.11,0.11,-3.397443,0
99,41,0.1,54.36573,59.83527,0.11,0.11,-5.46954,0
100,41,0.1,55.569828,59.381065,0.11,0.11,-3.811237,0
101,41,0.1,54.860336,58.36028,0.11,0.11,-3.499944,0
102,41,0.1,56.01982,57.652737,0.11,0.11,-1.632917,0
103,41,0.1,55.367058,56.84496,0.11,0.11,-1.477902,0
104,41,0.1,57.241905,57.693283,0.11,0.11,-0.451378,0
105,41,0.1,53.836716,58.500816,0.11,0.11,-4.6641,0
106,41,0.1,55.90442,56.060444,0.11,0.11,-0.156024,0
107,41,0.1,54.57882,58.2503,0.11,0.11,-3.67148,0
108,41,0.1,55.528015,57.336452,0.11,0.11,-1.808437,0
21,41,0.3,65.722,65.75366,0.6,0.44,-0.03166,0.16
22,41,0.3,67.30286,66.237434,0.64,0.4,1.065426,0.24
23,41,0.3,65.87594,66.71654,0.51,0.41,-0.8406,0.1
24,41,0.3,68.62144,68.58525,0.53,0.43,0.03619,0.1
25,41,0.3,67.307816,66.01597,0.58,0.41,1.291846,0.17
26,41,0.3,64.28876,65.2214,0.57,0.43,-0.93264,0.14
27,41,0.3,66.53553,66.70458,0.6,0.4,-0.16905,0.2
28,41,0.3,67.92264,67.23738,0.58,0.43,0.68526,0.15
29,41,0.3,67.54512,64.88134,0.77,0.39,2.66378,0.38
30,41,0.3,65.59581,67.924164,0.54,0.42,-2.328354,0.12
31,41,0.3,67.881996,69.263985,0.65,0.43,-1.381989,0.22
32,41,0.3,67.98701,70.650024,0.58,0.39,-2.663014,0.19
33,41,0.3,69.95068,68.66781,0.56,0.4,1.28287,0.16
34,41,0.3,69.05982,68.23097,0.52,0.42,0.82885,0.1
35,41,0.3,67.48155,67.407455,0.49,0.41,0.074095,0.08
36,41,0.3,68.07324,67.15282,0.56,0.42,0.92042,0.14
37,41,0.3,67.322556,67.889336,0.48,0.43,-0.56678,0.05
38,41,0.3,67.37913,64.778435,0.5,0.42,2.600695,0.08
39,41,0.3,67.25963,64.92935,0.47,0.39,2.33028,0.08
40,41,0.3,71.61099,63.41796,0.62,0.44,8.19303,0.18
41,41,0.3,68.73532,67.53778,0.72,0.39,1.19754,0.33
42,41,0.3,64.90735,66.283356,0.52,0.43,-1.376006,0.09
43,41,0.3,69.6767,67.342514,0.61,0.38,2.334186,0.23
44,41,0.3,68.54599,69.722626,0.47,0.42,-1.176636,0.05
45,41,0.3,70.455,66.34624,0.43,0.42,4.10876,0.01
46,41,0.3,68.31282,61.64282,0.42,0.38,6.67,0.04
47,41,0.3,65.60011,65.93086,0.45,0.41,-0.33075,0.04
48,41,0.3,64.82568,67.48158,0.42,0.42,-2.6559,0
49,41,0.3,68.0609,67.78941,0.49,0.34,0.27149,0.15
50,41,0.3,67.66529,68.1474,0.45,0.4,-0.48211,0.05
51,41,0.3,73.43405,68.5726,0.54,0.39,4.86145,0.15
52,41,0.3,75.9323,70.33484,0.47,0.37,5.59746,0.1
53,41,0.3,76.28302,67.57827,0.46,0.34,8.70475,0.12
54,41,0.3,72.16883,65.529015,0.47,0.37,6.639815,0.1
55,41,0.3,75.28891,67.39562,0.58,0.35,7.89329,0.23
56,41,0.3,70.9729,67.49301,0.4,0.34,3.47989,0.06
57,41,0.3,70.80649,68.12561,0.41,0.38,2.68088,0.03
58,41,0.3,66.654915,67.355896,0.43,0.37,-0.700981,0.06
59,41,0.3,64.304886,66.01477,0.51,0.37,-1.709884,0.14
60,41,0.3,64.758446,65.896904,0.44,0.37,-1.138458,0.07
61,41,0.3,70.31676,64.18851,0.46,0.36,6.12825,0.1
62,41,0.3,69.19901,62.07972,0.49,0.33,7.11929,0.16
63,41,0.3,70.35896,59.35978,0.46,0.3,10.99918,0.16
64,41,0.3,71.082085,60.47472,0.44,0.31,10.607365,0.13
65,41,0.3,67.66077,58.589,0.42,0.33,9.07177,0.09
66,41,0.3,63.715477,65.59726,0.45,0.33,-1.881783,0.12
67,41,0.3,67.745735,59.922512,0.45,0.4,7.823223,0.05
68,41,0.3,67.85293,57.08674,0.47,0.24,10.76619,0.23
69,41,0.3,64.43951,61.848103,0.43,0.41,2.591407,0.02
70,41,0.3,61.39319,59.40863,0.48,0.37,1.98456,0.11
71,41,0.3,65.49032,65.19696,0.43,0.35,0.29336,0.08
72,41,0.3,67.881744,66.01265,0.45,0.32,1.869094,0.13
73,41,0.3,71.61672,63.620174,0.42,0.15,7.996546,0.27
74,41,0.3,70.73729,64.3928,0.46,0.37,6.34449,0.09
75,41,0.3,65.70162,66.555984,0.43,0.4,-0.854364,0.03
76,41,0.3,59.54942,63.200897,0.44,0.24,-3.651477,0.2
77,41,0.3,64.58356,61.651657,0.29,0.37,2.931903,-0.08
78,41,0.3,60.554432,65.21611,0.43,0.35,-4.661678,0.08
79,41,0.3,60.471764,63.434895,0.33,0.23,-2.963131,0.1
80,41,0.3,62.613785,59.01812,0.34,0.34,3.595665,0
81,41,0.3,62.131912,61.97543,0.33,0.37,0.156482,-0.04
82,41,0.3,61.391964,64.46803,0.25,0.26,-3.076066,-0.01
83,41,0.3,56.518307,64.007,0.11,0.18,-7.488693,-0.07
84,41,0.3,56.92225,54.26988,0.11,0.29,2.65237,-0.18
85,41,0.3,57.055756,58.83121,0.11,0.11,-1.775454,0
86,41,0.3,56.81635,58.25751,0.11,0.19,-1.44116,-0.08
87,41,0.3,56.16843,55.521355,0.11,0.11,0.647075,0
88,41,0.3,52.793922,57.79818,0.11,0.11,-5.004258,0
89,41,0.3,55.737473,55.167507,0.11,0.11,0.569966,0
90,41,0.3,54.336758,59.59001,0.11,0.11,-5.253252,0
91,41,0.3,53.93068,57.852905,0.11,0.11,-3.922225,0
92,41,0.3,56.70576,60.47181,0.11,0.15,-3.76605,-0.04
93,41,0.3,54.65306,57.157547,0.11,0.11,-2.504487,0
94,41,0.3,54.596344,57.26036,0.11,0.11,-2.664016,0
95,41,0.3,53.164158,56.291756,0.11,0.11,-3.127598,0
96,41,0.3,53.982082,59.61649,0.11,0.11,-5.634408,0
97,41,0.3,58.008595,61.263607,0.11,0.11,-3.255012,0
98,41,0.3,57.13037,59.753334,0.11,0.11,-2.622964,0
99,41,0.3,54.65677,59.787533,0.11,0.11,-5.130763,0
100,41,0.3,56.73175,58.772984,0.11,0.11,-2.041234,0
101,41,0.3,54.49271,58.43193,0.11,0.11,-3.93922,0
102,41,0.3,56.58421,56.539585,0.11,0.11,0.044625,0
103,41,0.3,53.33643,55.72748,0.11,0.11,-2.39105,0
104,41,0.3,57.030758,57.916725,0.11,0.11,-0.885967,0
105,41,0.3,54.92295,57.4819,0.11,0.11,-2.55895,0
106,41,0.3,54.120125,55.55017,0.11,0.11,-1.430045,0
107,41,0.3,55.102844,58.46939,0.11,0.11,-3.366546,0
108,41,0.3,55.164448,57.337006,0.11,0.11,-2.172558,0
21,41,0.7,65.906136,65.634926,0.94,0.8,0.27121,0.14
22,41,0.7,67.35759,66.06303,0.99,0.78,1.29456,0.21
23,41,0.7,65.9235,67.04445,0.86,0.79,-1.12095,0.07
24,41,0.7,68.30448,68.36354,0.97,0.79,-0.05906,0.18
25,41,0.7,67.37705,66.12205,0.86,0.78,1.255,0.08
26,41,0.7,64.30371,65.26837,0.85,0.73,-0.96466,0.12
27,41,0.7,66.30973,66.357376,0.88,0.78,-0.047646,0.1
28,41,0.7,68.2808,67.206215,1.07,0.79,1.074585,0.28
29,41,0.7,67.18384,65.28905,1.1,0.78,1.89479,0.32
30,41,0.7,65.544365,68.626045,0.85,0.79,-3.08168,0.06
31,41,0.7,68.14226,68.74167,0.95,0.76,-0.59941,0.19
32,41,0.7,68.55037,70.14582,0.87,0.79,-1.59545,0.08
33,41,0.7,69.81821,67.93417,0.9,0.76,1.88404,0.14
34,41,0.7,70.00322,68.088684,0.93,0.78,1.914536,0.15
35,41,0.7,67.89177,67.120224,0.83,0.78,0.771546,0.05
36,41,0.7,68.749374,67.07515,0.84,0.78,1.674224,0.06
37,41,0.7,67.15151,68.15184,0.81,0.78,-1.00033,0.03
38,41,0.7,67.35422,65.12581,0.89,0.76,2.22841,0.13
39,41,0.7,66.88259,66.07425,0.84,0.77,0.80834,0.07
40,41,0.7,71.53486,63.860447,0.91,0.78,7.674413,0.13
41,41,0.7,68.57125,67.51374,0.89,0.75,1.05751,0.14
42,41,0.7,65.33612,65.82469,0.85,0.75,-0.48857,0.1
43,41,0.7,69.82041,66.42195,0.96,0.74,3.39846,0.22
44,41,0.7,67.9818,69.85908,0.83,0.78,-1.87728,0.05
45,41,0.7,70.527534,65.91727,0.84,0.75,4.610264,0.09
46,41,0.7,68.038376,62.703247,0.8,0.7,5.335129,0.1
47,41,0.7,65.56117,65.64951,0.81,0.74,-0.08834,0.07
48,41,0.7,65.11573,67.26549,0.76,0.76,-2.14976,0
49,41,0.7,68.2531,67.9827,0.8,0.73,0.2704,0.07
50,41,0.7,67.3827,67.941345,0.77,0.73,-0.558645,0.04
51,41,0.7,73.3911,68.81871,0.78,0.74,4.57239,0.04
52,41,0.7,76.07997,70.292015,0.81,0.73,5.787955,0.08
53,41,0.7,75.938095,67.467,0.81,0.7,8.471095,0.11
54,41,0.7,71.91895,66.17807,0.81,0.75,5.74088,0.06
55,41,0.7,74.89487,67.68968,0.79,0.73,7.20519,0.06
56,41,0.7,71.19288,67.37097,0.78,0.72,3.82191,0.06
57,41,0.7,70.52534,68.874344,0.77,0.73,1.650996,0.04
58,41,0.7,66.482605,66.952,0.82,0.75,-0.469395,0.07
59,41,0.7,63.51793,66.21326,0.81,0.76,-2.69533,0.05
60,41,0.7,64.920944,65.79378,0.59,0.61,-0.872836,-0.02
61,41,0.7,69.758484,64.64845,0.57,0.67,5.110034,-0.1
62,41,0.7,69.24109,62.276142,0.88,0.64,6.964948,0.24
63,41,0.7,70.71444,59.924072,0.85,0.31,10.790368,0.54
64,41,0.7,71.22852,60.596664,0.81,0.36,10.631856,0.45
65,41,0.7,67.37242,58.13247,0.69,0.37,9.23995,0.32
66,41,0.7,62.925842,66.9086,0.41,0.51,-3.982758,-0.1
67,41,0.7,68.282455,58.853874,0.84,0.72,9.428581,0.12
68,41,0.7,68.37723,56.361588,0.86,0.24,12.015642,0.62
69,41,0.7,64.93494,62.028793,0.46,0.37,2.906147,0.09
70,41,0.7,61.17091,59.65578,0.73,0.37,1.51513,0.36
71,41,0.7,64.080826,65.48631,0.61,0.5,-1.405484,0.11
72,41,0.7,68.11689,65.428696,0.76,0.42,2.688194,0.34
73,41,0.7,71.79332,63.384247,0.46,0.15,8.409073,0.31
74,41,0.7,70.67359,65.16531,0.66,0.71,5.50828,-0.05
75,41,0.7,65.773056,67.31301,0.79,0.46,-1.539954,0.33
76,41,0.7,60.21464,62.99933,0.75,0.24,-2.78469,0.51
77,41,0.7,64.85766,61.462193,0.29,0.44,3.395467,-0.15
78,41,0.7,60.160816,64.848816,0.47,0.44,-4.688,0.03
79,41,0.7,58.836163,62.92999,0.33,0.23,-4.093827,0.1
80,41,0.7,62.89968,57.73733,0.34,0.74,5.16235,-0.4
81,41,0.7,61.88435,61.930634,0.34,0.6,-0.046284,-0.26
82,41,0.7,60.37733,64.4646,0.15,0.26,-4.08727,-0.11
83,41,0.7,56.47688,64.246506,0.11,0.18,-7.769626,-0.07
84,41,0.7,57.500984,54.911873,0.11,0.29,2.589111,-0.18
85,41,0.7,58.908703,57.926655,0.11,0.11,0.982048,0
86,41,0.7,56.60555,58.673103,0.11,0.19,-2.067553,-0.08
87,41,0.7,56.930237,56.346645,0.11,0.12,0.583592,-0.01
88,41,0.7,52.845047,57.586823,0.11,0.11,-4.741776,0
89,41,0.7,54.716824,54.870815,0.11,0.11,-0.153991,0
90,41,0.7,55.276405,59.626102,0.11,0.11,-4.349697,0
91,41,0.7,56.382973,58.134357,0.11,0.13,-1.751384,-0.02
92,41,0.7,56.036316,61.13385,0.11,0.14,-5.097534,-0.03
93,41,0.7,54.973316,56.6235,0.11,0.11,-1.650184,0
94,41,0.7,53.37225,57.798035,0.11,0.11,-4.425785,0
95,41,0.7,55.16655,56.667164,0.11,0.11,-1.500614,0
96,41,0.7,55.17398,59.093533,0.11,0.11,-3.919553,0
97,41,0.7,57.53887,61.415497,0.11,0.11,-3.876627,0
98,41,0.7,56.998924,59.770157,0.11,0.11,-2.771233,0
99,41,0.7,54.96401,59.993805,0.11,0.11,-5.029795,0
100,41,0.7,54.570316,59.26103,0.11,0.11,-4.690714,0
101,41,0.7,55.357292,58.11054,0.11,0.11,-2.753248,0
102,41,0.7,56.117367,56.70389,0.11,0.11,-0.586523,0
103,41,0.7,55.249664,56.416084,0.11,0.11,-1.16642,0
104,41,0.7,56.47561,57.606316,0.11,0.11,-1.130706,0
105,41,0.7,55.74151,58.415806,0.11,0.11,-2.674296,0
106,41,0.7,54.012634,58.950466,0.11,0.11,-4.937832,0
107,41,0.7,56.126534,58.58283,0.11,0.11,-2.456296,0
108,41,0.7,55.02096,57.05579,0.11,0.11,-2.03483,0
21,41,1,66.070885,66.26388,1.23,1.11,-0.192995,0.12
22,41,1,67.22331,66.464325,1.29,1.02,0.758985,0.27
23,41,1,66.10158,67.22952,1.15,1.05,-1.12794,0.1
24,41,1,68.98337,68.5347,1.16,1.07,0.44867,0.09
25,41,1,67.577835,65.79699,1.26,1.07,1.780845,0.19
26,41,1,64.8965,64.87224,1.11,1.05,0.02426,0.06
27,41,1,66.339554,66.38965,1.12,1.08,-0.050096,0.04
28,41,1,69.09653,67.401085,1.34,1.08,1.695445,0.26
29,41,1,67.479935,65.456085,1.37,1.03,2.02385,0.34
30,41,1,65.00182,68.20224,1.11,1.07,-3.20042,0.04
31,41,1,67.799706,68.82971,1.18,1.05,-1.030004,0.13
32,41,1,68.05798,70.360886,1.12,1.06,-2.302906,0.06
33,41,1,69.78575,68.43872,1.1,1.03,1.34703,0.07
34,41,1,69.53401,67.84553,1.15,1.06,1.68848,0.09
35,41,1,67.40425,67.40294,1.12,1.07,0.00131,0.05
36,41,1,68.63191,67.01095,1.19,1.07,1.62096,0.12
37,41,1,67.21354,70.6579,1.14,1.07,-3.44436,0.07
38,41,1,67.34119,66.90813,1.15,1.04,0.43306,0.11
39,41,1,66.893814,69.28765,1.13,1.09,-2.393836,0.04
40,41,1,71.73499,66.51007,1.08,1.05,5.22492,0.03
41,41,1,69.11427,67.36753,1.19,1.03,1.74674,0.16
42,41,1,65.51174,67.61456,1.11,1.03,-2.10282,0.08
43,41,1,69.585045,67.91531,1.17,1.02,1.669735,0.15
44,41,1,68.11822,70.0836,1.09,1.06,-1.96538,0.03
45,41,1,70.53348,66.45737,1.08,1.05,4.07611,0.03
46,41,1,68.200806,65.55966,1.1,1,2.641146,0.1
47,41,1,66.149,68.65429,1.07,1.01,-2.50529,0.06
48,41,1,64.973564,67.90418,0.79,1.01,-2.930616,-0.22
49,41,1,68.54529,68.81685,1.09,1.01,-0.27156,0.08
50,41,1,67.22992,67.96163,0.75,1.01,-0.73171,-0.26
51,41,1,73.783905,68.23205,1.17,1.03,5.551855,0.14
52,41,1,75.79854,70.19382,1.11,1.01,5.60472,0.1
53,41,1,76.550446,67.36221,1.09,0.81,9.188236,0.28
54,41,1,72.23369,66.61243,1.11,1.04,5.62126,0.07
55,41,1,75.230675,67.57611,1.05,1.02,7.654565,0.03
56,41,1,71.11403,66.98028,1.03,1.02,4.13375,0.01
57,41,1,70.20915,69.485344,0.79,1.02,0.723806,-0.23
58,41,1,65.98863,67.36863,1.1,1.03,-1.38,0.07
59,41,1,63.618954,66.25072,1.09,0.98,-2.631766,0.11
60,41,1,64.95098,65.71402,0.58,0.61,-0.76304,-0.03
61,41,1,69.59584,64.415665,0.57,0.65,5.180175,-0.08
62,41,1,69.34484,62.17793,1.13,0.63,7.16691,0.5
63,41,1,70.33731,63.385868,1.15,0.31,6.951442,0.84
64,41,1,70.98848,60.494392,0.78,0.36,10.494088,0.42
65,41,1,67.89475,59.491554,0.69,0.37,8.403196,0.32
66,41,1,63.986343,66.748344,0.41,0.51,-2.762001,-0.1
67,41,1,67.413704,59.875275,1.13,0.82,7.538429,0.31
68,41,1,68.57619,57.657635,1.17,0.24,10.918555,0.93
69,41,1,64.53179,61.59722,0.45,0.36,2.93457,0.09
70,41,1,61.224556,59.96897,0.71,0.36,1.255586,0.35
71,41,1,65.273026,64.89763,0.62,0.5,0.375396,0.12
72,41,1,68.569595,64.424,0.76,0.42,4.145595,0.34
73,41,1,71.529396,65.90465,0.46,0.15,5.624746,0.31
74,41,1,70.196655,66.223885,0.66,0.71,3.97277,-0.05
75,41,1,65.02685,66.77496,0.82,0.47,-1.74811,0.35
76,41,1,60.98825,64.0383,0.77,0.24,-3.05005,0.53
77,41,1,63.892487,65.02699,0.29,0.43,-1.134503,-0.14
78,41,1,60.63998,65.230034,0.46,0.44,-4.590054,0.02
79,41,1,58.910896,62.732815,0.34,0.23,-3.821919,0.11
80,41,1,63.76201,62.17791,0.34,0.75,1.5841,-0.41
81,41,1,62.17148,66.36099,0.34,0.6,-4.18951,-0.26
82,41,1,61.15806,64.31797,0.15,0.26,-3.15991,-0.11
83,41,1,57.266388,64.21735,0.11,0.18,-6.950962,-0.07
84,41,1,57.888588,55.488537,0.11,0.29,2.400051,-0.18
85,41,1,58.6161,62.09727,0.11,0.11,-3.48117,0
86,41,1,57.239418,57.531013,0.11,0.19,-0.291595,-0.08
87,41,1,56.107246,56.289635,0.11,0.11,-0.182389,0
88,41,1,52.309555,57.501667,0.11,0.11,-5.192112,0
89,41,1,55.045166,54.081238,0.11,0.11,0.963928,0
90,41,1,53.480644,59.774864,0.11,0.11,-6.29422,0
91,41,1,54.653576,59.691257,0.11,0.13,-5.037681,-0.02
92,41,1,56.64965,60.53359,0.11,0.14,-3.88394,-0.03
93,41,1,54.30643,57.52329,0.11,0.11,-3.21686,0
94,41,1,53.176727,59.087917,0.11,0.12,-5.91119,-0.01
95,41,1,54.47007,58.25938,0.11,0.11,-3.78931,0
96,41,1,55.111298,61.02672,0.11,0.11,-5.915422,0
97,41,1,57.327183,62.738586,0.11,0.11,-5.411403,0
98,41,1,57.29266,64.828835,0.11,0.11,-7.536175,0
99,41,1,54.55036,61.397774,0.11,0.11,-6.847414,0
100,41,1,55.216705,60.651302,0.11,0.11,-5.434597,0
101,41,1,54.739296,59.710426,0.11,0.11,-4.97113,0
102,41,1,54.67057,58.8023,0.11,0.11,-4.13173,0
103,41,1,54.22652,58.309746,0.11,0.11,-4.083226,0
104,41,1,57.414017,57.64033,0.11,0.11,-0.226313,0
105,41,1,55.973015,60.230206,0.11,0.11,-4.257191,0
106,41,1,54.569927,57.352196,0.11,0.11,-2.782269,0
107,41,1,54.042652,59.465664,0.11,0.11,-5.423012,0
108,41,1,53.12443,58.71927,0.11,0.11,-5.59484,0
21,49,0.1,69.01068,67.56883,0.54,0.3,1.44185,0.24
22,49,0.1,69.64635,69.31744,0.51,0.28,0.32891,0.23
23,49,0.1,68.268036,69.39214,0.44,0.27,-1.124104,0.17
24,49,0.1,69.53212,70.59291,0.48,0.26,-1.06079,0.22
25,49,0.1,70.19291,68.19887,0.49,0.27,1.99404,0.22
26,49,0.1,67.86902,67.37239,0.44,0.23,0.49663,0.21
27,49,0.1,68.98058,68.74143,0.43,0.24,0.23915,0.19
28,49,0.1,70.82522,69.345474,0.49,0.3,1.479746,0.19
29,49,0.1,69.37145,66.947105,0.36,0.22,2.424345,0.14
30,49,0.1,68.70069,71.00214,0.4,0.25,-2.30145,0.15
31,49,0.1,70.38603,71.44924,0.45,0.27,-1.06321,0.18
32,49,0.1,70.768036,71.87639,0.49,0.27,-1.108354,0.22
33,49,0.1,71.5885,71.473274,0.47,0.26,0.115226,0.21
34,49,0.1,71.92253,69.99776,0.38,0.26,1.92477,0.12
35,49,0.1,69.02495,69.63796,0.34,0.23,-0.61301,0.11
36,49,0.1,70.71355,70.14284,0.4,0.26,0.57071,0.14
37,49,0.1,69.63586,69.69812,0.32,0.25,-0.06226,0.07
38,49,0.1,70.30587,67.484474,0.36,0.24,2.821396,0.12
39,49,0.1,68.74113,67.91552,0.32,0.23,0.82561,0.09
40,49,0.1,73.35305,66.637146,0.47,0.25,6.715904,0.22
41,49,0.1,71.14194,70.397736,0.37,0.24,0.744204,0.13
42,49,0.1,66.933426,69.0382,0.5,0.25,-2.104774,0.25
43,49,0.1,72.29764,69.668655,0.43,0.21,2.628985,0.22
44,49,0.1,69.749374,71.65999,0.39,0.23,-1.910616,0.16
45,49,0.1,73.12993,68.31747,0.33,0.27,4.81246,0.06
46,49,0.1,69.960785,63.603554,0.31,0.23,6.357231,0.08
47,49,0.1,68.16383,68.39201,0.32,0.27,-0.22818,0.05
48,49,0.1,66.39929,69.94197,0.23,0.19,-3.54268,0.04
49,49,0.1,70.72067,70.28705,0.35,0.18,0.43362,0.17
50,49,0.1,69.563896,70.70537,0.32,0.24,-1.141474,0.08
51,49,0.1,75.819534,71.27854,0.33,0.23,4.540994,0.1
52,49,0.1,78.03314,72.44021,0.38,0.25,5.59293,0.13
53,49,0.1,78.40308,69.86661,0.32,0.2,8.53647,0.12
54,49,0.1,73.81755,67.51936,0.29,0.22,6.29819,0.07
55,49,0.1,76.64325,70.822495,0.42,0.27,5.820755,0.15
56,49,0.1,73.23335,70.573,0.3,0.22,2.66035,0.08
57,49,0.1,72.2096,70.14373,0.29,0.21,2.06587,0.08
58,49,0.1,69.362114,70.3561,0.26,0.22,-0.993986,0.04
59,49,0.1,65.4574,68.951355,0.33,0.23,-3.493955,0.1
60,49,0.1,68.12218,67.885,0.27,0.18,0.23718,0.09
61,49,0.1,72.62038,67.27249,0.34,0.17,5.34789,0.17
62,49,0.1,72.41215,64.41125,0.34,0.2,8.0009,0.14
63,49,0.1,72.68004,63.53842,0.39,0.21,9.14162,0.18
64,49,0.1,73.191696,61.70929,0.3,0.21,11.482406,0.09
65,49,0.1,70.02997,64.1151,0.32,0.26,5.91487,0.06
66,49,0.1,66.64744,69.5405,0.28,0.31,-2.89306,-0.03
67,49,0.1,70.54998,62.110703,0.31,0.2,8.439277,0.11
68,49,0.1,71.25392,59.1267,0.3,0.21,12.12722,0.09
69,49,0.1,68.12992,63.832703,0.27,0.27,4.297217,0
70,49,0.1,64.85692,62.73917,0.31,0.18,2.11775,0.13
71,49,0.1,68.89957,67.64113,0.29,0.16,1.25844,0.13
72,49,0.1,70.53788,66.87899,0.33,0.23,3.65889,0.1
73,49,0.1,73.64923,66.235886,0.29,0.27,7.413344,0.02
74,49,0.1,72.67455,66.688095,0.32,0.27,5.986455,0.05
75,49,0.1,67.62453,69.71992,0.31,0.27,-2.09539,0.04
76,49,0.1,62.268177,65.26385,0.32,0.25,-2.995673,0.07
77,49,0.1,66.69615,65.05791,0.3,0.24,1.63824,0.06
78,49,0.1,64.28667,68.58726,0.26,0.18,-4.30059,0.08
79,49,0.1,61.49006,65.056015,0.29,0.16,-3.565955,0.13
80,49,0.1,65.778,61.171787,0.3,0.26,4.606213,0.04
81,49,0.1,65.1754,65.65262,0.28,0.14,-0.47722,0.14
82,49,0.1,64.44338,68.08556,0.23,0.17,-3.64218,0.06
83,49,0.1,59.715725,67.68947,0.11,0.14,-7.973745,-0.03
84,49,0.1,60.182957,57.34843,0.11,0.24,2.834527,-0.13
85,49,0.1,61.12653,62.159996,0.11,0.11,-1.033466,0
86,49,0.1,60.272778,62.597725,0.11,0.18,-2.324947,-0.07
87,49,0.1,59.18392,60.35941,0.11,0.15,-1.17549,-0.04
88,49,0.1,56.729847,60.686066,0.11,0.12,-3.956219,-0.01
89,49,0.1,57.952797,58.855312,0.11,0.2,-0.902515,-0.09
90,49,0.1,57.080284,63.45072,0.11,0.2,-6.370436,-0.09
91,49,0.1,58.4401,58.333652,0.11,0.16,0.106448,-0.05
92,49,0.1,58.01467,63.799942,0.11,0.15,-5.785272,-0.04
93,49,0.1,57.0125,60.04036,0.11,0.11,-3.02786,0
94,49,0.1,56.298115,60.658054,0.11,0.13,-4.359939,-0.02
95,49,0.1,57.74469,59.84105,0.11,0.14,-2.09636,-0.03
96,49,0.1,56.870705,61.280434,0.11,0.11,-4.409729,0
97,49,0.1,58.154144,62.47637,0.11,0.11,-4.322226,0
98,49,0.1,60.661316,57.43012,0.11,0.22,3.231196,-0.11
99,49,0.1,58.393303,61.789978,0.11,0.11,-3.396675,0
100,49,0.1,57.248974,60.784676,0.11,0.11,-3.535702,0
101,49,0.1,57.901745,59.738396,0.11,0.11,-1.836651,0
102,49,0.1,61.02328,58.639847,0.11,0.11,2.383433,0
103,49,0.1,57.43223,57.595554,0.11,0.11,-0.163324,0
104,49,0.1,57.619408,57.857502,0.11,0.11,-0.238094,0
105,49,0.1,58.8367,59.795208,0.11,0.11,-0.958508,0
106,49,0.1,57.709175,56.96467,0.11,0.11,0.744505,0
107,49,0.1,57.002377,60.38556,0.11,0.11,-3.383183,0
108,49,0.1,57.280025,58.92312,0.11,0.11,-1.643095,0
21,49,0.3,69.19621,67.4652,0.67,0.48,1.73101,0.19
22,49,0.3,68.81326,69.50238,0.73,0.47,-0.68912,0.26
23,49,0.3,68.5571,69.40249,0.54,0.48,-0.84539,0.06
24,49,0.3,70.39151,70.353714,0.59,0.48,0.037796,0.11
25,49,0.3,70.09718,67.35296,0.62,0.46,2.74422,0.16
26,49,0.3,68.15601,67.41302,0.63,0.47,0.74299,0.16
27,49,0.3,68.99931,68.87852,0.6,0.42,0.12079,0.18
28,49,0.3,70.40959,69.459045,0.7,0.48,0.950545,0.22
29,49,0.3,68.92566,67.28538,0.82,0.43,1.64028,0.39
30,49,0.3,68.04722,71.11613,0.58,0.45,-3.06891,0.13
31,49,0.3,70.30505,71.283195,0.72,0.45,-0.978145,0.27
32,49,0.3,70.02043,72.14347,0.61,0.41,-2.12304,0.2
33,49,0.3,71.582535,71.26229,0.63,0.44,0.320245,0.19
34,49,0.3,72.270546,70.604095,0.71,0.45,1.666451,0.26
35,49,0.3,69.574814,69.53388,0.53,0.41,0.040934,0.12
36,49,0.3,70.49173,69.890915,0.55,0.45,0.600815,0.1
37,49,0.3,70.022705,70.74803,0.49,0.44,-0.725325,0.05
38,49,0.3,69.96233,67.82881,0.55,0.44,2.13352,0.11
39,49,0.3,69.38875,67.18225,0.52,0.41,2.2065,0.11
40,49,0.3,73.55905,66.96238,0.59,0.44,6.59667,0.15
41,49,0.3,71.087944,70.6326,0.73,0.45,0.455344,0.28
42,49,0.3,67.32192,68.96994,0.58,0.43,-1.64802,0.15
43,49,0.3,72.401306,69.64946,0.62,0.39,2.751846,0.23
44,49,0.3,69.00545,71.97447,0.62,0.43,-2.96902,0.19
45,49,0.3,73.37508,68.053474,0.44,0.42,5.321606,0.02
46,49,0.3,69.7944,64.15326,0.44,0.42,5.64114,0.02
47,49,0.3,68.39975,68.26874,0.46,0.44,0.13101,0.02
48,49,0.3,66.551025,70.50081,0.43,0.43,-3.949785,0
49,49,0.3,70.77005,70.169754,0.5,0.36,0.600296,0.14
50,49,0.3,69.55834,70.41508,0.45,0.42,-0.85674,0.03
51,49,0.3,75.78547,71.10195,0.6,0.41,4.68352,0.19
52,49,0.3,77.98185,72.26421,0.61,0.38,5.71764,0.23
53,49,0.3,78.40582,69.75725,0.47,0.41,8.64857,0.06
54,49,0.3,74.33582,68.367065,0.47,0.38,5.968755,0.09
55,49,0.3,76.88599,69.77333,0.58,0.44,7.11266,0.14
56,49,0.3,73.24934,70.769905,0.42,0.41,2.479435,0.01
57,49,0.3,72.08296,70.68846,0.41,0.4,1.3945,0.01
58,49,0.3,68.94527,70.15239,0.44,0.4,-1.20712,0.04
59,49,0.3,65.94127,69.07405,0.51,0.39,-3.13278,0.12
60,49,0.3,68.20979,67.7751,0.45,0.36,0.43469,0.09
61,49,0.3,72.743454,67.53903,0.49,0.36,5.204424,0.13
62,49,0.3,71.71327,63.913265,0.52,0.34,7.800005,0.18
63,49,0.3,72.29832,63.52037,0.45,0.31,8.77795,0.14
64,49,0.3,72.92168,61.150276,0.48,0.33,11.771404,0.15
65,49,0.3,70.12537,61.24035,0.42,0.33,8.88502,0.09
66,49,0.3,67.34931,69.03914,0.47,0.37,-1.68983,0.1
67,49,0.3,70.55722,61.90811,0.48,0.4,8.64911,0.08
68,49,0.3,70.62921,59.77264,0.49,0.27,10.85657,0.22
69,49,0.3,68.02577,64.585014,0.43,0.4,3.440756,0.03
70,49,0.3,64.10945,62.56418,0.49,0.37,1.54527,0.12
71,49,0.3,69.20329,68.712234,0.43,0.35,0.491056,0.08
72,49,0.3,70.93739,65.215294,0.45,0.33,5.722096,0.12
73,49,0.3,73.61979,67.27761,0.43,0.16,6.34218,0.27
74,49,0.3,72.60946,68.39554,0.47,0.39,4.21392,0.08
75,49,0.3,67.26431,70.20761,0.43,0.42,-2.9433,0.01
76,49,0.3,62.34453,65.62384,0.46,0.27,-3.27931,0.19
77,49,0.3,66.568695,64.56334,0.3,0.37,2.005355,-0.07
78,49,0.3,63.386997,68.693405,0.43,0.36,-5.306408,0.07
79,49,0.3,61.530704,65.350235,0.35,0.24,-3.819531,0.11
80,49,0.3,65.80089,62.419113,0.36,0.36,3.381777,0
81,49,0.3,65.656876,66.004684,0.46,0.36,-0.347808,0.1
82,49,0.3,64.89533,68.453674,0.34,0.29,-3.558344,0.05
83,49,0.3,59.81764,67.51792,0.11,0.35,-7.70028,-0.24
84,49,0.3,60.430355,58.242203,0.11,0.33,2.188152,-0.22
85,49,0.3,61.38234,62.104362,0.11,0.11,-0.722022,0
86,49,0.3,60.441658,62.43743,0.11,0.22,-1.995772,-0.11
87,49,0.3,60.367157,60.17926,0.11,0.15,0.187897,-0.04
88,49,0.3,57.152817,60.65661,0.11,0.12,-3.503793,-0.01
89,49,0.3,57.912453,58.96882,0.11,0.19,-1.056367,-0.08
90,49,0.3,56.289623,63.183655,0.11,0.18,-6.894032,-0.07
91,49,0.3,58.596222,59.049793,0.11,0.23,-0.453571,-0.12
92,49,0.3,59.11516,63.93311,0.11,0.15,-4.81795,-0.04
93,49,0.3,56.15856,61.138878,0.11,0.11,-4.980318,0
94,49,0.3,56.502647,60.83154,0.11,0.13,-4.328893,-0.02
95,49,0.3,57.50963,59.22177,0.11,0.14,-1.71214,-0.03
96,49,0.3,58.09305,61.461834,0.11,0.11,-3.368784,0
97,49,0.3,59.54097,63.049416,0.11,0.11,-3.508446,0
98,49,0.3,60.572884,61.193325,0.11,0.22,-0.620441,-0.11
99,49,0.3,58.598442,61.984573,0.11,0.11,-3.386131,0
100,49,0.3,57.844204,60.938175,0.11,0.11,-3.093971,0
101,49,0.3,57.31956,59.967773,0.11,0.11,-2.648213,0
102,49,0.3,60.347797,58.447384,0.11,0.11,1.900413,0
103,49,0.3,57.524284,58.22236,0.11,0.11,-0.698076,0
104,49,0.3,57.88431,57.986805,0.11,0.11,-0.102495,0
105,49,0.3,57.19476,59.649765,0.11,0.11,-2.455005,0
106,49,0.3,57.645203,57.31603,0.11,0.11,0.329173,0
107,49,0.3,57.716816,59.72405,0.11,0.11,-2.007234,0
108,49,0.3,56.11145,58.27254,0.11,0.11,-2.16109,0
21,49,0.7,69.78987,68.07762,1.08,0.87,1.71225,0.21
22,49,0.7,69.30282,69.28844,1.09,0.84,0.01438,0.25
23,49,0.7,68.02626,69.587814,1.03,0.83,-1.561554,0.2
24,49,0.7,70.82761,70.445404,1,0.83,0.382206,0.17
25,49,0.7,70.05127,67.85762,0.94,0.82,2.19365,0.12
26,49,0.7,67.93344,67.33831,0.93,0.84,0.59513,0.09
27,49,0.7,69.029465,68.833824,0.89,0.83,0.195641,0.06
28,49,0.7,71.07454,69.4589,1.04,0.84,1.61564,0.2
29,49,0.7,69.29469,67.66092,1.1,0.78,1.63377,0.32
30,49,0.7,67.926125,71.01414,0.9,0.81,-3.088015,0.09
31,49,0.7,70.24539,71.05252,0.97,0.81,-0.80713,0.16
32,49,0.7,70.39782,72.2478,0.92,0.81,-1.84998,0.11
33,49,0.7,72.237076,71.25804,0.95,0.8,0.979036,0.15
34,49,0.7,72.5054,70.234665,0.91,0.82,2.270735,0.09
35,49,0.7,69.28227,69.74024,0.86,0.81,-0.45797,0.05
36,49,0.7,70.3611,70.21654,0.93,0.81,0.14456,0.12
37,49,0.7,69.96028,70.4904,0.85,0.81,-0.53012,0.04
38,49,0.7,69.739395,67.78581,0.95,0.78,1.953585,0.17
39,49,0.7,69.27271,67.20295,0.89,0.8,2.06976,0.09
40,49,0.7,73.57742,67.25098,0.94,0.8,6.32644,0.14
41,49,0.7,71.09976,70.3781,0.88,0.75,0.72166,0.13
42,49,0.7,67.4865,68.86566,0.86,0.75,-1.37916,0.11
43,49,0.7,72.38251,69.48794,0.97,0.76,2.89457,0.21
44,49,0.7,69.26432,72.20602,0.89,0.8,-2.9417,0.09
45,49,0.7,73.151115,68.18797,0.82,0.78,4.963145,0.04
46,49,0.7,70.25586,64.25763,0.81,0.76,5.99823,0.05
47,49,0.7,67.89273,68.6987,0.83,0.78,-0.80597,0.05
48,49,0.7,67.227425,69.98415,0.81,0.78,-2.756725,0.03
49,49,0.7,71.048935,70.36544,0.83,0.73,0.683495,0.1
50,49,0.7,70.23924,70.48396,0.85,0.77,-0.24472,0.08
51,49,0.7,75.656136,71.23166,1,0.74,4.424476,0.26
52,49,0.7,78.10405,72.39281,0.81,0.72,5.71124,0.09
53,49,0.7,78.16826,70.13658,0.86,0.72,8.03168,0.14
54,49,0.7,74.025665,67.56,0.86,0.74,6.465665,0.12
55,49,0.7,76.47484,70.03757,0.79,0.74,6.43727,0.05
56,49,0.7,73.17595,70.65102,0.79,0.73,2.52493,0.06
57,49,0.7,71.90874,70.24966,0.8,0.71,1.65908,0.09
58,49,0.7,68.73846,70.35812,0.83,0.76,-1.61966,0.07
59,49,0.7,65.15406,68.024185,0.9,0.75,-2.870125,0.15
60,49,0.7,67.766556,67.25215,0.64,0.7,0.514406,-0.06
61,49,0.7,72.70299,67.9662,0.61,0.71,4.73679,-0.1
62,49,0.7,72.09308,64.93489,0.87,0.71,7.15819,0.16
63,49,0.7,72.4767,63.173573,0.84,0.49,9.303127,0.35
64,49,0.7,73.20025,62.13646,0.82,0.44,11.06379,0.38
65,49,0.7,69.91629,61.441322,0.77,0.4,8.474968,0.37
66,49,0.7,67.29602,69.46123,0.82,0.56,-2.16521,0.26
67,49,0.7,70.42995,62.148624,0.84,0.77,8.281326,0.07
68,49,0.7,70.70087,59.447052,0.87,0.26,11.253818,0.61
69,49,0.7,68.34017,63.79149,0.5,0.51,4.54868,-0.01
70,49,0.7,63.850937,62.521736,0.8,0.48,1.329201,0.32
71,49,0.7,68.29476,69.02412,0.82,0.54,-0.72936,0.28
72,49,0.7,70.51841,67.01062,0.8,0.48,3.50779,0.32
73,49,0.7,74.07813,66.14108,0.48,0.16,7.93705,0.32
74,49,0.7,75.06957,69.90759,0.7,0.75,5.16198,-0.05
75,49,0.7,67.86791,69.29888,0.81,0.51,-1.43097,0.3
76,49,0.7,62.73688,65.28879,0.83,0.27,-2.55191,0.56
77,49,0.7,66.72236,63.745434,0.31,0.79,2.976926,-0.48
78,49,0.7,63.797424,68.63004,0.51,0.48,-4.832616,0.03
79,49,0.7,62.29042,65.16272,0.35,0.24,-2.8723,0.11
80,49,0.7,65.96573,62.85551,0.36,0.76,3.11022,-0.4
81,49,0.7,65.240746,65.87741,0.85,0.62,-0.636664,0.23
82,49,0.7,63.689648,68.83211,0.34,0.28,-5.142462,0.06
83,49,0.7,60.548878,67.253914,0.11,0.77,-6.705036,-0.66
84,49,0.7,59.464737,58.621777,0.11,0.33,0.84296,-0.22
85,49,0.7,60.39483,62.080025,0.11,0.11,-1.685195,0
86,49,0.7,60.617542,62.301823,0.11,0.22,-1.684281,-0.11
87,49,0.7,59.375725,59.948853,0.11,0.15,-0.573128,-0.04
88,49,0.7,56.732033,61.034115,0.11,0.13,-4.302082,-0.02
89,49,0.7,58.12502,58.81068,0.11,0.19,-0.68566,-0.08
90,49,0.7,56.03649,63.29489,0.11,0.2,-7.2584,-0.09
91,49,0.7,59.257946,59.115242,0.11,0.16,0.142704,-0.05
92,49,0.7,58.4157,63.462524,0.11,0.15,-5.046824,-0.04
93,49,0.7,55.789337,61.184185,0.11,0.11,-5.394848,0
94,49,0.7,58.037727,60.26509,0.11,0.13,-2.227363,-0.02
95,49,0.7,59.120396,61.776455,0.11,0.14,-2.656059,-0.03
96,49,0.7,57.09989,61.473587,0.11,0.11,-4.373697,0
97,49,0.7,59.520557,62.715816,0.11,0.11,-3.195259,0
98,49,0.7,61.47112,61.042923,0.11,0.22,0.428197,-0.11
99,49,0.7,57.615562,61.406548,0.11,0.11,-3.790986,0
100,49,0.7,56.762447,60.852425,0.11,0.11,-4.089978,0
101,49,0.7,57.86021,59.88228,0.11,0.11,-2.02207,0
102,49,0.7,60.335835,58.75791,0.11,0.11,1.577925,0
103,49,0.7,56.79772,58.941784,0.11,0.11,-2.144064,0
104,49,0.7,58.136158,57.980618,0.11,0.11,0.15554,0
105,49,0.7,57.480465,59.811523,0.11,0.11,-2.331058,0
106,49,0.7,58.205513,57.36345,0.11,0.11,0.842063,0
107,49,0.7,56.934883,59.894665,0.11,0.11,-2.959782,0
108,49,0.7,57.377575,58.744297,0.11,0.11,-1.366722,0
21,49,1,68.5355,67.72937,1.33,1.12,0.80613,0.21
22,49,1,69.07194,69.48931,1.35,1.1,-0.41737,0.25
23,49,1,68.18743,69.33038,1.34,1.12,-1.14295,0.22
24,49,1,71.9164,70.772575,1.22,1.14,1.143825,0.08
25,49,1,70.312416,67.28785,1.3,1.12,3.024566,0.18
26,49,1,67.78877,67.48648,1.2,1.1,0.30229,0.1
27,49,1,69.454544,68.479065,1.16,1.11,0.975479,0.05
28,49,1,71.2382,69.154526,1.34,1.1,2.083674,0.24
29,49,1,69.417,67.61943,1.43,1.1,1.79757,0.33
30,49,1,67.77324,71.02196,1.2,1.11,-3.24872,0.09
31,49,1,70.223595,71.41201,1.25,1.09,-1.188415,0.16
32,49,1,70.116104,72.208084,1.18,1.1,-2.09198,0.08
33,49,1,71.89312,70.841576,1.15,1.06,1.051544,0.09
34,49,1,72.22196,70.2361,1.15,1.08,1.98586,0.07
35,49,1,69.98714,72.413185,1.15,1.09,-2.426045,0.06
36,49,1,70.31535,72.103584,1.24,1.1,-1.788234,0.14
37,49,1,70.21864,73.62437,1.15,1.09,-3.40573,0.06
38,49,1,70.014275,70.458885,1.2,1.05,-0.44461,0.15
39,49,1,69.38931,71.89423,1.17,1.08,-2.50492,0.09
40,49,1,73.32224,69.193405,1.13,1.08,4.128835,0.05
41,49,1,71.23808,70.13186,1.19,1.03,1.10622,0.16
42,49,1,67.93143,70.55455,1.18,1.03,-2.62312,0.15
43,49,1,72.23906,70.65071,1.2,1.04,1.58835,0.16
44,49,1,69.73842,71.99103,1.12,1.08,-2.25261,0.04
45,49,1,73.24075,68.57383,1.08,1.08,4.66692,0
46,49,1,70.30615,68.012184,1.11,1.03,2.293966,0.08
47,49,1,68.34389,70.736084,1.1,1.05,-2.392194,0.05
48,49,1,67.949776,69.41424,0.86,1.02,-1.464464,-0.16
49,49,1,70.962326,70.63274,1.11,1.01,0.329586,0.1
50,49,1,69.881424,73.46597,1.11,1.05,-3.584546,0.06
51,49,1,75.71916,71.289856,1.25,1.03,4.429304,0.22
52,49,1,78.14552,73.26465,1.11,1.01,4.88087,0.1
53,49,1,78.29454,69.63578,1.1,0.91,8.65876,0.19
54,49,1,73.90271,71.14304,1.11,1.03,2.75967,0.08
55,49,1,76.75487,70.83436,1.08,1.02,5.92051,0.06
56,49,1,73.001396,72.016174,1.06,1.03,0.985222,0.03
57,49,1,72.21086,73.323586,0.99,1.02,-1.112726,-0.03
58,49,1,68.454216,70.3295,1.12,1.03,-1.875284,0.09
59,49,1,65.596146,68.85808,1.1,1.02,-3.261934,0.08
60,49,1,67.78489,67.82431,0.64,1.02,-0.03942,-0.38
61,49,1,72.99372,67.88501,0.62,1,5.10871,-0.38
62,49,1,71.69501,67.98248,1.12,0.71,3.71253,0.41
63,49,1,72.40845,65.51906,1.15,0.5,6.88939,0.65
64,49,1,73.31363,61.78053,1.12,0.45,11.5331,0.67
65,49,1,70.25683,61.6461,0.77,0.4,8.61073,0.37
66,49,1,67.33479,69.1944,1.14,0.54,-1.85961,0.6
67,49,1,70.676384,62.296066,1.13,1.08,8.380318,0.05
68,49,1,71.0102,60.17401,1.18,0.26,10.83619,0.92
69,49,1,67.73737,64.74344,0.49,0.51,2.99393,-0.02
70,49,1,64.48038,61.954308,0.78,0.48,2.526072,0.3
71,49,1,68.12698,69.033035,1.12,0.54,-0.906055,0.58
72,49,1,70.77124,68.57124,0.8,0.48,2.2,0.32
73,49,1,73.991554,70.385345,0.48,0.16,3.606209,0.32
74,49,1,74.52938,69.12517,0.7,0.8,5.40421,-0.1
75,49,1,67.781006,72.32836,0.89,0.51,-4.547354,0.38
76,49,1,62.14342,67.570274,0.89,0.27,-5.426854,0.62
77,49,1,66.439064,67.91049,0.3,1.08,-1.471426,-0.78
78,49,1,63.713913,74.69208,0.51,0.47,-10.978167,0.04
79,49,1,61.547714,64.87765,0.35,0.24,-3.329936,0.11
80,49,1,66.19885,65.6994,0.36,0.79,0.49945,-0.43
81,49,1,65.695465,67.383736,1.07,0.62,-1.688271,0.45
82,49,1,64.70753,68.34669,0.33,0.28,-3.63916,0.05
83,49,1,60.462303,67.67212,0.11,1.01,-7.209817,-0.9
84,49,1,60.84832,60.066032,0.11,0.33,0.782288,-0.22
85,49,1,60.63796,66.04642,0.11,0.11,-5.40846,0
86,49,1,59.96045,62.4103,0.11,0.22,-2.44985,-0.11
87,49,1,59.761677,59.88777,0.11,0.15,-0.126093,-0.04
88,49,1,57.337944,66.65787,0.11,0.12,-9.319926,-0.01
89,49,1,57.696945,62.725914,0.11,0.19,-5.028969,-0.08
90,49,1,56.024178,63.288605,0.11,0.17,-7.264427,-0.06
91,49,1,58.794456,62.86138,0.11,0.24,-4.066924,-0.13
92,49,1,54.716457,63.42541,0.11,0.15,-8.708953,-0.04
93,49,1,56.19426,61.15544,0.11,0.11,-4.96118,0
94,49,1,57.663612,62.239513,0.11,0.14,-4.575901,-0.03
95,49,1,57.79718,60.598286,0.11,0.14,-2.801106,-0.03
96,49,1,56.46874,62.871086,0.11,0.11,-6.402346,0
97,49,1,58.09349,65.37538,0.11,0.11,-7.28189,0
98,49,1,61.378895,62.141045,0.11,0.22,-0.76215,-0.11
99,49,1,58.84863,63.36629,0.11,0.11,-4.51766,0
100,49,1,59.15168,61.71972,0.11,0.11,-2.56804,0
101,49,1,59.50973,61.282856,0.11,0.11,-1.773126,0
102,49,1,60.452927,60.430367,0.11,0.11,0.02256,0
103,49,1,57.593327,61.239525,0.11,0.11,-3.646198,0
104,49,1,58.71422,59.903866,0.11,0.11,-1.189646,0
105,49,1,56.8587,63.93384,0.11,0.11,-7.07514,0
106,49,1,56.695,58.98235,0.11,0.11,-2.28735,0
107,49,1,56.744057,62.90777,0.11,0.11,-6.163713,0
108,49,1,56.96769,61.34469,0.11,0.11,-4.377,0
21,57,0.1,70.887,68.491196,0.63,0.33,2.395804,0.3
22,57,0.1,70.525986,71.22019,0.56,0.32,-0.694204,0.24
23,57,0.1,70.62881,71.16811,0.53,0.32,-0.5393,0.21
24,57,0.1,72.353516,72.03972,0.49,0.3,0.313796,0.19
25,57,0.1,72.57916,70.190765,0.46,0.28,2.388395,0.18
26,57,0.1,69.85661,65.97516,0.44,0.32,3.88145,0.12
27,57,0.1,71.5416,70.932175,0.46,0.28,0.609425,0.18
28,57,0.1,72.55446,71.127945,0.56,0.32,1.426515,0.24
29,57,0.1,70.66621,70.06181,0.61,0.29,0.6044,0.32
30,57,0.1,70.203735,73.02861,0.47,0.3,-2.824875,0.17
31,57,0.1,72.4718,73.26152,0.59,0.31,-0.78972,0.28
32,57,0.1,72.27884,74.00199,0.49,0.29,-1.72315,0.2
33,57,0.1,74.54565,72.33822,0.49,0.3,2.20743,0.19
34,57,0.1,74.95118,72.164505,0.38,0.33,2.786675,0.05
35,57,0.1,71.435425,73.062256,0.39,0.27,-1.626831,0.12
36,57,0.1,72.82863,72.721375,0.43,0.31,0.107255,0.12
37,57,0.1,71.756744,73.64905,0.36,0.34,-1.892306,0.02
38,57,0.1,71.94687,70.73302,0.44,0.28,1.21385,0.16
39,57,0.1,70.95003,71.208534,0.42,0.31,-0.258504,0.11
40,57,0.1,75.256134,68.84792,0.49,0.25,6.408214,0.24
41,57,0.1,73.331085,72.52731,0.76,0.25,0.803775,0.51
42,57,0.1,69.97683,71.972984,0.61,0.28,-1.996154,0.33
43,57,0.1,75.03499,72.422485,0.45,0.23,2.612505,0.22
44,57,0.1,71.627686,73.96853,0.41,0.26,-2.340844,0.15
45,57,0.1,75.10506,69.88042,0.49,0.29,5.22464,0.2
46,57,0.1,72.130104,68.09986,0.34,0.28,4.030244,0.06
47,57,0.1,70.4131,70.89312,0.32,0.3,-0.48002,0.02
48,57,0.1,69.49691,72.02405,0.32,0.26,-2.52714,0.06
49,57,0.1,73.532364,73.345825,0.39,0.22,0.186539,0.17
50,57,0.1,71.51041,73.71422,0.34,0.27,-2.20381,0.07
51,57,0.1,78.066864,74.10735,0.35,0.24,3.959514,0.11
52,57,0.1,80.04535,76.757126,0.43,0.32,3.288224,0.11
53,57,0.1,80.40944,72.42244,0.32,0.22,7.987,0.1
54,57,0.1,76.08472,71.79234,0.37,0.24,4.29238,0.13
55,57,0.1,79.03792,72.582214,0.42,0.29,6.455706,0.13
56,57,0.1,75.73926,72.176544,0.32,0.21,3.562716,0.11
57,57,0.1,73.9295,71.91872,0.31,0.22,2.01078,0.09
58,57,0.1,71.44541,72.74125,0.39,0.24,-1.29584,0.15
59,57,0.1,68.12487,70.1273,0.35,0.24,-2.00243,0.11
60,57,0.1,69.641304,69.66391,0.27,0.24,-0.022606,0.03
61,57,0.1,75.35137,70.86723,0.37,0.23,4.48414,0.14
62,57,0.1,74.01194,69.9472,0.36,0.27,4.06474,0.09
63,57,0.1,74.97688,66.74855,0.4,0.22,8.22833,0.18
64,57,0.1,75.18802,65.391464,0.3,0.22,9.796556,0.08
65,57,0.1,73.06427,67.38767,0.34,0.27,5.6766,0.07
66,57,0.1,69.06392,72.16048,0.32,0.33,-3.09656,-0.01
67,57,0.1,72.43316,66.99414,0.31,0.32,5.43902,-0.01
68,57,0.1,73.41553,61.034843,0.31,0.22,12.380687,0.09
69,57,0.1,70.88974,66.00833,0.31,0.27,4.88141,0.04
70,57,0.1,66.88541,65.26622,0.32,0.19,1.61919,0.13
71,57,0.1,69.97092,71.36667,0.29,0.17,-1.39575,0.12
72,57,0.1,73.07716,69.663704,0.34,0.29,3.413456,0.05
73,57,0.1,76.55806,70.28307,0.31,0.29,6.27499,0.02
74,57,0.1,77.632095,68.78876,0.29,0.28,8.843335,0.01
75,57,0.1,69.967316,72.50527,0.27,0.35,-2.537954,-0.08
76,57,0.1,66.08426,68.10308,0.33,0.27,-2.01882,0.06
77,57,0.1,69.38626,68.006996,0.33,0.24,1.379264,0.09
78,57,0.1,66.36127,73.77582,0.27,0.18,-7.41455,0.09
79,57,0.1,64.74919,67.81809,0.33,0.26,-3.0689,0.07
80,57,0.1,69.05684,66.20176,0.31,0.27,2.85508,0.04
81,57,0.1,68.33998,69.31949,0.32,0.14,-0.97951,0.18
82,57,0.1,66.431404,71.66054,0.3,0.17,-5.229136,0.13
83,57,0.1,63.074154,71.08041,0.11,0.29,-8.006256,-0.18
84,57,0.1,60.669518,61.582382,0.11,0.3,-0.912864,-0.19
85,57,0.1,61.704853,66.61486,0.11,0.27,-4.910007,-0.16
86,57,0.1,60.89879,64.50261,0.11,0.19,-3.60382,-0.08
87,57,0.1,59.325306,64.32982,0.11,0.23,-5.004514,-0.12
88,57,0.1,59.099003,63.751617,0.11,0.13,-4.652614,-0.02
89,57,0.1,61.928368,62.92205,0.11,0.25,-0.993682,-0.14
90,57,0.1,58.443047,66.246284,0.11,0.22,-7.803237,-0.11
91,57,0.1,61.556915,64.63521,0.11,0.28,-3.078295,-0.17
92,57,0.1,59.77079,67.012436,0.11,0.34,-7.241646,-0.23
93,57,0.1,58.391174,63.708736,0.11,0.11,-5.317562,0
94,57,0.1,58.41546,63.655704,0.11,0.14,-5.240244,-0.03
95,57,0.1,61.17973,60.57811,0.11,0.14,0.60162,-0.03
96,57,0.1,59.646408,64.14437,0.11,0.11,-4.497962,0
97,57,0.1,60.660236,65.269264,0.11,0.14,-4.609028,-0.03
98,57,0.1,61.22169,62.307793,0.11,0.23,-1.086103,-0.12
99,57,0.1,59.476135,63.374733,0.11,0.13,-3.898598,-0.02
100,57,0.1,61.465202,61.81604,0.11,0.11,-0.350838,0
101,57,0.1,60.32919,61.3826,0.11,0.11,-1.05341,0
102,57,0.1,63.671616,60.29499,0.11,0.11,3.376626,0
103,57,0.1,60.941063,60.73677,0.11,0.14,0.204293,-0.03
104,57,0.1,60.33449,59.500923,0.11,0.11,0.833567,0
105,57,0.1,58.697536,63.82801,0.11,0.13,-5.130474,-0.02
106,57,0.1,59.23883,59.682804,0.11,0.11,-0.443974,0
107,57,0.1,57.438606,62.7035,0.11,0.11,-5.264894,0
108,57,0.1,58.363598,61.321114,0.11,0.11,-2.957516,0
21,57,0.3,71.29565,70.266556,0.77,0.52,1.029094,0.25
22,57,0.3,69.730705,71.59038,0.93,0.5,-1.859675,0.43
23,57,0.3,70.37718,71.70575,0.72,0.51,-1.32857,0.21
24,57,0.3,72.43486,70.69481,0.7,0.54,1.74005,0.16
25,57,0.3,72.608955,70.15094,0.68,0.49,2.458015,0.19
26,57,0.3,69.76223,67.012276,0.7,0.5,2.749954,0.2
27,57,0.3,71.87469,70.89639,0.66,0.46,0.9783,0.2
28,57,0.3,72.20024,70.791046,0.77,0.54,1.409194,0.23
29,57,0.3,71.80055,69.50509,0.86,0.46,2.29546,0.4
30,57,0.3,70.018074,72.4951,0.73,0.48,-2.477026,0.25
31,57,0.3,72.1869,72.688416,0.75,0.49,-0.501516,0.26
32,57,0.3,71.93211,74.42184,0.64,0.48,-2.48973,0.16
33,57,0.3,74.42605,72.907486,0.71,0.49,1.518564,0.22
34,57,0.3,75.0517,72.350815,0.76,0.5,2.700885,0.26
35,57,0.3,71.50405,72.46504,0.58,0.49,-0.96099,0.09
36,57,0.3,72.35149,72.47662,0.61,0.49,-0.12513,0.12
37,57,0.3,71.781845,74.42004,0.56,0.51,-2.638195,0.05
38,57,0.3,72.3872,70.1207,0.6,0.47,2.2665,0.13
39,57,0.3,70.63211,71.562256,0.56,0.47,-0.930146,0.09
40,57,0.3,74.94216,69.382126,0.63,0.48,5.560034,0.15
41,57,0.3,73.84012,72.32578,0.81,0.46,1.51434,0.35
42,57,0.3,70.17247,70.93465,0.59,0.46,-0.76218,0.13
43,57,0.3,74.94414,71.910576,0.61,0.43,3.033564,0.18
44,57,0.3,71.52959,74.824524,0.59,0.45,-3.294934,0.14
45,57,0.3,75.31991,69.911545,0.61,0.45,5.408365,0.16
46,57,0.3,72.23686,66.45636,0.47,0.42,5.7805,0.05
47,57,0.3,70.25291,71.02222,0.46,0.47,-0.76931,-0.01
48,57,0.3,70.731316,72.14149,0.43,0.45,-1.410174,-0.02
49,57,0.3,73.36217,73.4879,0.52,0.37,-0.12573,0.15
50,57,0.3,72.47427,73.84978,0.49,0.45,-1.37551,0.04
51,57,0.3,77.9496,73.99842,0.65,0.43,3.95118,0.22
52,57,0.3,79.79481,76.892456,0.61,0.45,2.902354,0.16
53,57,0.3,80.949295,72.42191,0.52,0.42,8.527385,0.1
54,57,0.3,76.1158,72.85566,0.48,0.44,3.26014,0.04
55,57,0.3,79.25502,72.397995,0.59,0.47,6.857025,0.12
56,57,0.3,75.750626,73.26233,0.42,0.42,2.488296,0
57,57,0.3,74.3218,72.06942,0.49,0.42,2.25238,0.07
58,57,0.3,71.22761,73.03,0.46,0.41,-1.80239,0.05
59,57,0.3,68.082985,69.84217,0.52,0.41,-1.759185,0.11
60,57,0.3,69.38168,69.42233,0.46,0.37,-0.04065,0.09
61,57,0.3,75.278046,70.5113,0.54,0.37,4.766746,0.17
62,57,0.3,74.337585,69.842926,0.54,0.46,4.494659,0.08
63,57,0.3,74.751434,66.84443,0.45,0.41,7.907004,0.04
64,57,0.3,74.912346,64.93541,0.48,0.31,9.976936,0.17
65,57,0.3,73.01378,63.986916,0.5,0.35,9.026864,0.15
66,57,0.3,69.20708,71.58617,0.47,0.44,-2.37909,0.03
67,57,0.3,72.63217,67.45211,0.49,0.43,5.18006,0.06
68,57,0.3,73.38834,61.304493,0.5,0.33,12.083847,0.17
69,57,0.3,69.89012,66.4592,0.43,0.42,3.43092,0.01
70,57,0.3,66.81056,65.55623,0.51,0.38,1.25433,0.13
71,57,0.3,69.66872,70.24524,0.44,0.36,-0.57652,0.08
72,57,0.3,73.48245,70.07834,0.45,0.34,3.40411,0.11
73,57,0.3,76.24038,70.43331,0.45,0.38,5.80707,0.07
74,57,0.3,77.74852,68.68393,0.47,0.45,9.06459,0.02
75,57,0.3,70.54277,72.62765,0.46,0.43,-2.08488,0.03
76,57,0.3,65.92343,68.255325,0.47,0.32,-2.331895,0.15
77,57,0.3,68.862076,67.808556,0.31,0.37,1.05352,-0.06
78,57,0.3,67.292915,73.5255,0.44,0.37,-6.232585,0.07
79,57,0.3,63.60771,68.02098,0.36,0.27,-4.41327,0.09
80,57,0.3,68.48929,65.74226,0.37,0.36,2.74703,0.01
81,57,0.3,67.67528,68.82561,0.47,0.37,-1.15033,0.1
82,57,0.3,66.720535,71.75346,0.32,0.29,-5.032925,0.03
83,57,0.3,62.48787,71.181465,0.11,0.34,-8.693595,-0.23
84,57,0.3,59.737785,61.465267,0.11,0.38,-1.727482,-0.27
85,57,0.3,62.08823,66.33409,0.11,0.33,-4.24586,-0.22
86,57,0.3,60.23528,65.6474,0.11,0.25,-5.41212,-0.14
87,57,0.3,58.38267,64.23777,0.11,0.23,-5.8551,-0.12
88,57,0.3,59.079723,63.894917,0.11,0.16,-4.815194,-0.05
89,57,0.3,62.610725,62.538383,0.11,0.21,0.072342,-0.1
90,57,0.3,57.281136,66.59171,0.11,0.23,-9.310574,-0.12
91,57,0.3,61.10201,64.74718,0.11,0.28,-3.64517,-0.17
92,57,0.3,57.728493,67.26452,0.11,0.34,-9.536027,-0.23
93,57,0.3,57.076626,62.991676,0.11,0.11,-5.91505,0
94,57,0.3,59.53458,64.03514,0.11,0.14,-4.50056,-0.03
95,57,0.3,59.85876,60.320084,0.11,0.14,-0.461324,-0.03
96,57,0.3,59.22502,64.301216,0.11,0.11,-5.076196,0
97,57,0.3,60.562626,65.22543,0.11,0.11,-4.662804,0
98,57,0.3,60.59538,62.19474,0.11,0.22,-1.59936,-0.11
99,57,0.3,59.758312,63.658363,0.11,0.13,-3.900051,-0.02
100,57,0.3,61.76921,59.563385,0.11,0.11,2.205825,0
101,57,0.3,60.03183,61.218407,0.11,0.11,-1.186577,0
102,57,0.3,63.577385,60.820904,0.11,0.11,2.756481,0
103,57,0.3,60.94309,61.381348,0.11,0.13,-0.438258,-0.02
104,57,0.3,60.59851,59.468204,0.11,0.11,1.130306,0
105,57,0.3,58.757065,63.72232,0.11,0.13,-4.965255,-0.02
106,57,0.3,58.495644,59.368523,0.11,0.11,-0.872879,0
107,57,0.3,58.28554,63.032818,0.11,0.11,-4.747278,0
108,57,0.3,59.414593,61.039177,0.11,0.11,-1.624584,0
21,57,0.7,71.18278,69.92071,1.13,0.9,1.26207,0.23
22,57,0.7,71.77562,71.79934,1.22,0.85,-0.02372,0.37
23,57,0.7,71.09278,71.67355,1.11,0.89,-0.58077,0.22
24,57,0.7,72.7343,70.4481,1.11,0.84,2.2862,0.27
25,57,0.7,72.80284,70.66184,0.97,0.87,2.141,0.1
26,57,0.7,70.16429,69.10654,0.91,0.87,1.05775,0.04
27,57,0.7,71.322876,70.85402,0.97,0.89,0.468856,0.08
28,57,0.7,72.52202,70.76555,1.07,0.87,1.75647,0.2
29,57,0.7,71.4933,69.988495,1.2,0.83,1.504805,0.37
30,57,0.7,70.27105,73.08172,0.98,0.86,-2.81067,0.12
31,57,0.7,72.1371,73.13177,1,0.84,-0.99467,0.16
32,57,0.7,72.113884,74.167046,0.96,0.88,-2.053162,0.08
33,57,0.7,74.48129,72.658775,1,0.83,1.822515,0.17
34,57,0.7,74.8277,72.15628,0.91,0.86,2.67142,0.05
35,57,0.7,71.83129,71.49444,0.95,0.84,0.33685,0.11
36,57,0.7,73.02617,72.408585,0.98,0.84,0.617585,0.14
37,57,0.7,71.33331,74.69089,0.92,0.86,-3.35758,0.06
38,57,0.7,72.2362,69.86281,0.98,0.82,2.37339,0.16
39,57,0.7,70.68844,71.6185,0.89,0.87,-0.93006,0.02
40,57,0.7,74.92803,68.38246,0.99,0.83,6.54557,0.16
41,57,0.7,73.55017,72.689804,0.89,0.76,0.860366,0.13
42,57,0.7,69.99522,71.59142,0.91,0.78,-1.5962,0.13
43,57,0.7,74.87461,72.08714,1.01,0.78,2.78747,0.23
44,57,0.7,72.00221,74.39304,0.98,0.81,-2.39083,0.17
45,57,0.7,74.837036,70.06395,0.84,0.83,4.773086,0.01
46,57,0.7,72.62088,66.13257,0.83,0.78,6.48831,0.05
47,57,0.7,70.013435,70.94912,0.84,0.82,-0.935685,0.02
48,57,0.7,70.241806,71.19851,0.82,0.81,-0.956704,0.01
49,57,0.7,73.602356,73.26021,0.88,0.75,0.342146,0.13
50,57,0.7,71.74892,74.04267,0.84,0.79,-2.29375,0.05
51,57,0.7,78.01517,73.98273,1.03,0.76,4.03244,0.27
52,57,0.7,79.494156,77.054886,0.93,0.77,2.43927,0.16
53,57,0.7,80.823235,72.17244,0.89,0.73,8.650795,0.16
54,57,0.7,76.13356,72.963066,0.87,0.77,3.170494,0.1
55,57,0.7,79.09164,72.222015,0.79,0.75,6.869625,0.04
56,57,0.7,75.62361,72.08424,0.8,0.74,3.53937,0.06
57,57,0.7,74.06448,72.55974,0.83,0.74,1.50474,0.09
58,57,0.7,71.63663,72.923874,0.83,0.76,-1.287244,0.07
59,57,0.7,67.71503,70.85673,0.91,0.77,-3.1417,0.14
60,57,0.7,69.5957,69.48383,0.82,0.73,0.11187,0.09
61,57,0.7,75.07584,70.97025,0.66,0.74,4.10559,-0.08
62,57,0.7,74.261856,69.968636,0.88,0.75,4.29322,0.13
63,57,0.7,75.279175,66.92675,0.85,0.64,8.352425,0.21
64,57,0.7,75.151405,64.78652,0.84,0.75,10.364885,0.09
65,57,0.7,72.93138,64.076866,0.79,0.44,8.854514,0.35
66,57,0.7,68.572754,72.199844,0.84,0.6,-3.62709,0.24
67,57,0.7,72.82278,67.42209,0.85,0.8,5.40069,0.05
68,57,0.7,73.8423,62.40673,0.88,0.65,11.43557,0.23
69,57,0.7,70.21596,66.18329,0.53,0.57,4.03267,-0.04
70,57,0.7,66.792694,64.09865,0.85,0.58,2.694044,0.27
71,57,0.7,69.749214,71.469925,0.82,0.76,-1.720711,0.06
72,57,0.7,73.24187,69.75398,0.81,0.52,3.48789,0.29
73,57,0.7,76.03857,70.08676,0.5,0.63,5.95181,-0.13
74,57,0.7,76.23016,68.90773,0.71,0.75,7.32243,-0.04
75,57,0.7,70.140045,72.785675,0.82,0.55,-2.64563,0.27
76,57,0.7,66.25261,67.66005,0.86,0.71,-1.40744,0.15
77,57,0.7,68.554535,67.66023,0.31,0.79,0.894305,-0.48
78,57,0.7,67.31119,73.699394,0.54,0.5,-6.388204,0.04
79,57,0.7,64.51269,68.128716,0.36,0.27,-3.616026,0.09
80,57,0.7,68.475815,65.34127,0.37,0.79,3.134545,-0.42
81,57,0.7,68.567,69.1131,0.86,0.64,-0.5461,0.22
82,57,0.7,66.894196,71.748856,0.33,0.29,-4.85466,0.04
83,57,0.7,62.931946,70.554756,0.11,0.78,-7.62281,-0.67
84,57,0.7,61.35104,61.352783,0.11,0.4,-0.001743,-0.29
85,57,0.7,59.641438,66.256454,0.11,0.41,-6.615016,-0.3
86,57,0.7,60.377815,65.600586,0.11,0.25,-5.222771,-0.14
87,57,0.7,60.634037,64.43464,0.11,0.23,-3.800603,-0.12
88,57,0.7,59.713814,63.465214,0.11,0.13,-3.7514,-0.02
89,57,0.7,62.03102,62.634823,0.11,0.21,-0.603803,-0.1
90,57,0.7,57.53444,66.85696,0.11,0.26,-9.32252,-0.15
91,57,0.7,60.690296,64.26561,0.11,0.27,-3.575314,-0.16
92,57,0.7,59.530724,67.50261,0.11,0.16,-7.971886,-0.05
93,57,0.7,56.91442,62.993896,0.11,0.11,-6.079476,0
94,57,0.7,58.79097,63.46023,0.11,0.14,-4.66926,-0.03
95,57,0.7,59.41362,61.33377,0.11,0.14,-1.92015,-0.03
96,57,0.7,59.551266,64.39948,0.11,0.11,-4.848214,0
97,57,0.7,60.07614,65.15146,0.11,0.11,-5.07532,0
98,57,0.7,59.996662,62.424236,0.11,0.23,-2.427574,-0.12
99,57,0.7,59.973694,63.69419,0.11,0.13,-3.720496,-0.02
100,57,0.7,61.748726,59.594475,0.11,0.11,2.154251,0
101,57,0.7,58.947628,61.177124,0.11,0.11,-2.229496,0
102,57,0.7,63.729523,60.623863,0.11,0.11,3.10566,0
103,57,0.7,61.662876,61.089584,0.11,0.13,0.573292,-0.02
104,57,0.7,60.61289,59.04503,0.11,0.11,1.56786,0
105,57,0.7,59.108208,63.126,0.11,0.13,-4.017792,-0.02
106,57,0.7,58.51466,59.797638,0.11,0.11,-1.282978,0
107,57,0.7,56.78714,62.61242,0.11,0.11,-5.82528,0
108,57,0.7,57.591286,60.845364,0.11,0.11,-3.254078,0
21,57,1,71.53231,69.97939,1.41,1.15,1.55292,0.26
22,57,1,70.470184,71.77548,1.5,1.15,-1.305296,0.35
23,57,1,70.06126,72.009186,1.35,1.15,-1.947926,0.2
24,57,1,72.93782,70.668335,1.25,1.15,2.269485,0.1
25,57,1,71.84898,70.86986,1.22,1.16,0.97912,0.06
26,57,1,69.6272,66.635895,1.14,1.15,2.991305,-0.01
27,57,1,71.18199,70.911835,1.19,1.12,0.270155,0.07
28,57,1,71.92299,71.205925,1.34,1.14,0.717065,0.2
29,57,1,71.067154,69.52728,1.43,1.13,1.539874,0.3
30,57,1,71.247635,72.76215,1.24,1.13,-1.514515,0.11
31,57,1,72.77121,73.16406,1.32,1.11,-0.39285,0.21
32,57,1,72.49822,74.25584,1.23,1.14,-1.75762,0.09
33,57,1,74.13466,73.32184,1.19,1.11,0.81282,0.08
34,57,1,74.79523,72.05423,1.17,1.1,2.741,0.07
35,57,1,71.971794,71.04144,1.18,1.13,0.930354,0.05
36,57,1,72.21257,72.518524,1.28,1.11,-0.305954,0.17
37,57,1,71.783714,74.57145,1.19,1.14,-2.787736,0.05
38,57,1,71.81587,70.301186,1.26,1.08,1.514684,0.18
39,57,1,70.51094,73.66273,1.21,1.12,-3.15179,0.09
40,57,1,75.175316,71.02665,1.17,1.1,4.148666,0.07
41,57,1,73.868706,72.47368,1.2,1.04,1.395026,0.16
42,57,1,69.60717,72.93724,1.23,1.05,-3.33007,0.18
43,57,1,74.694145,73.63925,1.26,1.06,1.054895,0.2
44,57,1,71.45978,74.70683,1.15,1.1,-3.24705,0.05
45,57,1,75.134964,70.34751,1.12,1.1,4.787454,0.02
46,57,1,72.43791,70.6984,1.13,1.07,1.73951,0.06
47,57,1,70.57031,73.40121,1.13,1.09,-2.8309,0.04
48,57,1,70.28523,72.148605,0.92,1.07,-1.863375,-0.15
49,57,1,73.434586,73.44888,1.13,1.03,-0.014294,0.1
50,57,1,71.47839,73.52467,1.14,1.06,-2.04628,0.08
51,57,1,78.19434,73.74052,1.3,1.03,4.45382,0.27
52,57,1,79.46873,76.72591,1.13,1.03,2.74282,0.1
53,57,1,80.181465,71.63202,1.12,1.01,8.549445,0.11
54,57,1,76.41211,73.7816,1.15,1.03,2.63051,0.12
55,57,1,79.19888,72.42674,1.09,1.02,6.77214,0.07
56,57,1,75.5915,75.43095,1.09,1.04,0.16055,0.05
57,57,1,73.949066,74.27687,1.12,1.03,-0.327804,0.09
58,57,1,70.03956,72.91612,1.12,1.04,-2.87656,0.08
59,57,1,67.6502,73.54117,1.18,1.05,-5.89097,0.13
60,57,1,69.85898,69.255646,1.13,1.05,0.603334,0.08
61,57,1,75.49981,70.81557,0.65,1.02,4.68424,-0.37
62,57,1,74.52443,69.64055,1.18,0.89,4.88388,0.29
63,57,1,74.969345,68.27212,1.17,0.6,6.697225,0.57
64,57,1,75.161545,64.40923,1.13,1.03,10.752315,0.1
65,57,1,72.09583,63.425045,0.93,0.44,8.670785,0.49
66,57,1,68.81561,72.36658,1.15,0.61,-3.55097,0.54
67,57,1,73.01636,67.31946,1.14,1.1,5.6969,0.04
68,57,1,73.67998,63.067165,1.19,0.67,10.612815,0.52
69,57,1,70.3994,66.53856,0.53,0.57,3.86084,-0.04
70,57,1,66.482994,65.54787,0.91,0.58,0.935124,0.33
71,57,1,70.43017,70.85988,1.13,1.04,-0.42971,0.09
72,57,1,73.39404,71.239395,0.9,0.53,2.154645,0.37
73,57,1,76.073654,72.859146,0.5,0.63,3.214508,-0.13
74,57,1,75.56917,71.41798,0.7,0.89,4.15119,-0.19
75,57,1,69.63652,77.561005,0.89,0.55,-7.924485,0.34
76,57,1,65.56151,69.40332,0.95,1.01,-3.84181,-0.06
77,57,1,68.054596,71.171486,0.31,1.1,-3.11689,-0.79
78,57,1,66.456184,73.28999,0.55,0.5,-6.833806,0.05
79,57,1,64.57451,74.09814,0.36,0.26,-9.52363,0.1
80,57,1,69.15811,68.93148,0.37,0.84,0.22663,-0.47
81,57,1,68.15594,75.16849,1.15,0.64,-7.01255,0.51
82,57,1,66.390144,71.26201,0.31,0.29,-4.871866,0.02
83,57,1,62.823193,70.57641,0.23,1.06,-7.753217,-0.83
84,57,1,59.7279,62.954475,0.11,0.4,-3.226575,-0.29
85,57,1,60.794476,70.01899,0.11,0.41,-9.224514,-0.3
86,57,1,62.007004,65.85601,0.11,0.25,-3.849006,-0.14
87,57,1,59.258537,63.937782,0.11,0.23,-4.679245,-0.12
88,57,1,59.932487,63.927307,0.11,0.16,-3.99482,-0.05
89,57,1,61.78636,62.761356,0.11,0.21,-0.974996,-0.1
90,57,1,57.23781,66.357506,0.11,0.31,-9.119696,-0.2
91,57,1,59.985607,66.321,0.11,0.28,-6.335393,-0.17
92,57,1,58.328953,68.95245,0.11,0.34,-10.623497,-0.23
93,57,1,58.25638,63.773746,0.11,0.11,-5.517366,0
94,57,1,58.80006,64.99364,0.11,0.14,-6.19358,-0.03
95,57,1,61.434883,63.32913,0.11,0.14,-1.894247,-0.03
96,57,1,57.46605,71.39259,0.11,0.11,-13.92654,0
97,57,1,59.06925,66.47194,0.11,0.11,-7.40269,0
98,57,1,59.000015,64.0721,0.11,0.22,-5.072085,-0.11
99,57,1,60.005703,64.8776,0.11,0.13,-4.871897,-0.02
100,57,1,62.31537,63.274612,0.11,0.11,-0.959242,0
101,57,1,60.254383,63.510307,0.11,0.11,-3.255924,0
102,57,1,64.0238,63.017197,0.11,0.11,1.006603,0
103,57,1,62.409912,62.098675,0.11,0.13,0.311237,-0.02
104,57,1,60.035282,61.653507,0.11,0.11,-1.618225,0
105,57,1,59.023907,65.68815,0.11,0.13,-6.664243,-0.02
106,57,1,58.225327,61.90396,0.11,0.11,-3.678633,0
107,57,1,57.9492,64.040054,0.11,0.11,-6.090854,0
108,57,1,57.00695,62.961002,0.11,0.11,-5.954052,0
21,65,0.1,73.905426,70.59245,0.77,0.39,3.312976,0.38
22,65,0.1,71.19978,72.215225,0.79,0.38,-1.015445,0.41
23,65,0.1,72.33466,73.19389,0.56,0.35,-0.85923,0.21
24,65,0.1,75.13336,71.838745,0.56,0.33,3.294615,0.23
25,65,0.1,75.44905,72.613235,0.54,0.33,2.835815,0.21
26,65,0.1,72.48822,68.31748,0.52,0.36,4.17074,0.16
27,65,0.1,72.45978,73.246765,0.5,0.35,-0.786985,0.15
28,65,0.1,73.484055,72.954895,0.56,0.38,0.52916,0.18
29,65,0.1,72.826454,72.203926,0.64,0.34,0.622528,0.3
30,65,0.1,73.362045,74.51256,0.58,0.3,-1.150515,0.28
31,65,0.1,74.79173,74.489746,0.51,0.36,0.301984,0.15
32,65,0.1,73.42774,75.95435,0.48,0.35,-2.52661,0.13
33,65,0.1,75.69087,74.22989,0.67,0.33,1.46098,0.34
34,65,0.1,76.40886,74.038635,0.72,0.39,2.370225,0.33
35,65,0.1,73.6993,74.80857,0.51,0.31,-1.10927,0.2
36,65,0.1,74.19062,74.41881,0.57,0.34,-0.22819,0.23
37,65,0.1,73.72967,75.36736,0.36,0.34,-1.63769,0.02
38,65,0.1,74.652916,72.288956,0.45,0.32,2.36396,0.13
39,65,0.1,72.67996,72.42811,0.53,0.33,0.25185,0.2
40,65,0.1,77.29901,70.59682,0.5,0.32,6.70219,0.18
41,65,0.1,75.08978,74.46022,0.79,0.31,0.62956,0.48
42,65,0.1,72.81074,73.59769,0.74,0.31,-0.78695,0.43
43,65,0.1,77.17319,73.79285,0.49,0.29,3.38034,0.2
44,65,0.1,73.45711,75.736885,0.43,0.29,-2.279775,0.14
45,65,0.1,77.077965,72.092865,0.5,0.32,4.9851,0.18
46,65,0.1,74.56899,71.21797,0.34,0.29,3.35102,0.05
47,65,0.1,72.41617,73.51454,0.34,0.31,-1.09837,0.03
48,65,0.1,70.907196,74.27724,0.34,0.27,-3.370044,0.07
49,65,0.1,75.84584,75.48569,0.39,0.31,0.36015,0.08
50,65,0.1,72.988815,75.57949,0.33,0.29,-2.590675,0.04
51,65,0.1,80.389145,75.80652,0.4,0.29,4.582625,0.11
52,65,0.1,81.25967,78.13357,0.42,0.33,3.1261,0.09
53,65,0.1,82.51834,75.091675,0.35,0.24,7.426665,0.11
54,65,0.1,78.69035,74.96104,0.37,0.31,3.72931,0.06
55,65,0.1,80.50624,74.30217,0.42,0.31,6.20407,0.11
56,65,0.1,77.7686,72.87193,0.35,0.32,4.89667,0.03
57,65,0.1,76.16394,74.65401,0.29,0.22,1.50993,0.07
58,65,0.1,72.2884,74.37267,0.39,0.28,-2.08427,0.11
59,65,0.1,70.266266,72.431244,0.36,0.25,-2.164978,0.11
60,65,0.1,71.6366,71.78075,0.3,0.32,-0.14415,-0.02
61,65,0.1,77.20159,73.574905,0.38,0.27,3.626685,0.11
62,65,0.1,75.58783,71.32031,0.36,0.27,4.26752,0.09
63,65,0.1,77.26401,69.34214,0.44,0.25,7.92187,0.19
64,65,0.1,76.78535,67.38956,0.31,0.22,9.39579,0.09
65,65,0.1,74.611855,69.59499,0.35,0.28,5.016865,0.07
66,65,0.1,72.188286,74.76245,0.34,0.35,-2.574164,-0.01
67,65,0.1,74.88919,69.47347,0.31,0.35,5.41572,-0.04
68,65,0.1,75.64002,61.866814,0.32,0.22,13.773206,0.1
69,65,0.1,70.18462,68.7697,0.33,0.28,1.41492,0.05
70,65,0.1,70.109924,67.94289,0.32,0.24,2.167034,0.08
71,65,0.1,72.94899,72.15796,0.3,0.17,0.79103,0.13
72,65,0.1,76.0307,72.424866,0.37,0.32,3.605834,0.05
73,65,0.1,78.44106,72.422806,0.31,0.29,6.018254,0.02
74,65,0.1,76.85605,71.55719,0.37,0.28,5.29886,0.09
75,65,0.1,72.82408,75.01178,0.32,0.36,-2.1877,-0.04
76,65,0.1,68.37195,70.31127,0.33,0.3,-1.93932,0.03
77,65,0.1,71.05107,71.2746,0.34,0.25,-0.22353,0.09
78,65,0.1,68.714035,75.84801,0.32,0.18,-7.133975,0.14
79,65,0.1,66.73687,70.86296,0.33,0.27,-4.12609,0.06
80,65,0.1,71.551605,68.50853,0.32,0.28,3.043075,0.04
81,65,0.1,71.27602,71.8177,0.34,0.14,-0.54168,0.2
82,65,0.1,70.25339,74.54222,0.27,0.24,-4.28883,0.03
83,65,0.1,66.10608,73.98625,0.29,0.3,-7.88017,-0.01
84,65,0.1,62.86049,63.913063,0.11,0.31,-1.052573,-0.2
85,65,0.1,62.468636,72.44549,0.11,0.29,-9.976854,-0.18
86,65,0.1,59.32429,68.17502,0.11,0.2,-8.85073,-0.09
87,65,0.1,59.491234,67.54778,0.11,0.23,-8.056546,-0.12
88,65,0.1,64.6124,65.908424,0.11,0.19,-1.296024,-0.08
89,65,0.1,64.6765,66.059105,0.11,0.29,-1.382605,-0.18
90,65,0.1,59.98413,69.86859,0.11,0.29,-9.88446,-0.18
91,65,0.1,64.43304,64.75207,0.11,0.29,-0.31903,-0.18
92,65,0.1,60.848167,70.647316,0.11,0.75,-9.799149,-0.64
93,65,0.1,60.16995,65.06972,0.11,0.31,-4.89977,-0.2
94,65,0.1,59.48012,64.49999,0.11,0.14,-5.01987,-0.03
95,65,0.1,60.975777,63.5363,0.11,0.15,-2.560523,-0.04
96,65,0.1,60.262535,68.039536,0.11,0.11,-7.777001,0
97,65,0.1,61.25058,66.61293,0.11,0.16,-5.36235,-0.05
98,65,0.1,62.199223,64.42383,0.11,0.24,-2.224607,-0.13
99,65,0.1,62.150536,64.59105,0.11,0.14,-2.440514,-0.03
100,65,0.1,64.17905,62.320473,0.11,0.11,1.858577,0
101,65,0.1,61.413555,63.5779,0.11,0.11,-2.164345,0
102,65,0.1,65.05815,63.23963,0.11,0.11,1.81852,0
103,65,0.1,61.906845,62.21523,0.11,0.14,-0.308385,-0.03
104,65,0.1,62.888584,61.65503,0.11,0.13,1.233554,-0.02
105,65,0.1,60.65422,65.61211,0.11,0.14,-4.95789,-0.03
106,65,0.1,62.366333,60.983574,0.11,0.11,1.382759,0
107,65,0.1,60.253937,62.977325,0.11,0.11,-2.723388,0
108,65,0.1,63.8043,63.27074,0.11,0.11,0.53356,0
21,65,0.3,74.005,72.04419,0.88,0.59,1.96081,0.29
22,65,0.3,72.371925,72.29231,0.93,0.54,0.079615,0.39
23,65,0.3,72.693504,73.55342,0.84,0.57,-0.859916,0.27
24,65,0.3,75.01613,71.90001,0.72,0.55,3.11612,0.17
25,65,0.3,74.47477,72.539505,0.69,0.52,1.935265,0.17
26,65,0.3,72.386,68.83917,0.69,0.54,3.54683,0.15
27,65,0.3,71.815025,73.15164,0.69,0.52,-1.336615,0.17
28,65,0.3,73.274124,73.11894,0.84,0.56,0.155184,0.28
29,65,0.3,73.14326,71.87932,0.86,0.55,1.26394,0.31
30,65,0.3,73.2283,74.95627,0.83,0.54,-1.72797,0.29
31,65,0.3,75.0793,74.53908,0.72,0.53,0.54022,0.19
32,65,0.3,74.2601,75.85951,0.64,0.54,-1.59941,0.1
33,65,0.3,76.170006,75.17619,0.82,0.49,0.993816,0.33
34,65,0.3,77.17421,73.97779,0.79,0.54,3.19642,0.25
35,65,0.3,73.983025,74.16182,0.65,0.5,-0.178795,0.15
36,65,0.3,74.394844,74.02075,0.72,0.52,0.374094,0.2
37,65,0.3,74.68052,75.84396,0.56,0.53,-1.16344,0.03
38,65,0.3,73.75203,71.90157,0.66,0.51,1.85046,0.15
39,65,0.3,73.172806,72.54924,0.61,0.49,0.623566,0.12
40,65,0.3,77.25341,71.23221,0.64,0.5,6.0212,0.14
41,65,0.3,76.63898,74.75757,0.8,0.47,1.88141,0.33
42,65,0.3,71.73045,73.964905,0.85,0.49,-2.234455,0.36
43,65,0.3,77.26374,74.26723,0.65,0.45,2.99651,0.2
44,65,0.3,73.47472,76.518616,0.58,0.46,-3.043896,0.12
45,65,0.3,77.14853,71.81568,0.66,0.45,5.33285,0.21
46,65,0.3,74.658295,70.88009,0.53,0.45,3.778205,0.08
47,65,0.3,72.25814,73.53558,0.54,0.5,-1.27744,0.04
48,65,0.3,71.44606,73.7163,0.51,0.47,-2.27024,0.04
49,65,0.3,75.47392,75.03744,0.55,0.43,0.43648,0.12
50,65,0.3,74.13105,75.8242,0.49,0.46,-1.69315,0.03
51,65,0.3,80.47465,75.90814,0.75,0.44,4.56651,0.31
52,65,0.3,81.00734,78.34837,0.62,0.46,2.65897,0.16
53,65,0.3,82.63768,74.2882,0.53,0.43,8.34948,0.1
54,65,0.3,78.589874,74.621445,0.48,0.5,3.968429,-0.02
55,65,0.3,80.32172,74.323166,0.6,0.48,5.998554,0.12
56,65,0.3,78.00573,73.13792,0.48,0.42,4.86781,0.06
57,65,0.3,76.36492,74.18969,0.49,0.42,2.17523,0.07
58,65,0.3,72.299805,74.14539,0.47,0.45,-1.845585,0.02
59,65,0.3,70.329475,71.704315,0.53,0.44,-1.37484,0.09
60,65,0.3,72.28538,71.89475,0.47,0.38,0.39063,0.09
61,65,0.3,77.078735,73.27298,0.57,0.38,3.805755,0.19
62,65,0.3,75.43069,71.56157,0.55,0.47,3.86912,0.08
63,65,0.3,77.215454,69.388794,0.62,0.41,7.82666,0.21
64,65,0.3,77.08419,67.80521,0.48,0.33,9.27898,0.15
65,65,0.3,74.20165,66.87665,0.51,0.37,7.325,0.14
66,65,0.3,72.11545,74.67817,0.49,0.49,-2.56272,0
67,65,0.3,76.77029,69.43555,0.5,0.44,7.33474,0.06
68,65,0.3,75.366516,61.747276,0.5,0.32,13.61924,0.18
69,65,0.3,70.631165,68.972626,0.47,0.43,1.658539,0.04
70,65,0.3,68.10107,67.65815,0.51,0.41,0.44292,0.1
71,65,0.3,72.98231,72.19722,0.49,0.36,0.78509,0.13
72,65,0.3,76.25483,72.183205,0.55,0.35,4.071625,0.2
73,65,0.3,79.06404,72.61153,0.46,0.41,6.45251,0.05
74,65,0.3,78.24032,70.92054,0.48,0.46,7.31978,0.02
75,65,0.3,72.93907,74.55414,0.47,0.44,-1.61507,0.03
76,65,0.3,68.354,70.08707,0.48,0.36,-1.73307,0.12
77,65,0.3,70.55193,70.868546,0.31,0.39,-0.316616,-0.08
78,65,0.3,67.28026,75.80762,0.45,0.38,-8.52736,0.07
79,65,0.3,66.69113,70.92693,0.37,0.33,-4.2358,0.04
80,65,0.3,71.258934,68.975174,0.39,0.38,2.28376,0.01
81,65,0.3,70.95115,72.06515,0.47,0.37,-1.114,0.1
82,65,0.3,70.59886,74.44385,0.35,0.36,-3.84499,-0.01
83,65,0.3,65.738846,73.659615,0.43,0.35,-7.920769,0.08
84,65,0.3,61.86376,63.87686,0.11,0.43,-2.0131,-0.32
85,65,0.3,62.035843,67.5041,0.11,0.36,-5.468257,-0.25
86,65,0.3,61.78221,68.34671,0.11,0.27,-6.5645,-0.16
87,65,0.3,59.267456,67.35031,0.11,0.26,-8.082854,-0.15
88,65,0.3,64.69651,66.08319,0.11,0.31,-1.38668,-0.2
89,65,0.3,64.4491,65.981125,0.11,0.35,-1.532025,-0.24
90,65,0.3,60.359917,69.66647,0.11,0.29,-9.306553,-0.18
91,65,0.3,65.47885,65.31931,0.11,0.29,0.15954,-0.18
92,65,0.3,61.777313,70.47629,0.11,0.74,-8.698977,-0.63
93,65,0.3,60.686405,65.55406,0.11,0.12,-4.867655,-0.01
94,65,0.3,60.87409,65.08249,0.11,0.14,-4.2084,-0.03
95,65,0.3,62.167244,62.580162,0.11,0.15,-0.412918,-0.04
96,65,0.3,58.914604,67.946365,0.11,0.11,-9.031761,0
97,65,0.3,61.03765,66.37686,0.11,0.16,-5.33921,-0.05
98,65,0.3,61.191483,64.32483,0.11,0.24,-3.133347,-0.13
99,65,0.3,61.90778,65.348625,0.11,0.14,-3.440845,-0.03
100,65,0.3,64.00755,62.745583,0.11,0.11,1.261967,0
101,65,0.3,62.241474,63.04061,0.11,0.11,-0.799136,0
102,65,0.3,65.680115,62.9804,0.11,0.11,2.699715,0
103,65,0.3,63.972748,62.130535,0.11,0.14,1.842213,-0.03
104,65,0.3,61.919693,61.942368,0.11,0.13,-0.022675,-0.02
105,65,0.3,60.5105,65.26709,0.11,0.14,-4.75659,-0.03
106,65,0.3,60.600803,60.256126,0.11,0.11,0.344677,0
107,65,0.3,60.286167,63.207005,0.11,0.11,-2.920838,0
108,65,0.3,61.5589,62.884647,0.11,0.11,-1.325747,0
21,65,0.7,74.13365,71.53398,1.3,0.92,2.59967,0.38
22,65,0.7,72.710724,73.86696,1.29,0.91,-1.156236,0.38
23,65,0.7,72.36689,73.08465,1.1,0.93,-0.71776,0.17
24,65,0.7,74.59284,71.40109,1.09,0.93,3.19175,0.16
25,65,0.7,74.462265,72.01767,1.07,0.89,2.444595,0.18
26,65,0.7,72.55513,69.11081,0.98,0.9,3.44432,0.08
27,65,0.7,71.831955,72.963715,1,0.91,-1.13176,0.09
28,65,0.7,74.39621,72.89774,1.09,0.92,1.49847,0.17
29,65,0.7,73.64284,72.061264,1.23,0.88,1.581576,0.35
30,65,0.7,73.18437,74.56416,1.21,0.92,-1.37979,0.29
31,65,0.7,74.47475,75.17226,1,0.86,-0.69751,0.14
32,65,0.7,73.98243,75.75167,0.98,0.91,-1.76924,0.07
33,65,0.7,75.49325,75.05635,1.01,0.85,0.4369,0.16
34,65,0.7,77.000046,74.10763,1.17,0.88,2.892416,0.29
35,65,0.7,73.91284,74.04822,0.99,0.89,-0.13538,0.1
36,65,0.7,74.776024,74.61295,1.04,0.88,0.163074,0.16
37,65,0.7,75.37516,76.12065,0.92,0.86,-0.74549,0.06
38,65,0.7,74.21195,72.368385,1.02,0.83,1.843565,0.19
39,65,0.7,72.980286,72.42125,0.98,0.89,0.559036,0.09
40,65,0.7,77.52955,71.20831,1.03,0.85,6.32124,0.18
41,65,0.7,76.41311,74.51317,0.99,0.81,1.89994,0.18
42,65,0.7,71.56576,73.82948,0.93,0.79,-2.26372,0.14
43,65,0.7,77.020836,73.771225,1,0.81,3.249611,0.19
44,65,0.7,73.60856,76.052505,0.98,0.83,-2.443945,0.15
45,65,0.7,77.16494,71.766525,0.86,0.83,5.398415,0.03
46,65,0.7,74.30585,70.78335,0.85,0.82,3.5225,0.03
47,65,0.7,72.45547,73.411156,0.84,0.83,-0.955686,0.01
48,65,0.7,70.91769,73.92059,0.81,0.82,-3.0029,-0.01
49,65,0.7,75.1932,74.956406,0.88,0.76,0.236794,0.12
50,65,0.7,74.357925,75.942215,0.85,0.78,-1.58429,0.07
51,65,0.7,80.24487,75.848434,1.08,0.79,4.396436,0.29
52,65,0.7,81.14534,78.236145,0.98,0.78,2.909195,0.2
53,65,0.7,82.524055,74.984406,0.9,0.73,7.539649,0.17
54,65,0.7,78.39158,74.533676,0.87,0.77,3.857904,0.1
55,65,0.7,80.455536,74.39554,0.79,0.76,6.059996,0.03
56,65,0.7,77.64333,72.21201,0.79,0.75,5.43132,0.04
57,65,0.7,75.93304,74.49405,0.83,0.74,1.43899,0.09
58,65,0.7,71.62952,74.686356,0.84,0.8,-3.056836,0.04
59,65,0.7,69.78709,72.39208,0.91,0.77,-2.60499,0.14
60,65,0.7,71.147255,72.369545,0.85,0.75,-1.22229,0.1
61,65,0.7,77.491905,72.93452,0.87,0.75,4.557385,0.12
62,65,0.7,75.77581,71.367386,0.88,0.75,4.408424,0.13
63,65,0.7,77.10422,69.32922,0.85,0.69,7.775,0.16
64,65,0.7,77.157166,67.70099,0.84,0.77,9.456176,0.07
65,65,0.7,74.799225,66.847496,0.79,0.5,7.951729,0.29
66,65,0.7,72.85002,74.44758,0.85,0.69,-1.59756,0.16
67,65,0.7,76.219604,69.36187,0.86,0.79,6.857734,0.07
68,65,0.7,75.5013,63.357506,0.89,0.73,12.143794,0.16
69,65,0.7,70.72302,68.35215,0.83,0.61,2.37087,0.22
70,65,0.7,68.50949,67.4147,0.86,0.65,1.09479,0.21
71,65,0.7,72.92029,72.01554,0.85,0.77,0.90475,0.08
72,65,0.7,76.46289,71.96112,0.88,0.71,4.50177,0.17
73,65,0.7,79.168976,72.409584,0.51,0.67,6.759392,-0.16
74,65,0.7,77.71195,71.17909,0.86,0.74,6.53286,0.12
75,65,0.7,72.622406,74.965645,0.83,0.59,-2.343239,0.24
76,65,0.7,68.719955,70.53646,0.9,0.72,-1.816505,0.18
77,65,0.7,69.96019,71.133415,0.32,0.83,-1.173225,-0.51
78,65,0.7,67.22189,75.8983,0.57,0.52,-8.67641,0.05
79,65,0.7,66.867935,70.485695,0.37,0.29,-3.61776,0.08
80,65,0.7,71.62205,68.575195,0.38,0.81,3.046855,-0.43
81,65,0.7,71.180695,72.08683,0.86,0.65,-0.906135,0.21
82,65,0.7,70.08217,74.72644,0.37,0.78,-4.64427,-0.41
83,65,0.7,65.61661,73.94198,0.23,0.73,-8.32537,-0.5
84,65,0.7,63.135956,63.80311,0.11,0.48,-0.667154,-0.37
85,65,0.7,62.815224,68.40645,0.11,0.46,-5.591226,-0.35
86,65,0.7,64.085175,68.25911,0.11,0.27,-4.173935,-0.16
87,65,0.7,59.415348,67.22276,0.11,0.27,-7.807412,-0.16
88,65,0.7,65.00084,65.551765,0.11,0.31,-0.550925,-0.2
89,65,0.7,64.46047,66.23439,0.11,0.35,-1.77392,-0.24
90,65,0.7,60.388134,69.48958,0.11,0.3,-9.101446,-0.19
91,65,0.7,64.919205,65.71964,0.11,0.29,-0.800435,-0.18
92,65,0.7,63.16015,70.67098,0.11,0.74,-7.51083,-0.63
93,65,0.7,60.02379,64.80489,0.11,0.12,-4.7811,-0.01
94,65,0.7,59.240807,64.4389,0.11,0.14,-5.198093,-0.03
95,65,0.7,61.9432,65.65562,0.11,0.14,-3.71242,-0.03
96,65,0.7,60.73697,67.7142,0.11,0.11,-6.97723,0
97,65,0.7,59.685,66.01952,0.11,0.16,-6.33452,-0.05
98,65,0.7,62.41637,64.13552,0.11,0.24,-1.71915,-0.13
99,65,0.7,62.637352,65.03426,0.11,0.14,-2.396908,-0.03
100,65,0.7,65.83222,62.588387,0.11,0.11,3.243833,0
101,65,0.7,61.99187,62.63736,0.11,0.11,-0.64549,0
102,65,0.7,64.933426,62.329365,0.11,0.11,2.604061,0
103,65,0.7,63.293148,61.96047,0.11,0.14,1.332678,-0.03
104,65,0.7,62.082962,61.670113,0.11,0.13,0.412849,-0.02
105,65,0.7,60.404522,65.542404,0.11,0.14,-5.137882,-0.03
106,65,0.7,62.6974,61.103603,0.11,0.11,1.593797,0
107,65,0.7,60.58704,63.149025,0.11,0.11,-2.561985,0
108,65,0.7,60.353127,63.4759,0.11,0.11,-3.122773,0
21,65,1,73.99025,71.91016,1.41,1.16,2.08009,0.25
22,65,1,72.92239,72.81575,1.5,1.21,0.10664,0.29
23,65,1,72.39896,73.50512,1.33,1.16,-1.10616,0.17
24,65,1,75.42672,71.52501,1.25,1.2,3.90171,0.05
25,65,1,74.12223,72.00968,1.3,1.19,2.11255,0.11
26,65,1,72.644585,68.237595,1.23,1.18,4.40699,0.05
27,65,1,71.872604,72.92364,1.26,1.16,-1.051036,0.1
28,65,1,74.304474,73.04678,1.39,1.16,1.257694,0.23
29,65,1,72.94054,72.3728,1.45,1.16,0.56774,0.29
30,65,1,73.50337,74.78668,1.34,1.15,-1.28331,0.19
31,65,1,74.714264,75.8089,1.31,1.12,-1.094636,0.19
32,65,1,74.246925,75.948975,1.23,1.19,-1.70205,0.04
33,65,1,75.912506,74.84549,1.24,1.12,1.067016,0.12
34,65,1,76.679344,74.24036,1.21,1.14,2.438984,0.07
35,65,1,74.03768,74.13084,1.27,1.16,-0.09316,0.11
36,65,1,74.32568,74.22039,1.28,1.13,0.10529,0.15
37,65,1,74.42557,75.9249,1.22,1.16,-1.49933,0.06
38,65,1,74.52469,72.53226,1.3,1.12,1.99243,0.18
39,65,1,72.51375,72.54491,1.2,1.15,-0.03116,0.05
40,65,1,77.4814,72.57714,1.24,1.13,4.90426,0.11
41,65,1,76.2801,74.58474,1.38,1.05,1.69536,0.33
42,65,1,72.151566,73.95215,1.21,1.06,-1.800584,0.15
43,65,1,77.36954,75.17027,1.28,1.06,2.19927,0.22
44,65,1,73.62326,76.069855,1.16,1.09,-2.446595,0.07
45,65,1,77.36062,74.678055,1.13,1.09,2.682565,0.04
46,65,1,74.476364,72.475945,1.14,1.09,2.000419,0.05
47,65,1,72.58284,75.26326,1.16,1.1,-2.68042,0.06
48,65,1,70.85645,74.22072,1.1,1.08,-3.36427,0.02
49,65,1,74.99321,75.997284,1.12,1.04,-1.004074,0.08
50,65,1,73.1202,75.77241,1.15,1.07,-2.65221,0.08
51,65,1,80.208534,75.75369,1.33,1.05,4.454844,0.28
52,65,1,81.17517,78.402405,1.13,1.03,2.772765,0.1
53,65,1,82.440636,73.908264,1.23,1.02,8.532372,0.21
54,65,1,78.43808,74.69815,1.17,1.05,3.73993,0.12
55,65,1,80.39733,74.836624,1.1,1.02,5.560706,0.08
56,65,1,77.55356,73.88556,1.09,1.05,3.668,0.04
57,65,1,76.859856,75.09158,1.13,1.03,1.768276,0.1
58,65,1,72.02353,76.44533,1.12,1.05,-4.4218,0.07
59,65,1,70.29805,72.24371,1.18,1.05,-1.94566,0.13
60,65,1,71.48096,71.816505,1.14,1.05,-0.335545,0.09
61,65,1,77.16268,73.06793,1.16,1.03,4.09475,0.13
62,65,1,75.19575,71.05114,1.18,1.01,4.14461,0.17
63,65,1,77.28561,69.522644,1.15,0.69,7.762966,0.46
64,65,1,76.98569,67.328964,1.14,1.03,9.656726,0.11
65,65,1,74.64804,66.49689,1.09,0.5,8.15115,0.59
66,65,1,71.80385,74.52536,1.15,0.7,-2.72151,0.45
67,65,1,76.21925,69.204605,1.15,1.11,7.014645,0.04
68,65,1,75.81456,65.42689,1.2,0.81,10.38767,0.39
69,65,1,70.846725,69.1582,1.13,0.62,1.688525,0.51
70,65,1,69.03563,66.98626,1.03,0.65,2.04937,0.38
71,65,1,72.75192,73.456314,1.17,1.05,-0.704394,0.12
72,65,1,75.83838,72.602425,1.17,0.79,3.235955,0.38
73,65,1,78.792175,73.82897,0.52,0.68,4.963205,-0.16
74,65,1,77.63566,73.39195,1.17,1.02,4.24371,0.15
75,65,1,72.88345,77.01078,0.92,0.58,-4.12733,0.34
76,65,1,67.96482,70.974014,1.02,1.04,-3.009194,-0.02
77,65,1,71.25837,74.15798,0.31,1.14,-2.89961,-0.83
78,65,1,67.067566,75.78984,0.57,0.52,-8.722274,0.05
79,65,1,66.839325,72.65621,0.37,0.29,-5.816885,0.08
80,65,1,71.43397,70.2014,0.39,0.87,1.23257,-0.48
81,65,1,71.26913,74.993256,1.15,0.65,-3.724126,0.5
82,65,1,69.67326,74.71652,0.36,1.07,-5.04326,-0.71
83,65,1,65.30949,77.22839,0.23,1.03,-11.9189,-0.8
84,65,1,63.24405,65.976944,0.11,0.47,-2.732894,-0.36
85,65,1,62.05443,70.4716,0.11,0.45,-8.41717,-0.34
86,65,1,61.43092,69.48662,0.11,0.27,-8.0557,-0.16
87,65,1,60.228333,67.56227,0.11,0.27,-7.333937,-0.16
88,65,1,65.48654,65.86591,0.11,0.3,-0.37937,-0.19
89,65,1,64.05774,66.19791,0.11,0.35,-2.14017,-0.24
90,65,1,60.500324,69.311386,0.11,0.31,-8.811062,-0.2
91,65,1,63.992596,68.80524,0.11,0.29,-4.812644,-0.18
92,65,1,62.292515,72.58073,0.11,0.74,-10.288215,-0.63
93,65,1,59.635986,66.59149,0.11,0.12,-6.955504,-0.01
94,65,1,58.390022,67.2048,0.11,0.14,-8.814778,-0.03
95,65,1,62.321457,67.29412,0.11,0.14,-4.972663,-0.03
96,65,1,60.82364,69.48654,0.11,0.11,-8.6629,0
97,65,1,60.11933,66.553406,0.11,0.16,-6.434076,-0.05
98,65,1,62.165215,64.798355,0.11,0.24,-2.63314,-0.13
99,65,1,62.441624,66.30252,0.11,0.14,-3.860896,-0.03
100,65,1,65.13518,64.8179,0.11,0.11,0.31728,0
101,65,1,61.985928,63.63656,0.11,0.11,-1.650632,0
102,65,1,62.418503,64.85649,0.11,0.11,-2.437987,0
103,65,1,63.304794,64.8174,0.11,0.14,-1.512606,-0.03
104,65,1,62.90367,63.187576,0.11,0.13,-0.283906,-0.02
105,65,1,61.3013,66.78288,0.11,0.14,-5.48158,-0.03
106,65,1,60.773247,64.10717,0.11,0.11,-3.333923,0
107,65,1,60.355675,65.70408,0.11,0.11,-5.348405,0
108,65,1,62.988655,65.224365,0.11,0.11,-2.23571,0
21,73,0.1,75.60754,73.007996,0.85,0.45,2.599544,0.4
22,73,0.1,75.12653,74.82518,0.92,0.45,0.30135,0.47
23,73,0.1,74.03756,74.39278,0.59,0.44,-0.35522,0.15
24,73,0.1,75.55571,73.65671,0.54,0.38,1.899,0.16
25,73,0.1,76.1199,74.43257,0.61,0.39,1.68733,0.22
26,73,0.1,73.13546,70.76667,0.52,0.41,2.36879,0.11
27,73,0.1,74.51198,75.03691,0.56,0.37,-0.52493,0.19
28,73,0.1,75.63982,74.45044,0.65,0.4,1.18938,0.25
29,73,0.1,74.114265,74.229996,0.7,0.39,-0.115731,0.31
30,73,0.1,73.833145,76.27696,0.67,0.39,-2.443815,0.28
31,73,0.1,74.23377,76.531296,0.56,0.4,-2.297526,0.16
32,73,0.1,75.68996,77.25157,0.52,0.39,-1.56161,0.13
33,73,0.1,76.92052,77.25912,0.69,0.4,-0.3386,0.29
34,73,0.1,78.96635,75.73853,0.71,0.43,3.22782,0.28
35,73,0.1,74.64102,75.45546,0.58,0.34,-0.81444,0.24
36,73,0.1,75.87226,76.45203,0.6,0.37,-0.57977,0.23
37,73,0.1,75.61023,76.93733,0.42,0.39,-1.3271,0.03
38,73,0.1,77.39232,74.3881,0.63,0.35,3.00422,0.28
39,73,0.1,74.94205,72.32649,0.52,0.37,2.61556,0.15
40,73,0.1,80.050766,72.835144,0.82,0.35,7.215622,0.47
41,73,0.1,77.23857,76.7464,0.73,0.36,0.49217,0.37
42,73,0.1,73.73316,76.012405,0.78,0.35,-2.279245,0.43
43,73,0.1,78.33693,75.58775,0.49,0.34,2.74918,0.15
44,73,0.1,75.24444,76.85756,0.62,0.31,-1.61312,0.31
45,73,0.1,79.06915,73.73833,0.58,0.34,5.33082,0.24
46,73,0.1,76.270905,71.980255,0.47,0.32,4.29065,0.15
47,73,0.1,73.326584,75.38815,0.36,0.34,-2.061566,0.02
48,73,0.1,73.14145,75.27342,0.34,0.3,-2.13197,0.04
49,73,0.1,78.45683,76.77308,0.39,0.35,1.68375,0.04
50,73,0.1,74.53889,76.78151,0.33,0.31,-2.24262,0.02
51,73,0.1,83.22005,77.77994,0.62,0.3,5.44011,0.32
52,73,0.1,82.48501,78.60392,0.38,0.34,3.88109,0.04
53,73,0.1,84.18196,76.34554,0.35,0.25,7.83642,0.1
54,73,0.1,80.63337,74.57461,0.36,0.32,6.05876,0.04
55,73,0.1,81.597916,75.763435,0.42,0.33,5.834481,0.09
56,73,0.1,80.28717,76.11012,0.36,0.34,4.17705,0.02
57,73,0.1,77.491165,76.234085,0.34,0.25,1.25708,0.09
58,73,0.1,73.948425,75.22153,0.39,0.3,-1.273105,0.09
59,73,0.1,71.572296,73.97684,0.41,0.26,-2.404544,0.15
60,73,0.1,75.110855,73.76542,0.33,0.33,1.345435,0
61,73,0.1,78.93697,75.27006,0.4,0.3,3.66691,0.1
62,73,0.1,77.51188,72.02631,0.37,0.27,5.48557,0.1
63,73,0.1,79.64116,71.10898,0.5,0.27,8.53218,0.23
64,73,0.1,78.694275,69.364395,0.32,0.26,9.32988,0.06
65,73,0.1,76.14943,72.4948,0.39,0.29,3.65463,0.1
66,73,0.1,74.44101,77.09472,0.35,0.36,-2.65371,-0.01
67,73,0.1,76.93406,71.65256,0.32,0.36,5.2815,-0.04
68,73,0.1,77.55494,66.37488,0.35,0.25,11.18006,0.1
69,73,0.1,73.32736,71.445274,0.34,0.28,1.882086,0.06
70,73,0.1,71.896454,70.46863,0.33,0.27,1.427824,0.06
71,73,0.1,75.320465,75.39803,0.36,0.4,-0.077565,-0.04
72,73,0.1,79.237045,74.3954,0.4,0.33,4.841645,0.07
73,73,0.1,80.75517,74.76628,0.31,0.31,5.98889,0
74,73,0.1,80.80466,73.00801,0.38,0.32,7.79665,0.06
75,73,0.1,74.82655,76.90302,0.33,0.37,-2.07647,-0.04
76,73,0.1,71.884384,71.88515,0.36,0.33,-0.000766,0.03
77,73,0.1,73.287224,74.22985,0.36,0.25,-0.942626,0.11
78,73,0.1,70.01433,77.816956,0.32,0.26,-7.802626,0.06
79,73,0.1,68.71182,72.45221,0.34,0.27,-3.74039,0.07
80,73,0.1,75.299774,70.52823,0.33,0.28,4.771544,0.05
81,73,0.1,72.38191,78.466354,0.35,0.35,-6.084444,0
82,73,0.1,72.614075,77.22873,0.32,0.18,-4.614655,0.14
83,73,0.1,68.598694,76.403915,0.33,0.31,-7.805221,0.02
84,73,0.1,65.179794,66.41274,0.11,0.32,-1.232946,-0.21
85,73,0.1,64.043076,70.56235,0.11,0.3,-6.519274,-0.19
86,73,0.1,66.75521,70.92816,0.11,0.21,-4.17295,-0.1
87,73,0.1,64.70108,68.97642,0.11,0.24,-4.27534,-0.13
88,73,0.1,67.50727,67.28276,0.11,0.2,0.22451,-0.09
89,73,0.1,66.54201,69.45672,0.11,0.32,-2.91471,-0.21
90,73,0.1,63.921516,70.852905,0.11,0.31,-6.931389,-0.2
91,73,0.1,68.57614,66.70057,0.11,0.3,1.87557,-0.19
92,73,0.1,62.221676,72.630005,0.11,0.94,-10.408329,-0.83
93,73,0.1,63.115463,67.8706,0.11,0.32,-4.755137,-0.21
94,73,0.1,62.391335,66.88022,0.11,0.14,-4.488885,-0.03
95,73,0.1,63.20146,64.59474,0.11,0.15,-1.39328,-0.04
96,73,0.1,65.55824,69.42984,0.11,0.45,-3.8716,-0.34
97,73,0.1,62.392036,66.089806,0.11,0.16,-3.69777,-0.05
98,73,0.1,61.804092,63.841877,0.11,0.24,-2.037785,-0.13
99,73,0.1,64.08568,66.6536,0.11,0.26,-2.56792,-0.15
100,73,0.1,65.47533,68.17268,0.11,0.11,-2.69735,0
101,73,0.1,66.56499,65.35754,0.11,0.11,1.20745,0
102,73,0.1,68.124374,63.93348,0.11,0.11,4.190894,0
103,73,0.1,66.933205,65.49182,0.11,0.14,1.441385,-0.03
104,73,0.1,63.175262,64.1865,0.11,0.14,-1.011238,-0.03
105,73,0.1,62.140327,66.876,0.11,0.14,-4.735673,-0.03
106,73,0.1,61.438778,64.58846,0.11,0.11,-3.149682,0
107,73,0.1,64.18513,66.301025,0.11,0.12,-2.115895,-0.01
108,73,0.1,62.112926,64.73578,0.11,0.12,-2.622854,-0.01
21,73,0.3,76.06006,73.372765,0.96,0.63,2.687295,0.33
22,73,0.3,74.04527,75.00976,0.94,0.61,-0.96449,0.33
23,73,0.3,73.21738,74.30208,0.79,0.6,-1.0847,0.19
24,73,0.3,76.0414,73.21765,0.73,0.57,2.82375,0.16
25,73,0.3,76.50207,74.23137,0.79,0.59,2.2707,0.2
26,73,0.3,73.26254,70.56012,0.69,0.58,2.70242,0.11
27,73,0.3,73.735306,74.88315,0.74,0.57,-1.147844,0.17
28,73,0.3,75.73855,74.48627,0.89,0.59,1.25228,0.3
29,73,0.3,73.77323,74.56831,0.8,0.6,-0.79508,0.2
30,73,0.3,74.17893,75.92217,0.84,0.6,-1.74324,0.24
31,73,0.3,75.140015,76.34148,0.74,0.56,-1.201465,0.18
32,73,0.3,76.30791,77.14183,0.64,0.56,-0.83392,0.08
33,73,0.3,77.45082,76.587524,0.82,0.56,0.863296,0.26
34,73,0.3,79.25669,75.82895,0.79,0.6,3.42774,0.19
35,73,0.3,74.971664,75.56782,0.7,0.56,-0.596156,0.14
36,73,0.3,76.11781,76.290504,0.76,0.56,-0.172694,0.2
37,73,0.3,76.043884,77.355576,0.62,0.57,-1.311692,0.05
38,73,0.3,77.676544,74.407295,0.74,0.53,3.269249,0.21
39,73,0.3,74.9136,73.43003,0.65,0.52,1.48357,0.13
40,73,0.3,79.79072,73.31912,0.65,0.53,6.4716,0.12
41,73,0.3,78.08556,76.60332,0.81,0.5,1.48224,0.31
42,73,0.3,73.61065,76.57924,0.69,0.51,-2.96859,0.18
43,73,0.3,78.69945,75.31467,0.64,0.51,3.38478,0.13
44,73,0.3,75.15213,78.01425,0.59,0.48,-2.86212,0.11
45,73,0.3,78.776634,74.119255,0.68,0.5,4.657379,0.18
46,73,0.3,76.3681,72.449905,0.56,0.46,3.918195,0.1
47,73,0.3,74.509415,75.40335,0.56,0.53,-0.893935,0.03
48,73,0.3,72.94565,75.06004,0.52,0.48,-2.11439,0.04
49,73,0.3,78.38109,77.182335,0.55,0.52,1.198755,0.03
50,73,0.3,74.96652,76.74872,0.54,0.46,-1.7822,0.08
51,73,0.3,83.12376,77.80987,0.83,0.47,5.31389,0.36
52,73,0.3,82.088165,79.12404,0.66,0.46,2.964125,0.2
53,73,0.3,83.42547,76.80058,0.54,0.5,6.62489,0.04
54,73,0.3,80.80754,74.94853,0.48,0.5,5.85901,-0.02
55,73,0.3,81.62028,75.58899,0.59,0.5,6.03129,0.09
56,73,0.3,80.51315,76.73465,0.47,0.43,3.7785,0.04
57,73,0.3,77.7255,76.30262,0.51,0.43,1.42288,0.08
58,73,0.3,73.901,76.00339,0.57,0.51,-2.10239,0.06
59,73,0.3,71.11698,73.642624,0.56,0.47,-2.525644,0.09
60,73,0.3,74.367905,73.4426,0.48,0.38,0.925305,0.1
61,73,0.3,79.167564,74.4438,0.59,0.39,4.723764,0.2
62,73,0.3,78.05077,72.09938,0.56,0.47,5.95139,0.09
63,73,0.3,79.561905,70.02485,0.68,0.42,9.537055,0.26
64,73,0.3,78.82373,68.80171,0.48,0.33,10.02202,0.15
65,73,0.3,75.75106,68.95664,0.54,0.47,6.79442,0.07
66,73,0.3,74.73115,76.58106,0.51,0.51,-1.84991,0
67,73,0.3,77.01908,71.576515,0.51,0.45,5.442565,0.06
68,73,0.3,77.75194,65.64349,0.51,0.41,12.10845,0.1
69,73,0.3,72.08952,71.01681,0.47,0.46,1.07271,0.01
70,73,0.3,70.4337,70.304924,0.51,0.41,0.128776,0.1
71,73,0.3,75.33811,75.406815,0.51,0.38,-0.068705,0.13
72,73,0.3,78.83143,74.45349,0.55,0.45,4.37794,0.1
73,73,0.3,80.817055,74.287674,0.48,0.44,6.529381,0.04
74,73,0.3,80.90699,73.55444,0.49,0.47,7.35255,0.02
75,73,0.3,74.88244,76.6236,0.47,0.45,-1.74116,0.02
76,73,0.3,72.47452,71.66137,0.48,0.48,0.81315,0
77,73,0.3,72.945206,74.37313,0.32,0.4,-1.427924,-0.08
78,73,0.3,70.00906,77.89145,0.47,0.42,-7.88239,0.05
79,73,0.3,68.66111,72.88199,0.38,0.34,-4.22088,0.04
80,73,0.3,75.35243,70.445305,0.47,0.38,4.907125,0.09
81,73,0.3,73.29382,74.568565,0.47,0.39,-1.274745,0.08
82,73,0.3,72.249,77.21912,0.39,0.35,-4.97012,0.04
83,73,0.3,68.21318,76.3325,0.43,0.35,-8.11932,0.08
84,73,0.3,64.94821,66.60972,0.11,0.44,-1.66151,-0.33
85,73,0.3,65.28026,70.93281,0.26,0.37,-5.65255,-0.11
86,73,0.3,67.0919,70.98421,0.11,0.28,-3.89231,-0.17
87,73,0.3,64.55843,70.22061,0.11,0.27,-5.66218,-0.16
88,73,0.3,67.33682,67.3073,0.11,0.35,0.02952,-0.24
89,73,0.3,66.39392,69.499626,0.11,0.36,-3.105706,-0.25
90,73,0.3,63.881935,72.20786,0.11,0.31,-8.325925,-0.2
91,73,0.3,68.918,67.66547,0.11,0.31,1.25253,-0.2
92,73,0.3,62.889515,72.649925,0.11,0.94,-9.76041,-0.83
93,73,0.3,63.88884,67.62483,0.11,0.32,-3.73599,-0.21
94,73,0.3,62.67624,67.34686,0.11,0.14,-4.67062,-0.03
95,73,0.3,64.94687,67.095634,0.11,0.15,-2.148764,-0.04
96,73,0.3,65.26595,69.63208,0.11,0.11,-4.36613,0
97,73,0.3,61.49849,66.58001,0.11,0.16,-5.08152,-0.05
98,73,0.3,62.986237,63.981354,0.11,0.24,-0.995117,-0.13
99,73,0.3,64.38003,65.65949,0.11,0.26,-1.27946,-0.15
100,73,0.3,67.55038,64.61781,0.11,0.11,2.93257,0
101,73,0.3,65.698975,64.99227,0.11,0.11,0.706705,0
102,73,0.3,68.409164,64.38216,0.11,0.11,4.027004,0
103,73,0.3,67.94944,63.559708,0.11,0.14,4.389732,-0.03
104,73,0.3,63.338276,63.7013,0.11,0.14,-0.363024,-0.03
105,73,0.3,62.106583,66.97135,0.11,0.14,-4.864767,-0.03
106,73,0.3,62.355183,63.796284,0.11,0.11,-1.441101,0
107,73,0.3,65.31981,65.70157,0.11,0.12,-0.38176,-0.01
108,73,0.3,62.253628,65.26531,0.11,0.14,-3.011682,-0.03
21,73,0.7,75.894104,73.66684,1.23,0.97,2.227264,0.26
22,73,0.7,74.38757,75.3233,1.33,0.97,-0.93573,0.36
23,73,0.7,73.24063,74.07328,1.07,0.98,-0.83265,0.09
24,73,0.7,76.44801,73.05898,1.09,0.96,3.38903,0.13
25,73,0.7,76.15457,73.876625,1.21,0.93,2.277945,0.28
26,73,0.7,73.96078,70.81484,1.05,0.93,3.14594,0.12
27,73,0.7,74.63356,75.08358,1.07,0.94,-0.45002,0.13
28,73,0.7,75.67836,74.77405,1.15,0.94,0.90431,0.21
29,73,0.7,73.97769,74.31067,1.23,0.94,-0.33298,0.29
30,73,0.7,74.30778,75.3243,1.17,0.95,-1.01652,0.22
31,73,0.7,75.46082,76.38704,1.12,0.91,-0.92622,0.21
32,73,0.7,75.87426,77.23376,1,0.96,-1.3595,0.04
33,73,0.7,77.37604,77.00238,1.05,0.91,0.37366,0.14
34,73,0.7,79.31967,75.54873,1.17,0.93,3.77094,0.24
35,73,0.7,75.02205,75.52128,1.02,0.92,-0.49923,0.1
36,73,0.7,76.02991,76.32782,1.1,0.91,-0.29791,0.19
37,73,0.7,75.86597,77.13797,0.95,0.9,-1.272,0.05
38,73,0.7,77.41327,74.57983,1.07,0.87,2.83344,0.2
39,73,0.7,75.06274,73.38555,0.97,0.92,1.67719,0.05
40,73,0.7,79.68249,72.78201,1.04,0.86,6.90048,0.18
41,73,0.7,77.8107,76.808,1.21,0.86,1.0027,0.35
42,73,0.7,73.83739,76.02981,1.03,0.83,-2.19242,0.2
43,73,0.7,78.81982,75.646614,1.04,0.82,3.173206,0.22
44,73,0.7,75.09781,78.109215,0.98,0.84,-3.011405,0.14
45,73,0.7,79.17395,73.93516,0.86,0.85,5.23879,0.01
46,73,0.7,76.359825,72.521164,0.88,0.84,3.838661,0.04
47,73,0.7,74.47152,75.38057,0.89,0.85,-0.90905,0.04
48,73,0.7,72.9736,75.2459,0.82,0.85,-2.2723,-0.03
49,73,0.7,77.63095,76.88004,0.89,0.81,0.75091,0.08
50,73,0.7,74.9581,76.93613,0.85,0.82,-1.97803,0.03
51,73,0.7,83.204254,77.768875,1.12,0.81,5.435379,0.31
52,73,0.7,82.496506,79.2393,0.99,0.79,3.257206,0.2
53,73,0.7,83.59497,77.01514,0.93,0.74,6.57983,0.19
54,73,0.7,80.777374,74.61673,0.87,0.8,6.160644,0.07
55,73,0.7,81.50529,76.233315,0.8,0.77,5.271975,0.03
56,73,0.7,80.5466,73.722275,0.82,0.82,6.824325,0
57,73,0.7,77.949295,76.36356,0.86,0.8,1.585735,0.06
58,73,0.7,73.71352,75.806885,0.85,0.8,-2.093365,0.05
59,73,0.7,70.987274,73.475685,0.92,0.79,-2.488411,0.13
60,73,0.7,74.553665,73.7043,0.87,0.75,0.849365,0.12
61,73,0.7,79.10806,74.639786,0.87,0.76,4.468274,0.11
62,73,0.7,77.96721,71.95337,0.88,0.75,6.01384,0.13
63,73,0.7,79.60578,70.809654,0.89,0.7,8.796126,0.19
64,73,0.7,79.153305,68.81347,0.85,0.79,10.339835,0.06
65,73,0.7,75.86564,69.400215,0.8,0.74,6.465425,0.06
66,73,0.7,75.11311,76.579254,0.86,0.73,-1.466144,0.13
67,73,0.7,77.05689,71.74247,0.86,0.81,5.31442,0.05
68,73,0.7,77.60756,66.50743,0.9,0.74,11.10013,0.16
69,73,0.7,72.600555,70.620026,0.83,0.64,1.980529,0.19
70,73,0.7,69.71159,70.42636,0.87,0.76,-0.71477,0.11
71,73,0.7,74.97946,75.75244,0.86,0.78,-0.77298,0.08
72,73,0.7,78.63098,74.3731,0.88,0.72,4.25788,0.16
73,73,0.7,80.966995,74.758064,0.52,0.8,6.208931,-0.28
74,73,0.7,80.63812,73.574005,0.87,0.74,7.064115,0.13
75,73,0.7,75.088684,77.042755,0.83,0.62,-1.954071,0.21
76,73,0.7,71.95151,72.10068,0.91,0.74,-0.14917,0.17
77,73,0.7,71.83357,74.41849,0.88,0.84,-2.58492,0.04
78,73,0.7,69.83364,77.3972,0.61,0.79,-7.56356,-0.18
79,73,0.7,68.56776,72.79166,0.38,0.75,-4.2239,-0.37
80,73,0.7,75.18196,70.365585,0.86,0.8,4.816375,0.06
81,73,0.7,72.78749,74.76731,0.87,0.77,-1.97982,0.1
82,73,0.7,72.54979,77.08429,0.38,0.78,-4.5345,-0.4
83,73,0.7,66.963165,76.40156,0.68,0.74,-9.438395,-0.06
84,73,0.7,65.032196,67.15876,0.11,0.55,-2.126564,-0.44
85,73,0.7,65.16574,69.95093,0.26,0.72,-4.78519,-0.46
86,73,0.7,66.925934,70.749146,0.11,0.28,-3.823212,-0.17
87,73,0.7,63.56973,69.508286,0.11,0.27,-5.938556,-0.16
88,73,0.7,67.18005,67.24364,0.11,0.55,-0.06359,-0.44
89,73,0.7,66.991936,69.12606,0.11,0.36,-2.134124,-0.25
90,73,0.7,62.850334,72.095695,0.11,0.31,-9.245361,-0.2
91,73,0.7,68.20098,66.764015,0.11,0.3,1.436965,-0.19
92,73,0.7,63.284954,72.65571,0.11,0.94,-9.370756,-0.83
93,73,0.7,64.7274,66.52721,0.11,0.32,-1.79981,-0.21
94,73,0.7,63.12179,66.48714,0.11,0.14,-3.36535,-0.03
95,73,0.7,65.413216,64.72769,0.11,0.15,0.685526,-0.04
96,73,0.7,63.447166,69.99218,0.11,0.11,-6.545014,0
97,73,0.7,61.79676,66.30052,0.11,0.16,-4.50376,-0.05
98,73,0.7,60.86982,64.23013,0.11,0.24,-3.36031,-0.13
99,73,0.7,64.32637,65.88416,0.11,0.26,-1.55779,-0.15
100,73,0.7,66.78463,64.61167,0.11,0.11,2.17296,0
101,73,0.7,67.54266,65.33218,0.11,0.11,2.21048,0
102,73,0.7,67.11482,64.1071,0.11,0.11,3.00772,0
103,73,0.7,65.62777,65.75444,0.11,0.14,-0.12667,-0.03
104,73,0.7,62.94302,63.79294,0.11,0.14,-0.84992,-0.03
105,73,0.7,62.950935,67.13615,0.11,0.14,-4.185215,-0.03
106,73,0.7,62.853645,64.566414,0.11,0.11,-1.712769,0
107,73,0.7,65.73496,64.94663,0.11,0.12,0.78833,-0.01
108,73,0.7,63.569756,65.31046,0.11,0.14,-1.740704,-0.03
21,73,1,75.50455,73.59266,1.5,1.23,1.91189,0.27
22,73,1,74.7494,75.32982,1.5,1.28,-0.58042,0.22
23,73,1,73.22727,74.49407,1.39,1.22,-1.2668,0.17
24,73,1,76.14844,73.00692,1.33,1.2,3.14152,0.13
25,73,1,76.056564,74.38191,1.38,1.21,1.674654,0.17
26,73,1,73.75755,72.24687,1.31,1.22,1.51068,0.09
27,73,1,75.32655,75.17604,1.35,1.22,0.15051,0.13
28,73,1,76.33235,74.68959,1.41,1.2,1.64276,0.21
29,73,1,74.18926,74.35374,1.43,1.2,-0.16448,0.23
30,73,1,74.12434,76.04443,1.44,1.19,-1.92009,0.25
31,73,1,75.048584,76.42172,1.34,1.16,-1.373136,0.18
32,73,1,76.183876,76.88684,1.33,1.23,-0.702964,0.1
33,73,1,77.6832,76.7366,1.26,1.16,0.9466,0.1
34,73,1,79.06244,75.55855,1.32,1.18,3.50389,0.14
35,73,1,75.494064,76.9384,1.28,1.19,-1.444336,0.09
36,73,1,76.16425,75.7535,1.34,1.17,0.41075,0.17
37,73,1,76.53871,77.273964,1.25,1.17,-0.735254,0.08
38,73,1,77.49845,74.582664,1.31,1.13,2.915786,0.18
39,73,1,74.55754,76.82862,1.25,1.18,-2.27108,0.07
40,73,1,79.5555,75.47468,1.31,1.14,4.08082,0.17
41,73,1,77.66659,77.11085,1.23,1.07,0.55574,0.16
42,73,1,74.051895,75.58505,1.29,1.08,-1.533155,0.21
43,73,1,79.22669,76.890564,1.31,1.09,2.336126,0.22
44,73,1,75.26462,77.91432,1.18,1.12,-2.6497,0.06
45,73,1,78.52201,74.199234,1.15,1.13,4.322776,0.02
46,73,1,76.13853,74.04413,1.16,1.1,2.0944,0.06
47,73,1,74.564255,77.28731,1.18,1.11,-2.723055,0.07
48,73,1,72.45763,74.922554,1.1,1.09,-2.464924,0.01
49,73,1,77.41457,78.06121,1.13,1.05,-0.64664,0.08
50,73,1,74.25117,76.978485,1.14,1.07,-2.727315,0.07
51,73,1,83.31007,77.74358,1.39,1.08,5.56649,0.31
52,73,1,82.40812,79.28284,1.14,1.04,3.12528,0.1
53,73,1,83.697296,75.695045,1.23,1.02,8.002251,0.21
54,73,1,80.8039,76.52394,1.18,1.05,4.27996,0.13
55,73,1,81.57887,75.198,1.1,1.04,6.38087,0.06
56,73,1,80.402176,73.2561,1.1,1.05,7.146076,0.05
57,73,1,78.03348,78.20931,1.16,1.04,-0.17583,0.12
58,73,1,73.68953,75.496506,1.14,1.05,-1.806976,0.09
59,73,1,72.10199,73.11675,1.19,1.05,-1.01476,0.14
60,73,1,74.81485,73.43303,1.16,1.05,1.38182,0.11
61,73,1,79.38429,74.642105,1.16,1.04,4.742185,0.12
62,73,1,77.286026,72.05896,1.18,1.01,5.227066,0.17
63,73,1,79.53084,72.95094,1.16,0.76,6.5799,0.4
64,73,1,78.68556,68.72723,1.15,1.04,9.95833,0.11
65,73,1,75.78433,69.23327,1.09,1.02,6.55106,0.07
66,73,1,75.00337,76.75433,1.17,1.01,-1.75096,0.16
67,73,1,77.214165,71.31924,1.15,1.1,5.894925,0.05
68,73,1,77.747246,69.34737,1.2,0.89,8.399876,0.31
69,73,1,71.78334,71.0137,1.13,0.64,0.76964,0.49
70,73,1,70.60362,67.76228,1.18,0.7,2.84134,0.48
71,73,1,74.71712,77.98643,1.18,1.05,-3.26931,0.13
72,73,1,79.0361,75.292,1.17,0.9,3.7441,0.27
73,73,1,80.79748,76.07785,0.52,0.71,4.71963,-0.19
74,73,1,80.69703,75.68402,1.16,1.02,5.01301,0.14
75,73,1,75.36308,81.78495,0.94,0.62,-6.42187,0.32
76,73,1,71.90621,73.72638,1.03,1.05,-1.82017,-0.02
77,73,1,72.71113,76.969086,0.33,1.15,-4.257956,-0.82
78,73,1,69.4803,77.29194,0.6,1.04,-7.81164,-0.44
79,73,1,68.47624,74.87856,0.38,1.05,-6.40232,-0.67
80,73,1,75.043015,70.52645,1.16,0.89,4.516565,0.27
81,73,1,73.983765,77.48232,1.16,1.05,-3.498555,0.11
82,73,1,72.69374,76.93532,0.39,1.07,-4.24158,-0.68
83,73,1,68.67707,76.36885,0.68,1.06,-7.69178,-0.38
84,73,1,65.247925,69.59523,0.11,0.54,-4.347305,-0.43
85,73,1,64.36722,72.47915,0.27,0.87,-8.11193,-0.6
86,73,1,67.00988,72.249596,0.11,0.28,-5.239716,-0.17
87,73,1,64.00857,68.87824,0.11,0.26,-4.86967,-0.15
88,73,1,67.530235,70.32416,0.11,0.54,-2.793925,-0.43
89,73,1,66.82355,69.47722,0.11,0.36,-2.65367,-0.25
90,73,1,63.444542,72.074234,0.11,0.31,-8.629692,-0.2
91,73,1,66.776115,70.42136,0.11,0.29,-3.645245,-0.18
92,73,1,62.874245,75.48297,0.11,0.93,-12.608725,-0.82
93,73,1,62.5851,69.41395,0.11,0.11,-6.82885,0
94,73,1,63.43974,69.720665,0.11,0.14,-6.280925,-0.03
95,73,1,66.528336,69.21215,0.11,0.14,-2.683814,-0.03
96,73,1,64.253174,71.7954,0.11,0.11,-7.542226,0
97,73,1,62.57786,69.065926,0.11,0.16,-6.488066,-0.05
98,73,1,61.629093,67.45479,0.11,0.24,-5.825697,-0.13
99,73,1,64.04784,69.07685,0.11,0.26,-5.02901,-0.15
100,73,1,67.01645,67.82474,0.11,0.11,-0.80829,0
101,73,1,67.76839,66.37909,0.11,0.12,1.3893,-0.01
102,73,1,66.578964,68.236145,0.11,0.11,-1.657181,0
103,73,1,67.21739,64.127014,0.11,0.14,3.090376,-0.03
104,73,1,62.94214,66.53924,0.11,0.14,-3.5971,-0.03
105,73,1,61.873196,68.92782,0.11,0.14,-7.054624,-0.03
106,73,1,62.12664,66.48346,0.11,0.11,-4.35682,0
107,73,1,63.01464,66.18047,0.11,0.11,-3.16583,0
108,73,1,64.96059,66.20741,0.11,0.14,-1.24682,-0.03
21,81,0.1,76.75213,73.75834,0.99,0.52,2.99379,0.47
22,81,0.1,76.72604,77.187,0.96,0.51,-0.46096,0.45
23,81,0.1,75.03662,76.33018,0.63,0.51,-1.29356,0.12
24,81,0.1,78.17153,74.788246,0.62,0.41,3.383284,0.21
25,81,0.1,77.227005,75.82107,0.65,0.48,1.405935,0.17
26,81,0.1,74.72983,74.0653,0.62,0.45,0.66453,0.17
27,81,0.1,76.069244,76.550095,0.65,0.45,-0.480851,0.2
28,81,0.1,77.86799,76.17174,0.86,0.44,1.69625,0.42
29,81,0.1,74.893295,75.56319,0.77,0.44,-0.669895,0.33
30,81,0.1,75.43523,78.81195,0.73,0.43,-3.37672,0.3
31,81,0.1,75.82369,77.763245,0.56,0.45,-1.939555,0.11
32,81,0.1,78.3315,78.82579,0.58,0.46,-0.49429,0.12
33,81,0.1,79.596504,78.835,0.71,0.45,0.761504,0.26
34,81,0.1,81.485054,76.82029,0.71,0.46,4.664764,0.25
35,81,0.1,76.20794,77.09305,0.61,0.39,-0.88511,0.22
36,81,0.1,78.714676,77.8114,0.71,0.43,0.903276,0.28
37,81,0.1,77.15896,78.99866,0.48,0.44,-1.8397,0.04
38,81,0.1,78.167175,76.79014,0.63,0.39,1.377035,0.24
39,81,0.1,75.418526,75.17872,0.52,0.41,0.239806,0.11
40,81,0.1,82.0279,75.283295,0.83,0.38,6.744605,0.45
41,81,0.1,79.49297,78.99322,0.68,0.38,0.49975,0.3
42,81,0.1,75.82642,78.2256,0.74,0.38,-2.39918,0.36
43,81,0.1,81.0912,77.40909,0.48,0.36,3.68211,0.12
44,81,0.1,77.12918,78.406525,0.46,0.35,-1.277345,0.11
45,81,0.1,80.96506,75.999374,0.58,0.4,4.965686,0.18
46,81,0.1,78.75246,74.38647,0.49,0.34,4.36599,0.15
47,81,0.1,76.03341,77.07341,0.4,0.36,-1.04,0.04
48,81,0.1,76.164894,76.88063,0.37,0.34,-0.715736,0.03
49,81,0.1,78.48636,78.4757,0.4,0.37,0.01066,0.03
50,81,0.1,77.74304,77.47414,0.5,0.31,0.2689,0.19
51,81,0.1,83.89051,79.13812,0.67,0.3,4.75239,0.37
52,81,0.1,86.100655,79.77159,0.33,0.35,6.329065,-0.02
53,81,0.1,85.472946,78.070656,0.39,0.37,7.40229,0.02
54,81,0.1,82.703125,75.60841,0.37,0.33,7.094715,0.04
55,81,0.1,83.35367,77.80052,0.42,0.33,5.55315,0.09
56,81,0.1,81.776,74.86703,0.36,0.35,6.90897,0.01
57,81,0.1,80.26362,78.10601,0.42,0.34,2.15761,0.08
58,81,0.1,77.723526,77.29696,0.39,0.32,0.426566,0.07
59,81,0.1,73.530464,74.22321,0.41,0.27,-0.692746,0.14
60,81,0.1,76.95243,75.24548,0.35,0.36,1.70695,-0.01
61,81,0.1,81.39286,76.643074,0.41,0.33,4.749786,0.08
62,81,0.1,80.659615,73.73114,0.41,0.27,6.928475,0.14
63,81,0.1,82.01581,73.08439,0.51,0.27,8.93142,0.24
64,81,0.1,81.72778,71.189545,0.36,0.36,10.538235,0
65,81,0.1,77.697426,73.49223,0.4,0.3,4.205196,0.1
66,81,0.1,76.75574,78.5975,0.35,0.38,-1.84176,-0.03
67,81,0.1,79.18953,73.56497,0.34,0.39,5.62456,-0.05
68,81,0.1,79.30484,68.661545,0.36,0.28,10.643295,0.08
69,81,0.1,75.99156,73.45384,0.35,0.28,2.53772,0.07
70,81,0.1,73.03963,71.68909,0.33,0.28,1.35054,0.05
71,81,0.1,77.55268,75.16121,0.32,0.41,2.39147,-0.09
72,81,0.1,80.90014,75.34535,0.4,0.36,5.55479,0.04
73,81,0.1,82.337166,76.35996,0.32,0.34,5.977206,-0.02
74,81,0.1,82.627594,75.899315,0.38,0.32,6.728279,0.06
75,81,0.1,75.79462,80.410324,0.33,0.38,-4.615704,-0.05
76,81,0.1,73.824265,74.71341,0.33,0.35,-0.889145,-0.02
77,81,0.1,77.49156,77.38863,0.39,0.25,0.10293,0.14
78,81,0.1,72.64451,78.49213,0.33,0.26,-5.84762,0.07
79,81,0.1,71.73375,75.90179,0.35,0.27,-4.16804,0.08
80,81,0.1,76.614944,70.53699,0.33,0.33,6.077954,0
81,81,0.1,76.85817,77.35872,0.36,0.36,-0.50055,0
82,81,0.1,75.267204,79.849144,0.31,0.27,-4.58194,0.04
83,81,0.1,70.63472,79.42792,0.33,0.31,-8.7932,0.02
84,81,0.1,69.044975,69.85364,0.11,0.32,-0.808665,-0.21
85,81,0.1,67.56848,72.556526,0.32,0.3,-4.988046,0.02
86,81,0.1,67.27197,74.127396,0.11,0.21,-6.855426,-0.1
87,81,0.1,67.13216,71.42844,0.11,0.23,-4.29628,-0.12
88,81,0.1,66.99156,70.17284,0.11,0.21,-3.18128,-0.1
89,81,0.1,69.11295,71.308014,0.11,0.35,-2.195064,-0.24
90,81,0.1,67.7126,74.81622,0.11,0.31,-7.10362,-0.2
91,81,0.1,69.98596,70.38341,0.11,0.31,-0.39745,-0.2
92,81,0.1,65.23063,75.01387,0.11,0.98,-9.78324,-0.87
93,81,0.1,65.27374,69.68123,0.11,0.34,-4.40749,-0.23
94,81,0.1,64.86233,69.1072,0.11,0.14,-4.24487,-0.03
95,81,0.1,66.978294,69.437355,0.11,0.46,-2.459061,-0.35
96,81,0.1,66.02614,71.74767,0.11,0.45,-5.72153,-0.34
97,81,0.1,63.948227,69.25828,0.11,0.21,-5.310053,-0.1
98,81,0.1,66.18764,66.98886,0.11,0.26,-0.80122,-0.15
99,81,0.1,66.42721,69.236664,0.11,0.27,-2.809454,-0.16
100,81,0.1,69.95584,67.94203,0.11,0.28,2.01381,-0.17
101,81,0.1,68.29013,68.66008,0.11,0.2,-0.36995,-0.09
102,81,0.1,70.52551,67.97308,0.11,0.19,2.55243,-0.08
103,81,0.1,69.14968,66.55253,0.11,0.17,2.59715,-0.06
104,81,0.1,66.80151,66.104004,0.11,0.14,0.697506,-0.03
105,81,0.1,64.74908,69.17942,0.11,0.14,-4.43034,-0.03
106,81,0.1,66.534805,65.78368,0.11,0.11,0.751125,0
107,81,0.1,66.34241,66.78561,0.11,0.14,-0.4432,-0.03
108,81,0.1,65.45568,66.39906,0.11,0.15,-0.94338,-0.04
21,81,0.3,76.944336,75.22745,0.99,0.69,1.716886,0.3
22,81,0.3,75.848274,76.57584,1.16,0.67,-0.727566,0.49
23,81,0.3,75.35171,76.44418,0.87,0.69,-1.09247,0.18
24,81,0.3,77.91311,74.27744,0.79,0.63,3.63567,0.16
25,81,0.3,77.417145,75.78912,0.82,0.66,1.628025,0.16
26,81,0.3,75.425064,73.57001,0.79,0.62,1.855054,0.17
27,81,0.3,75.87897,75.45233,0.74,0.67,0.42664,0.07
28,81,0.3,78.21251,76.37745,0.92,0.65,1.83506,0.27
29,81,0.3,75.03471,76.02245,0.81,0.64,-0.98774,0.17
30,81,0.3,75.517006,78.95637,0.83,0.6,-3.439364,0.23
31,81,0.3,75.92093,78.00584,0.75,0.61,-2.08491,0.14
32,81,0.3,78.46322,78.356606,0.69,0.62,0.106614,0.07
33,81,0.3,78.598434,79.20917,0.87,0.63,-0.610736,0.24
34,81,0.3,81.3634,76.97092,0.74,0.64,4.39248,0.1
35,81,0.3,76.648575,77.118835,0.73,0.6,-0.47026,0.13
36,81,0.3,78.57804,77.9307,0.86,0.61,0.64734,0.25
37,81,0.3,76.59657,78.23522,0.65,0.6,-1.63865,0.05
38,81,0.3,78.494484,76.57545,0.76,0.55,1.919034,0.21
39,81,0.3,75.483,74.98187,0.7,0.55,0.50113,0.15
40,81,0.3,82.10356,75.56328,0.89,0.56,6.54028,0.33
41,81,0.3,79.63934,78.95912,0.8,0.54,0.68022,0.26
42,81,0.3,75.78444,77.81749,0.68,0.53,-2.03305,0.15
43,81,0.3,81.05291,77.13548,0.65,0.53,3.91743,0.12
44,81,0.3,77.08432,79.62624,0.59,0.49,-2.54192,0.1
45,81,0.3,81.01676,75.69296,0.71,0.52,5.3238,0.19
46,81,0.3,78.5063,74.08736,0.65,0.51,4.41894,0.14
47,81,0.3,76.39045,77.03433,0.59,0.55,-0.64388,0.04
48,81,0.3,76.218216,77.04082,0.55,0.51,-0.822604,0.04
49,81,0.3,78.65083,78.558266,0.56,0.56,0.092564,0
50,81,0.3,79.343216,77.579636,0.66,0.46,1.76358,0.2
51,81,0.3,84.03522,79.22992,0.85,0.49,4.8053,0.36
52,81,0.3,85.9385,79.963524,0.7,0.46,5.974976,0.24
53,81,0.3,85.18528,78.19007,0.54,0.53,6.99521,0.01
54,81,0.3,82.905556,76.56837,0.49,0.5,6.337186,-0.01
55,81,0.3,83.24718,77.566986,0.61,0.51,5.680194,0.1
56,81,0.3,81.91513,75.58832,0.47,0.51,6.32681,-0.04
57,81,0.3,79.91378,78.07735,0.51,0.46,1.83643,0.05
58,81,0.3,77.53458,79.16732,0.58,0.52,-1.63274,0.06
59,81,0.3,73.80338,74.220215,0.64,0.53,-0.416835,0.11
60,81,0.3,76.65641,75.13906,0.51,0.41,1.51735,0.1
61,81,0.3,80.28708,76.16027,0.59,0.4,4.12681,0.19
62,81,0.3,80.96007,73.87301,0.58,0.47,7.08706,0.11
63,81,0.3,82.607544,72.99767,0.76,0.42,9.609874,0.34
64,81,0.3,81.97215,71.590866,0.48,0.43,10.381284,0.05
65,81,0.3,78.550995,71.99701,0.56,0.49,6.553985,0.07
66,81,0.3,76.75197,78.46378,0.52,0.52,-1.71181,0
67,81,0.3,79.128525,73.09865,0.52,0.45,6.029875,0.07
68,81,0.3,79.19215,69.26449,0.51,0.41,9.92766,0.1
69,81,0.3,75.31659,73.45077,0.49,0.48,1.86582,0.01
70,81,0.3,72.14078,71.50053,0.51,0.43,0.64025,0.08
71,81,0.3,77.690025,75.98878,0.51,0.39,1.701245,0.12
72,81,0.3,80.76825,75.36315,0.56,0.49,5.4051,0.07
73,81,0.3,81.46079,76.410774,0.48,0.45,5.050016,0.03
74,81,0.3,82.38603,74.90346,0.53,0.48,7.48257,0.05
75,81,0.3,77.160126,81.002625,0.51,0.46,-3.842499,0.05
76,81,0.3,74.16682,74.53453,0.51,0.5,-0.36771,0.01
77,81,0.3,76.56358,77.369576,0.5,0.46,-0.805996,0.04
78,81,0.3,73.04954,78.39462,0.52,0.43,-5.34508,0.09
79,81,0.3,72.08777,75.879196,0.39,0.36,-3.791426,0.03
80,81,0.3,76.92291,70.50858,0.46,0.39,6.41433,0.07
81,81,0.3,76.99734,77.32022,0.48,0.38,-0.32288,0.1
82,81,0.3,74.448654,80.14925,0.41,0.41,-5.700596,0
83,81,0.3,70.254425,79.39185,0.44,0.36,-9.137425,0.08
84,81,0.3,69.92627,69.40399,0.46,0.46,0.52228,0
85,81,0.3,67.64946,72.503716,0.11,0.49,-4.854256,-0.38
86,81,0.3,66.41397,74.11636,0.11,0.28,-7.70239,-0.17
87,81,0.3,67.00428,71.451355,0.11,0.28,-4.447075,-0.17
88,81,0.3,67.77958,69.914345,0.11,0.35,-2.134765,-0.24
89,81,0.3,68.70323,70.791306,0.11,0.36,-2.088076,-0.25
90,81,0.3,67.71829,74.73378,0.11,0.31,-7.01549,-0.2
91,81,0.3,70.19884,70.57332,0.11,0.31,-0.37448,-0.2
92,81,0.3,67.12485,75.12777,0.11,0.99,-8.00292,-0.88
93,81,0.3,66.18569,70.3957,0.11,0.34,-4.21001,-0.23
94,81,0.3,65.88004,68.93904,0.11,0.14,-3.059,-0.03
95,81,0.3,67.18167,69.21923,0.11,0.46,-2.03756,-0.35
96,81,0.3,65.269325,71.742325,0.11,0.45,-6.473,-0.34
97,81,0.3,64.71584,68.75334,0.11,0.2,-4.0375,-0.09
98,81,0.3,67.714226,66.77521,0.11,0.25,0.939016,-0.14
99,81,0.3,66.80379,69.44399,0.11,0.27,-2.6402,-0.16
100,81,0.3,70.780136,67.9842,0.11,0.28,2.795936,-0.17
101,81,0.3,71.05023,64.22156,0.11,0.16,6.82867,-0.05
102,81,0.3,70.706635,68.25816,0.11,0.18,2.448475,-0.07
103,81,0.3,68.75113,65.64758,0.11,0.14,3.10355,-0.03
104,81,0.3,65.24747,66.410805,0.11,0.14,-1.163335,-0.03
105,81,0.3,63.302177,69.13401,0.11,0.14,-5.831833,-0.03
106,81,0.3,66.64667,65.95013,0.11,0.11,0.69654,0
107,81,0.3,66.19761,66.15149,0.11,0.12,0.04612,-0.01
108,81,0.3,65.32972,64.373436,0.11,0.14,0.956284,-0.03
21,81,0.7,76.514496,75.65949,1.33,1.07,0.855006,0.26
22,81,0.7,76.072655,76.546196,1.43,1.01,-0.473541,0.42
23,81,0.7,75.00276,76.34519,1.11,1.04,-1.34243,0.07
24,81,0.7,78.062065,74.179344,1.11,0.99,3.882721,0.12
25,81,0.7,77.542725,75.91969,1.3,0.97,1.623035,0.33
26,81,0.7,75.40144,73.63486,1.22,0.99,1.76658,0.23
27,81,0.7,76.04612,76.792656,1.12,0.99,-0.746536,0.13
28,81,0.7,78.21432,76.52956,1.3,0.96,1.68476,0.34
29,81,0.7,74.99824,75.90781,1.27,0.99,-0.90957,0.28
30,81,0.7,75.82684,78.78808,1.17,0.99,-2.96124,0.18
31,81,0.7,75.702614,76.9749,1.14,0.95,-1.272286,0.19
32,81,0.7,78.18034,78.58347,1,0.96,-0.40313,0.04
33,81,0.7,78.71881,79.27892,1.14,0.94,-0.56011,0.2
34,81,0.7,81.20409,76.92263,1.17,0.96,4.28146,0.21
35,81,0.7,76.549095,77.28424,1.02,0.95,-0.735145,0.07
36,81,0.7,78.08986,77.69658,1.17,0.95,0.39328,0.22
37,81,0.7,77.387985,78.057434,0.98,0.93,-0.669449,0.05
38,81,0.7,79.1109,76.74933,1.08,0.9,2.36157,0.18
39,81,0.7,75.69036,75.23818,0.98,0.96,0.45218,0.02
40,81,0.7,82.35177,75.541435,1.16,0.89,6.810335,0.27
41,81,0.7,79.02045,78.63593,1.19,0.87,0.38452,0.32
42,81,0.7,76.66745,77.046906,1.1,0.86,-0.379456,0.24
43,81,0.7,80.96938,77.82866,1.04,0.85,3.14072,0.19
44,81,0.7,77.32245,79.70927,0.96,0.87,-2.38682,0.09
45,81,0.7,80.88887,75.97256,0.93,0.88,4.91631,0.05
46,81,0.7,78.70776,74.18448,0.93,0.86,4.52328,0.07
47,81,0.7,76.665924,77.08629,0.9,0.86,-0.420366,0.04
48,81,0.7,76.32999,77.352325,0.82,0.86,-1.022335,-0.04
49,81,0.7,79.48108,78.7271,0.9,0.86,0.75398,0.04
50,81,0.7,78.2711,77.73239,0.86,0.82,0.53871,0.04
51,81,0.7,83.662094,79.32705,1.15,0.81,4.335044,0.34
52,81,0.7,86.10459,80.052795,1.04,0.79,6.051795,0.25
53,81,0.7,85.15216,77.18003,0.94,0.75,7.97213,0.19
54,81,0.7,82.64756,75.839966,0.88,0.81,6.807594,0.07
55,81,0.7,83.0225,78.01168,0.82,0.87,5.01082,-0.05
56,81,0.7,82.38159,75.501434,0.81,0.81,6.880156,0
57,81,0.7,80.37095,78.20441,0.89,0.81,2.16654,0.08
58,81,0.7,75.32243,79.1257,0.87,0.81,-3.80327,0.06
59,81,0.7,74.500946,74.0883,0.93,0.8,0.412646,0.13
60,81,0.7,76.45058,75.3539,0.9,0.75,1.09668,0.15
61,81,0.7,81.00957,76.13856,0.95,0.77,4.87101,0.18
62,81,0.7,80.50826,73.922485,0.89,0.76,6.585775,0.13
63,81,0.7,82.640305,73.09131,0.89,0.75,9.548995,0.14
64,81,0.7,81.61766,71.33747,0.88,0.78,10.28019,0.1
65,81,0.7,78.20027,71.850136,0.8,0.75,6.350134,0.05
66,81,0.7,76.712425,78.49933,0.86,0.75,-1.786905,0.11
67,81,0.7,78.89738,73.244125,0.86,0.81,5.653255,0.05
68,81,0.7,79.131615,69.32757,0.9,0.75,9.804045,0.15
69,81,0.7,75.09283,73.7881,0.84,0.66,1.30473,0.18
70,81,0.7,73.275154,71.76106,0.87,0.77,1.514094,0.1
71,81,0.7,78.225334,77.661865,0.87,0.78,0.563469,0.09
72,81,0.7,80.80232,75.297264,0.88,0.72,5.505056,0.16
73,81,0.7,81.49328,76.39198,0.53,0.87,5.1013,-0.34
74,81,0.7,82.782486,75.173096,0.89,0.76,7.60939,0.13
75,81,0.7,77.361176,82.13683,0.84,0.68,-4.775654,0.16
76,81,0.7,73.522675,74.553116,0.91,0.74,-1.030441,0.17
77,81,0.7,76.80736,76.89464,0.89,0.86,-0.08728,0.03
78,81,0.7,72.861015,78.51718,0.85,0.8,-5.656165,0.05
79,81,0.7,71.64068,75.56891,0.39,0.75,-3.92823,-0.36
80,81,0.7,76.72437,70.79749,0.89,0.81,5.92688,0.08
81,81,0.7,76.7095,77.30139,0.87,0.78,-0.59189,0.09
82,81,0.7,74.98219,80.10106,0.42,0.79,-5.11887,-0.37
83,81,0.7,70.17265,79.024124,0.69,0.75,-8.851474,-0.06
84,81,0.7,70.01302,69.748886,0.54,0.61,0.264134,-0.07
85,81,0.7,67.49697,72.353485,0.11,0.72,-4.856515,-0.61
86,81,0.7,65.66411,74.05231,0.11,0.28,-8.3882,-0.17
87,81,0.7,66.09688,71.62523,0.11,0.28,-5.52835,-0.17
88,81,0.7,67.53957,70.392654,0.11,0.55,-2.853084,-0.44
89,81,0.7,69.033134,75.859085,0.11,0.36,-6.825951,-0.25
90,81,0.7,67.41652,72.73547,0.11,0.31,-5.31895,-0.2
91,81,0.7,70.45117,70.620514,0.11,0.31,-0.169344,-0.2
92,81,0.7,65.96303,75.09823,0.11,0.99,-9.1352,-0.88
93,81,0.7,65.16373,68.761765,0.11,0.35,-3.598035,-0.24
94,81,0.7,65.47276,69.16713,0.11,0.14,-3.69437,-0.03
95,81,0.7,66.85587,69.97759,0.11,0.45,-3.12172,-0.34
96,81,0.7,65.206055,71.81734,0.11,0.45,-6.611285,-0.34
97,81,0.7,64.40422,69.045525,0.11,0.21,-4.641305,-0.1
98,81,0.7,65.90318,67.04706,0.11,0.25,-1.14388,-0.14
99,81,0.7,67.39184,69.16037,0.11,0.27,-1.76853,-0.16
100,81,0.7,70.92096,68.036865,0.11,0.28,2.884095,-0.17
101,81,0.7,71.30068,64.55104,0.11,0.16,6.74964,-0.05
102,81,0.7,70.87686,65.95124,0.11,0.18,4.92562,-0.07
103,81,0.7,68.91961,66.60956,0.11,0.14,2.31005,-0.03
104,81,0.7,66.944984,66.43676,0.11,0.14,0.508224,-0.03
105,81,0.7,64.186874,68.7311,0.11,0.14,-4.544226,-0.03
106,81,0.7,67.892426,66.164925,0.11,0.11,1.727501,0
107,81,0.7,67.33356,66.02951,0.11,0.14,1.30405,-0.03
108,81,0.7,65.465195,64.71605,0.11,0.14,0.749145,-0.03
21,81,1,82.140465,75.64284,1.5,1.3,6.497625,0.2
22,81,1,76.564186,76.53752,1.5,1.26,0.026666,0.24
23,81,1,75.730316,76.11548,1.39,1.26,-0.385164,0.13
24,81,1,78.09773,74.157974,1.37,1.25,3.939756,0.12
25,81,1,77.23916,75.792305,1.44,1.25,1.446855,0.19
26,81,1,75.11028,73.78909,1.5,1.27,1.32119,0.23
27,81,1,76.56531,76.6498,1.37,1.23,-0.08449,0.14
28,81,1,78.34599,76.21441,1.5,1.26,2.13158,0.24
29,81,1,76.23997,76.29265,1.43,1.25,-0.05268,0.18
30,81,1,75.6383,78.78465,1.49,1.22,-3.14635,0.27
31,81,1,75.52409,78.94822,1.42,1.2,-3.42413,0.22
32,81,1,78.34517,78.619026,1.38,1.27,-0.273856,0.11
33,81,1,78.19043,78.517715,1.26,1.21,-0.327285,0.05
34,81,1,81.3428,79.903244,1.48,1.21,1.439556,0.27
35,81,1,76.29853,79.1073,1.31,1.22,-2.80877,0.09
36,81,1,78.52275,77.86911,1.37,1.22,0.65364,0.15
37,81,1,77.32078,78.49845,1.28,1.2,-1.17767,0.08
38,81,1,78.7103,77.02062,1.36,1.17,1.68968,0.19
39,81,1,75.682076,78.6322,1.26,1.21,-2.950124,0.05
40,81,1,81.928604,77.40779,1.36,1.15,4.520814,0.21
41,81,1,79.28781,78.58187,1.35,1.14,0.70594,0.21
42,81,1,76.0293,77.71858,1.32,1.14,-1.68928,0.18
43,81,1,80.80264,79.01653,1.32,1.11,1.78611,0.21
44,81,1,77.50647,79.67709,1.25,1.14,-2.17062,0.11
45,81,1,80.61762,76.03703,1.16,1.16,4.58059,0
46,81,1,78.56998,75.582794,1.18,1.12,2.987186,0.06
47,81,1,76.32637,78.13369,1.21,1.14,-1.80732,0.07
48,81,1,75.828514,77.02667,1.14,1.14,-1.198156,0
49,81,1,80.08548,78.67196,1.15,1.09,1.41352,0.06
50,81,1,78.20701,78.70924,1.15,1.07,-0.50223,0.08
51,81,1,83.80773,79.2463,1.41,1.1,4.56143,0.31
52,81,1,85.98105,79.756134,1.31,1.07,6.224916,0.24
53,81,1,84.954216,77.417915,1.24,1.03,7.536301,0.21
54,81,1,82.73149,78.50722,1.18,1.05,4.22427,0.13
55,81,1,83.13579,77.70827,1.11,1.05,5.42752,0.06
56,81,1,82.52451,77.75639,1.1,1.05,4.76812,0.05
57,81,1,79.92417,80.568726,1.17,1.04,-0.644556,0.13
58,81,1,75.86139,80.17038,1.16,1.05,-4.30899,0.11
59,81,1,73.73518,74.83844,1.21,1.06,-1.10326,0.15
60,81,1,76.462715,75.57949,1.18,1.04,0.883225,0.14
61,81,1,80.56394,76.56474,1.17,1.05,3.9992,0.12
62,81,1,81.11283,73.92036,1.2,1.06,7.19247,0.14
63,81,1,82.12263,74.71431,1.2,1.03,7.40832,0.17
64,81,1,81.86973,71.4389,1.16,1.08,10.43083,0.08
65,81,1,78.219574,70.424904,1.1,1.02,7.79467,0.08
66,81,1,77.19691,78.56116,1.17,1.02,-1.36425,0.15
67,81,1,78.19343,73.34519,1.15,1.11,4.84824,0.04
68,81,1,78.89799,71.16772,1.21,0.95,7.73027,0.26
69,81,1,75.78142,73.55469,1.14,0.66,2.22673,0.48
70,81,1,72.688416,72.296585,1.18,0.99,0.391831,0.19
71,81,1,77.74347,78.09143,1.18,1.07,-0.34796,0.11
72,81,1,80.83943,75.791214,1.19,0.97,5.048216,0.22
73,81,1,81.75623,77.247604,0.53,1.04,4.508626,-0.51
74,81,1,82.93611,76.587654,1.17,1.03,6.348456,0.14
75,81,1,76.6752,80.71222,0.95,0.69,-4.03702,0.26
76,81,1,74.10392,75.11966,1.07,1.06,-1.01574,0.01
77,81,1,76.80272,78.534996,1.17,1.16,-1.732276,0.01
78,81,1,72.471954,82.44737,1.15,1.06,-9.975416,0.09
79,81,1,71.58217,75.75105,0.39,1.06,-4.16888,-0.67
80,81,1,76.9861,71.8175,1.15,1.02,5.1686,0.13
81,81,1,76.21679,79.013054,1.16,1.03,-2.796264,0.13
82,81,1,74.88705,80.10868,0.41,1.07,-5.22163,-0.66
83,81,1,69.86435,78.89523,0.69,1.08,-9.03088,-0.39
84,81,1,69.72029,71.352066,0.52,0.6,-1.631776,-0.08
85,81,1,68.521866,74.44262,0.28,0.89,-5.920754,-0.61
86,81,1,66.77185,73.79556,0.11,0.29,-7.02371,-0.18
87,81,1,65.783844,71.267815,0.11,0.28,-5.483971,-0.17
88,81,1,67.07689,70.58802,0.11,0.55,-3.51113,-0.44
89,81,1,68.685295,72.25409,0.11,0.35,-3.568795,-0.24
90,81,1,67.42523,73.13585,0.11,0.31,-5.71062,-0.2
91,81,1,69.771255,72.96994,0.11,0.31,-3.198685,-0.2
92,81,1,66.7197,76.301056,0.11,0.99,-9.581356,-0.88
93,81,1,64.56142,71.52017,0.11,0.34,-6.95875,-0.23
94,81,1,65.31586,71.27889,0.11,0.14,-5.96303,-0.03
95,81,1,66.641846,69.22921,0.11,0.45,-2.587364,-0.34
96,81,1,65.92387,74.01141,0.11,0.46,-8.08754,-0.35
97,81,1,65.330185,70.31249,0.11,0.16,-4.982305,-0.05
98,81,1,67.640884,68.23257,0.11,0.25,-0.591686,-0.14
99,81,1,66.57415,70.147995,0.11,0.27,-3.573845,-0.16
100,81,1,70.9104,70.14042,0.11,0.28,0.76998,-0.17
101,81,1,68.35103,68.960976,0.11,0.16,-0.609946,-0.05
102,81,1,70.42944,68.672455,0.11,0.16,1.756985,-0.05
103,81,1,67.18798,68.71622,0.11,0.14,-1.52824,-0.03
104,81,1,66.80196,69.47745,0.11,0.14,-2.67549,-0.03
105,81,1,64.970695,70.91079,0.11,0.14,-5.940095,-0.03
106,81,1,63.97287,69.29303,0.11,0.11,-5.32016,0
107,81,1,64.39795,71.28818,0.11,0.13,-6.89023,-0.02
108,81,1,65.3631,67.988335,0.11,0.14,-2.625235,-0.03
21,89,0.1,81.17075,75.60213,1.02,0.58,5.56862,0.44
22,89,0.1,77.82222,78.645805,0.95,0.55,-0.823585,0.4
23,89,0.1,77.25078,77.31772,0.83,0.55,-0.06694,0.28
24,89,0.1,80.401855,75.59618,0.76,0.46,4.805675,0.3
25,89,0.1,78.80353,77.75388,0.76,0.51,1.04965,0.25
26,89,0.1,78.880646,76.06212,0.74,0.5,2.818526,0.24
27,89,0.1,78.23541,77.941605,0.61,0.53,0.293805,0.08
28,89,0.1,81.128204,77.57164,0.91,0.5,3.556564,0.41
29,89,0.1,77.558266,77.59747,0.79,0.5,-0.039204,0.29
30,89,0.1,76.77489,80.41367,0.72,0.47,-3.63878,0.25
31,89,0.1,79.60621,77.35759,0.73,0.53,2.24862,0.2
32,89,0.1,81.57266,80.297516,0.64,0.5,1.275144,0.14
33,89,0.1,82.262024,80.44542,0.86,0.54,1.816604,0.32
34,89,0.1,82.49523,78.66206,0.71,0.52,3.83317,0.19
35,89,0.1,80.06256,78.7729,0.79,0.42,1.28966,0.37
36,89,0.1,81.686035,80.01883,0.92,0.49,1.667205,0.43
37,89,0.1,79.73193,80.59743,0.58,0.45,-0.8655,0.13
38,89,0.1,82.50217,78.51401,0.74,0.44,3.98816,0.3
39,89,0.1,79.206726,76.42211,0.69,0.42,2.784616,0.27
40,89,0.1,83.980034,77.460106,0.84,0.42,6.519928,0.42
41,89,0.1,82.307915,80.25372,0.73,0.43,2.054195,0.3
42,89,0.1,78.865555,79.43522,0.7,0.4,-0.569665,0.3
43,89,0.1,84.56624,79.6986,0.57,0.39,4.86764,0.18
44,89,0.1,80.56804,80.4578,0.7,0.38,0.11024,0.32
45,89,0.1,83.91843,77.36929,0.57,0.43,6.54914,0.14
46,89,0.1,79.806274,73.289894,0.53,0.37,6.51638,0.16
47,89,0.1,78.473816,78.663925,0.56,0.39,-0.190109,0.17
48,89,0.1,78.32532,78.94673,0.44,0.36,-0.62141,0.08
49,89,0.1,81.90518,80.49081,0.42,0.43,1.41437,-0.01
50,89,0.1,82.27394,79.04852,0.58,0.31,3.22542,0.27
51,89,0.1,86.14621,81.58456,0.71,0.33,4.56165,0.38
52,89,0.1,87.95395,81.59198,0.56,0.36,6.36197,0.2
53,89,0.1,89.12095,79.08072,0.4,0.39,10.04023,0.01
54,89,0.1,85.23396,76.9433,0.42,0.34,8.29066,0.08
55,89,0.1,88.11122,80.13871,0.48,0.35,7.97251,0.13
56,89,0.1,84.028625,77.23791,0.39,0.36,6.790715,0.03
57,89,0.1,82.15297,80.47429,0.43,0.34,1.67868,0.09
58,89,0.1,79.5928,79.75339,0.42,0.39,-0.16059,0.03
59,89,0.1,77.559265,75.85185,0.5,0.35,1.707415,0.15
60,89,0.1,79.94063,76.32317,0.4,0.39,3.61746,0.01
61,89,0.1,85.04111,77.425766,0.43,0.34,7.615344,0.09
62,89,0.1,83.42514,75.529625,0.42,0.28,7.895515,0.14
63,89,0.1,84.78261,74.64076,0.45,0.34,10.14185,0.11
64,89,0.1,85.029106,72.47267,0.57,0.36,12.556436,0.21
65,89,0.1,81.41679,75.660866,0.41,0.3,5.755924,0.11
66,89,0.1,79.8602,79.74879,0.41,0.39,0.11141,0.02
67,89,0.1,82.81356,75.17698,0.36,0.4,7.63658,-0.04
68,89,0.1,82.308044,71.1797,0.38,0.29,11.128344,0.09
69,89,0.1,77.98171,76.36096,0.37,0.29,1.62075,0.08
70,89,0.1,75.6375,73.663925,0.34,0.31,1.973575,0.03
71,89,0.1,81.79752,77.57534,0.38,0.43,4.22218,-0.05
72,89,0.1,84.92302,76.90704,0.41,0.37,8.01598,0.04
73,89,0.1,84.257065,77.66671,0.35,0.35,6.590355,0
74,89,0.1,86.50977,76.585976,0.4,0.35,9.923794,0.05
75,89,0.1,79.2363,80.41351,0.33,0.4,-1.17721,-0.07
76,89,0.1,78.59628,76.39856,0.33,0.44,2.19772,-0.11
77,89,0.1,78.43524,78.64378,0.41,0.27,-0.20854,0.14
78,89,0.1,73.84042,80.40055,0.36,0.26,-6.56013,0.1
79,89,0.1,75.7444,77.107895,0.36,0.27,-1.363495,0.09
80,89,0.1,78.813,71.60887,0.32,0.33,7.20413,-0.01
81,89,0.1,80.00673,79.06129,0.36,0.36,0.94544,0
82,89,0.1,76.22205,82.047516,0.31,0.27,-5.825466,0.04
83,89,0.1,74.44289,81.43033,0.35,0.32,-6.98744,0.03
84,89,0.1,72.727196,71.4344,0.35,0.33,1.292796,0.02
85,89,0.1,69.37455,74.01869,0.32,0.35,-4.64414,-0.03
86,89,0.1,68.93879,75.91986,0.11,0.27,-6.98107,-0.16
87,89,0.1,68.701935,73.852295,0.11,0.24,-5.15036,-0.13
88,89,0.1,71.424,71.82058,0.11,0.22,-0.39658,-0.11
89,89,0.1,75.75165,72.94241,0.11,0.4,2.80924,-0.29
90,89,0.1,67.079735,76.61833,0.11,0.31,-9.538595,-0.2
91,89,0.1,72.40738,72.72683,0.11,0.31,-0.31945,-0.2
92,89,0.1,67.93448,76.31649,0.11,1.01,-8.38201,-0.9
93,89,0.1,71.27324,71.850426,0.11,0.26,-0.577186,-0.15
94,89,0.1,67.72454,70.508,0.11,0.32,-2.78346,-0.21
95,89,0.1,68.52354,69.72292,0.11,0.48,-1.19938,-0.37
96,89,0.1,68.98316,73.922966,0.11,0.46,-4.939806,-0.35
97,89,0.1,65.834366,70.73111,0.11,0.21,-4.896744,-0.1
98,89,0.1,68.09064,67.464806,0.11,0.26,0.625834,-0.15
99,89,0.1,68.77687,70.51375,0.11,0.27,-1.73688,-0.16
100,89,0.1,71.27644,71.78406,0.11,0.29,-0.50762,-0.18
101,89,0.1,70.52901,65.931786,0.11,0.21,4.597224,-0.1
102,89,0.1,68.29355,69.06628,0.11,0.19,-0.77273,-0.08
103,89,0.1,68.627365,68.6254,0.11,0.18,0.001965,-0.07
104,89,0.1,67.3583,69.23721,0.11,0.14,-1.87891,-0.03
105,89,0.1,69.56724,71.2389,0.11,0.16,-1.67166,-0.05
106,89,0.1,66.14369,68.539276,0.11,0.13,-2.395586,-0.02
107,89,0.1,68.23793,71.73874,0.11,0.13,-3.50081,-0.02
108,89,0.1,65.87495,68.6194,0.11,0.15,-2.74445,-0.04
21,89,0.3,80.98647,77.2659,1.2,0.77,3.72057,0.43
22,89,0.3,78.12375,78.64348,1.21,0.73,-0.51973,0.48
23,89,0.3,77.22436,77.35242,0.98,0.73,-0.12806,0.25
24,89,0.3,80.212906,76.093315,0.86,0.68,4.119591,0.18
25,89,0.3,79.847336,77.719574,0.82,0.71,2.127762,0.11
26,89,0.3,78.30551,75.50415,0.87,0.67,2.80136,0.2
27,89,0.3,77.934326,77.09957,0.83,0.72,0.834756,0.11
28,89,0.3,81.48183,77.64731,1.06,0.69,3.83452,0.37
29,89,0.3,78.92874,78.12743,0.9,0.7,0.80131,0.2
30,89,0.3,76.417786,80.341896,0.92,0.68,-3.92411,0.24
31,89,0.3,79.71637,77.12657,0.83,0.67,2.5898,0.16
32,89,0.3,81.20884,80.373604,0.84,0.69,0.835236,0.15
33,89,0.3,82.3996,80.27243,0.99,0.67,2.12717,0.32
34,89,0.3,82.51476,78.6362,0.76,0.68,3.87856,0.08
35,89,0.3,80.57245,78.96964,0.95,0.64,1.60281,0.31
36,89,0.3,81.806465,79.764565,1.03,0.66,2.0419,0.37
37,89,0.3,79.634186,80.029915,0.72,0.61,-0.395729,0.11
38,89,0.3,82.21252,78.18089,0.85,0.59,4.03163,0.26
39,89,0.3,79.11276,76.76205,0.81,0.6,2.35071,0.21
40,89,0.3,84.02714,77.39562,1.02,0.6,6.63152,0.42
41,89,0.3,82.48144,79.92108,0.8,0.56,2.56036,0.24
42,89,0.3,78.56944,79.3482,0.69,0.56,-0.77876,0.13
43,89,0.3,84.40117,79.789764,0.75,0.55,4.611406,0.2
44,89,0.3,80.28558,81.37195,0.69,0.53,-1.08637,0.16
45,89,0.3,83.99128,77.35739,0.71,0.54,6.63389,0.17
46,89,0.3,79.68259,73.40108,0.64,0.53,6.28151,0.11
47,89,0.3,79.27895,78.88231,0.73,0.57,0.39664,0.16
48,89,0.3,78.663605,78.89514,0.56,0.54,-0.231535,0.02
49,89,0.3,82.32204,80.698654,0.56,0.6,1.623386,-0.04
50,89,0.3,82.28765,78.85416,0.77,0.47,3.43349,0.3
51,89,0.3,86.49003,81.29551,0.89,0.5,5.19452,0.39
52,89,0.3,87.93113,81.5782,0.74,0.47,6.35293,0.27
53,89,0.3,89.386055,79.17486,0.75,0.56,10.211195,0.19
54,89,0.3,85.1604,76.400375,0.56,0.51,8.760025,0.05
55,89,0.3,88.12205,80.08038,0.62,0.52,8.04167,0.1
56,89,0.3,84.02137,79.68913,0.53,0.52,4.33224,0.01
57,89,0.3,82.403854,80.39363,0.52,0.52,2.010224,0
58,89,0.3,80.22251,79.37903,0.6,0.53,0.84348,0.07
59,89,0.3,78.14625,75.571976,0.66,0.56,2.574274,0.1
60,89,0.3,80.27136,75.673225,0.54,0.53,4.598135,0.01
61,89,0.3,84.98278,78.07385,0.63,0.53,6.90893,0.1
62,89,0.3,83.69234,75.38924,0.54,0.47,8.3031,0.07
63,89,0.3,84.729065,75.033295,0.8,0.45,9.69577,0.35
64,89,0.3,85.45521,72.516365,0.77,0.44,12.938845,0.33
65,89,0.3,81.570656,74.56665,0.58,0.5,7.004006,0.08
66,89,0.3,79.45818,80.02897,0.54,0.53,-0.57079,0.01
67,89,0.3,82.65273,75.3786,0.54,0.47,7.27413,0.07
68,89,0.3,82.57861,71.613075,0.6,0.41,10.965535,0.19
69,89,0.3,78.3272,76.35489,0.52,0.49,1.97231,0.03
70,89,0.3,75.608826,73.91917,0.52,0.44,1.689656,0.08
71,89,0.3,81.75555,77.76416,0.53,0.41,3.99139,0.12
72,89,0.3,85.13337,77.47289,0.57,0.5,7.66048,0.07
73,89,0.3,83.12924,77.3974,0.5,0.46,5.73184,0.04
74,89,0.3,86.273674,76.3681,0.55,0.49,9.905574,0.06
75,89,0.3,79.38623,80.791016,0.51,0.47,-1.404786,0.04
76,89,0.3,78.317635,76.57138,0.53,0.51,1.746255,0.02
77,89,0.3,78.501114,78.79375,0.51,0.46,-0.292636,0.05
78,89,0.3,73.949524,80.425766,0.52,0.43,-6.476242,0.09
79,89,0.3,75.677,77.011215,0.49,0.36,-1.334215,0.13
80,89,0.3,79.086685,71.369286,0.47,0.39,7.717399,0.08
81,89,0.3,78.9788,79.56967,0.51,0.4,-0.59087,0.11
82,89,0.3,76.20954,82.124596,0.42,0.42,-5.915056,0
83,89,0.3,74.12223,81.49234,0.46,0.37,-7.37011,0.09
84,89,0.3,72.39909,71.25073,0.48,0.48,1.14836,0
85,89,0.3,70.36454,73.747116,0.45,0.5,-3.382576,-0.05
86,89,0.3,68.64911,75.929436,0.11,0.39,-7.280326,-0.28
87,89,0.3,68.71948,73.77114,0.11,0.31,-5.05166,-0.2
88,89,0.3,70.135994,71.65417,0.11,0.35,-1.518176,-0.24
89,89,0.3,75.96588,73.360016,0.11,0.36,2.605864,-0.25
90,89,0.3,67.46285,76.229004,0.11,0.31,-8.766154,-0.2
91,89,0.3,72.29071,72.65649,0.11,0.31,-0.36578,-0.2
92,89,0.3,67.92227,76.81597,0.11,1.02,-8.8937,-0.91
93,89,0.3,71.17056,71.05386,0.11,0.25,0.1167,-0.14
94,89,0.3,67.80378,69.98636,0.11,0.32,-2.18258,-0.21
95,89,0.3,67.728615,69.61644,0.11,0.48,-1.887825,-0.37
96,89,0.3,69.38846,73.66477,0.11,0.46,-4.27631,-0.35
97,89,0.3,68.37388,70.272766,0.11,0.21,-1.898886,-0.1
98,89,0.3,69.74782,67.68006,0.11,0.27,2.06776,-0.16
99,89,0.3,70.35036,70.306694,0.11,0.27,0.043666,-0.16
100,89,0.3,71.395966,70.32658,0.11,0.29,1.069386,-0.18
101,89,0.3,69.56259,64.65937,0.11,0.21,4.90322,-0.1
102,89,0.3,68.416016,68.41946,0.11,0.19,-0.003444,-0.08
103,89,0.3,68.20776,69.058464,0.11,0.18,-0.850704,-0.07
104,89,0.3,67.79282,69.7675,0.11,0.14,-1.97468,-0.03
105,89,0.3,69.79199,71.51701,0.11,0.15,-1.72502,-0.04
106,89,0.3,66.36395,68.60563,0.11,0.13,-2.24168,-0.02
107,89,0.3,68.90249,70.20493,0.11,0.13,-1.30244,-0.02
108,89,0.3,65.68875,68.51647,0.11,0.15,-2.82772,-0.04
21,89,0.7,80.60152,76.93689,1.5,1.1,3.66463,0.4
22,89,0.7,77.00649,78.1438,1.46,1.08,-1.13731,0.38
23,89,0.7,77.66729,77.38187,1.23,1.07,0.28542,0.16
24,89,0.7,80.257,76.403915,1.22,1.05,3.853085,0.17
25,89,0.7,79.61613,77.665955,1.15,1.04,1.950175,0.11
26,89,0.7,78.64657,75.83879,1.24,1.02,2.80778,0.22
27,89,0.7,78.33961,76.88732,1.14,1.11,1.45229,0.03
28,89,0.7,81.084274,77.42579,1.36,1.06,3.658484,0.3
29,89,0.7,78.97797,78.142006,1.24,1.07,0.835964,0.17
30,89,0.7,76.6013,80.352394,1.29,1.03,-3.751094,0.26
31,89,0.7,79.92906,76.922615,1.19,1.01,3.006445,0.18
32,89,0.7,81.56211,80.055954,1.14,1.04,1.506156,0.1
33,89,0.7,82.51658,80.25228,1.3,0.99,2.2643,0.31
34,89,0.7,82.69473,78.758255,1.2,1,3.936475,0.2
35,89,0.7,80.64314,78.96376,1.28,0.98,1.67938,0.3
36,89,0.7,81.89089,79.67818,1.27,0.99,2.21271,0.28
37,89,0.7,79.769714,80.40514,1.02,0.94,-0.635426,0.08
38,89,0.7,82.183975,78.64042,1.2,0.94,3.543555,0.26
39,89,0.7,79.14458,76.385735,1.13,0.98,2.758845,0.15
40,89,0.7,83.82564,77.1736,1.14,0.91,6.65204,0.23
41,89,0.7,82.267334,80.32542,1.19,0.9,1.941914,0.29
42,89,0.7,78.64931,79.13122,1.26,0.88,-0.48191,0.38
43,89,0.7,83.82018,79.59552,1.1,0.88,4.22466,0.22
44,89,0.7,80.283066,80.885155,0.97,0.88,-0.602089,0.09
45,89,0.7,83.94488,77.49454,1.06,0.92,6.45034,0.14
46,89,0.7,79.64534,75.5165,0.97,0.89,4.12884,0.08
47,89,0.7,79.19083,78.753784,0.94,0.89,0.437046,0.05
48,89,0.7,78.620766,78.50341,0.91,0.91,0.117356,0
49,89,0.7,82.370674,80.27482,0.9,0.9,2.095854,0
50,89,0.7,82.22904,78.887436,0.92,0.83,3.341604,0.09
51,89,0.7,86.18373,81.41782,1.23,0.83,4.76591,0.4
52,89,0.7,87.88699,81.20212,1.11,0.8,6.68487,0.31
53,89,0.7,89.425446,80.7075,0.99,0.8,8.717946,0.19
54,89,0.7,85.46974,76.180626,0.9,0.83,9.289114,0.07
55,89,0.7,88.06943,80.02779,0.9,0.89,8.04164,0.01
56,89,0.7,84.10034,80.22333,0.82,0.83,3.87701,-0.01
57,89,0.7,82.21513,80.272705,0.89,0.82,1.942425,0.07
58,89,0.7,80.26854,79.62798,0.88,0.81,0.64056,0.07
59,89,0.7,78.08828,75.51402,0.99,0.82,2.57426,0.17
60,89,0.7,79.96495,75.65322,0.91,0.75,4.31173,0.16
61,89,0.7,84.71485,77.72838,1,0.77,6.98647,0.23
62,89,0.7,83.50784,75.266106,0.9,0.77,8.241734,0.13
63,89,0.7,84.63265,75.0155,0.89,0.78,9.61715,0.11
64,89,0.7,85.34235,71.00958,0.89,0.82,14.33277,0.07
65,89,0.7,81.37057,74.57155,0.91,0.77,6.79902,0.14
66,89,0.7,79.63873,80.16545,0.9,0.77,-0.52672,0.13
67,89,0.7,82.70668,75.66324,0.9,0.83,7.04344,0.07
68,89,0.7,82.41091,71.05868,0.92,0.75,11.35223,0.17
69,89,0.7,78.17348,76.43132,0.85,0.84,1.74216,0.01
70,89,0.7,74.985435,74.64186,0.88,0.77,0.343575,0.11
71,89,0.7,81.7194,77.86401,0.89,0.79,3.85539,0.1
72,89,0.7,84.54078,77.3263,0.91,0.73,7.21448,0.18
73,89,0.7,84.536835,77.21122,0.84,0.88,7.325615,-0.04
74,89,0.7,86.25904,76.38317,0.9,0.77,9.87587,0.13
75,89,0.7,79.04917,80.36697,0.86,0.75,-1.3178,0.11
76,89,0.7,78.508514,75.99089,0.93,0.76,2.517624,0.17
77,89,0.7,78.85851,78.47208,0.9,0.86,0.38643,0.04
78,89,0.7,74.16437,80.442184,0.85,0.8,-6.277814,0.05
79,89,0.7,75.6467,76.93737,0.91,0.75,-1.29067,0.16
80,89,0.7,78.499115,71.66743,0.9,0.84,6.831685,0.06
81,89,0.7,78.87262,79.53512,0.89,0.77,-0.6625,0.12
82,89,0.7,76.14813,82.18616,0.42,0.8,-6.03803,-0.38
83,89,0.7,73.70004,81.47662,0.73,0.76,-7.77658,-0.03
84,89,0.7,72.84304,71.241,0.55,0.63,1.60204,-0.08
85,89,0.7,70.03806,73.79022,0.68,0.76,-3.75216,-0.08
86,89,0.7,69.049255,75.8112,0.11,0.6,-6.761945,-0.49
87,89,0.7,68.582535,73.72986,0.11,0.31,-5.147325,-0.2
88,89,0.7,69.59066,71.80318,0.11,0.56,-2.21252,-0.45
89,89,0.7,75.89599,73.4362,0.11,0.36,2.45979,-0.25
90,89,0.7,68.069466,76.61511,0.11,0.31,-8.545644,-0.2
91,89,0.7,72.280975,72.73981,0.11,0.31,-0.458835,-0.2
92,89,0.7,67.09658,76.87765,0.11,1.03,-9.78107,-0.92
93,89,0.7,70.74344,71.699234,0.11,0.25,-0.955794,-0.14
94,89,0.7,67.04231,71.10193,0.11,0.31,-4.05962,-0.2
95,89,0.7,68.4212,69.81932,0.11,0.48,-1.39812,-0.37
96,89,0.7,69.90099,74.98867,0.11,0.46,-5.08768,-0.35
97,89,0.7,68.19162,70.9288,0.11,0.21,-2.73718,-0.1
98,89,0.7,68.17618,68.42734,0.11,0.26,-0.25116,-0.15
99,89,0.7,70.47899,70.51802,0.11,0.27,-0.03903,-0.16
100,89,0.7,71.30862,70.463745,0.11,0.29,0.844875,-0.18
101,89,0.7,70.123764,64.99622,0.11,0.21,5.127544,-0.1
102,89,0.7,68.07254,68.56891,0.11,0.19,-0.49637,-0.08
103,89,0.7,68.416275,68.896675,0.11,0.17,-0.4804,-0.06
104,89,0.7,67.51611,68.7961,0.11,0.14,-1.27999,-0.03
105,89,0.7,69.5908,70.78676,0.11,0.15,-1.19596,-0.04
106,89,0.7,66.569786,69.797646,0.11,0.13,-3.22786,-0.02
107,89,0.7,68.88948,71.29259,0.11,0.13,-2.40311,-0.02
108,89,0.7,66.885315,68.3051,0.11,0.15,-1.419785,-0.04
21,89,1,80.49841,76.80643,1.5,1.35,3.69198,0.15
22,89,1,77.36662,78.39287,1.5,1.35,-1.02625,0.15
23,89,1,77.20492,77.36839,1.46,1.31,-0.16347,0.15
24,89,1,80.34713,76.40419,1.5,1.31,3.94294,0.19
25,89,1,79.28665,78.024666,1.5,1.33,1.261984,0.17
26,89,1,78.59124,75.44876,1.5,1.35,3.14248,0.15
27,89,1,78.12583,76.76119,1.39,1.32,1.36464,0.07
28,89,1,81.491974,77.65532,1.5,1.27,3.836654,0.23
29,89,1,79.040726,77.93531,1.5,1.31,1.105416,0.19
30,89,1,76.94707,80.42986,1.5,1.26,-3.48279,0.24
31,89,1,79.66088,79.93666,1.46,1.25,-0.27578,0.21
32,89,1,81.32323,80.47867,1.45,1.29,0.84456,0.16
33,89,1,82.73006,80.00587,1.33,1.25,2.72419,0.08
34,89,1,82.41584,79.41322,1.5,1.25,3.00262,0.25
35,89,1,80.40172,80.12145,1.48,1.25,0.28027,0.23
36,89,1,81.81403,79.72281,1.47,1.25,2.09122,0.22
37,89,1,79.99512,79.74258,1.35,1.21,0.25254,0.14
38,89,1,82.022415,78.314125,1.44,1.18,3.70829,0.26
39,89,1,79.6331,80.81373,1.36,1.25,-1.18063,0.11
40,89,1,83.840416,78.85426,1.38,1.19,4.986156,0.19
41,89,1,82.15395,80.328415,1.48,1.16,1.825535,0.32
42,89,1,78.6435,79.391525,1.34,1.16,-0.748025,0.18
43,89,1,83.68481,80.282524,1.38,1.17,3.402286,0.21
44,89,1,80.16685,80.7517,1.27,1.16,-0.58485,0.11
45,89,1,83.83113,76.96765,1.25,1.19,6.86348,0.06
46,89,1,79.774734,76.566185,1.2,1.15,3.208549,0.05
47,89,1,79.405045,80.63404,1.23,1.15,-1.228995,0.08
48,89,1,78.262115,78.54611,1.17,1.17,-0.283995,0
49,89,1,82.45119,80.40489,1.16,1.1,2.0463,0.06
50,89,1,81.97347,79.21134,1.17,1.09,2.76213,0.08
51,89,1,86.5006,81.06846,1.45,1.1,5.43214,0.35
52,89,1,88.13972,81.42686,1.37,1.08,6.71286,0.29
53,89,1,89.33064,79.00092,1.24,1.03,10.32972,0.21
54,89,1,85.340485,78.19459,1.19,1.06,7.145895,0.13
55,89,1,88.03535,79.4863,1.23,1.06,8.54905,0.17
56,89,1,83.62216,79.481964,1.11,1.11,4.140196,0
57,89,1,82.59461,81.64151,1.18,1.11,0.9531,0.07
58,89,1,80.245865,81.82641,1.17,1.06,-1.580545,0.11
59,89,1,78.06202,77.4842,1.24,1.07,0.57782,0.17
60,89,1,79.92169,75.78522,1.17,1.05,4.13647,0.12
61,89,1,84.81468,77.92597,1.19,1.06,6.88871,0.13
62,89,1,83.23233,74.80617,1.2,1.09,8.42616,0.11
63,89,1,84.5869,75.04722,1.21,1.03,9.53968,0.18
64,89,1,85.1371,70.30046,1.17,1.12,14.83664,0.05
65,89,1,81.445885,74.09754,1.14,1.03,7.348345,0.11
66,89,1,79.21461,80.157364,1.18,1.04,-0.942754,0.14
67,89,1,82.69692,75.537506,1.2,1.12,7.159414,0.08
68,89,1,82.412254,74.06346,1.22,1.02,8.348794,0.2
69,89,1,78.441895,76.457985,1.15,0.7,1.98391,0.45
70,89,1,75.02231,74.39438,1.19,1.07,0.62793,0.12
71,89,1,81.99674,79.07841,1.2,1.07,2.91833,0.13
72,89,1,84.62371,79.15727,1.2,1.05,5.46644,0.15
73,89,1,84.64066,79.347916,0.52,1.08,5.292744,-0.56
74,89,1,86.116974,78.58458,1.2,1.04,7.532394,0.16
75,89,1,79.52047,85.531525,0.97,0.75,-6.011055,0.22
76,89,1,78.22996,77.120026,1.1,1.08,1.109934,0.02
77,89,1,78.09643,80.713844,1.17,1.16,-2.617414,0.01
78,89,1,73.62567,80.70598,1.15,1.06,-7.08031,0.09
79,89,1,75.76029,77.32535,1.19,1.06,-1.56506,0.13
80,89,1,78.79888,74.09857,1.15,1.03,4.70031,0.12
81,89,1,78.34457,80.52566,1.17,1.03,-2.18109,0.14
82,89,1,75.89758,81.97031,0.42,1.07,-6.07273,-0.65
83,89,1,74.08595,81.352615,0.73,1.11,-7.266665,-0.38
84,89,1,72.64906,73.26345,0.55,0.64,-0.61439,-0.09
85,89,1,69.789825,75.28143,0.68,0.9,-5.491605,-0.22
86,89,1,67.961136,75.68391,0.11,0.6,-7.722774,-0.49
87,89,1,69.19497,74.96254,0.11,0.31,-5.76757,-0.2
88,89,1,71.27287,73.14104,0.11,0.56,-1.86817,-0.45
89,89,1,75.714264,72.79389,0.11,0.35,2.920374,-0.24
90,89,1,67.921364,78.38629,0.11,0.71,-10.464926,-0.6
91,89,1,72.2516,73.99565,0.11,0.31,-1.74405,-0.2
92,89,1,65.847565,78.08184,0.11,1.03,-12.234275,-0.92
93,89,1,71.00742,73.305374,0.11,0.25,-2.297954,-0.14
94,89,1,68.07761,73.049416,0.11,0.31,-4.971806,-0.2
95,89,1,68.62589,69.67314,0.11,0.48,-1.04725,-0.37
96,89,1,69.80758,75.45461,0.11,0.46,-5.64703,-0.35
97,89,1,68.249626,72.21751,0.11,0.21,-3.967884,-0.1
98,89,1,69.40756,68.83015,0.11,0.26,0.57741,-0.15
99,89,1,70.233475,71.70899,0.11,0.27,-1.475515,-0.16
100,89,1,70.74606,72.424194,0.11,0.29,-1.678134,-0.18
101,89,1,70.19452,67.72305,0.11,0.21,2.47147,-0.1
102,89,1,70.49348,70.473526,0.11,0.19,0.019954,-0.08
103,89,1,68.51236,69.96666,0.11,0.17,-1.4543,-0.06
104,89,1,67.52508,69.909935,0.11,0.14,-2.384855,-0.03
105,89,1,69.09232,71.96539,0.11,0.15,-2.87307,-0.04
106,89,1,71.105225,70.95906,0.11,0.13,0.146165,-0.02
107,89,1,68.67294,70.2569,0.11,0.13,-1.58396,-0.02
108,89,1,66.1912,70.01562,0.11,0.15,-3.82442,-0.04
21,97,0.1,81.4469,76.77592,1.12,0.61,4.67098,0.51
22,97,0.1,79.253265,77.98605,1.19,0.61,1.267215,0.58
23,97,0.1,79.19464,78.88314,0.92,0.6,0.3115,0.32
24,97,0.1,80.39529,77.36779,0.75,0.52,3.0275,0.23
25,97,0.1,80.51527,79.44592,0.87,0.56,1.06935,0.31
26,97,0.1,79.20928,77.369,0.77,0.54,1.84028,0.23
27,97,0.1,80.360275,79.11484,0.74,0.56,1.245435,0.18
28,97,0.1,81.365326,79.52739,0.9,0.57,1.837936,0.33
29,97,0.1,77.49803,79.08343,0.81,0.53,-1.5854,0.28
30,97,0.1,78.56062,81.891975,0.83,0.58,-3.331355,0.25
31,97,0.1,80.55922,81.73141,0.76,0.59,-1.17219,0.17
32,97,0.1,81.74903,82.010086,0.81,0.58,-0.261056,0.23
33,97,0.1,83.78817,82.04414,0.88,0.61,1.74403,0.27
34,97,0.1,84.69012,79.758286,0.67,0.58,4.931834,0.09
35,97,0.1,81.14607,80.37345,0.84,0.48,0.77262,0.36
36,97,0.1,81.78701,81.36658,0.91,0.52,0.42043,0.39
37,97,0.1,82.61695,81.6941,0.66,0.51,0.92285,0.15
38,97,0.1,82.18276,79.65787,0.77,0.48,2.52489,0.29
39,97,0.1,82.272484,80.92477,0.73,0.49,1.347714,0.24
40,97,0.1,85.234604,78.417755,0.83,0.47,6.816849,0.36
41,97,0.1,83.1232,81.55939,0.76,0.43,1.56381,0.33
42,97,0.1,80.09302,80.23308,0.69,0.44,-0.14006,0.25
43,97,0.1,85.86757,81.20805,0.6,0.44,4.65952,0.16
44,97,0.1,80.85862,82.0044,0.69,0.4,-1.14578,0.29
45,97,0.1,85.070435,78.48032,0.57,0.45,6.590115,0.12
46,97,0.1,82.45999,74.65533,0.56,0.41,7.80466,0.15
47,97,0.1,78.96757,80.517914,0.57,0.43,-1.550344,0.14
48,97,0.1,80.46596,80.30779,0.45,0.41,0.15817,0.04
49,97,0.1,84.17031,82.179855,0.42,0.45,1.990455,-0.03
50,97,0.1,82.8663,81.18355,0.59,0.32,1.68275,0.27
51,97,0.1,88.36724,82.28908,0.78,0.34,6.07816,0.44
52,97,0.1,89.87362,83.35218,0.56,0.37,6.52144,0.19
53,97,0.1,89.91148,80.54604,0.39,0.41,9.36544,-0.02
54,97,0.1,86.690704,78.50502,0.33,0.37,8.185684,-0.04
55,97,0.1,89.526276,80.99026,0.49,0.36,8.536016,0.13
56,97,0.1,85.52944,79.60255,0.42,0.36,5.92689,0.06
57,97,0.1,84.28902,81.61596,0.44,0.38,2.67306,0.06
58,97,0.1,80.0344,81.25731,0.46,0.4,-1.22291,0.06
59,97,0.1,79.639275,78.64105,0.5,0.37,0.998225,0.13
60,97,0.1,81.146805,77.70102,0.44,0.41,3.445785,0.03
61,97,0.1,87.22865,79.214005,0.45,0.43,8.014645,0.02
62,97,0.1,84.58749,77.01883,0.39,0.34,7.56866,0.05
63,97,0.1,86.6242,75.306274,0.41,0.35,11.317926,0.06
64,97,0.1,85.781334,74.917206,0.58,0.37,10.864128,0.21
65,97,0.1,82.36864,77.31871,0.42,0.3,5.04993,0.12
66,97,0.1,80.99512,82.12075,0.41,0.41,-1.12563,0
67,97,0.1,84.81485,76.61049,0.38,0.41,8.20436,-0.03
68,97,0.1,84.15421,74.14089,0.41,0.45,10.01332,-0.04
69,97,0.1,80.256226,77.6781,0.37,0.33,2.578126,0.04
70,97,0.1,78.10823,76.57003,0.37,0.4,1.5382,-0.03
71,97,0.1,82.49557,79.70354,0.39,0.44,2.79203,-0.05
72,97,0.1,85.12403,81.32315,0.42,0.37,3.80088,0.05
73,97,0.1,86.42262,79.494774,0.32,0.36,6.927846,-0.04
74,97,0.1,87.15639,78.25236,0.4,0.36,8.90403,0.04
75,97,0.1,81.71024,83.045815,0.34,0.41,-1.335575,-0.07
76,97,0.1,79.46648,77.43611,0.34,0.46,2.03037,-0.12
77,97,0.1,80.330826,80.20524,0.41,0.46,0.125586,-0.05
78,97,0.1,76.97931,81.92712,0.39,0.32,-4.94781,0.07
79,97,0.1,78.029625,77.89607,0.37,0.27,0.133555,0.1
80,97,0.1,81.97745,73.91263,0.33,0.33,8.06482,0
81,97,0.1,82.17176,80.445465,0.35,0.36,1.726295,-0.01
82,97,0.1,79.79945,83.909645,0.34,0.35,-4.110195,-0.01
83,97,0.1,76.47758,83.162125,0.36,0.33,-6.684545,0.03
84,97,0.1,73.87877,73.49795,0.35,0.33,0.38082,0.02
85,97,0.1,71.60008,75.52614,0.32,0.36,-3.92606,-0.04
86,97,0.1,72.47305,78.223625,0.11,0.28,-5.750575,-0.17
87,97,0.1,68.98051,74.927574,0.11,0.25,-5.947064,-0.14
88,97,0.1,71.83423,72.964676,0.11,0.22,-1.130446,-0.11
89,97,0.1,78.33523,74.9031,0.11,0.42,3.43213,-0.31
90,97,0.1,73.06038,78.335785,0.11,0.73,-5.275405,-0.62
91,97,0.1,74.511536,74.13653,0.11,0.32,0.375006,-0.21
92,97,0.1,72.52205,77.40329,0.11,1.11,-4.88124,-1
93,97,0.1,74.930664,73.14877,0.11,0.59,1.781894,-0.48
94,97,0.1,70.54534,72.50418,0.11,0.32,-1.95884,-0.21
95,97,0.1,73.09236,69.926414,0.11,0.48,3.165946,-0.37
96,97,0.1,72.12754,75.03931,0.11,0.47,-2.91177,-0.36
97,97,0.1,72.59526,71.80914,0.11,0.21,0.78612,-0.1
98,97,0.1,74.72008,68.947586,0.11,0.26,5.772494,-0.15
99,97,0.1,74.258705,71.55058,0.11,0.27,2.708125,-0.16
100,97,0.1,75.245476,72.18328,0.11,0.29,3.062196,-0.18
101,97,0.1,73.066505,67.68765,0.11,0.21,5.378855,-0.1
102,97,0.1,73.94719,70.50168,0.11,0.2,3.44551,-0.09
103,97,0.1,70.935486,68.213425,0.11,0.17,2.722061,-0.06
104,97,0.1,71.8865,71.055504,0.11,0.16,0.830996,-0.05
105,97,0.1,73.497025,71.68802,0.11,0.15,1.809005,-0.04
106,97,0.1,72.808945,69.534744,0.11,0.16,3.274201,-0.05
107,97,0.1,72.0635,69.916046,0.11,0.15,2.147454,-0.04
108,97,0.1,68.025085,70.89983,0.11,0.15,-2.874745,-0.04
21,97,0.3,81.08481,77.782,1.2,0.84,3.30281,0.36
22,97,0.3,79.23489,79.95632,1.23,0.81,-0.72143,0.42
23,97,0.3,80.17602,78.86093,1,0.77,1.31509,0.23
24,97,0.3,80.836845,77.94723,0.9,0.74,2.889615,0.16
25,97,0.3,82.0527,78.8836,0.99,0.77,3.1691,0.22
26,97,0.3,78.67181,77.66254,0.9,0.73,1.00927,0.17
27,97,0.3,80.54527,78.31941,0.88,0.72,2.22586,0.16
28,97,0.3,81.487495,79.58585,1.07,0.77,1.901645,0.3
29,97,0.3,80.0159,79.62075,0.93,0.77,0.39515,0.16
30,97,0.3,78.27368,81.7953,1,0.71,-3.52162,0.29
31,97,0.3,79.90999,81.75748,0.93,0.72,-1.84749,0.21
32,97,0.3,81.69293,82.05734,0.92,0.75,-0.36441,0.17
33,97,0.3,83.911606,81.62781,1.06,0.72,2.283796,0.34
34,97,0.3,84.808044,79.66162,0.84,0.73,5.146424,0.11
35,97,0.3,81.94799,80.74641,1.03,0.69,1.20158,0.34
36,97,0.3,81.9789,81.39997,1.02,0.72,0.57893,0.3
37,97,0.3,82.5773,82.23763,0.76,0.67,0.33967,0.09
38,97,0.3,82.31264,79.651764,0.88,0.64,2.660876,0.24
39,97,0.3,82.40335,80.93057,0.91,0.64,1.47278,0.27
40,97,0.3,85.316696,78.6694,0.94,0.62,6.647296,0.32
41,97,0.3,83.34714,81.35043,0.87,0.62,1.99671,0.25
42,97,0.3,80.16359,80.46424,0.7,0.57,-0.30065,0.13
43,97,0.3,85.924866,81.333275,0.82,0.58,4.591591,0.24
44,97,0.3,81.10883,82.50425,0.66,0.57,-1.39542,0.09
45,97,0.3,85.07834,78.57413,0.75,0.58,6.50421,0.17
46,97,0.3,82.287895,75.22334,0.72,0.58,7.064555,0.14
47,97,0.3,80.43082,80.49983,0.76,0.6,-0.06901,0.16
48,97,0.3,80.295425,80.09058,0.61,0.6,0.204845,0.01
49,97,0.3,84.22336,82.33304,0.57,0.63,1.89032,-0.06
50,97,0.3,82.94555,80.71153,0.66,0.49,2.23402,0.17
51,97,0.3,88.25566,82.83103,0.96,0.51,5.42463,0.45
52,97,0.3,89.799736,83.14954,0.78,0.49,6.650196,0.29
53,97,0.3,89.93052,80.25849,0.76,0.57,9.67203,0.19
54,97,0.3,86.928925,78.06531,0.55,0.56,8.863615,-0.01
55,97,0.3,89.50693,81.10757,0.62,0.52,8.39936,0.1
56,97,0.3,85.56198,80.01834,0.48,0.53,5.54364,-0.05
57,97,0.3,84.09668,81.40678,0.53,0.55,2.6899,-0.02
58,97,0.3,80.23825,81.18683,0.66,0.57,-0.94858,0.09
59,97,0.3,79.48794,78.32909,0.69,0.59,1.15885,0.1
60,97,0.3,81.16928,77.63803,0.55,0.55,3.53125,0
61,97,0.3,87.12487,79.18291,0.65,0.54,7.94196,0.11
62,97,0.3,85.02212,76.990295,0.56,0.48,8.031825,0.08
63,97,0.3,86.75974,75.715,0.9,0.47,11.04474,0.43
64,97,0.3,85.8569,74.718956,0.82,0.49,11.137944,0.33
65,97,0.3,82.326385,74.39497,0.59,0.5,7.931415,0.09
66,97,0.3,80.572014,82.15533,0.55,0.54,-1.583316,0.01
67,97,0.3,84.929,76.54454,0.55,0.49,8.38446,0.06
68,97,0.3,84.196976,74.11414,0.59,0.42,10.082836,0.17
69,97,0.3,80.05052,77.853134,0.53,0.5,2.197386,0.03
70,97,0.3,77.33229,76.641846,0.53,0.47,0.690444,0.06
71,97,0.3,82.935684,79.13385,0.54,0.42,3.801834,0.12
72,97,0.3,85.10886,77.480446,0.58,0.5,7.628414,0.08
73,97,0.3,86.23619,79.101074,0.5,0.49,7.135116,0.01
74,97,0.3,87.06442,78.045425,0.56,0.51,9.018995,0.05
75,97,0.3,82.1511,82.96043,0.52,0.57,-0.80933,-0.05
76,97,0.3,79.54021,77.479416,0.55,0.53,2.060794,0.02
77,97,0.3,79.97791,80.43567,0.57,0.47,-0.45776,0.1
78,97,0.3,77.110794,81.87569,0.53,0.44,-4.764896,0.09
79,97,0.3,78.11985,78.24751,0.49,0.37,-0.12766,0.12
80,97,0.3,82.16669,73.95999,0.47,0.46,8.2067,0.01
81,97,0.3,82.04992,80.69702,0.52,0.56,1.3529,-0.04
82,97,0.3,80.40134,83.84202,0.45,0.48,-3.44068,-0.03
83,97,0.3,76.483154,82.970215,0.46,0.37,-6.487061,0.09
84,97,0.3,73.7237,73.37252,0.48,0.49,0.35118,-0.01
85,97,0.3,71.84804,75.57007,0.46,0.52,-3.72203,-0.06
86,97,0.3,72.0031,78.20384,0.11,0.4,-6.20074,-0.29
87,97,0.3,68.85469,75.022964,0.11,0.34,-6.168274,-0.23
88,97,0.3,71.63457,73.35271,0.11,0.37,-1.71814,-0.26
89,97,0.3,78.50764,74.46806,0.11,0.35,4.03958,-0.24
90,97,0.3,73.28077,80.14869,0.11,0.75,-6.86792,-0.64
91,97,0.3,74.889694,73.99243,0.11,0.32,0.897264,-0.21
92,97,0.3,72.60063,77.7658,0.11,0.81,-5.16517,-0.7
93,97,0.3,75.038124,72.47363,0.11,0.59,2.564494,-0.48
94,97,0.3,70.79581,72.35999,0.11,0.32,-1.56418,-0.21
95,97,0.3,72.997635,70.02931,0.11,0.49,2.968325,-0.38
96,97,0.3,72.12599,76.392944,0.11,0.47,-4.266954,-0.36
97,97,0.3,72.843475,72.177376,0.11,0.22,0.666099,-0.11
98,97,0.3,74.932335,69.39781,0.11,0.26,5.534525,-0.15
99,97,0.3,74.19397,72.08759,0.11,0.28,2.10638,-0.17
100,97,0.3,75.08353,72.857346,0.11,0.29,2.226184,-0.18
101,97,0.3,69.97777,68.05008,0.11,0.21,1.92769,-0.1
102,97,0.3,73.63638,70.7284,0.11,0.19,2.90798,-0.08
103,97,0.3,70.713684,69.40758,0.11,0.17,1.306104,-0.06
104,97,0.3,72.04713,71.01673,0.11,0.16,1.0304,-0.05
105,97,0.3,73.65228,71.97168,0.11,0.15,1.6806,-0.04
106,97,0.3,72.885254,70.285736,0.11,0.15,2.599518,-0.04
107,97,0.3,71.87276,70.58823,0.11,0.15,1.28453,-0.04
108,97,0.3,68.04474,70.55335,0.11,0.15,-2.50861,-0.04
21,97,0.7,80.57111,76.725204,1.5,1.14,3.845906,0.36
22,97,0.7,79.49644,80.40934,1.5,1.14,-0.9129,0.36
23,97,0.7,78.99247,78.519455,1.3,1.14,0.473015,0.16
24,97,0.7,80.79027,77.720215,1.17,1.09,3.070055,0.08
25,97,0.7,82.010475,78.89574,1.41,1.09,3.114735,0.32
26,97,0.7,78.68303,77.34485,1.32,1.07,1.33818,0.25
27,97,0.7,80.22146,78.376015,1.2,1.14,1.845445,0.06
28,97,0.7,81.69705,79.22991,1.32,1.11,2.46714,0.21
29,97,0.7,80.09372,79.54981,1.31,1.14,0.54391,0.17
30,97,0.7,78.381546,81.89235,1.34,1.08,-3.510804,0.26
31,97,0.7,80.29626,81.550255,1.21,1.05,-1.253995,0.16
32,97,0.7,81.49015,81.6367,1.14,1.09,-0.14655,0.05
33,97,0.7,83.53817,81.89362,1.21,1.01,1.64455,0.2
34,97,0.7,84.86636,79.52974,1.21,1.03,5.33662,0.18
35,97,0.7,81.708084,80.182045,1.34,1,1.526039,0.34
36,97,0.7,81.81431,81.32651,1.26,1.02,0.4878,0.24
37,97,0.7,82.61998,82.05319,1.16,0.97,0.56679,0.19
38,97,0.7,82.23042,79.83488,1.22,0.95,2.39554,0.27
39,97,0.7,82.16442,80.81782,1.21,1.01,1.3466,0.2
40,97,0.7,85.14192,78.50244,1.2,0.92,6.63948,0.28
41,97,0.7,83.37695,81.17012,1.2,0.91,2.20683,0.29
42,97,0.7,80.05269,80.66157,1.19,0.88,-0.60888,0.31
43,97,0.7,85.925674,81.531425,1.18,0.89,4.394249,0.29
44,97,0.7,81.26365,82.48909,0.97,0.9,-1.22544,0.07
45,97,0.7,85.24459,78.888916,1.09,0.93,6.355674,0.16
46,97,0.7,82.31978,75.14745,0.98,0.91,7.17233,0.07
47,97,0.7,80.31418,80.42671,0.96,0.91,-0.11253,0.05
48,97,0.7,80.05633,80.29342,0.95,0.94,-0.23709,0.01
49,97,0.7,84.24239,82.184845,0.9,0.91,2.057545,-0.01
50,97,0.7,82.99966,81.07931,0.92,0.84,1.92035,0.08
51,97,0.7,88.33348,82.272606,1.27,0.83,6.060874,0.44
52,97,0.7,89.95815,83.04289,1.1,0.82,6.91526,0.28
53,97,0.7,89.99514,80.32235,0.95,0.83,9.67279,0.12
54,97,0.7,86.9931,78.12189,0.9,0.86,8.87121,0.04
55,97,0.7,89.512695,81.071976,1.05,0.9,8.440719,0.15
56,97,0.7,85.61148,81.27443,0.85,0.83,4.33705,0.02
57,97,0.7,84.146385,81.86667,0.91,0.82,2.279715,0.09
58,97,0.7,80.33816,81.253204,0.89,0.9,-0.915044,-0.01
59,97,0.7,79.42365,78.46442,1,0.84,0.95923,0.16
60,97,0.7,81.153145,77.777115,0.93,0.75,3.37603,0.18
61,97,0.7,87.32063,79.16954,1,0.79,8.15109,0.21
62,97,0.7,84.743774,76.921875,0.92,0.83,7.821899,0.09
63,97,0.7,87.09542,75.89571,1.12,0.79,11.19971,0.33
64,97,0.7,85.66893,74.932724,0.95,0.83,10.736206,0.12
65,97,0.7,82.39806,74.65808,0.96,0.77,7.73998,0.19
66,97,0.7,80.66228,82.24447,0.9,0.79,-1.58219,0.11
67,97,0.7,84.942,76.86863,0.91,0.84,8.07337,0.07
68,97,0.7,84.11542,73.72843,0.92,0.76,10.38699,0.16
69,97,0.7,79.72162,77.83088,0.85,0.85,1.89074,0
70,97,0.7,77.70232,76.56378,0.89,0.77,1.13854,0.12
71,97,0.7,82.96754,79.6079,0.88,0.8,3.35964,0.08
72,97,0.7,85.064674,78.56895,0.88,0.79,6.495724,0.09
73,97,0.7,86.206085,79.14123,0.84,0.88,7.064855,-0.04
74,97,0.7,87.297134,78.165886,0.9,0.83,9.131248,0.07
75,97,0.7,82.06879,82.77772,0.86,0.85,-0.70893,0.01
76,97,0.7,79.3466,77.58339,0.93,0.84,1.76321,0.09
77,97,0.7,80.17813,80.63011,0.94,0.87,-0.45198,0.07
78,97,0.7,76.63057,81.841354,0.86,0.82,-5.210784,0.04
79,97,0.7,77.998146,77.97166,0.92,0.76,0.026486,0.16
80,97,0.7,82.134735,73.99913,0.9,0.87,8.135605,0.03
81,97,0.7,81.92884,80.72945,0.9,0.79,1.19939,0.11
82,97,0.7,80.24595,83.91637,0.47,0.81,-3.67042,-0.34
83,97,0.7,76.56619,82.90065,0.75,0.9,-6.33446,-0.15
84,97,0.7,73.514084,73.401215,0.55,0.66,0.112869,-0.11
85,97,0.7,71.59487,75.574875,0.11,0.76,-3.980005,-0.65
86,97,0.7,71.85006,78.25529,0.11,0.62,-6.40523,-0.51
87,97,0.7,68.98169,74.938774,0.11,0.34,-5.957084,-0.23
88,97,0.7,73.1244,72.88145,0.11,0.57,0.24295,-0.46
89,97,0.7,78.56177,74.58867,0.11,0.35,3.9731,-0.24
90,97,0.7,72.85344,78.60753,0.11,0.73,-5.75409,-0.62
91,97,0.7,74.502945,74.44532,0.11,0.31,0.057625,-0.2
92,97,0.7,72.39195,77.54281,0.11,0.75,-5.15086,-0.64
93,97,0.7,74.75377,73.13932,0.11,0.59,1.61445,-0.48
94,97,0.7,69.940926,72.881454,0.11,0.32,-2.940528,-0.21
95,97,0.7,71.59055,72.840675,0.11,0.49,-1.250125,-0.38
96,97,0.7,73.01046,75.00307,0.11,0.47,-1.99261,-0.36
97,97,0.7,72.93059,72.16101,0.11,0.22,0.76958,-0.11
98,97,0.7,74.96391,69.337,0.11,0.27,5.62691,-0.16
99,97,0.7,74.245346,71.23584,0.11,0.27,3.009506,-0.16
100,97,0.7,74.65507,72.31116,0.11,0.3,2.34391,-0.19
101,97,0.7,70.45807,67.61455,0.11,0.21,2.84352,-0.1
102,97,0.7,73.71183,70.21268,0.11,0.19,3.49915,-0.08
103,97,0.7,71.10709,69.42438,0.11,0.17,1.68271,-0.06
104,97,0.7,71.88623,70.067566,0.11,0.16,1.818664,-0.05
105,97,0.7,73.813095,71.820915,0.11,0.15,1.99218,-0.04
106,97,0.7,72.86633,69.75023,0.11,0.15,3.1161,-0.04
107,97,0.7,68.421005,70.594406,0.11,0.16,-2.173401,-0.05
108,97,0.7,68.18648,70.36775,0.11,0.15,-2.18127,-0.04
21,97,1,80.49556,77.54779,1.5,1.39,2.94777,0.11
22,97,1,79.76422,80.27084,1.5,1.39,-0.50662,0.11
23,97,1,78.86441,78.70352,1.5,1.38,0.16089,0.12
24,97,1,80.58458,78.04837,1.5,1.38,2.53621,0.12
25,97,1,81.867424,78.92519,1.5,1.38,2.942234,0.12
26,97,1,78.47455,77.097916,1.5,1.37,1.376634,0.13
27,97,1,80.40557,78.12175,1.5,1.35,2.28382,0.15
28,97,1,81.67361,79.26196,1.5,1.33,2.41165,0.17
29,97,1,80.33787,79.80035,1.5,1.36,0.53752,0.14
30,97,1,78.50655,81.860016,1.5,1.3,-3.353466,0.2
31,97,1,79.94272,81.89245,1.46,1.28,-1.94973,0.18
32,97,1,81.757355,81.703926,1.46,1.33,0.053429,0.13
33,97,1,83.77504,81.72871,1.42,1.3,2.04633,0.12
34,97,1,84.55685,79.497055,1.5,1.28,5.059795,0.22
35,97,1,81.73721,80.26822,1.5,1.27,1.46899,0.23
36,97,1,81.74393,81.15674,1.5,1.28,0.58719,0.22
37,97,1,82.614876,82.231514,1.42,1.2,0.383362,0.22
38,97,1,82.44917,79.42739,1.45,1.22,3.02178,0.23
39,97,1,82.34411,81.5897,1.43,1.28,0.75441,0.15
40,97,1,85.19034,79.67671,1.45,1.2,5.51363,0.25
41,97,1,83.38273,81.31537,1.48,1.16,2.06736,0.32
42,97,1,80.50065,80.55836,1.35,1.18,-0.05771,0.17
43,97,1,85.71218,81.378876,1.37,1.17,4.333304,0.2
44,97,1,81.1573,82.534645,1.27,1.18,-1.377345,0.09
45,97,1,84.97872,78.972984,1.27,1.2,6.005736,0.07
46,97,1,82.318275,77.33092,1.23,1.2,4.987355,0.03
47,97,1,80.24002,81.239365,1.26,1.17,-0.999345,0.09
48,97,1,80.26903,80.25355,1.17,1.2,0.01548,-0.03
49,97,1,83.868195,82.14246,1.16,1.11,1.725735,0.05
50,97,1,83.0006,80.92467,1.16,1.11,2.07593,0.05
51,97,1,88.21572,82.23155,1.5,1.11,5.98417,0.39
52,97,1,89.80737,83.16402,1.4,1.09,6.64335,0.31
53,97,1,89.92954,80.13833,1.23,1.05,9.79121,0.18
54,97,1,86.863235,77.66527,1.2,1.06,9.197965,0.14
55,97,1,89.472336,81.05754,1.3,1.16,8.414796,0.14
56,97,1,85.47275,78.93543,1.14,1.11,6.53732,0.03
57,97,1,84.270706,82.9209,1.19,1.11,1.349806,0.08
58,97,1,80.35192,83.43752,1.19,1.1,-3.0856,0.09
59,97,1,79.30759,78.5502,1.24,1.07,0.75739,0.17
60,97,1,80.79466,77.93851,1.19,1.06,2.85615,0.13
61,97,1,87.319595,79.28218,1.27,1.06,8.037415,0.21
62,97,1,84.84213,76.36076,1.21,1.09,8.48137,0.12
63,97,1,87.07619,75.732895,1.22,1.04,11.343295,0.18
64,97,1,85.690475,74.70865,1.17,1.12,10.981825,0.05
65,97,1,82.57659,75.93967,1.14,1.04,6.63692,0.1
66,97,1,81.132935,82.136345,1.18,1.05,-1.00341,0.13
67,97,1,84.97974,76.51756,1.21,1.12,8.46218,0.09
68,97,1,84.21897,74.7809,1.22,1.04,9.43807,0.18
69,97,1,79.88607,77.86992,1.15,1.13,2.01615,0.02
70,97,1,77.7794,76.41755,1.2,1.09,1.36185,0.11
71,97,1,83.18904,83.7184,1.2,1.08,-0.52936,0.12
72,97,1,84.79327,78.71361,1.17,1.06,6.07966,0.11
73,97,1,86.09064,80.65367,0.53,1.1,5.43697,-0.57
74,97,1,87.07211,79.18979,1.19,1.05,7.88232,0.14
75,97,1,81.93667,86.913795,0.99,0.83,-4.977125,0.16
76,97,1,79.361565,78.237015,1.16,1.09,1.12455,0.07
77,97,1,80.238434,82.015594,1.18,1.18,-1.77716,0
78,97,1,76.827225,81.713974,1.15,1.06,-4.886749,0.09
79,97,1,77.70061,79.03639,1.18,1.06,-1.33578,0.12
80,97,1,81.74128,75.92652,1.15,1.04,5.81476,0.11
81,97,1,81.953255,81.12366,1.16,1.03,0.829595,0.13
82,97,1,80.08132,83.75481,0.47,1.09,-3.67349,-0.62
83,97,1,76.65954,83.05183,0.75,1.12,-6.39229,-0.37
84,97,1,73.66451,75.71369,0.55,0.66,-2.04918,-0.11
85,97,1,71.83527,77.523384,0.11,0.92,-5.688114,-0.81
86,97,1,72.1969,78.272064,0.11,0.62,-6.075164,-0.51
87,97,1,69.06056,74.76105,0.11,0.34,-5.70049,-0.23
88,97,1,73.353676,78.21489,0.11,0.57,-4.861214,-0.46
89,97,1,77.71678,74.59819,0.11,0.35,3.11859,-0.24
90,97,1,72.814514,78.677315,0.11,0.74,-5.862801,-0.63
91,97,1,73.7437,75.15385,0.11,0.31,-1.41015,-0.2
92,97,1,72.62409,76.560974,0.11,0.69,-3.936884,-0.58
93,97,1,74.992966,74.41071,0.11,0.59,0.582256,-0.48
94,97,1,70.6261,74.08524,0.11,0.32,-3.45914,-0.21
95,97,1,71.92631,71.03057,0.11,0.49,0.89574,-0.38
96,97,1,72.54701,77.670235,0.11,0.47,-5.123225,-0.36
97,97,1,70.887245,74.41922,0.11,0.21,-3.531975,-0.1
98,97,1,75.11054,71.80647,0.11,0.26,3.30407,-0.15
99,97,1,73.53899,74.376724,0.11,0.27,-0.837734,-0.16
100,97,1,74.9802,74.456665,0.11,0.3,0.523535,-0.19
101,97,1,71.80558,70.452934,0.11,0.21,1.352646,-0.1
102,97,1,73.95039,70.44581,0.11,0.19,3.50458,-0.08
103,97,1,71.26254,69.11048,0.11,0.17,2.15206,-0.06
104,97,1,71.805725,71.62391,0.11,0.16,0.181815,-0.05
105,97,1,72.96008,73.17235,0.11,0.22,-0.21227,-0.11
106,97,1,72.49616,71.39145,0.11,0.16,1.10471,-0.05
107,97,1,70.872284,73.25383,0.11,0.16,-2.381546,-0.05
108,97,1,67.48721,70.62894,0.11,0.15,-3.14173,-0.04
21,105,0.1,80.476974,77.42763,1.19,0.64,3.049344,0.55
22,105,0.1,79.72323,78.535255,1.15,0.64,1.187975,0.51
23,105,0.1,78.744484,79.29617,0.91,0.63,-0.551686,0.28
24,105,0.1,80.27564,77.60975,0.75,0.55,2.66589,0.2
25,105,0.1,80.7616,78.27622,0.79,0.61,2.48538,0.18
26,105,0.1,79.07409,77.854355,0.71,0.56,1.219735,0.15
27,105,0.1,80.51772,79.718155,0.76,0.59,0.799565,0.17
28,105,0.1,81.197624,80.08407,0.93,0.58,1.113554,0.35
29,105,0.1,77.728775,79.30849,0.79,0.57,-1.579715,0.22
30,105,0.1,78.47495,82.34009,0.75,0.58,-3.86514,0.17
31,105,0.1,80.86353,78.794464,0.77,0.63,2.069066,0.14
32,105,0.1,81.23564,82.64468,0.76,0.6,-1.40904,0.16
33,105,0.1,83.607155,82.38112,0.88,0.65,1.226035,0.23
34,105,0.1,84.77981,80.29693,0.64,0.6,4.48288,0.04
35,105,0.1,82.07906,81.37744,0.89,0.52,0.70162,0.37
36,105,0.1,81.584595,82.090675,0.88,0.55,-0.50608,0.33
37,105,0.1,82.482376,82.76633,0.68,0.54,-0.283954,0.14
38,105,0.1,82.34906,80.816025,0.78,0.48,1.533035,0.3
39,105,0.1,82.100204,79.21814,0.81,0.52,2.882064,0.29
40,105,0.1,85.26473,79.637764,0.85,0.5,5.626966,0.35
41,105,0.1,83.18745,81.95885,0.76,0.48,1.2286,0.28
42,105,0.1,80.021645,81.3524,0.65,0.45,-1.330755,0.2
43,105,0.1,85.85963,82.43985,0.63,0.47,3.41978,0.16
44,105,0.1,80.90071,82.62519,0.67,0.42,-1.72448,0.25
45,105,0.1,84.8805,78.91134,0.57,0.47,5.96916,0.1
46,105,0.1,82.30795,76.431725,0.56,0.42,5.876225,0.14
47,105,0.1,79.86757,81.97345,0.59,0.46,-2.10588,0.13
48,105,0.1,80.197014,80.871605,0.45,0.43,-0.674591,0.02
49,105,0.1,84.25849,83.404045,0.45,0.5,0.854445,-0.05
50,105,0.1,82.96406,81.65593,0.58,0.35,1.30813,0.23
51,105,0.1,88.282364,83.89616,0.78,0.36,4.386204,0.42
52,105,0.1,89.841835,84.125496,0.35,0.38,5.716339,-0.03
53,105,0.1,89.965744,81.92663,0.4,0.42,8.039114,-0.02
54,105,0.1,86.816986,78.40435,0.33,0.37,8.412636,-0.04
55,105,0.1,89.47762,82.21059,0.49,0.4,7.26703,0.09
56,105,0.1,85.566345,80.42526,0.43,0.37,5.141085,0.06
57,105,0.1,84.09602,82.88598,0.44,0.39,1.21004,0.05
58,105,0.1,80.28534,83.0095,0.45,0.42,-2.72416,0.03
59,105,0.1,79.63115,79.282814,0.51,0.49,0.348336,0.02
60,105,0.1,81.085915,78.68718,0.44,0.47,2.398735,-0.03
61,105,0.1,87.30763,80.57711,0.46,0.46,6.73052,0
62,105,0.1,84.25593,77.44409,0.44,0.34,6.81184,0.1
63,105,0.1,86.965065,76.920204,0.42,0.37,10.044861,0.05
64,105,0.1,85.82224,76.149704,0.57,0.37,9.672536,0.2
65,105,0.1,82.24913,78.02136,0.42,0.36,4.22777,0.06
66,105,0.1,80.69616,83.12346,0.41,0.43,-2.4273,-0.02
67,105,0.1,84.72354,78.40393,0.38,0.43,6.31961,-0.05
68,105,0.1,84.13347,75.068985,0.41,0.46,9.064485,-0.05
69,105,0.1,80.18274,79.413574,0.37,0.33,0.769166,0.04
70,105,0.1,78.24762,77.04186,0.37,0.41,1.20576,-0.04
71,105,0.1,83.15134,80.56487,0.39,0.44,2.58647,-0.05
72,105,0.1,84.8881,79.99297,0.42,0.37,4.89513,0.05
73,105,0.1,86.379295,80.62966,0.33,0.36,5.749635,-0.03
74,105,0.1,87.18227,78.90309,0.4,0.37,8.27918,0.03
75,105,0.1,83.21971,83.153625,0.35,0.41,0.066085,-0.06
76,105,0.1,79.19573,78.37343,0.34,0.49,0.8223,-0.15
77,105,0.1,79.99544,82.310844,0.41,0.46,-2.315404,-0.05
78,105,0.1,76.90966,83.81211,0.38,0.35,-6.90245,0.03
79,105,0.1,77.847824,81.58663,0.37,0.39,-3.738806,-0.02
80,105,0.1,81.9861,75.687386,0.33,0.34,6.298714,-0.01
81,105,0.1,81.91519,82.02045,0.35,0.36,-0.10526,-0.01
82,105,0.1,80.21881,85.23609,0.35,0.35,-5.01728,0
83,105,0.1,76.502426,83.83499,0.37,0.33,-7.332564,0.04
84,105,0.1,73.13577,75.57169,0.35,0.34,-2.43592,0.01
85,105,0.1,74.51056,77.607254,0.31,0.36,-3.096694,-0.05
86,105,0.1,71.754845,78.94125,0.11,0.28,-7.186405,-0.17
87,105,0.1,72.79215,76.76567,0.36,0.26,-3.97352,0.1
88,105,0.1,72.84219,76.62106,0.11,0.23,-3.77887,-0.12
89,105,0.1,78.635345,76.03009,0.11,0.43,2.605255,-0.32
90,105,0.1,73.11665,79.21736,0.11,0.74,-6.10071,-0.63
91,105,0.1,73.91695,75.09006,0.11,0.32,-1.17311,-0.21
92,105,0.1,73.04896,78.76186,0.11,0.75,-5.7129,-0.64
93,105,0.1,74.82622,74.48926,0.11,0.59,0.33696,-0.48
94,105,0.1,70.76072,74.51323,0.11,0.33,-3.75251,-0.22
95,105,0.1,73.10408,71.579796,0.11,0.5,1.524284,-0.39
96,105,0.1,73.202385,76.42285,0.11,0.47,-3.220465,-0.36
97,105,0.1,73.65181,74.5233,0.11,0.22,-0.87149,-0.11
98,105,0.1,74.61498,71.74028,0.11,0.28,2.8747,-0.17
99,105,0.1,72.837555,74.38814,0.11,0.28,-1.550585,-0.17
100,105,0.1,75.75667,73.82854,0.11,0.3,1.92813,-0.19
101,105,0.1,74.17161,70.418465,0.11,0.21,3.753145,-0.1
102,105,0.1,73.50009,71.014786,0.11,0.21,2.485304,-0.1
103,105,0.1,71.621925,71.42239,0.11,0.25,0.199535,-0.14
104,105,0.1,71.82997,72.44176,0.11,0.16,-0.61179,-0.05
105,105,0.1,71.562614,73.56918,0.11,0.21,-2.006566,-0.1
106,105,0.1,72.76542,71.93635,0.11,0.16,0.82907,-0.05
107,105,0.1,72.602455,74.49404,0.11,0.16,-1.891585,-0.05
108,105,0.1,67.95482,70.87714,0.11,0.15,-2.92232,-0.04
21,105,0.3,80.28146,78.25111,1.34,0.85,2.03035,0.49
22,105,0.3,78.9603,80.79582,1.26,0.79,-1.83552,0.47
23,105,0.3,80.31595,78.71928,1,0.8,1.59667,0.2
24,105,0.3,80.57297,78.141525,0.89,0.77,2.431445,0.12
25,105,0.3,81.91429,78.24623,1.05,0.8,3.66806,0.25
26,105,0.3,79.094124,77.86699,0.9,0.78,1.227134,0.12
27,105,0.3,80.31455,78.58825,0.93,0.8,1.7263,0.13
28,105,0.3,81.58943,80.02206,1.02,0.78,1.56737,0.24
29,105,0.3,79.779495,79.572205,0.97,0.78,0.20729,0.19
30,105,0.3,78.160774,82.4931,1,0.73,-4.332326,0.27
31,105,0.3,79.8401,80.81796,0.91,0.75,-0.97786,0.16
32,105,0.3,81.5123,82.35974,0.87,0.77,-0.84744,0.1
33,105,0.3,83.85429,82.57175,1.03,0.74,1.28254,0.29
34,105,0.3,84.895424,80.161354,0.79,0.75,4.73407,0.04
35,105,0.3,81.8345,81.33381,1.04,0.71,0.50069,0.33
36,105,0.3,81.713684,82.0701,1.02,0.72,-0.356416,0.3
37,105,0.3,82.474815,82.74821,0.85,0.67,-0.273395,0.18
38,105,0.3,82.71125,80.571335,0.89,0.64,2.139915,0.25
39,105,0.3,82.145004,79.73273,0.86,0.67,2.412274,0.19
40,105,0.3,85.30785,81.69593,0.89,0.64,3.61192,0.25
41,105,0.3,83.2388,82.31751,0.86,0.64,0.92129,0.22
42,105,0.3,80.06425,80.97945,0.86,0.59,-0.9152,0.27
43,105,0.3,85.88564,82.32619,0.83,0.59,3.55945,0.24
44,105,0.3,80.98272,83.40199,0.66,0.58,-2.41927,0.08
45,105,0.3,85.12406,79.21067,0.76,0.61,5.91339,0.15
46,105,0.3,82.14932,76.8182,0.71,0.6,5.33112,0.11
47,105,0.3,80.38862,82.01498,0.75,0.64,-1.62636,0.11
48,105,0.3,80.19528,81.12636,0.6,0.65,-0.93108,-0.05
49,105,0.3,84.13684,83.49751,0.59,0.68,0.63933,-0.09
50,105,0.3,82.99238,81.45202,0.66,0.51,1.54036,0.15
51,105,0.3,88.22317,83.643875,0.97,0.53,4.579295,0.44
52,105,0.3,89.85892,84.25001,0.77,0.52,5.60891,0.25
53,105,0.3,89.91723,82.001945,0.78,0.59,7.915285,0.19
54,105,0.3,86.65634,78.59682,0.56,0.57,8.05952,-0.01
55,105,0.3,89.48795,82.12012,0.63,0.53,7.36783,0.1
56,105,0.3,85.54913,80.499306,0.48,0.56,5.049824,-0.08
57,105,0.3,83.96022,82.78233,0.53,0.57,1.17789,-0.04
58,105,0.3,80.226555,82.588455,0.69,0.61,-2.3619,0.08
59,105,0.3,79.464676,79.58444,0.69,0.6,-0.119764,0.09
60,105,0.3,80.96369,78.70554,0.56,0.58,2.25815,-0.02
61,105,0.3,87.29834,80.554115,0.65,0.57,6.744225,0.08
62,105,0.3,84.736336,77.567276,0.57,0.49,7.16906,0.08
63,105,0.3,87.170265,77.22282,0.88,0.51,9.947445,0.37
64,105,0.3,85.388435,76.16185,0.82,0.49,9.226585,0.33
65,105,0.3,82.3369,77.4487,0.58,0.51,4.8882,0.07
66,105,0.3,81.05136,83.3129,0.56,0.55,-2.26154,0.01
67,105,0.3,84.72626,78.38542,0.56,0.55,6.34084,0.01
68,105,0.3,84.088066,74.951996,0.58,0.44,9.13607,0.14
69,105,0.3,79.68559,79.34153,0.53,0.5,0.34406,0.03
70,105,0.3,77.53509,77.259476,0.53,0.47,0.275614,0.06
71,105,0.3,82.77818,80.949165,0.54,0.61,1.829015,-0.07
72,105,0.3,84.82046,79.91209,0.58,0.51,4.90837,0.07
73,105,0.3,86.34137,80.445404,0.5,0.53,5.895966,-0.03
74,105,0.3,87.17761,79.28537,0.55,0.52,7.89224,0.03
75,105,0.3,83.22681,84.0014,0.52,0.58,-0.77459,-0.06
76,105,0.3,79.20122,78.40138,0.54,0.55,0.79984,-0.01
77,105,0.3,80.13607,82.04065,0.57,0.53,-1.90458,0.04
78,105,0.3,76.437935,83.773346,0.53,0.44,-7.335411,0.09
79,105,0.3,77.613625,83.26007,0.5,0.51,-5.646445,-0.01
80,105,0.3,81.64329,75.658806,0.48,0.47,5.984484,0.01
81,105,0.3,81.61572,81.641815,0.52,0.57,-0.026095,-0.05
82,105,0.3,80.294785,85.11244,0.45,0.42,-4.817655,0.03
83,105,0.3,76.62975,83.92107,0.47,0.39,-7.29132,0.08
84,105,0.3,73.47995,75.68621,0.47,0.5,-2.20626,-0.03
85,105,0.3,74.513275,77.729416,0.46,0.53,-3.216141,-0.07
86,105,0.3,72.2435,78.97044,0.11,0.41,-6.72694,-0.3
87,105,0.3,72.52054,77.00114,0.47,0.38,-4.4806,0.09
88,105,0.3,72.702156,71.127914,0.11,0.41,1.574242,-0.3
89,105,0.3,78.36122,76.40994,0.11,0.39,1.95128,-0.28
90,105,0.3,72.97807,79.76111,0.11,0.75,-6.78304,-0.64
91,105,0.3,73.79344,75.054565,0.11,0.32,-1.261125,-0.21
92,105,0.3,72.8914,79.10462,0.11,0.89,-6.21322,-0.78
93,105,0.3,74.39931,73.941414,0.11,0.59,0.457896,-0.48
94,105,0.3,70.52058,74.07239,0.11,0.33,-3.55181,-0.22
95,105,0.3,73.40701,73.21516,0.11,0.22,0.19185,-0.11
96,105,0.3,73.0354,76.07306,0.11,0.47,-3.03766,-0.36
97,105,0.3,73.95148,74.05054,0.11,0.23,-0.09906,-0.12
98,105,0.3,75.18338,72.10142,0.11,0.34,3.08196,-0.23
99,105,0.3,73.22412,74.38945,0.11,0.28,-1.16533,-0.17
100,105,0.3,76.13896,74.27737,0.11,0.31,1.86159,-0.2
101,105,0.3,74.15703,69.740524,0.11,0.21,4.416506,-0.1
102,105,0.3,73.3275,71.22134,0.11,0.2,2.10616,-0.09
103,105,0.3,71.24992,70.82289,0.11,0.25,0.42703,-0.14
104,105,0.3,71.9211,72.024284,0.11,0.18,-0.103184,-0.07
105,105,0.3,72.42353,72.91223,0.11,0.18,-0.4887,-0.07
106,105,0.3,72.85965,72.13434,0.11,0.16,0.72531,-0.05
107,105,0.3,72.32042,74.305176,0.11,0.16,-1.984756,-0.05
108,105,0.3,68.17529,70.74113,0.11,0.15,-2.56584,-0.04
21,105,0.7,80.5088,78.08722,1.5,1.25,2.42158,0.25
22,105,0.7,78.95946,78.57232,1.5,1.15,0.38714,0.35
23,105,0.7,78.67,79.42287,1.3,1.21,-0.75287,0.09
24,105,0.7,81.11055,78.315994,1.23,1.11,2.794556,0.12
25,105,0.7,81.94223,79.75034,1.38,1.18,2.19189,0.2
26,105,0.7,78.81889,77.863525,1.27,1.14,0.955365,0.13
27,105,0.7,80.33364,79.42038,1.2,1.3,0.91326,-0.1
28,105,0.7,81.588,80.19476,1.34,1.16,1.39324,0.18
29,105,0.7,79.988754,79.4423,1.29,1.16,0.546454,0.13
30,105,0.7,78.24282,82.48742,1.38,1.1,-4.2446,0.28
31,105,0.7,79.574005,81.07547,1.28,1.08,-1.501465,0.2
32,105,0.7,81.45369,82.45059,1.17,1.11,-0.9969,0.06
33,105,0.7,84.10591,82.61594,1.28,1.07,1.48997,0.21
34,105,0.7,84.67192,80.38345,1.23,1.05,4.28847,0.18
35,105,0.7,81.975845,81.51956,1.34,1.03,0.456285,0.31
36,105,0.7,81.93702,82.14525,1.26,1.06,-0.20823,0.2
37,105,0.7,82.63948,82.855286,1.15,0.97,-0.215806,0.18
38,105,0.7,82.36562,80.744354,1.21,0.98,1.621266,0.23
39,105,0.7,82.36623,79.3305,1.23,1.04,3.03573,0.19
40,105,0.7,85.3407,82.12962,1.2,0.96,3.21108,0.24
41,105,0.7,83.1868,82.150734,1.2,0.94,1.036066,0.26
42,105,0.7,80.24695,81.2453,1.22,0.9,-0.99835,0.32
43,105,0.7,85.838135,82.62721,1.11,0.92,3.210925,0.19
44,105,0.7,81.08682,83.725334,0.97,0.91,-2.638514,0.06
45,105,0.7,85.32997,78.98728,1.08,0.95,6.34269,0.13
46,105,0.7,82.486206,76.18498,0.99,0.92,6.301226,0.07
47,105,0.7,80.153015,82.04202,0.96,0.93,-1.889005,0.03
48,105,0.7,80.054756,80.969246,0.94,0.97,-0.91449,-0.03
49,105,0.7,84.10083,83.55677,0.9,0.95,0.54406,-0.05
50,105,0.7,83.033646,81.72619,0.92,0.85,1.307456,0.07
51,105,0.7,88.315605,83.95172,1.27,0.87,4.363885,0.4
52,105,0.7,89.919174,84.179886,1.11,0.84,5.739288,0.27
53,105,0.7,90.02489,81.47652,0.95,0.84,8.54837,0.11
54,105,0.7,86.59831,78.727615,0.89,0.88,7.870695,0.01
55,105,0.7,89.40354,82.0754,0.97,0.91,7.32814,0.06
56,105,0.7,85.71613,81.15214,0.85,0.85,4.56399,0
57,105,0.7,84.265076,82.53942,0.9,0.83,1.725656,0.07
58,105,0.7,80.03012,82.90467,0.89,0.9,-2.87455,-0.01
59,105,0.7,79.576225,79.251976,0.99,0.84,0.324249,0.15
60,105,0.7,80.981834,78.57968,0.93,0.76,2.402154,0.17
61,105,0.7,87.31382,80.35686,1,0.81,6.95696,0.19
62,105,0.7,84.777214,77.43898,0.92,0.84,7.338234,0.08
63,105,0.7,87.10458,76.97731,1.12,0.8,10.12727,0.32
64,105,0.7,85.76169,76.38655,0.96,0.85,9.37514,0.11
65,105,0.7,82.66645,77.66214,0.96,0.78,5.00431,0.18
66,105,0.7,80.740074,82.87609,0.91,0.79,-2.136016,0.12
67,105,0.7,84.85266,78.56644,0.91,0.86,6.28622,0.05
68,105,0.7,83.93216,74.89592,0.92,0.76,9.03624,0.16
69,105,0.7,79.54363,79.54346,0.85,0.87,0.00017,-0.02
70,105,0.7,77.67835,77.42251,0.89,0.76,0.25584,0.13
71,105,0.7,83.20796,80.93093,0.88,0.81,2.27703,0.07
72,105,0.7,85.18478,80.29013,0.88,0.79,4.89465,0.09
73,105,0.7,86.77561,80.73189,0.55,0.89,6.04372,-0.34
74,105,0.7,87.10302,79.01852,0.9,0.84,8.0845,0.06
75,105,0.7,83.24874,84.04522,0.86,0.85,-0.79648,0.01
76,105,0.7,79.521164,78.27827,0.93,0.85,1.242894,0.08
77,105,0.7,80.25426,82.02031,0.94,0.88,-1.76605,0.06
78,105,0.7,76.843796,83.396385,0.86,0.84,-6.552589,0.02
79,105,0.7,77.827354,79.251335,0.91,0.76,-1.423981,0.15
80,105,0.7,81.97945,75.62254,0.9,0.87,6.35691,0.03
81,105,0.7,81.82637,81.792046,0.91,0.8,0.034324,0.11
82,105,0.7,80.29572,85.00561,0.46,0.81,-4.70989,-0.35
83,105,0.7,76.6011,84.06773,0.76,0.9,-7.46663,-0.14
84,105,0.7,73.73944,75.589165,0.54,0.67,-1.849725,-0.13
85,105,0.7,74.392,77.664215,0.72,0.76,-3.272215,-0.04
86,105,0.7,72.01576,79.023315,0.11,0.66,-7.007555,-0.55
87,105,0.7,72.578476,76.9246,0.59,0.38,-4.346124,0.21
88,105,0.7,73.25179,74.03849,0.11,0.58,-0.7867,-0.47
89,105,0.7,78.38022,76.25353,0.11,0.4,2.12669,-0.29
90,105,0.7,73.32644,80.87004,0.11,0.74,-7.5436,-0.63
91,105,0.7,74.51251,75.114006,0.11,0.32,-0.601496,-0.21
92,105,0.7,72.69794,83.62512,0.11,0.72,-10.92718,-0.61
93,105,0.7,75.04767,74.527626,0.11,0.59,0.520044,-0.48
94,105,0.7,70.92786,74.1699,0.11,0.33,-3.24204,-0.22
95,105,0.7,72.09457,71.52291,0.11,0.22,0.57166,-0.11
96,105,0.7,72.7223,77.26677,0.11,0.47,-4.54447,-0.36
97,105,0.7,73.88143,74.25217,0.11,0.22,-0.37074,-0.11
98,105,0.7,74.827835,71.90071,0.11,0.37,2.927125,-0.26
99,105,0.7,73.08208,74.33073,0.11,0.28,-1.24865,-0.17
100,105,0.7,76.18278,73.975555,0.11,0.31,2.207225,-0.2
101,105,0.7,74.439865,70.07727,0.11,0.22,4.362595,-0.11
102,105,0.7,73.86387,70.68022,0.11,0.2,3.18365,-0.09
103,105,0.7,71.30191,70.86969,0.11,0.19,0.43222,-0.08
104,105,0.7,71.78058,72.22616,0.11,0.19,-0.44558,-0.08
105,105,0.7,72.175705,73.95655,0.11,0.16,-1.780845,-0.05
106,105,0.7,73.04158,72.31705,0.11,0.16,0.72453,-0.05
107,105,0.7,72.588196,73.24687,0.11,0.16,-0.658674,-0.05
108,105,0.7,68.062,70.953445,0.11,0.15,-2.891445,-0.04
21,105,1,80.47686,78.524826,1.5,1.5,1.952034,0
22,105,1,79.15766,78.432785,1.5,1.46,0.724875,0.04
23,105,1,79.0984,79.16339,1.5,1.37,-0.06499,0.13
24,105,1,80.65374,78.39314,1.5,1.38,2.2606,0.12
25,105,1,81.97987,79.64263,1.5,1.4,2.33724,0.1
26,105,1,79.27558,78.35452,1.5,1.37,0.92106,0.13
27,105,1,80.45923,78.78745,1.5,1.4,1.67178,0.1
28,105,1,81.572914,80.177795,1.5,1.33,1.395119,0.17
29,105,1,79.96911,79.30021,1.5,1.39,0.6689,0.11
30,105,1,78.41722,82.36293,1.5,1.3,-3.94571,0.2
31,105,1,80.177986,81.35339,1.5,1.3,-1.175404,0.2
32,105,1,81.44133,82.35329,1.48,1.33,-0.91196,0.15
33,105,1,83.77062,82.60898,1.39,1.32,1.16164,0.07
34,105,1,84.73083,79.96363,1.5,1.29,4.7672,0.21
35,105,1,81.82878,81.21637,1.5,1.29,0.61241,0.21
36,105,1,82.02184,82.22199,1.5,1.3,-0.20015,0.2
37,105,1,82.49857,82.84246,1.41,1.23,-0.34389,0.18
38,105,1,82.31637,80.88287,1.42,1.24,1.4335,0.18
39,105,1,82.33167,79.46014,1.45,1.31,2.87153,0.14
40,105,1,85.30117,81.96942,1.44,1.22,3.33175,0.22
41,105,1,83.31205,82.409836,1.49,1.18,0.902214,0.31
42,105,1,80.20676,81.26936,1.33,1.2,-1.0626,0.13
43,105,1,85.89383,82.01936,1.36,1.19,3.87447,0.17
44,105,1,81.08092,83.17694,1.27,1.19,-2.09602,0.08
45,105,1,84.902885,78.92189,1.26,1.22,5.980995,0.04
46,105,1,82.25439,76.146454,1.23,1.21,6.107936,0.02
47,105,1,80.59317,82.044876,1.26,1.2,-1.451706,0.06
48,105,1,80.18319,81.277504,1.15,1.21,-1.094314,-0.06
49,105,1,84.07538,83.45811,1.19,1.17,0.61727,0.02
50,105,1,82.92455,81.48942,1.16,1.11,1.43513,0.05
51,105,1,88.2796,83.47302,1.5,1.12,4.80658,0.38
52,105,1,89.88901,83.87531,1.37,1.1,6.0137,0.27
53,105,1,89.97737,81.59291,1.23,1.06,8.38446,0.17
54,105,1,86.57544,78.82763,1.19,1.06,7.74781,0.13
55,105,1,89.539986,82.11297,1.24,1.17,7.427016,0.07
56,105,1,85.6417,83.26075,1.13,1.11,2.38095,0.02
57,105,1,84.301346,82.62441,1.18,1.11,1.676936,0.07
58,105,1,80.03572,82.67374,1.19,1.1,-2.63802,0.09
59,105,1,79.45935,78.87973,1.25,1.08,0.57962,0.17
60,105,1,80.97004,78.79869,1.21,1.07,2.17135,0.14
61,105,1,87.149574,80.49768,1.27,1.08,6.651894,0.19
62,105,1,84.38179,77.74628,1.21,1.1,6.63551,0.11
63,105,1,87.14545,77.20488,1.22,1.04,9.94057,0.18
64,105,1,85.64928,76.21578,1.17,1.13,9.4335,0.04
65,105,1,82.3551,77.694626,1.15,1.06,4.660474,0.09
66,105,1,81.10714,83.08411,1.18,1.06,-1.97697,0.12
67,105,1,84.697815,78.42443,1.21,1.13,6.273385,0.08
68,105,1,83.91168,75.168274,1.22,1.05,8.743406,0.17
69,105,1,79.727715,79.38939,1.15,1.14,0.338325,0.01
70,105,1,77.116035,76.96409,1.2,1.09,0.151945,0.11
71,105,1,82.90632,80.76366,1.2,1.1,2.14266,0.1
72,105,1,85.02322,79.69042,1.17,1.07,5.3328,0.1
73,105,1,86.78196,80.46764,1.13,1.1,6.31432,0.03
74,105,1,87.29399,79.16368,1.19,1.05,8.13031,0.14
75,105,1,82.75212,83.8557,1.16,0.89,-1.10358,0.27
76,105,1,79.17132,78.14212,1.16,1.1,1.0292,0.06
77,105,1,80.24032,82.034424,1.18,1.18,-1.794104,0
78,105,1,78.38577,83.55856,1.15,1.06,-5.17279,0.09
79,105,1,77.64877,78.98396,1.18,1.07,-1.33519,0.11
80,105,1,81.67864,76.04103,1.15,1.06,5.63761,0.09
81,105,1,81.85564,81.84825,1.16,0.96,0.00739,0.2
82,105,1,80.20971,85.184,0.5,1.09,-4.97429,-0.59
83,105,1,76.44696,84.11881,0.76,1.13,-7.67185,-0.37
84,105,1,73.645584,75.78859,0.11,0.68,-2.143006,-0.57
85,105,1,74.32648,77.63995,0.73,0.94,-3.31347,-0.21
86,105,1,72.13756,78.94114,0.11,0.68,-6.80358,-0.57
87,105,1,73.09134,76.76821,0.58,0.38,-3.67687,0.2
88,105,1,73.12312,73.966,0.11,0.58,-0.84288,-0.47
89,105,1,78.36341,75.95422,0.11,0.4,2.40919,-0.29
90,105,1,73.042145,79.56893,0.11,0.76,-6.526785,-0.65
91,105,1,74.742615,75.20563,0.11,0.32,-0.463015,-0.21
92,105,1,72.194374,80.823875,0.11,0.92,-8.629501,-0.81
93,105,1,74.87203,74.169876,0.11,0.59,0.702154,-0.48
94,105,1,70.7595,74.31204,0.11,0.33,-3.55254,-0.22
95,105,1,72.92763,71.97562,0.11,0.22,0.95201,-0.11
96,105,1,73.4625,76.46196,0.11,0.47,-2.99946,-0.36
97,105,1,73.132515,74.19965,0.11,0.22,-1.067135,-0.11
98,105,1,74.76211,71.63057,0.11,0.38,3.13154,-0.27
99,105,1,73.18413,74.60431,0.11,0.28,-1.42018,-0.17
100,105,1,76.17974,74.631065,0.11,0.3,1.548675,-0.19
101,105,1,74.21146,70.51198,0.11,0.21,3.69948,-0.1
102,105,1,73.456696,71.26866,0.11,0.2,2.188036,-0.09
103,105,1,71.026726,71.443695,0.11,0.19,-0.416969,-0.08
104,105,1,71.917816,72.153435,0.11,0.19,-0.235619,-0.08
105,105,1,72.48373,73.10241,0.11,0.16,-0.61868,-0.05
106,105,1,72.78932,71.34308,0.11,0.16,1.44624,-0.05
107,105,1,72.58501,74.314926,0.11,0.16,-1.729916,-0.05
108,105,1,67.58803,70.73381,0.11,0.15,-3.14578,-0.04
21,113,0.1,80.614685,78.35685,1.27,0.64,2.257835,0.63
22,113,0.1,79.7778,78.925735,1.19,0.63,0.852065,0.56
23,113,0.1,78.98425,79.35096,0.92,0.63,-0.36671,0.29
24,113,0.1,80.34295,77.872925,0.75,0.55,2.470025,0.2
25,113,0.1,80.59297,78.1016,0.82,0.63,2.49137,0.19
26,113,0.1,78.91623,77.986786,0.75,0.57,0.929444,0.18
27,113,0.1,80.5184,80.02027,0.74,0.58,0.49813,0.16
28,113,0.1,81.21344,80.12131,0.96,0.58,1.09213,0.38
29,113,0.1,77.7867,79.47046,0.78,0.52,-1.68376,0.26
30,113,0.1,78.12713,82.49408,0.85,0.56,-4.36695,0.29
31,113,0.1,79.80181,80.8473,0.78,0.63,-1.04549,0.15
32,113,0.1,81.47789,82.311905,0.83,0.58,-0.834015,0.25
33,113,0.1,84.00481,82.49747,0.92,0.65,1.50734,0.27
34,113,0.1,84.69453,80.18722,0.69,0.6,4.50731,0.09
35,113,0.1,81.91734,81.487885,0.91,0.51,0.429455,0.4
36,113,0.1,81.68887,82.01428,0.91,0.57,-0.32541,0.34
37,113,0.1,82.43557,82.989395,0.68,0.54,-0.553825,0.14
38,113,0.1,82.26043,80.90754,0.76,0.48,1.35289,0.28
39,113,0.1,82.17995,79.587776,0.81,0.52,2.592174,0.29
40,113,0.1,85.27628,79.693954,0.85,0.49,5.582326,0.36
41,113,0.1,83.2583,82.19289,0.78,0.48,1.06541,0.3
42,113,0.1,79.96927,81.19557,0.73,0.44,-1.2263,0.29
43,113,0.1,86.02517,82.46983,0.64,0.47,3.55534,0.17
44,113,0.1,81.18555,82.79627,0.67,0.42,-1.61072,0.25
45,113,0.1,84.91757,79.00723,0.58,0.46,5.91034,0.12
46,113,0.1,82.32688,76.35613,0.56,0.44,5.97075,0.12
47,113,0.1,79.32862,81.97267,0.56,0.46,-2.64405,0.1
48,113,0.1,80.26665,81.111755,0.46,0.43,-0.845105,0.03
49,113,0.1,84.394775,83.36445,0.46,0.48,1.030325,-0.02
50,113,0.1,82.81923,81.49632,0.59,0.35,1.32291,0.24
51,113,0.1,88.331154,83.58983,0.78,0.36,4.741324,0.42
52,113,0.1,89.80915,84.01831,0.35,0.38,5.79084,-0.03
53,113,0.1,89.91643,81.70381,0.41,0.42,8.21262,-0.01
54,113,0.1,86.78726,78.38355,0.35,0.38,8.40371,-0.03
55,113,0.1,89.48461,81.64019,0.49,0.38,7.84442,0.11
56,113,0.1,85.70291,83.67361,0.42,0.36,2.0293,0.06
57,113,0.1,84.44942,82.85277,0.44,0.39,1.59665,0.05
58,113,0.1,80.215515,82.69652,0.46,0.42,-2.481005,0.04
59,113,0.1,79.327644,78.65996,0.52,0.49,0.667684,0.03
60,113,0.1,81.24933,78.46929,0.44,0.47,2.78004,-0.03
61,113,0.1,87.27459,80.307205,0.46,0.46,6.967385,0
62,113,0.1,84.3006,77.4214,0.44,0.34,6.8792,0.1
63,113,0.1,87.0695,76.78267,0.42,0.36,10.28683,0.06
64,113,0.1,85.60946,76.276764,0.58,0.37,9.332696,0.21
65,113,0.1,82.586136,78.484215,0.41,0.36,4.101921,0.05
66,113,0.1,80.94266,82.993576,0.41,0.43,-2.050916,-0.02
67,113,0.1,84.678,78.45587,0.38,0.43,6.22213,-0.05
68,113,0.1,84.08196,74.72467,0.41,0.46,9.35729,-0.05
69,113,0.1,79.83102,79.17682,0.37,0.33,0.6542,0.04
70,113,0.1,78.39373,77.26411,0.38,0.4,1.12962,-0.02
71,113,0.1,82.9662,80.58406,0.39,0.44,2.38214,-0.05
72,113,0.1,84.82898,80.19724,0.42,0.37,4.63174,0.05
73,113,0.1,86.75039,80.56146,0.32,0.36,6.18893,-0.04
74,113,0.1,86.91233,79.01779,0.4,0.37,7.89454,0.03
75,113,0.1,83.35648,84.0832,0.35,0.41,-0.72672,-0.06
76,113,0.1,79.06333,78.33281,0.34,0.49,0.73052,-0.15
77,113,0.1,80.399086,82.2225,0.41,0.46,-1.823414,-0.05
78,113,0.1,76.77136,83.40465,0.38,0.35,-6.63329,0.03
79,113,0.1,77.74628,79.31139,0.37,0.39,-1.56511,-0.02
80,113,0.1,81.66147,75.92096,0.34,0.33,5.74051,0.01
81,113,0.1,81.99304,81.81139,0.35,0.36,0.18165,-0.01
82,113,0.1,80.02648,85.13147,0.35,0.35,-5.10499,0
83,113,0.1,76.38991,84.060776,0.37,0.33,-7.670866,0.04
84,113,0.1,73.40138,75.7599,0.11,0.34,-2.35852,-0.23
85,113,0.1,74.273315,77.69005,0.31,0.37,-3.416735,-0.06
86,113,0.1,72.04045,78.932755,0.11,0.28,-6.892305,-0.17
87,113,0.1,72.86121,77.09493,0.36,0.26,-4.23372,0.1
88,113,0.1,73.46405,73.68672,0.11,0.23,-0.22267,-0.12
89,113,0.1,78.35825,76.52636,0.11,0.43,1.83189,-0.32
90,113,0.1,72.82059,78.74391,0.11,0.72,-5.92332,-0.61
91,113,0.1,74.63099,75.02425,0.11,0.32,-0.39326,-0.21
92,113,0.1,72.25304,83.354195,0.11,0.43,-11.101155,-0.32
93,113,0.1,74.59517,74.5213,0.11,0.59,0.07387,-0.48
94,113,0.1,70.28399,73.54652,0.11,0.33,-3.26253,-0.22
95,113,0.1,73.66122,72.0505,0.11,0.22,1.61072,-0.11
96,113,0.1,72.6195,76.35987,0.11,0.47,-3.74037,-0.36
97,113,0.1,73.55601,74.34884,0.11,0.25,-0.79283,-0.14
98,113,0.1,74.75867,71.16083,0.11,0.38,3.59784,-0.27
99,113,0.1,72.83888,74.591034,0.11,0.28,-1.752154,-0.17
100,113,0.1,75.981415,73.95824,0.11,0.31,2.023175,-0.2
101,113,0.1,74.556114,69.43148,0.11,0.21,5.124634,-0.1
102,113,0.1,73.647255,70.69411,0.11,0.21,2.953145,-0.1
103,113,0.1,71.039505,71.415405,0.11,0.18,-0.3759,-0.07
104,113,0.1,71.69545,72.52604,0.11,0.19,-0.83059,-0.08
105,113,0.1,72.441475,73.00612,0.11,0.16,-0.564645,-0.05
106,113,0.1,72.91816,72.21865,0.11,0.21,0.69951,-0.1
107,113,0.1,72.6216,74.29076,0.11,0.16,-1.66916,-0.05
108,113,0.1,67.86588,70.60934,0.11,0.16,-2.74346,-0.05
21,113,0.3,80.654785,78.86107,1.31,0.84,1.793715,0.47
22,113,0.3,79.04002,80.55242,1.29,0.81,-1.5124,0.48
23,113,0.3,80.28018,79.20171,1,0.8,1.07847,0.2
24,113,0.3,80.903694,78.43626,0.9,0.77,2.467434,0.13
25,113,0.3,82.17372,79.98136,1.02,0.79,2.19236,0.23
26,113,0.3,78.99533,78.08054,0.9,0.76,0.91479,0.14
27,113,0.3,80.43895,79.20621,0.93,0.8,1.23274,0.13
28,113,0.3,81.65595,79.84727,1.02,0.76,1.80868,0.26
29,113,0.3,79.67782,79.452286,0.94,0.8,0.225534,0.14
30,113,0.3,77.96516,82.508514,1.01,0.71,-4.543354,0.3
31,113,0.3,80.092125,80.8138,0.93,0.75,-0.721675,0.18
32,113,0.3,81.66255,82.34378,0.84,0.77,-0.68123,0.07
33,113,0.3,83.617874,82.51638,1.03,0.74,1.101494,0.29
34,113,0.3,84.71875,79.81055,0.84,0.75,4.9082,0.09
35,113,0.3,81.67455,81.5662,0.97,0.71,0.10835,0.26
36,113,0.3,81.931786,82.28114,1.03,0.72,-0.349354,0.31
37,113,0.3,82.59473,82.19765,0.78,0.67,0.39708,0.11
38,113,0.3,82.49516,80.789215,0.93,0.67,1.705945,0.26
39,113,0.3,82.28222,79.03705,0.86,0.67,3.24517,0.19
40,113,0.3,85.32478,79.69319,1.03,0.64,5.63159,0.39
41,113,0.3,83.222305,82.34335,0.92,0.64,0.878955,0.28
42,113,0.3,79.8957,81.39678,0.72,0.6,-1.50108,0.12
43,113,0.3,85.80336,82.64862,0.83,0.6,3.15474,0.23
44,113,0.3,81.001434,83.41625,0.66,0.58,-2.414816,0.08
45,113,0.3,85.24566,78.90069,0.76,0.6,6.34497,0.16
46,113,0.3,82.151115,76.813286,0.71,0.6,5.337829,0.11
47,113,0.3,80.280876,81.89795,0.75,0.65,-1.617074,0.1
48,113,0.3,80.193306,81.06762,0.6,0.64,-0.874314,-0.04
49,113,0.3,84.37305,83.22307,0.56,0.68,1.14998,-0.12
50,113,0.3,82.86023,81.254135,0.66,0.53,1.606095,0.13
51,113,0.3,88.28187,83.70934,0.98,0.53,4.57253,0.45
52,113,0.3,89.85949,84.08639,0.77,0.55,5.7731,0.22
53,113,0.3,89.927086,81.652435,0.75,0.58,8.274651,0.17
54,113,0.3,86.72567,78.560974,0.55,0.57,8.164696,-0.02
55,113,0.3,89.42372,82.11018,0.62,0.53,7.31354,0.09
56,113,0.3,85.65973,80.00884,0.48,0.55,5.65089,-0.07
57,113,0.3,84.20782,82.89004,0.53,0.57,1.31778,-0.04
58,113,0.3,80.16205,83.006035,0.67,0.61,-2.843985,0.06
59,113,0.3,79.27661,79.02084,0.69,0.61,0.25577,0.08
60,113,0.3,81.24884,78.58784,0.55,0.6,2.661,-0.05
61,113,0.3,87.349815,80.85283,0.64,0.57,6.496985,0.07
62,113,0.3,84.81883,77.31535,0.56,0.49,7.50348,0.07
63,113,0.3,87.1216,77.21205,0.87,0.5,9.90955,0.37
64,113,0.3,85.59197,76.249176,0.82,0.49,9.342794,0.33
65,113,0.3,82.36738,76.13933,0.58,0.5,6.22805,0.08
66,113,0.3,80.741325,82.77171,0.55,0.55,-2.030385,0
67,113,0.3,84.78661,78.333046,0.56,0.54,6.453564,0.02
68,113,0.3,83.87369,74.71759,0.58,0.43,9.1561,0.15
69,113,0.3,80.15835,79.24503,0.54,0.5,0.91332,0.04
70,113,0.3,77.443695,76.895775,0.52,0.47,0.54792,0.05
71,113,0.3,82.72175,80.792885,0.54,0.61,1.928865,-0.07
72,113,0.3,84.88643,79.89993,0.58,0.51,4.9865,0.07
73,113,0.3,88.11069,80.280556,0.5,0.52,7.830134,-0.02
74,113,0.3,87.196335,78.961945,0.56,0.52,8.23439,0.04
75,113,0.3,83.34317,83.95376,0.52,0.58,-0.61059,-0.06
76,113,0.3,79.34511,78.24522,0.54,0.55,1.09989,-0.01
77,113,0.3,80.32548,81.903366,0.57,0.53,-1.577886,0.04
78,113,0.3,75.92583,83.64763,0.53,0.44,-7.7218,0.09
79,113,0.3,77.68678,79.12516,0.51,0.51,-1.43838,0
80,113,0.3,82.12374,76.19942,0.47,0.47,5.92432,0
81,113,0.3,81.79776,82.003586,0.52,0.57,-0.205826,-0.05
82,113,0.3,80.464645,85.18803,0.45,0.42,-4.723385,0.03
83,113,0.3,76.4666,83.81614,0.47,0.39,-7.34954,0.08
84,113,0.3,73.60358,75.63322,0.47,0.5,-2.02964,-0.03
85,113,0.3,74.59656,77.70086,0.46,0.53,-3.1043,-0.07
86,113,0.3,71.879425,78.87593,0.11,0.4,-6.996505,-0.29
87,113,0.3,72.85267,77.045105,0.11,0.38,-4.192435,-0.27
88,113,0.3,72.98404,73.91837,0.11,0.41,-0.93433,-0.3
89,113,0.3,78.6393,76.18098,0.11,0.4,2.45832,-0.29
90,113,0.3,72.96953,80.020775,0.11,0.71,-7.051245,-0.6
91,113,0.3,73.52782,75.230965,0.11,0.33,-1.703145,-0.22
92,113,0.3,72.58578,79.148834,0.11,0.92,-6.563054,-0.81
93,113,0.3,74.8022,74.09062,0.11,0.59,0.71158,-0.48
94,113,0.3,70.23852,74.60796,0.11,0.33,-4.36944,-0.22
95,113,0.3,73.97153,72.000916,0.11,0.22,1.970614,-0.11
96,113,0.3,72.769684,76.4013,0.11,0.48,-3.631616,-0.37
97,113,0.3,73.53854,74.30136,0.11,0.24,-0.76282,-0.13
98,113,0.3,74.66771,71.7399,0.11,0.21,2.92781,-0.1
99,113,0.3,72.95508,74.2528,0.11,0.28,-1.29772,-0.17
100,113,0.3,75.88248,74.45743,0.11,0.31,1.42505,-0.2
101,113,0.3,74.125015,70.11433,0.11,0.22,4.010685,-0.11
102,113,0.3,73.51063,71.01311,0.11,0.22,2.49752,-0.11
103,113,0.3,71.163315,71.4434,0.11,0.18,-0.280085,-0.07
104,113,0.3,71.82235,72.47794,0.11,0.21,-0.65559,-0.1
105,113,0.3,72.631805,73.77196,0.11,0.17,-1.140155,-0.06
106,113,0.3,72.99336,72.15761,0.11,0.2,0.83575,-0.09
107,113,0.3,72.514755,71.38858,0.11,0.16,1.126175,-0.05
108,113,0.3,68.25978,70.92019,0.11,0.16,-2.66041,-0.05
21,113,0.7,80.41929,78.8072,1.5,1.17,1.61209,0.33
22,113,0.7,78.802124,78.15325,1.5,1.18,0.648874,0.32
23,113,0.7,78.65312,78.573395,1.3,1.21,0.079725,0.09
24,113,0.7,80.8629,78.24511,1.17,1.12,2.61779,0.05
25,113,0.7,82.029655,78.349,1.38,1.19,3.680655,0.19
26,113,0.7,78.8967,77.978745,1.25,1.17,0.917955,0.08
27,113,0.7,80.387314,79.14569,1.2,1.3,1.241624,-0.1
28,113,0.7,81.52796,80.10162,1.32,1.16,1.42634,0.16
29,113,0.7,79.621895,79.67532,1.34,1.19,-0.053425,0.15
30,113,0.7,78.42689,82.37508,1.34,1.1,-3.94819,0.24
31,113,0.7,79.82675,78.875656,1.21,1.07,0.951094,0.14
32,113,0.7,81.54018,82.43527,1.17,1.1,-0.89509,0.07
33,113,0.7,83.70594,82.549515,1.28,1.08,1.156425,0.2
34,113,0.7,84.611465,80.54369,1.23,1.05,4.067775,0.18
35,113,0.7,81.63304,81.33214,1.34,1.02,0.3009,0.32
36,113,0.7,81.629135,82.278656,1.26,1.06,-0.649521,0.2
37,113,0.7,82.52776,82.57542,1.11,0.97,-0.04766,0.14
38,113,0.7,82.31622,80.73312,1.19,0.98,1.5831,0.21
39,113,0.7,82.2925,79.19792,1.19,1.05,3.09458,0.14
40,113,0.7,85.2702,79.722664,1.23,0.95,5.547536,0.28
41,113,0.7,83.11734,82.04219,1.21,0.95,1.07515,0.26
42,113,0.7,80.25793,81.39114,1.21,0.92,-1.13321,0.29
43,113,0.7,85.91327,82.73917,1.17,0.92,3.1741,0.25
44,113,0.7,81.1088,83.50041,0.97,0.91,-2.39161,0.06
45,113,0.7,85.09614,79.37795,1.1,0.95,5.71819,0.15
46,113,0.7,82.28247,76.4229,0.99,0.92,5.85957,0.07
47,113,0.7,80.452835,81.974144,0.96,0.92,-1.521309,0.04
48,113,0.7,80.04561,81.083405,0.97,0.96,-1.037795,0.01
49,113,0.7,84.479485,83.42044,0.89,0.94,1.059045,-0.05
50,113,0.7,82.963326,81.5829,0.92,0.84,1.380426,0.08
51,113,0.7,88.17071,83.64051,1.28,0.84,4.5302,0.44
52,113,0.7,89.79363,84.22201,1.13,0.84,5.57162,0.29
53,113,0.7,89.95828,81.81566,0.95,0.84,8.14262,0.11
54,113,0.7,86.79669,78.23046,0.9,0.88,8.56623,0.02
55,113,0.7,89.32223,82.104866,0.97,0.91,7.217364,0.06
56,113,0.7,85.745415,80.238815,0.85,0.83,5.5066,0.02
57,113,0.7,84.60222,82.80846,0.9,0.83,1.79376,0.07
58,113,0.7,80.25154,82.73856,0.89,0.9,-2.48702,-0.01
59,113,0.7,79.39461,79.30384,0.99,0.84,0.09077,0.15
60,113,0.7,81.26362,78.559326,0.95,0.76,2.704294,0.19
61,113,0.7,87.31081,80.40725,1,0.81,6.90356,0.19
62,113,0.7,84.818054,77.82038,0.92,0.85,6.997674,0.07
63,113,0.7,87.02234,76.92182,1.08,0.8,10.10052,0.28
64,113,0.7,85.76413,76.23029,0.99,0.85,9.53384,0.14
65,113,0.7,82.37072,75.777985,0.92,0.78,6.592735,0.14
66,113,0.7,81.01691,83.18321,0.91,0.79,-2.1663,0.12
67,113,0.7,84.65247,78.135025,0.91,0.86,6.517445,0.05
68,113,0.7,83.839386,74.91586,0.92,0.76,8.923526,0.16
69,113,0.7,80.15209,79.22879,0.85,0.86,0.9233,-0.01
70,113,0.7,77.6099,76.95831,0.89,0.76,0.65159,0.13
71,113,0.7,82.46994,80.39027,0.88,0.81,2.07967,0.07
72,113,0.7,85.10763,80.20602,0.88,0.79,4.90161,0.09
73,113,0.7,89.12453,80.66944,0.56,0.9,8.45509,-0.34
74,113,0.7,86.893936,79.1866,0.9,0.84,7.707336,0.06
75,113,0.7,82.908325,83.95655,0.86,0.85,-1.048225,0.01
76,113,0.7,79.273056,77.88141,0.93,0.85,1.391646,0.08
77,113,0.7,80.1611,82.02092,0.89,0.88,-1.85982,0.01
78,113,0.7,76.68813,83.58965,0.85,0.83,-6.90152,0.02
79,113,0.7,77.82478,79.292915,0.92,0.76,-1.468135,0.16
80,113,0.7,81.99467,75.565605,0.9,0.87,6.429065,0.03
81,113,0.7,81.94666,81.92192,0.9,0.75,0.02474,0.15
82,113,0.7,80.60641,85.256256,0.5,0.81,-4.649846,-0.31
83,113,0.7,76.55243,84.018074,0.76,0.9,-7.465644,-0.14
84,113,0.7,73.74559,75.54795,0.53,0.68,-1.80236,-0.15
85,113,0.7,74.38977,77.63043,0.74,0.76,-3.24066,-0.02
86,113,0.7,71.74778,78.97729,0.35,0.77,-7.22951,-0.42
87,113,0.7,73.05739,76.850975,0.57,0.38,-3.793585,0.19
88,113,0.7,73.17849,74.08536,0.11,0.58,-0.90687,-0.47
89,113,0.7,78.41672,76.25577,0.11,0.38,2.16095,-0.27
90,113,0.7,73.185394,79.864586,0.11,0.54,-6.679192,-0.43
91,113,0.7,73.78067,75.31445,0.11,0.33,-1.53378,-0.22
92,113,0.7,72.74554,78.853584,0.11,0.34,-6.108044,-0.23
93,113,0.7,75.39063,74.27042,0.11,0.59,1.12021,-0.48
94,113,0.7,70.2155,74.313934,0.11,0.33,-4.098434,-0.22
95,113,0.7,73.71973,71.85838,0.11,0.22,1.86135,-0.11
96,113,0.7,72.92091,76.302826,0.11,0.48,-3.381916,-0.37
97,113,0.7,73.63795,73.92222,0.11,0.23,-0.28427,-0.12
98,113,0.7,74.883026,71.57923,0.11,0.21,3.303796,-0.1
99,113,0.7,73.324066,74.404396,0.11,0.28,-1.08033,-0.17
100,113,0.7,76.18029,74.31455,0.11,0.31,1.86574,-0.2
101,113,0.7,73.952995,69.26596,0.11,0.21,4.687035,-0.1
102,113,0.7,73.30131,71.04742,0.11,0.22,2.25389,-0.11
103,113,0.7,73.515854,70.4196,0.11,0.18,3.096254,-0.07
104,113,0.7,72.05904,72.6573,0.11,0.21,-0.59826,-0.1
105,113,0.7,72.43091,73.16333,0.11,0.17,-0.73242,-0.06
106,113,0.7,72.8851,72.291534,0.11,0.15,0.593566,-0.04
107,113,0.7,72.384094,74.5105,0.11,0.16,-2.126406,-0.05
108,113,0.7,67.486725,70.607155,0.11,0.16,-3.12043,-0.05
21,113,1,80.468124,78.89938,1.5,1.39,1.568744,0.11
22,113,1,79.91386,78.604996,1.5,1.43,1.308864,0.07
23,113,1,78.93345,78.671684,1.46,1.41,0.261766,0.05
24,113,1,80.92459,78.47619,1.5,1.4,2.4484,0.1
25,113,1,82.19578,80.164536,1.5,1.4,2.031244,0.1
26,113,1,78.668076,77.54038,1.5,1.39,1.127696,0.11
27,113,1,80.65577,79.035866,1.5,1.38,1.619904,0.12
28,113,1,81.54351,79.84831,1.5,1.38,1.6952,0.12
29,113,1,79.71076,79.66693,1.5,1.41,0.04383,0.09
30,113,1,78.3188,82.45158,1.5,1.32,-4.13278,0.18
31,113,1,80.01122,79.13629,1.5,1.3,0.87493,0.2
32,113,1,81.3246,82.37422,1.5,1.33,-1.04962,0.17
33,113,1,83.76285,82.51648,1.5,1.33,1.24637,0.17
34,113,1,84.59948,79.81124,1.5,1.29,4.78824,0.21
35,113,1,81.76128,81.426834,1.5,1.29,0.334446,0.21
36,113,1,81.56276,82.15055,1.46,1.3,-0.58779,0.16
37,113,1,82.48508,83.41494,1.41,1.23,-0.92986,0.18
38,113,1,82.62681,80.68048,1.42,1.24,1.94633,0.18
39,113,1,82.421196,79.16745,1.45,1.31,3.253746,0.14
40,113,1,85.32862,79.76053,1.44,1.22,5.56809,0.22
41,113,1,83.209465,82.16343,1.48,1.19,1.046035,0.29
42,113,1,80.33307,81.310455,1.48,1.21,-0.977385,0.27
43,113,1,85.73161,82.52153,1.38,1.19,3.21008,0.19
44,113,1,81.12442,83.33418,1.27,1.18,-2.20976,0.09
45,113,1,85.10512,79.05966,1.24,1.22,6.04546,0.02
46,113,1,82.27412,76.50657,1.23,1.22,5.76755,0.01
47,113,1,79.99505,81.87251,1.27,1.18,-1.87746,0.09
48,113,1,80.39957,81.056755,1.17,1.21,-0.657185,-0.04
49,113,1,84.38426,83.39298,1.17,1.17,0.99128,0
50,113,1,82.93989,81.53749,1.16,1.12,1.4024,0.04
51,113,1,88.1184,83.72448,1.48,1.12,4.39392,0.36
52,113,1,89.84263,84.130394,1.39,1.09,5.712236,0.3
53,113,1,89.86084,81.279175,1.23,1.05,8.581665,0.18
54,113,1,86.76503,78.265205,1.2,1.06,8.499825,0.14
55,113,1,89.46461,82.134575,1.28,1.17,7.330035,0.11
56,113,1,85.52047,80.678795,1.12,1.11,4.841675,0.01
57,113,1,84.17882,82.78961,1.19,1.11,1.38921,0.08
58,113,1,79.84345,82.834885,1.19,1.1,-2.991435,0.09
59,113,1,79.439705,79.39306,1.25,1.08,0.046645,0.17
60,113,1,81.15637,78.58272,1.19,1.07,2.57365,0.12
61,113,1,87.11508,80.325294,1.27,1.08,6.789786,0.19
62,113,1,84.57517,77.35033,1.21,1.1,7.22484,0.11
63,113,1,87.19135,77.303635,1.22,1.1,9.887715,0.12
64,113,1,85.59972,76.20627,1.17,1.12,9.39345,0.05
65,113,1,82.611565,76.14629,1.15,1.06,6.465275,0.09
66,113,1,80.63559,83.43882,1.18,1.06,-2.80323,0.12
67,113,1,84.81204,78.42017,1.21,1.13,6.39187,0.08
68,113,1,83.79751,75.25548,1.22,1.05,8.54203,0.17
69,113,1,80.031334,79.296814,1.15,1.14,0.73452,0.01
70,113,1,77.542,77.139084,1.2,1.1,0.402916,0.1
71,113,1,82.80051,80.605156,1.2,1.1,2.195354,0.1
72,113,1,84.92103,79.62846,1.21,1.07,5.29257,0.14
73,113,1,89.095055,80.65865,1.14,1.09,8.436405,0.05
74,113,1,87.161064,79.07997,1.19,1.05,8.081094,0.14
75,113,1,83.25782,84.025665,1.16,0.9,-0.767845,0.26
76,113,1,78.92812,77.9209,1.16,1.1,1.00722,0.06
77,113,1,79.644226,82.136856,1.18,1.18,-2.49263,0
78,113,1,77.31579,83.37654,1.15,1.06,-6.06075,0.09
79,113,1,77.72819,79.21735,1.17,1.07,-1.48916,0.1
80,113,1,82.2113,75.55861,1.15,1.06,6.65269,0.09
81,113,1,82.02725,81.96608,1.15,1.08,0.06117,0.07
82,113,1,79.94316,85.025345,0.52,1.09,-5.082185,-0.57
83,113,1,76.48571,84.015175,0.76,1.14,-7.529465,-0.38
84,113,1,73.40461,75.48488,0.53,0.68,-2.08027,-0.15
85,113,1,74.53369,77.5291,0.74,0.95,-2.99541,-0.21
86,113,1,71.866035,78.9182,0.34,1.08,-7.052165,-0.74
87,113,1,72.97934,76.68328,0.57,0.38,-3.70394,0.19
88,113,1,73.47004,73.81805,0.11,0.58,-0.34801,-0.47
89,113,1,78.41862,76.14443,0.11,0.38,2.27419,-0.27
90,113,1,73.034775,80.01597,0.11,0.53,-6.981195,-0.42
91,113,1,75.637695,75.0282,0.11,0.33,0.609495,-0.22
92,113,1,73.14599,78.90433,0.11,0.7,-5.75834,-0.59
93,113,1,74.92986,74.29741,0.11,0.6,0.63245,-0.49
94,113,1,70.848656,74.22511,0.11,0.33,-3.376454,-0.22
95,113,1,73.004,71.461006,0.11,0.22,1.542994,-0.11
96,113,1,72.311615,76.20039,0.11,0.48,-3.888775,-0.37
97,113,1,73.60514,73.97502,0.11,0.22,-0.36988,-0.11
98,113,1,74.62037,72.100624,0.11,0.21,2.519746,-0.1
99,113,1,73.18977,74.50781,0.11,0.28,-1.31804,-0.17
100,113,1,75.81262,74.27734,0.11,0.31,1.53528,-0.2
101,113,1,72.02421,70.21518,0.11,0.22,1.80903,-0.11
102,113,1,73.563446,70.919,0.11,0.22,2.644446,-0.11
103,113,1,73.25368,71.19312,0.11,0.18,2.06056,-0.07
104,113,1,71.85751,71.5757,0.11,0.21,0.28181,-0.1
105,113,1,72.43669,72.918434,0.11,0.18,-0.481744,-0.07
106,113,1,72.89261,71.59541,0.11,0.15,1.2972,-0.04
107,113,1,72.583954,74.28738,0.11,0.16,-1.703426,-0.05
108,113,1,68.0483,70.64725,0.11,0.15,-2.59895,-0.04
21,121,0.1,80.282974,78.65618,1.02,0.64,1.626794,0.38
22,121,0.1,79.86222,78.65265,1.28,0.61,1.20957,0.67
23,121,0.1,78.806854,79.042854,0.93,0.63,-0.236,0.3
24,121,0.1,80.11323,76.73063,0.78,0.57,3.3826,0.21
25,121,0.1,80.68498,78.74013,0.82,0.62,1.94485,0.2
26,121,0.1,78.06379,78.30278,0.72,0.57,-0.23899,0.15
27,121,0.1,80.56806,79.90983,0.71,0.59,0.65823,0.12
28,121,0.1,79.821434,80.15791,0.93,0.58,-0.336476,0.35
29,121,0.1,78.03037,79.3409,0.74,0.54,-1.31053,0.2
30,121,0.1,78.149445,82.38132,0.85,0.58,-4.231875,0.27
31,121,0.1,79.650635,81.242615,0.8,0.61,-1.59198,0.19
32,121,0.1,81.65898,82.3979,0.8,0.58,-0.73892,0.22
33,121,0.1,83.53309,82.595085,0.94,0.65,0.938005,0.29
34,121,0.1,84.70249,80.45808,0.69,0.6,4.24441,0.09
35,121,0.1,81.70792,81.42681,0.91,0.51,0.28111,0.4
36,121,0.1,81.690895,82.00616,0.88,0.54,-0.315265,0.34
37,121,0.1,82.43892,82.66882,0.68,0.54,-0.2299,0.14
38,121,0.1,82.36206,80.81358,0.77,0.48,1.54848,0.29
39,121,0.1,82.21616,79.32142,0.82,0.52,2.89474,0.3
40,121,0.1,85.22253,79.814125,0.77,0.5,5.408405,0.27
41,121,0.1,83.0804,82.33529,0.75,0.47,0.74511,0.28
42,121,0.1,80.45797,81.53363,0.69,0.45,-1.07566,0.24
43,121,0.1,86.03272,82.56847,0.65,0.47,3.46425,0.18
44,121,0.1,80.93782,82.665405,0.68,0.41,-1.727585,0.27
45,121,0.1,85.30012,79.15242,0.57,0.46,6.1477,0.11
46,121,0.1,82.25406,76.55328,0.55,0.43,5.70078,0.12
47,121,0.1,79.82181,81.8906,0.56,0.46,-2.06879,0.1
48,121,0.1,80.23488,80.68919,0.46,0.44,-0.45431,0.02
49,121,0.1,84.431946,83.36432,0.46,0.48,1.067626,-0.02
50,121,0.1,82.91673,81.489876,0.59,0.34,1.426854,0.25
51,121,0.1,88.21026,83.68616,0.79,0.36,4.5241,0.43
52,121,0.1,89.750206,84.20333,0.56,0.38,5.546876,0.18
53,121,0.1,90.02556,81.72755,0.42,0.42,8.29801,0
54,121,0.1,86.57234,78.88093,0.34,0.38,7.69141,-0.04
55,121,0.1,89.35635,82.60364,0.49,0.38,6.75271,0.11
56,121,0.1,85.6012,80.3178,0.42,0.36,5.2834,0.06
57,121,0.1,84.34575,82.568214,0.44,0.39,1.777536,0.05
58,121,0.1,79.95078,82.57872,0.45,0.42,-2.62794,0.03
59,121,0.1,79.42885,79.44256,0.51,0.49,-0.01371,0.02
60,121,0.1,81.25717,78.69768,0.44,0.46,2.55949,-0.02
61,121,0.1,87.153244,80.529205,0.46,0.46,6.624039,0
62,121,0.1,84.95942,77.3558,0.39,0.34,7.60362,0.05
63,121,0.1,87.092964,77.39804,0.42,0.36,9.694924,0.06
64,121,0.1,85.63153,76.39888,0.57,0.37,9.23265,0.2
65,121,0.1,82.17917,78.27069,0.41,0.36,3.90848,0.05
66,121,0.1,81.05615,83.181725,0.41,0.43,-2.125575,-0.02
67,121,0.1,84.73447,78.478065,0.38,0.43,6.256405,-0.05
68,121,0.1,83.991486,75.02344,0.41,0.46,8.968046,-0.05
69,121,0.1,80.06436,78.93816,0.38,0.33,1.1262,0.05
70,121,0.1,78.39965,77.3642,0.37,0.4,1.03545,-0.03
71,121,0.1,83.09923,80.87386,0.36,0.44,2.22537,-0.08
72,121,0.1,84.92133,80.00079,0.39,0.37,4.92054,0.02
73,121,0.1,88.862175,80.71262,0.32,0.36,8.149555,-0.04
74,121,0.1,87.01985,78.83768,0.4,0.37,8.18217,0.03
75,121,0.1,83.08117,83.98076,0.35,0.41,-0.89959,-0.06
76,121,0.1,79.36755,77.98178,0.34,0.49,1.38577,-0.15
77,121,0.1,79.82729,81.859406,0.41,0.46,-2.032116,-0.05
78,121,0.1,77.95,83.67996,0.37,0.35,-5.72996,0.02
79,121,0.1,77.482574,79.09599,0.37,0.39,-1.613416,-0.02
80,121,0.1,81.69242,75.71665,0.34,0.34,5.97577,0
81,121,0.1,81.82621,85.53828,0.36,0.36,-3.71207,0
82,121,0.1,80.31875,85.04868,0.35,0.35,-4.72993,0
83,121,0.1,76.449066,84.09504,0.37,0.33,-7.645974,0.04
84,121,0.1,73.50427,78.46058,0.36,0.34,-4.95631,0.02
85,121,0.1,74.27978,77.43489,0.32,0.37,-3.15511,-0.05
86,121,0.1,71.87777,78.86317,0.11,0.28,-6.9854,-0.17
87,121,0.1,72.74159,76.90318,0.36,0.26,-4.16159,0.1
88,121,0.1,72.740875,73.72358,0.11,0.2,-0.982705,-0.09
89,121,0.1,78.43772,76.07849,0.11,0.43,2.35923,-0.32
90,121,0.1,73.015656,79.98262,0.11,0.52,-6.966964,-0.41
91,121,0.1,74.12875,75.04866,0.11,0.33,-0.91991,-0.22
92,121,0.1,72.44292,78.89984,0.11,0.46,-6.45692,-0.35
93,121,0.1,74.344406,74.424194,0.11,0.59,-0.079788,-0.48
94,121,0.1,70.41984,73.73649,0.11,0.33,-3.31665,-0.22
95,121,0.1,73.81924,71.538864,0.11,0.22,2.280376,-0.11
96,121,0.1,72.808975,76.3882,0.11,0.49,-3.579225,-0.38
97,121,0.1,73.215324,73.84517,0.11,0.24,-0.629846,-0.13
98,121,0.1,75.14993,71.97568,0.11,0.21,3.17425,-0.1
99,121,0.1,73.46066,74.50159,0.11,0.28,-1.04093,-0.17
100,121,0.1,76.216896,73.9816,0.11,0.31,2.235296,-0.2
101,121,0.1,74.274155,70.13804,0.11,0.21,4.136115,-0.1
102,121,0.1,73.36773,71.275276,0.11,0.22,2.092454,-0.11
103,121,0.1,73.39114,71.0639,0.11,0.18,2.32724,-0.07
104,121,0.1,71.923294,71.76054,0.11,0.21,0.162754,-0.1
105,121,0.1,72.24035,72.90191,0.11,0.18,-0.66156,-0.07
106,121,0.1,72.52581,72.075554,0.11,0.17,0.450256,-0.06
107,121,0.1,72.544495,72.04903,0.11,0.16,0.495465,-0.05
108,121,0.1,67.51184,70.89752,0.11,0.15,-3.38568,-0.04
21,121,0.3,80.60197,78.5905,1.24,0.84,2.01147,0.4
22,121,0.3,78.85678,78.42805,1.29,0.82,0.42873,0.47
23,121,0.3,78.69958,79.29149,1,0.8,-0.59191,0.2
24,121,0.3,80.74346,78.740814,0.86,0.77,2.002646,0.09
25,121,0.3,82.347046,78.11198,1.02,0.8,4.235066,0.22
26,121,0.3,78.48404,78.06346,0.92,0.83,0.42058,0.09
27,121,0.3,80.15685,78.66058,0.9,0.8,1.49627,0.1
28,121,0.3,81.51668,79.71418,1.02,0.78,1.8025,0.24
29,121,0.3,79.938896,79.44422,0.95,0.8,0.494676,0.15
30,121,0.3,78.395226,82.49775,1.01,0.73,-4.102524,0.28
31,121,0.3,80.01715,78.915184,0.91,0.75,1.101966,0.16
32,121,0.3,81.41107,82.24855,0.87,0.77,-0.83748,0.1
33,121,0.3,84.05526,82.50438,1.03,0.74,1.55088,0.29
34,121,0.3,84.61052,80.272995,0.84,0.73,4.337525,0.11
35,121,0.3,82.05811,81.40247,0.97,0.71,0.65564,0.26
36,121,0.3,81.83653,81.96736,1,0.72,-0.13083,0.28
37,121,0.3,82.60319,82.29349,0.78,0.67,0.3097,0.11
38,121,0.3,82.71568,80.65358,0.89,0.65,2.0621,0.24
39,121,0.3,82.2763,79.223335,0.86,0.68,3.052965,0.18
40,121,0.3,85.161606,79.647095,1.09,0.65,5.514511,0.44
41,121,0.3,83.17124,82.45053,0.9,0.63,0.72071,0.27
42,121,0.3,80.340775,81.09561,0.85,0.6,-0.754835,0.25
43,121,0.3,85.63915,82.51988,0.83,0.6,3.11927,0.23
44,121,0.3,80.93969,83.3062,0.66,0.58,-2.36651,0.08
45,121,0.3,84.967125,79.04875,0.75,0.62,5.918375,0.13
46,121,0.3,82.18342,76.205635,0.68,0.6,5.977785,0.08
47,121,0.3,80.13664,81.92738,0.76,0.64,-1.79074,0.12
48,121,0.3,80.16249,80.946686,0.59,0.65,-0.784196,-0.06
49,121,0.3,84.45327,83.323975,0.58,0.68,1.129295,-0.1
50,121,0.3,82.89087,81.45514,0.66,0.51,1.43573,0.15
51,121,0.3,88.10074,83.562416,0.98,0.53,4.538324,0.45
52,121,0.3,89.799866,84.003105,0.77,0.53,5.796761,0.24
53,121,0.3,90.04706,81.53325,0.75,0.58,8.51381,0.17
54,121,0.3,86.7796,78.61628,0.55,0.57,8.16332,-0.02
55,121,0.3,89.46555,82.192795,0.62,0.53,7.272755,0.09
56,121,0.3,85.72807,80.029175,0.48,0.56,5.698895,-0.08
57,121,0.3,84.99847,82.55727,0.54,0.57,2.4412,-0.03
58,121,0.3,80.18258,82.8803,0.63,0.61,-2.69772,0.02
59,121,0.3,79.480385,79.27906,0.7,0.6,0.201325,0.1
60,121,0.3,81.26637,78.716446,0.56,0.59,2.549924,-0.03
61,121,0.3,87.065865,80.62124,0.64,0.57,6.444625,0.07
62,121,0.3,84.504295,77.38515,0.56,0.49,7.119145,0.07
63,121,0.3,86.94445,77.27054,0.89,0.51,9.67391,0.38
64,121,0.3,85.64843,76.13104,0.83,0.49,9.51739,0.34
65,121,0.3,82.68892,76.167946,0.59,0.51,6.520974,0.08
66,121,0.3,80.789276,83.119255,0.56,0.55,-2.329979,0.01
67,121,0.3,84.76094,78.49857,0.56,0.54,6.26237,0.02
68,121,0.3,84.00186,74.82113,0.58,0.44,9.18073,0.14
69,121,0.3,79.76236,79.15633,0.54,0.5,0.60603,0.04
70,121,0.3,76.85827,76.9684,0.53,0.47,-0.11013,0.06
71,121,0.3,82.48779,80.46179,0.54,0.61,2.026,-0.07
72,121,0.3,85.20505,80.02832,0.58,0.51,5.17673,0.07
73,121,0.3,89.08275,80.581604,0.49,0.52,8.501146,-0.03
74,121,0.3,87.330025,79.15749,0.56,0.52,8.172535,0.04
75,121,0.3,83.41012,83.95987,0.52,0.58,-0.54975,-0.06
76,121,0.3,79.087776,78.47348,0.54,0.55,0.614296,-0.01
77,121,0.3,80.09642,82.28713,0.56,0.53,-2.19071,0.03
78,121,0.3,77.57225,83.59552,0.53,0.44,-6.02327,0.09
79,121,0.3,77.876686,79.04069,0.52,0.51,-1.164004,0.01
80,121,0.3,82.07178,75.903015,0.47,0.47,6.168765,0
81,121,0.3,81.71423,85.56914,0.52,0.36,-3.85491,0.16
82,121,0.3,79.76869,85.01924,0.47,0.42,-5.25055,0.05
83,121,0.3,76.52909,84.247406,0.47,0.39,-7.718316,0.08
84,121,0.3,73.734146,77.758446,0.48,0.5,-4.0243,-0.02
85,121,0.3,74.517494,77.65248,0.46,0.53,-3.134986,-0.07
86,121,0.3,72.06202,78.81077,0.11,0.4,-6.74875,-0.29
87,121,0.3,72.89682,76.79935,0.46,0.38,-3.90253,0.08
88,121,0.3,72.096924,73.86883,0.11,0.41,-1.771906,-0.3
89,121,0.3,78.629555,76.1149,0.11,0.4,2.514655,-0.29
90,121,0.3,73.42278,79.83289,0.11,0.5,-6.41011,-0.39
91,121,0.3,73.70561,75.315994,0.11,0.33,-1.610384,-0.22
92,121,0.3,73.202255,79.05231,0.11,0.44,-5.850055,-0.33
93,121,0.3,75.07205,74.37332,0.11,0.6,0.69873,-0.49
94,121,0.3,70.544174,73.179214,0.11,0.33,-2.63504,-0.22
95,121,0.3,72.13377,73.17679,0.11,0.22,-1.04302,-0.11
96,121,0.3,72.99359,76.02406,0.11,0.49,-3.03047,-0.38
97,121,0.3,73.20302,73.952324,0.11,0.23,-0.749304,-0.12
98,121,0.3,74.80478,71.42092,0.11,0.21,3.38386,-0.1
99,121,0.3,73.439415,74.43117,0.11,0.28,-0.991755,-0.17
100,121,0.3,76.40263,74.48343,0.11,0.32,1.9192,-0.21
101,121,0.3,74.590645,70.097725,0.11,0.22,4.49292,-0.11
102,121,0.3,73.54822,70.96878,0.11,0.22,2.57944,-0.11
103,121,0.3,73.20831,70.92438,0.11,0.17,2.28393,-0.06
104,121,0.3,72.09075,71.455574,0.11,0.21,0.635176,-0.1
105,121,0.3,72.044205,73.53449,0.11,0.18,-1.490285,-0.07
106,121,0.3,73.13628,71.95239,0.11,0.17,1.18389,-0.06
107,121,0.3,72.63626,71.771576,0.11,0.14,0.864684,-0.03
108,121,0.3,68.63664,70.81078,0.11,0.15,-2.17414,-0.04
21,121,0.7,80.59375,78.63787,1.5,1.25,1.95588,0.25
22,121,0.7,79.08482,78.56974,1.5,1.15,0.51508,0.35
23,121,0.7,78.86969,78.77515,1.23,1.21,0.09454,0.02
24,121,0.7,81.00126,78.69296,1.14,1.11,2.3083,0.03
25,121,0.7,82.206345,79.792404,1.38,1.12,2.413941,0.26
26,121,0.7,78.93808,77.93566,1.31,1.14,1.00242,0.17
27,121,0.7,80.25124,79.005585,1.25,1.29,1.245655,-0.04
28,121,0.7,81.58109,79.90089,1.32,1.14,1.6802,0.18
29,121,0.7,79.86218,80.20559,1.36,1.19,-0.34341,0.17
30,121,0.7,78.49055,82.37083,1.34,1.1,-3.88028,0.24
31,121,0.7,79.833046,81.22473,1.34,1.07,-1.391684,0.27
32,121,0.7,81.44563,82.27992,1.19,1.11,-0.83429,0.08
33,121,0.7,83.91813,82.56062,1.32,1.08,1.35751,0.24
34,121,0.7,84.699005,80.51267,1.23,1.06,4.186335,0.17
35,121,0.7,81.78673,81.3796,1.31,1.02,0.40713,0.29
36,121,0.7,81.566864,82.06776,1.26,1.04,-0.500896,0.22
37,121,0.7,82.41412,83.07384,1.11,0.99,-0.65972,0.12
38,121,0.7,82.269615,80.71823,1.19,0.98,1.551385,0.21
39,121,0.7,82.384544,79.199554,1.23,1.04,3.18499,0.19
40,121,0.7,85.30668,79.761345,1.21,0.95,5.545335,0.26
41,121,0.7,83.16578,82.51637,1.19,0.95,0.64941,0.24
42,121,0.7,80.272224,80.93465,1.27,0.92,-0.662426,0.35
43,121,0.7,85.756996,82.14374,1.11,0.9,3.613256,0.21
44,121,0.7,80.99339,83.19761,0.97,0.9,-2.20422,0.07
45,121,0.7,85.239365,79.57059,1.07,0.96,5.668775,0.11
46,121,0.7,82.330215,76.252655,0.99,0.92,6.07756,0.07
47,121,0.7,80.35406,81.91666,0.96,0.93,-1.5626,0.03
48,121,0.7,80.11719,80.91494,0.98,0.94,-0.79775,0.04
49,121,0.7,84.48709,83.32458,0.9,0.92,1.16251,-0.02
50,121,0.7,82.82436,81.24852,0.92,0.85,1.57584,0.07
51,121,0.7,88.22014,83.583694,1.27,0.87,4.636446,0.4
52,121,0.7,89.818794,84.17129,1.1,0.85,5.647504,0.25
53,121,0.7,89.87723,81.72486,1.21,0.84,8.15237,0.37
54,121,0.7,86.83031,78.728966,0.9,0.88,8.101344,0.02
55,121,0.7,89.34593,82.31867,0.97,0.91,7.02726,0.06
56,121,0.7,85.607185,80.22702,0.85,0.83,5.380165,0.02
57,121,0.7,84.43089,82.74958,0.9,0.83,1.68131,0.07
58,121,0.7,79.951614,82.896225,0.89,0.9,-2.944611,-0.01
59,121,0.7,79.40098,78.86581,1.01,0.84,0.53517,0.17
60,121,0.7,81.150345,78.698425,0.93,0.76,2.45192,0.17
61,121,0.7,87.24395,80.49554,1,0.8,6.74841,0.2
62,121,0.7,84.310104,77.51109,0.92,0.85,6.799014,0.07
63,121,0.7,87.003494,76.8535,1.12,0.8,10.149994,0.32
64,121,0.7,85.75336,75.842316,0.88,0.84,9.911044,0.04
65,121,0.7,82.53816,75.824684,0.92,0.78,6.713476,0.14
66,121,0.7,80.94711,82.87125,0.86,0.79,-1.92414,0.07
67,121,0.7,84.68556,78.326645,0.91,0.86,6.358915,0.05
68,121,0.7,84.07007,74.973785,0.92,0.76,9.096285,0.16
69,121,0.7,79.84111,79.39517,0.85,0.88,0.44594,-0.03
70,121,0.7,77.076416,77.027405,0.89,0.75,0.049011,0.14
71,121,0.7,82.77442,80.70271,0.87,0.81,2.07171,0.06
72,121,0.7,85.018486,79.80924,0.88,0.79,5.209246,0.09
73,121,0.7,89.14868,80.51175,0.56,0.9,8.63693,-0.34
74,121,0.7,87.263626,78.98558,0.9,0.84,8.278046,0.06
75,121,0.7,83.15952,83.88868,0.87,0.84,-0.72916,0.03
76,121,0.7,79.17964,78.151146,0.93,0.85,1.028494,0.08
77,121,0.7,79.778496,82.22278,0.89,0.88,-2.444284,0.01
78,121,0.7,77.52443,83.486626,0.85,0.84,-5.962196,0.01
79,121,0.7,77.69186,83.10538,0.92,0.76,-5.41352,0.16
80,121,0.7,81.5012,77.88063,0.9,0.87,3.62057,0.03
81,121,0.7,81.79819,81.52671,0.9,0.75,0.27148,0.15
82,121,0.7,80.61769,85.10383,0.49,0.81,-4.48614,-0.32
83,121,0.7,76.3456,84.21293,0.76,0.9,-7.86733,-0.14
84,121,0.7,73.79813,75.419495,0.52,0.68,-1.621365,-0.16
85,121,0.7,73.988556,77.66034,0.75,0.76,-3.671784,-0.01
86,121,0.7,72.192314,78.9076,0.11,0.77,-6.715286,-0.66
87,121,0.7,72.74109,77.08458,0.57,0.38,-4.34349,0.19
88,121,0.7,71.62288,73.898865,0.11,0.58,-2.275985,-0.47
89,121,0.7,78.417595,76.17839,0.11,0.38,2.239205,-0.27
90,121,0.7,72.70931,79.883896,0.11,0.5,-7.174586,-0.39
91,121,0.7,73.598175,75.27971,0.11,0.33,-1.681535,-0.22
92,121,0.7,72.69906,79.13157,0.11,0.8,-6.43251,-0.69
93,121,0.7,74.66533,74.71114,0.11,0.59,-0.04581,-0.48
94,121,0.7,70.87096,74.07501,0.11,0.33,-3.20405,-0.22
95,121,0.7,74.01495,71.81584,0.11,0.22,2.19911,-0.11
96,121,0.7,72.16887,77.39409,0.11,0.5,-5.22522,-0.39
97,121,0.7,73.21822,73.6777,0.11,0.25,-0.45948,-0.14
98,121,0.7,74.79462,71.01944,0.11,0.21,3.77518,-0.1
99,121,0.7,73.111404,74.689156,0.11,0.28,-1.577752,-0.17
100,121,0.7,75.91746,73.73219,0.11,0.32,2.18527,-0.21
101,121,0.7,74.1785,69.25455,0.11,0.21,4.92395,-0.1
102,121,0.7,73.85965,71.31886,0.11,0.22,2.54079,-0.11
103,121,0.7,73.22955,70.87363,0.11,0.17,2.35592,-0.06
104,121,0.7,71.78034,72.40196,0.11,0.21,-0.62162,-0.1
105,121,0.7,72.40953,73.72956,0.11,0.18,-1.32003,-0.07
106,121,0.7,72.66868,71.740425,0.11,0.17,0.928255,-0.06
107,121,0.7,72.74592,71.98348,0.11,0.16,0.76244,-0.05
108,121,0.7,68.49071,70.8342,0.11,0.15,-2.34349,-0.04
21,121,1,80.21101,78.03396,1.5,1.39,2.17705,0.11
22,121,1,78.85885,78.837166,1.5,1.46,0.021684,0.04
23,121,1,78.711365,79.12492,1.5,1.38,-0.413555,0.12
24,121,1,80.53116,78.48271,1.5,1.37,2.04845,0.13
25,121,1,81.88104,79.50145,1.5,1.41,2.37959,0.09
26,121,1,78.98482,77.52885,1.5,1.37,1.45597,0.13
27,121,1,80.54956,79.57956,1.5,1.4,0.97,0.1
28,121,1,80.01449,79.74165,1.5,1.33,0.27284,0.17
29,121,1,80.02702,79.227905,1.5,1.36,0.799115,0.14
30,121,1,78.136604,82.47783,1.5,1.3,-4.341226,0.2
31,121,1,79.474365,79.00855,1.5,1.3,0.465815,0.2
32,121,1,81.48456,82.41685,1.46,1.33,-0.93229,0.13
33,121,1,83.80468,82.486336,1.39,1.32,1.318344,0.07
34,121,1,84.59973,80.09465,1.5,1.29,4.50508,0.21
35,121,1,81.59219,81.08807,1.5,1.29,0.50412,0.21
36,121,1,81.62858,82.02968,1.46,1.3,-0.4011,0.16
37,121,1,82.57124,81.8969,1.44,1.23,0.67434,0.21
38,121,1,82.41611,80.48353,1.46,1.24,1.93258,0.22
39,121,1,82.20947,79.1796,1.46,1.31,3.02987,0.15
40,121,1,85.15076,79.60222,1.48,1.21,5.54854,0.27
41,121,1,83.20768,81.955795,1.49,1.18,1.251885,0.31
42,121,1,80.05496,81.13606,1.33,1.21,-1.0811,0.12
43,121,1,85.774376,82.605705,1.37,1.2,3.168671,0.17
44,121,1,81.021996,83.27024,1.27,1.19,-2.248244,0.08
45,121,1,85.340454,79.00128,1.27,1.21,6.339174,0.06
46,121,1,82.25697,76.26474,1.24,1.22,5.99223,0.02
47,121,1,80.308685,81.88949,1.25,1.17,-1.580805,0.08
48,121,1,80.32788,80.92462,1.15,1.21,-0.59674,-0.06
49,121,1,84.468895,83.41045,1.17,1.17,1.058445,0
50,121,1,82.99559,81.405846,1.16,1.12,1.589744,0.04
51,121,1,88.21215,83.520615,1.5,1.12,4.691535,0.38
52,121,1,89.70976,84.06557,1.39,1.1,5.64419,0.29
53,121,1,90.00865,81.30443,1.23,1.06,8.70422,0.17
54,121,1,86.695625,78.2101,1.19,1.06,8.485525,0.13
55,121,1,89.4449,82.00407,1.3,1.17,7.44083,0.13
56,121,1,85.49579,79.82564,1.12,1.11,5.67015,0.01
57,121,1,84.26944,82.5574,1.2,1.11,1.71204,0.09
58,121,1,80.07393,82.64012,1.19,1.1,-2.56619,0.09
59,121,1,79.46018,79.52695,1.25,1.08,-0.06677,0.17
60,121,1,80.92559,78.745445,1.19,1.07,2.180145,0.12
61,121,1,87.156845,80.509926,1.27,1.08,6.646919,0.19
62,121,1,84.42848,77.39823,1.21,1.1,7.03025,0.11
63,121,1,87.02299,77.37725,1.22,1.11,9.64574,0.11
64,121,1,85.648346,76.36131,1.17,1.12,9.287036,0.05
65,121,1,82.72825,77.415375,1.15,1.06,5.312875,0.09
66,121,1,80.74553,82.86177,1.17,1.05,-2.11624,0.12
67,121,1,84.78227,78.41727,1.21,1.13,6.365,0.08
68,121,1,83.90201,74.6654,1.22,1.05,9.23661,0.17
69,121,1,80.1236,79.42086,1.15,1.14,0.70274,0.01
70,121,1,77.304,76.864944,1.2,1.09,0.439056,0.11
71,121,1,82.609436,80.29047,1.2,1.1,2.318966,0.1
72,121,1,84.88134,79.89216,1.17,1.07,4.98918,0.1
73,121,1,89.07837,80.56653,1.14,1.05,8.51184,0.09
74,121,1,87.33986,79.105934,1.19,1.05,8.233926,0.14
75,121,1,83.49435,84.05502,1.17,0.91,-0.56067,0.26
76,121,1,79.37376,78.081985,1.16,1.1,1.291775,0.06
77,121,1,80.497314,81.86777,1.18,1.18,-1.370456,0
78,121,1,77.6126,83.64169,1.15,1.11,-6.02909,0.04
79,121,1,77.512505,83.48505,1.17,1.07,-5.972545,0.1
80,121,1,81.84998,75.68582,1.14,1.06,6.16416,0.08
81,121,1,81.775795,81.68328,1.15,1.04,0.092515,0.11
82,121,1,80.60224,85.2243,0.5,1.09,-4.62206,-0.59
83,121,1,76.45735,83.882904,0.76,1.14,-7.425554,-0.38
84,121,1,73.77539,75.5888,0.92,0.68,-1.81341,0.24
85,121,1,74.70415,77.615875,0.75,0.95,-2.911725,-0.2
86,121,1,71.92247,78.87561,0.11,1.08,-6.95314,-0.97
87,121,1,72.87152,76.801544,0.57,0.38,-3.930024,0.19
88,121,1,71.60593,79.535034,0.11,0.58,-7.929104,-0.47
89,121,1,78.37875,76.17869,0.11,0.37,2.20006,-0.26
90,121,1,72.841965,79.662186,0.11,0.49,-6.820221,-0.38
91,121,1,74.59234,75.03409,0.11,0.33,-0.44175,-0.22
92,121,1,71.9955,79.307945,0.11,0.76,-7.312445,-0.65
93,121,1,75.022766,74.69383,0.11,0.59,0.328936,-0.48
94,121,1,70.34635,73.75413,0.11,0.33,-3.40778,-0.22
95,121,1,72.02521,73.40727,0.11,0.22,-1.38206,-0.11
96,121,1,73.03993,77.42308,0.11,0.5,-4.38315,-0.39
97,121,1,73.53049,73.89152,0.11,0.23,-0.36103,-0.12
98,121,1,74.9738,71.01566,0.11,0.35,3.95814,-0.24
99,121,1,73.422195,74.47127,0.11,0.28,-1.049075,-0.17
100,121,1,76.14293,73.60361,0.11,0.31,2.53932,-0.2
101,121,1,74.6373,69.53909,0.11,0.21,5.09821,-0.1
102,121,1,73.46626,70.86008,0.11,0.22,2.60618,-0.11
103,121,1,73.16569,70.66761,0.11,0.17,2.49808,-0.06
104,121,1,71.90706,72.13457,0.11,0.21,-0.22751,-0.1
105,121,1,72.544266,73.223175,0.11,0.18,-0.678909,-0.07
106,121,1,72.66932,71.95359,0.11,0.17,0.71573,-0.06
107,121,1,72.640976,73.29074,0.11,0.15,-0.649764,-0.04
108,121,1,68.13341,71.04501,0.11,0.15,-2.9116,-0.04
21,127,0.1,80.575264,77.32278,1.02,0.64,3.252484,0.38
22,127,0.1,79.791466,78.627625,1.26,0.61,1.163841,0.65
23,127,0.1,78.48427,78.8798,0.92,0.63,-0.39553,0.29
24,127,0.1,80.457184,77.94762,0.72,0.58,2.509564,0.14
25,127,0.1,80.70247,78.47075,0.93,0.62,2.23172,0.31
26,127,0.1,78.88583,78.11385,0.74,0.56,0.77198,0.18
27,127,0.1,80.550766,79.58271,0.71,0.59,0.968056,0.12
28,127,0.1,81.34177,80.089554,0.94,0.59,1.252216,0.35
29,127,0.1,77.6878,79.30194,0.81,0.55,-1.61414,0.26
30,127,0.1,78.54727,82.39965,0.83,0.58,-3.85238,0.25
31,127,0.1,79.772125,79.44827,0.78,0.61,0.323855,0.17
32,127,0.1,81.33132,82.18688,0.83,0.58,-0.85556,0.25
33,127,0.1,83.61638,82.23519,0.93,0.65,1.38119,0.28
34,127,0.1,84.580574,80.34532,0.69,0.6,4.235254,0.09
35,127,0.1,81.26152,81.61656,0.89,0.51,-0.35504,0.38
36,127,0.1,81.57465,81.87145,0.88,0.57,-0.2968,0.31
37,127,0.1,82.4664,82.90476,0.68,0.54,-0.43836,0.14
38,127,0.1,82.18831,80.81442,0.82,0.48,1.37389,0.34
39,127,0.1,82.30211,79.501656,0.76,0.51,2.800454,0.25
40,127,0.1,85.24118,82.33053,0.82,0.49,2.91065,0.33
41,127,0.1,83.06619,82.22107,0.78,0.5,0.84512,0.28
42,127,0.1,80.3057,81.49358,0.74,0.45,-1.18788,0.29
43,127,0.1,85.84875,82.41471,0.62,0.47,3.43404,0.15
44,127,0.1,80.837074,82.73541,0.67,0.41,-1.898336,0.26
45,127,0.1,85.055336,79.34399,0.57,0.46,5.711346,0.11
46,127,0.1,82.309,76.44986,0.56,0.42,5.85914,0.14
47,127,0.1,79.943535,81.79487,0.56,0.46,-1.851335,0.1
48,127,0.1,80.34524,80.86019,0.46,0.44,-0.51495,0.02
49,127,0.1,84.44758,83.50884,0.46,0.48,0.93874,-0.02
50,127,0.1,82.76957,81.61486,0.58,0.35,1.15471,0.23
51,127,0.1,88.27506,83.78781,0.78,0.36,4.48725,0.42
52,127,0.1,89.775406,83.98255,0.58,0.37,5.792856,0.21
53,127,0.1,89.9543,81.84652,0.39,0.42,8.10778,-0.03
54,127,0.1,86.803444,78.75064,0.34,0.37,8.052804,-0.03
55,127,0.1,89.3701,81.98031,0.5,0.38,7.38979,0.12
56,127,0.1,85.57083,79.75045,0.43,0.36,5.82038,0.07
57,127,0.1,84.55139,82.62056,0.44,0.39,1.93083,0.05
58,127,0.1,79.69792,82.93041,0.45,0.42,-3.23249,0.03
59,127,0.1,79.417595,79.34329,0.49,0.49,0.074305,0
60,127,0.1,81.13683,78.19867,0.42,0.47,2.93816,-0.05
61,127,0.1,87.02445,80.455986,0.46,0.46,6.568464,0
62,127,0.1,84.725204,77.553276,0.39,0.34,7.171928,0.05
63,127,0.1,87.03738,76.74496,0.42,0.37,10.29242,0.05
64,127,0.1,85.593445,75.769485,0.58,0.37,9.82396,0.21
65,127,0.1,82.678185,78.299385,0.42,0.36,4.3788,0.06
66,127,0.1,80.898544,82.95636,0.41,0.42,-2.057816,-0.01
67,127,0.1,84.749176,78.17231,0.38,0.43,6.576866,-0.05
68,127,0.1,83.88259,75.0887,0.41,0.46,8.79389,-0.05
69,127,0.1,79.88341,79.39149,0.37,0.33,0.49192,0.04
70,127,0.1,78.464386,77.004776,0.38,0.31,1.45961,0.07
71,127,0.1,82.44507,80.471825,0.4,0.44,1.973245,-0.04
72,127,0.1,85.132645,80.178406,0.41,0.37,4.954239,0.04
73,127,0.1,89.34831,80.49664,0.32,0.36,8.85167,-0.04
74,127,0.1,87.140465,79.223145,0.4,0.37,7.91732,0.03
75,127,0.1,83.12943,84.03872,0.35,0.41,-0.90929,-0.06
76,127,0.1,79.1897,78.08259,0.34,0.49,1.10711,-0.15
77,127,0.1,80.696205,81.96443,0.41,0.46,-1.268225,-0.05
78,127,0.1,77.64586,83.33084,0.38,0.36,-5.68498,0.02
79,127,0.1,77.85104,79.24677,0.37,0.39,-1.39573,-0.02
80,127,0.1,81.77167,75.61781,0.33,0.34,6.15386,-0.01
81,127,0.1,81.529236,81.926216,0.35,0.36,-0.39698,-0.01
82,127,0.1,80.93021,85.124664,0.35,0.35,-4.194454,0
83,127,0.1,76.36513,83.916794,0.37,0.33,-7.551664,0.04
84,127,0.1,73.28137,75.58559,0.35,0.34,-2.30422,0.01
85,127,0.1,74.58705,77.61661,0.32,0.39,-3.02956,-0.07
86,127,0.1,71.7312,78.80561,0.11,0.28,-7.07441,-0.17
87,127,0.1,72.77672,76.96352,0.36,0.4,-4.1868,-0.04
88,127,0.1,71.897194,73.29942,0.11,0.24,-1.402226,-0.13
89,127,0.1,78.3045,76.02285,0.11,0.43,2.28165,-0.32
90,127,0.1,72.902405,79.75905,0.11,0.49,-6.856645,-0.38
91,127,0.1,75.570816,75.12137,0.11,0.33,0.449446,-0.22
92,127,0.1,71.59788,82.23938,0.11,0.75,-10.6415,-0.64
93,127,0.1,74.962135,74.72172,0.11,0.59,0.240415,-0.48
94,127,0.1,71.27716,73.73393,0.11,0.33,-2.45677,-0.22
95,127,0.1,72.18932,71.32156,0.11,0.22,0.86776,-0.11
96,127,0.1,72.61041,76.11644,0.11,0.5,-3.50603,-0.39
97,127,0.1,73.1821,73.81719,0.11,0.23,-0.63509,-0.12
98,127,0.1,74.43907,79.688866,0.11,0.35,-5.249796,-0.24
99,127,0.1,72.36563,74.58309,0.11,0.28,-2.21746,-0.17
100,127,0.1,75.88336,74.57327,0.11,0.31,1.31009,-0.2
101,127,0.1,74.37744,69.0696,0.11,0.21,5.30784,-0.1
102,127,0.1,73.14764,70.522026,0.11,0.22,2.625614,-0.11
103,127,0.1,73.19585,71.05822,0.11,0.17,2.13763,-0.06
104,127,0.1,72.07801,72.22034,0.11,0.22,-0.14233,-0.11
105,127,0.1,72.44528,73.348206,0.11,0.18,-0.902926,-0.07
106,127,0.1,72.79152,72.05337,0.11,0.16,0.73815,-0.05
107,127,0.1,72.41874,71.31999,0.11,0.15,1.09875,-0.04
108,127,0.1,67.51874,70.86691,0.11,0.15,-3.34817,-0.04
21,127,0.3,80.59781,78.2448,1.2,0.85,2.35301,0.35
22,127,0.3,79.12822,78.247696,1.29,0.81,0.880524,0.48
23,127,0.3,80.04869,78.99727,1,0.8,1.05142,0.2
24,127,0.3,80.72689,78.14599,0.89,0.77,2.5809,0.12
25,127,0.3,82.14073,79.72806,1.02,0.82,2.41267,0.2
26,127,0.3,78.736305,77.8516,0.9,0.76,0.884705,0.14
27,127,0.3,80.41162,78.64749,0.93,0.77,1.76413,0.16
28,127,0.3,81.71853,79.97565,1.07,0.76,1.74288,0.31
29,127,0.3,79.958534,79.60437,0.92,0.78,0.354164,0.14
30,127,0.3,78.235275,82.421745,1,0.71,-4.18647,0.29
31,127,0.3,80.006996,78.862724,0.9,0.73,1.144272,0.17
32,127,0.3,81.60792,82.122536,0.86,0.75,-0.514616,0.11
33,127,0.3,83.82094,82.47237,1.03,0.74,1.34857,0.29
34,127,0.3,84.53829,80.17573,0.83,0.74,4.36256,0.09
35,127,0.3,82.25505,81.09638,0.99,0.71,1.15867,0.28
36,127,0.3,81.63185,82.05681,1.02,0.72,-0.42496,0.3
37,127,0.3,82.53496,83.41433,0.78,0.67,-0.87937,0.11
38,127,0.3,82.28652,80.81989,0.89,0.64,1.46663,0.25
39,127,0.3,82.27138,79.277145,0.86,0.67,2.994235,0.19
40,127,0.3,85.17908,79.796616,0.91,0.64,5.382464,0.27
41,127,0.3,83.32556,82.114624,0.9,0.63,1.210936,0.27
42,127,0.3,80.0629,81.16757,0.72,0.6,-1.10467,0.12
43,127,0.3,85.716965,81.927635,0.83,0.59,3.78933,0.24
44,127,0.3,80.82913,83.25367,0.66,0.58,-2.42454,0.08
45,127,0.3,84.7487,78.952545,0.76,0.6,5.796155,0.16
46,127,0.3,82.118355,76.769485,0.68,0.6,5.34887,0.08
47,127,0.3,80.24314,81.91362,0.75,0.64,-1.67048,0.11
48,127,0.3,80.21285,80.83768,0.61,0.65,-0.62483,-0.04
49,127,0.3,84.60718,83.52101,0.58,0.69,1.08617,-0.11
50,127,0.3,82.7954,81.43049,0.68,0.51,1.36491,0.17
51,127,0.3,88.18016,83.63464,0.98,0.53,4.54552,0.45
52,127,0.3,89.83794,83.898224,0.77,0.55,5.939716,0.22
53,127,0.3,89.975914,81.79198,0.76,0.59,8.183934,0.17
54,127,0.3,86.772255,78.22207,0.51,0.57,8.550185,-0.06
55,127,0.3,89.32102,82.205444,0.63,0.53,7.115576,0.1
56,127,0.3,85.663864,79.91024,0.48,0.55,5.753624,-0.07
57,127,0.3,84.202896,82.75156,0.53,0.57,1.451336,-0.04
58,127,0.3,79.889946,82.64145,0.63,0.6,-2.751504,0.03
59,127,0.3,79.35934,79.01531,0.69,0.61,0.34403,0.08
60,127,0.3,80.80526,78.45949,0.57,0.58,2.34577,-0.01
61,127,0.3,87.19876,80.739456,0.65,0.57,6.459304,0.08
62,127,0.3,84.37435,77.55753,0.56,0.49,6.81682,0.07
63,127,0.3,87.13792,77.15963,0.87,0.51,9.97829,0.36
64,127,0.3,85.916595,75.98729,0.82,0.41,9.929305,0.41
65,127,0.3,82.51835,76.083916,0.58,0.5,6.434434,0.08
66,127,0.3,81.124626,82.84935,0.55,0.55,-1.724724,0
67,127,0.3,84.71476,78.40816,0.55,0.54,6.3066,0.01
68,127,0.3,84.05821,75.226265,0.58,0.43,8.831945,0.15
69,127,0.3,79.279465,79.490204,0.54,0.5,-0.210739,0.04
70,127,0.3,77.289,77.072815,0.53,0.47,0.216185,0.06
71,127,0.3,82.42691,80.54289,0.54,0.61,1.88402,-0.07
72,127,0.3,84.98918,80.15163,0.58,0.51,4.83755,0.07
73,127,0.3,89.02832,80.38062,0.49,0.52,8.6477,-0.03
74,127,0.3,86.97892,79.22565,0.56,0.52,7.75327,0.04
75,127,0.3,82.82748,84.147766,0.52,0.58,-1.320286,-0.06
76,127,0.3,79.087296,77.84314,0.54,0.55,1.244156,-0.01
77,127,0.3,80.38881,81.944046,0.57,0.53,-1.555236,0.04
78,127,0.3,77.17046,83.43933,0.53,0.44,-6.26887,0.09
79,127,0.3,77.71815,79.10356,0.53,0.51,-1.38541,0.02
80,127,0.3,82.02203,75.55764,0.47,0.47,6.46439,0
81,127,0.3,82.13188,81.84366,0.52,0.57,0.28822,-0.05
82,127,0.3,78.817825,85.02277,0.42,0.42,-6.204945,0
83,127,0.3,76.49041,84.0404,0.47,0.4,-7.54999,0.07
84,127,0.3,73.38624,75.47119,0.11,0.5,-2.08495,-0.39
85,127,0.3,74.27365,77.633224,0.46,0.53,-3.359574,-0.07
86,127,0.3,71.61592,78.88014,0.11,0.4,-7.26422,-0.29
87,127,0.3,72.72699,77.005325,0.32,0.38,-4.278335,-0.06
88,127,0.3,71.72307,73.51113,0.11,0.41,-1.78806,-0.3
89,127,0.3,78.52157,76.14127,0.11,0.4,2.3803,-0.29
90,127,0.3,73.1055,79.87092,0.11,0.49,-6.76542,-0.38
91,127,0.3,74.127716,75.276306,0.11,0.33,-1.14859,-0.22
92,127,0.3,73.42963,82.534004,0.11,0.58,-9.104374,-0.47
93,127,0.3,74.45131,74.583206,0.11,0.6,-0.131896,-0.49
94,127,0.3,70.910355,74.33426,0.11,0.33,-3.423905,-0.22
95,127,0.3,74.11635,71.419365,0.11,0.22,2.696985,-0.11
96,127,0.3,72.062355,76.15958,0.11,0.51,-4.097225,-0.4
97,127,0.3,73.225685,73.7553,0.11,0.25,-0.529615,-0.14
98,127,0.3,74.6823,70.73734,0.11,0.35,3.94496,-0.24
99,127,0.3,72.93907,74.248566,0.11,0.28,-1.309496,-0.17
100,127,0.3,76.25008,73.939316,0.11,0.31,2.310764,-0.2
101,127,0.3,74.030594,69.05295,0.11,0.21,4.977644,-0.1
102,127,0.3,73.13572,71.05857,0.11,0.22,2.07715,-0.11
103,127,0.3,73.25615,70.81618,0.11,0.17,2.43997,-0.06
104,127,0.3,72.103004,72.70867,0.11,0.21,-0.605666,-0.1
105,127,0.3,72.69838,73.269485,0.11,0.18,-0.571105,-0.07
106,127,0.3,72.97539,72.03936,0.11,0.16,0.93603,-0.05
107,127,0.3,72.53659,71.78374,0.11,0.14,0.75285,-0.03
108,127,0.3,68.274956,70.76506,0.11,0.15,-2.490104,-0.04
21,127,0.7,80.39542,77.63313,1.5,1.25,2.76229,0.25
22,127,0.7,78.74974,78.56237,1.5,1.19,0.18737,0.31
23,127,0.7,78.988914,78.730675,1.3,1.17,0.258239,0.13
24,127,0.7,80.9555,78.100296,1.26,1.12,2.855204,0.14
25,127,0.7,82.22358,78.5316,1.41,1.12,3.69198,0.29
26,127,0.7,78.93357,77.801636,1.3,1.14,1.131934,0.16
27,127,0.7,80.51618,79.135735,1.2,1.29,1.380445,-0.09
28,127,0.7,81.68169,79.85208,1.32,1.13,1.82961,0.19
29,127,0.7,80.0254,79.24814,1.29,1.19,0.77726,0.1
30,127,0.7,78.163475,82.46559,1.34,1.1,-4.302115,0.24
31,127,0.7,80.02597,79.114006,1.19,1.07,0.911964,0.12
32,127,0.7,81.63732,82.09479,1.17,1.11,-0.45747,0.06
33,127,0.7,83.715645,82.46622,1.3,1.07,1.249425,0.23
34,127,0.7,84.66863,80.154686,1.23,1.05,4.513944,0.18
35,127,0.7,81.83038,81.22732,1.36,1.02,0.60306,0.34
36,127,0.7,81.48634,82.108986,1.26,1.06,-0.622646,0.2
37,127,0.7,82.40597,82.80112,1.11,0.97,-0.39515,0.14
38,127,0.7,82.55533,80.90628,1.19,0.98,1.64905,0.21
39,127,0.7,82.28722,79.10457,1.2,1.04,3.18265,0.16
40,127,0.7,85.39034,79.70492,1.21,0.96,5.68542,0.25
41,127,0.7,83.05927,82.164505,1.21,0.95,0.894765,0.26
42,127,0.7,80.18551,81.19585,1.22,0.92,-1.01034,0.3
43,127,0.7,85.717186,82.49812,1.19,0.9,3.219066,0.29
44,127,0.7,80.960915,83.470505,0.98,0.9,-2.50959,0.08
45,127,0.7,85.181656,79.367516,1.09,0.95,5.81414,0.14
46,127,0.7,81.40048,76.43082,0.99,0.92,4.96966,0.07
47,127,0.7,80.34116,81.92487,0.96,0.91,-1.58371,0.05
48,127,0.7,80.16368,81.08031,0.92,0.96,-0.91663,-0.04
49,127,0.7,84.49209,83.43034,0.9,0.94,1.06175,-0.04
50,127,0.7,83.01614,81.38057,0.92,0.85,1.63557,0.07
51,127,0.7,88.23036,83.68184,1.26,0.87,4.54852,0.39
52,127,0.7,89.80553,83.88591,1.11,0.84,5.91962,0.27
53,127,0.7,90.00673,81.46454,1.21,0.84,8.54219,0.37
54,127,0.7,86.61179,78.4104,0.9,0.88,8.20139,0.02
55,127,0.7,89.38296,81.98266,1.01,0.91,7.4003,0.1
56,127,0.7,85.84979,80.424515,0.84,0.83,5.425275,0.01
57,127,0.7,84.3884,82.5762,0.92,0.83,1.8122,0.09
58,127,0.7,79.82451,82.671555,0.89,0.9,-2.847045,-0.01
59,127,0.7,79.27685,79.16238,1,0.84,0.11447,0.16
60,127,0.7,81.11204,78.27228,0.93,0.76,2.83976,0.17
61,127,0.7,87.21828,80.48836,1,0.81,6.72992,0.19
62,127,0.7,84.9628,77.67746,0.92,0.84,7.28534,0.08
63,127,0.7,87.118004,76.852,1.12,0.8,10.266004,0.32
64,127,0.7,85.61225,76.41,0.88,0.84,9.20225,0.04
65,127,0.7,82.49517,75.578,0.92,0.78,6.91717,0.14
66,127,0.7,81.11692,83.39651,0.91,0.79,-2.27959,0.12
67,127,0.7,84.86124,78.14016,0.91,0.86,6.72108,0.05
68,127,0.7,83.818245,74.87254,0.92,0.76,8.945705,0.16
69,127,0.7,79.92905,79.334885,0.85,0.87,0.594165,-0.02
70,127,0.7,77.65886,77.209335,0.9,0.76,0.449525,0.14
71,127,0.7,82.747116,80.41325,0.88,0.81,2.333866,0.07
72,127,0.7,85.063095,79.89339,0.88,0.79,5.169705,0.09
73,127,0.7,88.915855,80.51939,0.85,0.89,8.396465,-0.04
74,127,0.7,87.12486,78.786606,0.9,0.84,8.338254,0.06
75,127,0.7,83.51719,84.12225,0.86,0.84,-0.60506,0.02
76,127,0.7,79.371826,78.21562,0.93,0.85,1.156206,0.08
77,127,0.7,80.52177,81.93288,0.94,0.88,-1.41111,0.06
78,127,0.7,77.48142,83.2858,0.85,0.84,-5.80438,0.01
79,127,0.7,77.742805,79.14378,0.92,0.76,-1.400975,0.16
80,127,0.7,81.791,75.80199,0.9,0.87,5.98901,0.03
81,127,0.7,81.634026,81.971664,0.87,0.74,-0.337638,0.13
82,127,0.7,80.34813,85.03291,0.44,0.81,-4.68478,-0.37
83,127,0.7,76.34347,83.84917,0.76,0.9,-7.5057,-0.14
84,127,0.7,73.56414,75.52903,0.52,0.69,-1.96489,-0.17
85,127,0.7,74.406166,77.604095,0.76,0.76,-3.197929,0
86,127,0.7,71.914185,78.910416,0.11,0.77,-6.996231,-0.66
87,127,0.7,73.012726,76.860985,0.32,0.38,-3.848259,-0.06
88,127,0.7,72.22862,73.55464,0.11,0.58,-1.32602,-0.47
89,127,0.7,78.43464,76.362595,0.11,0.37,2.072045,-0.26
90,127,0.7,73.00864,79.79307,0.11,0.49,-6.78443,-0.38
91,127,0.7,74.64699,75.28534,0.11,0.33,-0.63835,-0.22
92,127,0.7,71.24116,79.14216,0.11,0.57,-7.901,-0.46
93,127,0.7,74.41902,74.436325,0.11,0.6,-0.017305,-0.49
94,127,0.7,70.7966,73.84658,0.11,0.33,-3.04998,-0.22
95,127,0.7,73.64392,71.67775,0.11,0.22,1.96617,-0.11
96,127,0.7,72.945175,77.40845,0.11,0.52,-4.463275,-0.41
97,127,0.7,73.27393,74.45046,0.11,0.23,-1.17653,-0.12
98,127,0.7,74.62238,71.57536,0.11,0.35,3.04702,-0.24
99,127,0.7,72.984436,72.6259,0.11,0.28,0.358536,-0.17
100,127,0.7,76.10651,74.0345,0.11,0.31,2.07201,-0.2
101,127,0.7,71.9716,69.07944,0.11,0.22,2.89216,-0.11
102,127,0.7,73.109276,71.311935,0.11,0.22,1.797341,-0.11
103,127,0.7,73.17828,70.41304,0.11,0.17,2.76524,-0.06
104,127,0.7,71.954346,72.41531,0.11,0.22,-0.460964,-0.11
105,127,0.7,72.36882,73.209305,0.11,0.18,-0.840485,-0.07
106,127,0.7,72.820145,71.46811,0.11,0.16,1.352035,-0.05
107,127,0.7,72.730354,71.55669,0.11,0.14,1.173664,-0.03
108,127,0.7,68.159515,70.7413,0.11,0.15,-2.581785,-0.04
21,127,1,80.875916,78.06819,1.5,1.43,2.807726,0.07
22,127,1,78.94911,80.20787,1.5,1.46,-1.25876,0.04
23,127,1,78.84272,79.31402,1.46,1.41,-0.4713,0.05
24,127,1,80.85416,77.989944,1.5,1.4,2.864216,0.1
25,127,1,82.1301,80.09727,1.5,1.4,2.03283,0.1
26,127,1,78.478165,77.94407,1.5,1.38,0.534095,0.12
27,127,1,80.326744,79.320625,1.48,1.38,1.006119,0.1
28,127,1,81.53392,79.93641,1.5,1.33,1.59751,0.17
29,127,1,80.184944,79.54225,1.5,1.42,0.642694,0.08
30,127,1,78.35196,82.41031,1.5,1.3,-4.05835,0.2
31,127,1,80.10585,80.69583,1.49,1.3,-0.58998,0.19
32,127,1,81.73497,82.10045,1.48,1.33,-0.36548,0.15
33,127,1,83.91803,82.27116,1.39,1.32,1.64687,0.07
34,127,1,84.85569,80.66738,1.46,1.29,4.18831,0.17
35,127,1,81.990326,81.59581,1.5,1.29,0.394516,0.21
36,127,1,81.71437,82.01541,1.49,1.29,-0.30104,0.2
37,127,1,82.21026,82.706985,1.41,1.23,-0.496725,0.18
38,127,1,82.43299,80.70459,1.48,1.24,1.7284,0.24
39,127,1,82.391174,79.054504,1.45,1.31,3.33667,0.14
40,127,1,85.36842,80.03984,1.48,1.23,5.32858,0.25
41,127,1,83.161316,82.28462,1.5,1.19,0.876696,0.31
42,127,1,80.18073,81.28845,1.34,1.21,-1.10772,0.13
43,127,1,85.74505,82.21175,1.37,1.2,3.5333,0.17
44,127,1,81.22439,83.424355,1.27,1.18,-2.199965,0.09
45,127,1,84.93583,79.17935,1.26,1.21,5.75648,0.05
46,127,1,82.221344,76.166275,1.24,1.22,6.055069,0.02
47,127,1,80.416824,81.853455,1.26,1.17,-1.436631,0.09
48,127,1,80.30061,80.89896,1.17,1.21,-0.59835,-0.04
49,127,1,84.427956,83.29786,1.17,1.18,1.130096,-0.01
50,127,1,82.790726,81.6045,1.16,1.12,1.186226,0.04
51,127,1,88.22361,83.469765,1.47,1.12,4.753845,0.35
52,127,1,89.78003,83.95832,1.4,1.09,5.82171,0.31
53,127,1,89.9997,81.50429,1.23,1.05,8.49541,0.18
54,127,1,86.78703,78.544106,1.2,1.06,8.242924,0.14
55,127,1,89.257484,82.1559,1.27,1.17,7.101584,0.1
56,127,1,85.82772,79.95326,1.12,1.11,5.87446,0.01
57,127,1,83.703896,82.724525,1.19,1.11,0.979371,0.08
58,127,1,80.08782,82.80206,1.19,1.1,-2.71424,0.09
59,127,1,79.50228,79.07081,1.25,1.09,0.43147,0.16
60,127,1,80.847046,78.39769,1.19,1.07,2.449356,0.12
61,127,1,87.27696,80.64277,1.27,1.08,6.63419,0.19
62,127,1,84.553696,77.38949,1.21,1.1,7.164206,0.11
63,127,1,87.06311,76.95944,1.23,1.1,10.10367,0.13
64,127,1,85.46742,76.037125,1.17,1.13,9.430295,0.04
65,127,1,82.486595,76.1463,1.15,1.05,6.340295,0.1
66,127,1,80.55931,82.94662,1.17,1.06,-2.38731,0.11
67,127,1,84.779175,77.83354,1.21,1.13,6.945635,0.08
68,127,1,83.82738,73.14443,1.22,1.05,10.68295,0.17
69,127,1,80.15769,78.85503,1.15,1.14,1.30266,0.01
70,127,1,77.28901,76.968704,1.2,1.09,0.320306,0.11
71,127,1,82.74961,80.544754,1.2,1.1,2.204856,0.1
72,127,1,85.11972,79.88968,1.17,1.06,5.23004,0.11
73,127,1,89.14327,77.37286,0.56,1.05,11.77041,-0.49
74,127,1,87.114685,77.63938,1.19,1.05,9.475305,0.14
75,127,1,82.9373,83.778656,1.16,0.93,-0.841356,0.23
76,127,1,79.13444,78.25325,1.16,1.1,0.88119,0.06
77,127,1,80.69953,77.34104,1.18,1.18,3.35849,0
78,127,1,77.2079,83.271286,1.14,1.06,-6.063386,0.08
79,127,1,77.6756,79.23476,1.16,1.07,-1.55916,0.09
80,127,1,82.001755,74.300995,1.14,1.05,7.70076,0.09
81,127,1,81.95863,81.95584,1.15,1.05,0.00279,0.1
82,127,1,79.81492,85.18901,0.43,1.09,-5.37409,-0.66
83,127,1,76.49858,84.00676,0.76,1.15,-7.50818,-0.39
84,127,1,73.25879,72.93453,0.11,0.69,0.32426,-0.58
85,127,1,74.02942,77.11972,0.75,0.95,-3.0903,-0.2
86,127,1,71.73968,78.94275,0.11,1.08,-7.20307,-0.97
87,127,1,72.791245,76.611565,0.32,0.38,-3.82032,-0.06
88,127,1,71.88617,73.43628,0.11,0.58,-1.55011,-0.47
89,127,1,78.526596,75.89356,0.11,0.37,2.633036,-0.26
90,127,1,72.640045,79.699066,0.11,0.51,-7.059021,-0.4
91,127,1,73.91847,73.54866,0.11,0.33,0.36981,-0.22
92,127,1,70.83483,77.53142,0.11,0.55,-6.69659,-0.44
93,127,1,74.91255,75.09435,0.11,0.6,-0.1818,-0.49
94,127,1,70.973915,74.26758,0.11,0.33,-3.293665,-0.22
95,127,1,71.66127,73.04322,0.11,0.22,-1.38195,-0.11
96,127,1,72.969406,77.319695,0.11,0.52,-4.350289,-0.41
97,127,1,73.30119,66.08438,0.11,0.16,7.21681,-0.05
98,127,1,74.908005,72.01749,0.11,0.35,2.890515,-0.24
99,127,1,73.39539,72.184746,0.11,0.28,1.210644,-0.17
100,127,1,76.072624,73.0619,0.11,0.31,3.010724,-0.2
101,127,1,74.0811,69.41917,0.11,0.22,4.66193,-0.11
102,127,1,73.85866,69.4605,0.11,0.22,4.39816,-0.11
103,127,1,73.50251,70.145584,0.11,0.17,3.356926,-0.06
104,127,1,71.686714,68.268005,0.11,0.22,3.418709,-0.11
105,127,1,72.17905,71.5808,0.11,0.18,0.59825,-0.07
106,127,1,72.892395,69.06771,0.11,0.16,3.824685,-0.05
107,127,1,72.693344,69.08922,0.11,0.14,3.604124,-0.03
108,127,1,68.13666,67.69561,0.11,0.15,0.44105,-0.04
